<svg width="100" height="100" viewBox="0 0 100 100" fill="none" xmlns="http://www.w3.org/2000/svg">
<path d="M97.2557 47.9201C97.2557 35.9065 92.5064 24.5957 83.8672 16.0971C79.5553 11.8477 74.525 8.55138 69.057 6.31739C63.5891 4.08341 57.6838 2.91173 51.5754 2.91173C46.6699 2.91173 41.9519 3.67716 37.5307 5.09884C36.3433 3.72423 34.906 2.56798 33.2658 1.72443C31.641 0.880871 29.8289 0.333995 27.876 0.146495C19.924 -0.65038 13.2687 2.05235 8.67577 7.92638C1.87987 16.6281 0.833195 31.1883 6.00429 45.1393C5.94179 46.061 5.89491 46.9828 5.89491 47.9201C5.89491 59.9494 10.6598 71.2445 19.2678 79.7432C27.8914 88.2574 39.374 92.9129 51.5596 92.9129C53.6531 92.9129 55.6996 92.7723 57.7148 92.491C59.5426 95.6 62.5266 97.959 66.276 99.0057C68.5881 99.6617 70.8223 99.9899 72.9937 99.9899C78.0555 99.9899 82.6641 98.2244 86.5853 94.7406C94.8498 87.3824 98.5053 73.2285 95.9434 58.5744C96.8025 55.1535 97.2557 51.5914 97.2557 47.9201ZM11.1754 9.83243C14.6435 5.42677 19.4709 3.13048 25.2668 3.13048C26.0168 3.13048 26.7822 3.17735 27.5633 3.25548C30.4223 3.53673 32.625 4.69278 34.2496 6.23946C25.0168 8.95782 18.2678 15.2693 14.1279 20.2998C13.581 20.9715 13.6904 21.9559 14.3623 22.5025C14.6592 22.7369 15.0184 22.8463 15.3621 22.8463C15.8309 22.8463 16.2838 22.6588 16.5807 22.2684C20.6113 17.3785 27.2666 11.192 36.3275 8.91095C36.9525 10.0358 37.3898 11.1918 37.6242 12.2699C38.4053 15.9881 37.468 20.9404 32.4219 23.7369C32.1562 23.9088 31.8596 24.0492 31.5471 24.1899C31.3752 24.268 31.2658 24.2992 31.1564 24.3461C30.0473 24.8461 28.8756 25.3615 27.657 25.9084C20.0176 29.236 10.9252 33.2043 7.47265 39.344C4.45761 27.9233 5.76991 16.7375 11.1754 9.83243ZM56.4182 89.5231C56.4025 89.5231 56.4025 89.5231 56.4025 89.5231C54.809 89.6949 53.1998 89.7887 51.5596 89.7887C49.0443 89.7887 46.5603 89.5699 44.1232 89.1483C44.2951 88.0547 44.3107 86.883 44.1389 85.7113C43.9514 84.4303 43.5607 83.1961 43.1703 82.0088C42.0611 78.6188 41.6549 76.9158 44.2795 75.1975C45.5293 74.3227 47.0135 74.1506 48.0289 74.1506H48.4508C49.1695 74.1506 49.9662 74.1662 50.8723 73.9631C52.3252 73.5258 53.3719 72.6352 53.7781 71.3697C54.4187 68.792 51.8098 67.0422 50.9973 66.4799C50.7316 66.308 50.5285 66.1205 50.3723 65.933C51.1377 66.0424 51.9346 66.2455 52.7625 66.4643L53.1531 66.558C54.9342 66.933 56.9963 67.2611 58.8865 66.4018C60.1519 65.8549 61.1986 64.777 61.6518 63.4803C62.0424 62.4178 61.9797 61.3088 61.4643 60.3713C60.4019 58.4186 58.1678 58.0123 56.5588 57.7154L55.965 57.6061C53.4654 57.1217 51.2002 55.7156 49.7473 53.7629C49.2316 53.0912 48.7787 52.3412 48.31 51.5445C47.5601 50.3104 46.8103 49.0293 45.701 47.9201C43.4982 45.733 39.6238 44.7486 37.2023 46.9985C35.3746 48.7795 35.515 51.4666 35.765 52.9352C35.89 53.5756 36.0775 54.2162 36.265 54.8567C36.515 55.7471 36.765 56.5908 36.7961 57.3719C36.8117 58.3561 36.4211 59.5277 35.7182 59.7621C34.8121 60.0121 33.4998 59.1059 32.5781 58.4186C31.9844 57.9342 31.3596 57.45 30.7502 56.9656C30.0471 56.419 29.3441 55.8721 28.6881 55.3567C26.3135 53.4818 23.9701 51.451 23.9389 49.1076C23.9389 47.686 24.8449 46.233 26.0947 45.6551C27.032 45.2022 28.1883 45.1084 29.4223 45.0147C30.3596 44.9209 31.3437 44.8428 32.3437 44.5928C35.8588 43.7024 38.6865 40.7496 39.3582 37.2971C39.8582 35.0006 39.1082 32.251 36.7648 31.4387C35.4369 30.9387 34.109 31.3137 33.1248 31.5949L32.8904 31.6574C27.6412 33.3135 23.1576 33.8445 19.2832 33.3135C22.3764 31.6262 25.7822 30.1264 28.9379 28.7516C30.1721 28.2205 31.3594 27.6893 32.3904 27.2205C32.3904 27.2205 32.5623 27.158 32.8748 27.033C33.2809 26.8299 33.6871 26.6424 34.0309 26.4393C36.4211 25.1113 38.2644 23.2055 39.4674 20.9713L39.7799 21.4086C41.2795 23.4863 43.3418 26.3141 46.4662 27.7201C47.4504 28.1731 48.4816 28.3918 49.4971 28.3918C50.1844 28.3918 50.825 28.2981 51.4812 28.0949C54.59 27.0951 54.9182 24.5955 55.1369 22.9551C55.2461 22.0957 55.3555 21.3615 55.715 20.9865C56.1057 20.5803 56.9492 20.5022 57.9334 20.4242C58.9644 20.3461 60.1361 20.2367 61.2141 19.6742C64.5887 17.9244 64.3543 13.4877 64.2449 11.5818C64.1824 10.1133 64.3074 8.91036 64.6043 8.05118C68.1975 9.17599 71.6187 10.7852 74.7744 12.8317C73.4621 14.0658 72.0717 15.3938 70.5408 16.9404C69.5723 17.909 68.6037 18.9713 68.26 20.4399C67.885 21.9553 68.3381 23.3457 68.7287 24.5643C68.9318 25.1893 69.135 25.7985 69.1975 26.361C69.416 28.017 68.3693 30.001 66.4166 31.6568C65.5262 32.4068 64.5262 33.0629 63.4795 33.766C62.3234 34.5158 61.1517 35.2971 60.0582 36.2344C57.2617 38.6402 55.9184 41.624 56.3713 44.4205C57.1836 49.3885 62.7609 51.3256 66.026 52.0443L67.057 52.2629C70.2129 52.9348 73.4935 53.6221 75.1184 55.8717C76.6338 57.9652 76.2744 60.9178 75.915 62.5113C75.6182 63.808 75.1963 65.0891 74.7434 66.4326C74.3527 67.5574 73.9623 68.7135 73.6654 69.9008C72.5719 70.1664 71.4939 70.4318 70.4316 70.6818C69.1037 70.9943 67.8383 71.3067 66.7291 71.5879C66.7291 71.5879 66.5572 71.6191 66.2447 71.6971C65.7916 71.8065 65.3699 71.9315 65.0105 72.0721C59.199 74.0404 55.559 79.3053 55.7307 85.4606C55.7621 86.8828 55.9965 88.242 56.4182 89.5231ZM84.4607 92.4131C79.7115 96.6313 73.7437 97.8654 67.151 96.0063C64.3859 95.2252 62.4486 93.6785 61.1363 91.882C70.6973 90.8352 78.4773 85.8361 83.4609 81.6024C84.1172 81.04 84.1953 80.0557 83.6328 79.3996C83.0549 78.7434 82.0393 78.6809 81.3988 79.2434C76.5402 83.3365 68.8852 88.2576 59.574 88.8824C59.1521 87.6951 58.918 86.4922 58.8867 85.3674C58.793 81.5867 60.6053 76.8688 66.0732 75.0096C66.3855 74.8846 66.698 74.8067 67.0105 74.7283C67.2137 74.6815 67.323 74.6502 67.4324 74.6346C68.6197 74.3223 69.8695 74.0254 71.1662 73.7129C79.29 71.7912 88.9447 69.4791 93.4596 64.0426C94.3498 75.8065 91.0379 86.586 84.4607 92.4131Z" fill="#9797A8"/>
<path d="M97.2557 47.9201C97.2557 35.9065 92.5064 24.5957 83.8672 16.0971C79.5553 11.8477 74.525 8.55138 69.057 6.31739C63.5891 4.08341 57.6838 2.91173 51.5754 2.91173C46.6699 2.91173 41.9519 3.67716 37.5307 5.09884C36.3433 3.72423 34.906 2.56798 33.2658 1.72443C31.641 0.880871 29.8289 0.333995 27.876 0.146495C19.924 -0.65038 13.2687 2.05235 8.67577 7.92638C1.87987 16.6281 0.833195 31.1883 6.00429 45.1393C5.94179 46.061 5.89491 46.9828 5.89491 47.9201C5.89491 59.9494 10.6598 71.2445 19.2678 79.7432C27.8914 88.2574 39.374 92.9129 51.5596 92.9129C53.6531 92.9129 55.6996 92.7723 57.7148 92.491C59.5426 95.6 62.5266 97.959 66.276 99.0057C68.5881 99.6617 70.8223 99.9899 72.9937 99.9899C78.0555 99.9899 82.6641 98.2244 86.5853 94.7406C94.8498 87.3824 98.5053 73.2285 95.9434 58.5744C96.8025 55.1535 97.2557 51.5914 97.2557 47.9201ZM11.1754 9.83243C14.6435 5.42677 19.4709 3.13048 25.2668 3.13048C26.0168 3.13048 26.7822 3.17735 27.5633 3.25548C30.4223 3.53673 32.625 4.69278 34.2496 6.23946C25.0168 8.95782 18.2678 15.2693 14.1279 20.2998C13.581 20.9715 13.6904 21.9559 14.3623 22.5025C14.6592 22.7369 15.0184 22.8463 15.3621 22.8463C15.8309 22.8463 16.2838 22.6588 16.5807 22.2684C20.6113 17.3785 27.2666 11.192 36.3275 8.91095C36.9525 10.0358 37.3898 11.1918 37.6242 12.2699C38.4053 15.9881 37.468 20.9404 32.4219 23.7369C32.1562 23.9088 31.8596 24.0492 31.5471 24.1899C31.3752 24.268 31.2658 24.2992 31.1564 24.3461C30.0473 24.8461 28.8756 25.3615 27.657 25.9084C20.0176 29.236 10.9252 33.2043 7.47265 39.344C4.45761 27.9233 5.76991 16.7375 11.1754 9.83243ZM56.4182 89.5231C56.4025 89.5231 56.4025 89.5231 56.4025 89.5231C54.809 89.6949 53.1998 89.7887 51.5596 89.7887C49.0443 89.7887 46.5603 89.5699 44.1232 89.1483C44.2951 88.0547 44.3107 86.883 44.1389 85.7113C43.9514 84.4303 43.5607 83.1961 43.1703 82.0088C42.0611 78.6188 41.6549 76.9158 44.2795 75.1975C45.5293 74.3227 47.0135 74.1506 48.0289 74.1506H48.4508C49.1695 74.1506 49.9662 74.1662 50.8723 73.9631C52.3252 73.5258 53.3719 72.6352 53.7781 71.3697C54.4187 68.792 51.8098 67.0422 50.9973 66.4799C50.7316 66.308 50.5285 66.1205 50.3723 65.933C51.1377 66.0424 51.9346 66.2455 52.7625 66.4643L53.1531 66.558C54.9342 66.933 56.9963 67.2611 58.8865 66.4018C60.1519 65.8549 61.1986 64.777 61.6518 63.4803C62.0424 62.4178 61.9797 61.3088 61.4643 60.3713C60.4019 58.4186 58.1678 58.0123 56.5588 57.7154L55.965 57.6061C53.4654 57.1217 51.2002 55.7156 49.7473 53.7629C49.2316 53.0912 48.7787 52.3412 48.31 51.5445C47.5601 50.3104 46.8103 49.0293 45.701 47.9201C43.4982 45.733 39.6238 44.7486 37.2023 46.9985C35.3746 48.7795 35.515 51.4666 35.765 52.9352C35.89 53.5756 36.0775 54.2162 36.265 54.8567C36.515 55.7471 36.765 56.5908 36.7961 57.3719C36.8117 58.3561 36.4211 59.5277 35.7182 59.7621C34.8121 60.0121 33.4998 59.1059 32.5781 58.4186C31.9844 57.9342 31.3596 57.45 30.7502 56.9656C30.0471 56.419 29.3441 55.8721 28.6881 55.3567C26.3135 53.4818 23.9701 51.451 23.9389 49.1076C23.9389 47.686 24.8449 46.233 26.0947 45.6551C27.032 45.2022 28.1883 45.1084 29.4223 45.0147C30.3596 44.9209 31.3437 44.8428 32.3437 44.5928C35.8588 43.7024 38.6865 40.7496 39.3582 37.2971C39.8582 35.0006 39.1082 32.251 36.7648 31.4387C35.4369 30.9387 34.109 31.3137 33.1248 31.5949L32.8904 31.6574C27.6412 33.3135 23.1576 33.8445 19.2832 33.3135C22.3764 31.6262 25.7822 30.1264 28.9379 28.7516C30.1721 28.2205 31.3594 27.6893 32.3904 27.2205C32.3904 27.2205 32.5623 27.158 32.8748 27.033C33.2809 26.8299 33.6871 26.6424 34.0309 26.4393C36.4211 25.1113 38.2644 23.2055 39.4674 20.9713L39.7799 21.4086C41.2795 23.4863 43.3418 26.3141 46.4662 27.7201C47.4504 28.1731 48.4816 28.3918 49.4971 28.3918C50.1844 28.3918 50.825 28.2981 51.4812 28.0949C54.59 27.0951 54.9182 24.5955 55.1369 22.9551C55.2461 22.0957 55.3555 21.3615 55.715 20.9865C56.1057 20.5803 56.9492 20.5022 57.9334 20.4242C58.9644 20.3461 60.1361 20.2367 61.2141 19.6742C64.5887 17.9244 64.3543 13.4877 64.2449 11.5818C64.1824 10.1133 64.3074 8.91036 64.6043 8.05118C68.1975 9.17599 71.6187 10.7852 74.7744 12.8317C73.4621 14.0658 72.0717 15.3938 70.5408 16.9404C69.5723 17.909 68.6037 18.9713 68.26 20.4399C67.885 21.9553 68.3381 23.3457 68.7287 24.5643C68.9318 25.1893 69.135 25.7985 69.1975 26.361C69.416 28.017 68.3693 30.001 66.4166 31.6568C65.5262 32.4068 64.5262 33.0629 63.4795 33.766C62.3234 34.5158 61.1517 35.2971 60.0582 36.2344C57.2617 38.6402 55.9184 41.624 56.3713 44.4205C57.1836 49.3885 62.7609 51.3256 66.026 52.0443L67.057 52.2629C70.2129 52.9348 73.4935 53.6221 75.1184 55.8717C76.6338 57.9652 76.2744 60.9178 75.915 62.5113C75.6182 63.808 75.1963 65.0891 74.7434 66.4326C74.3527 67.5574 73.9623 68.7135 73.6654 69.9008C72.5719 70.1664 71.4939 70.4318 70.4316 70.6818C69.1037 70.9943 67.8383 71.3067 66.7291 71.5879C66.7291 71.5879 66.5572 71.6191 66.2447 71.6971C65.7916 71.8065 65.3699 71.9315 65.0105 72.0721C59.199 74.0404 55.559 79.3053 55.7307 85.4606C55.7621 86.8828 55.9965 88.242 56.4182 89.5231ZM84.4607 92.4131C79.7115 96.6313 73.7437 97.8654 67.151 96.0063C64.3859 95.2252 62.4486 93.6785 61.1363 91.882C70.6973 90.8352 78.4773 85.8361 83.4609 81.6024C84.1172 81.04 84.1953 80.0557 83.6328 79.3996C83.0549 78.7434 82.0393 78.6809 81.3988 79.2434C76.5402 83.3365 68.8852 88.2576 59.574 88.8824C59.1521 87.6951 58.918 86.4922 58.8867 85.3674C58.793 81.5867 60.6053 76.8688 66.0732 75.0096C66.3855 74.8846 66.698 74.8067 67.0105 74.7283C67.2137 74.6815 67.323 74.6502 67.4324 74.6346C68.6197 74.3223 69.8695 74.0254 71.1662 73.7129C79.29 71.7912 88.9447 69.4791 93.4596 64.0426C94.3498 75.8065 91.0379 86.586 84.4607 92.4131Z" fill="url(#paint0_linear_1783_27372)"/>
<defs>
<linearGradient id="paint0_linear_1783_27372" x1="50" y1="0.00991821" x2="50" y2="99.9899" gradientUnits="userSpaceOnUse">
<stop stop-color="#6D9BBA"/>
<stop offset="1" stop-color="#273048"/>
</linearGradient>
</defs>
</svg>
