<svg width="324" height="160" viewBox="0 0 324 160" fill="none" xmlns="http://www.w3.org/2000/svg">
<g clip-path="url(#clip0_1783_27418)">
<path d="M302.87 -37.2174H276.499C274.287 -44.437 271.392 -51.41 267.878 -58.052L286.508 -76.682C290.494 -80.6686 292.692 -85.9794 292.692 -91.6353C292.692 -97.2842 290.494 -102.595 286.508 -106.582L266.575 -126.515C258.608 -134.481 244.662 -134.502 236.682 -126.515L218.052 -107.885C211.417 -111.399 204.437 -114.287 197.217 -116.506V-142.87C197.217 -154.519 187.737 -164 176.087 -164H147.913C136.263 -164 126.783 -154.519 126.783 -142.87V-116.499C119.563 -114.28 112.59 -111.392 105.948 -107.878L87.311 -126.508C79.0701 -134.748 65.6593 -134.748 57.4184 -126.508L37.4784 -106.575C29.2445 -98.3336 29.2445 -84.9229 37.4784 -76.682L56.1083 -58.045C52.5937 -51.41 49.7058 -44.4299 47.4871 -37.2104H21.1304C9.48052 -37.2104 0 -27.7298 0 -16.0799V12.094C0 23.7369 9.48052 33.2174 21.1304 33.2174H47.5012C49.7199 40.437 52.6077 47.41 56.1224 54.052L37.4924 72.6891C29.2516 80.9299 29.2516 94.3407 37.4924 102.582L57.4255 122.522C65.6664 130.755 79.0771 130.755 87.318 122.522L105.955 103.892C112.59 107.406 119.57 110.294 126.79 112.513V138.87C126.79 150.52 136.27 160 147.92 160H176.094C187.744 160 197.224 150.52 197.224 138.87V112.499C204.444 110.28 211.424 107.392 218.059 103.878L236.689 122.515C244.676 130.495 258.622 130.481 266.582 122.515L286.515 102.582C290.501 98.595 292.699 93.2842 292.699 87.6353C292.699 81.9794 290.501 76.6757 286.515 72.6891L267.885 54.052C271.399 47.4171 274.287 40.437 276.506 33.2174H302.87C314.52 33.2174 324 23.7369 324 12.087V-16.0869C324 -27.7369 314.52 -37.2174 302.87 -37.2174ZM309.913 12.087C309.913 15.9679 306.758 19.1304 302.87 19.1304H271.174C267.962 19.1304 265.159 21.3069 264.356 24.4131C261.862 34.0274 258.066 43.205 253.058 51.6854C251.431 54.4535 251.875 57.9752 254.143 60.2432L276.541 82.6485C277.865 83.9727 278.598 85.7406 278.598 87.6353C278.598 89.53 277.865 91.2979 276.541 92.6221L256.608 112.555C253.96 115.203 249.29 115.203 246.634 112.555L224.236 90.1569C221.968 87.8818 218.446 87.4451 215.671 89.0722C207.205 94.0731 198.027 97.8765 188.406 100.363C185.307 101.159 183.13 103.962 183.13 107.174V138.87C183.13 142.751 179.975 145.913 176.087 145.913H147.913C144.032 145.913 140.87 142.751 140.87 138.87V107.174C140.87 103.962 138.693 101.159 135.587 100.356C125.973 97.8695 116.795 94.0731 108.315 89.0651C107.202 88.4031 105.969 88.0861 104.737 88.0861C102.912 88.0861 101.109 88.7905 99.7497 90.1498L77.3515 112.548C74.5975 115.295 70.1319 115.295 67.3779 112.548L47.4449 92.6151C44.6909 89.861 44.6909 85.3884 47.4449 82.6415L69.8431 60.2432C72.1182 57.9682 72.5619 54.4464 70.9278 51.6854C65.927 43.205 62.1235 34.0344 59.6371 24.4131C58.8412 21.3069 56.0379 19.1304 52.8261 19.1304H21.1304C17.2495 19.1304 14.087 15.9679 14.087 12.087V-16.0869C14.087 -19.9679 17.2495 -23.1304 21.1304 -23.1304H52.8261C56.0379 -23.1304 58.8412 -25.3069 59.6442 -28.413C62.1305 -38.0274 65.927 -47.205 70.9349 -55.6854C72.569 -58.4535 72.1252 -61.9752 69.8502 -64.2432L47.4519 -86.6415C44.705 -89.3884 44.705 -93.861 47.4519 -96.615L67.385 -116.548C70.139 -119.302 74.6045 -119.295 77.3585 -116.548L99.7568 -94.1498C102.032 -91.8748 105.547 -91.424 108.315 -93.0651C116.795 -98.066 125.966 -101.869 135.587 -104.356C138.693 -105.159 140.87 -107.962 140.87 -111.174V-142.87C140.87 -146.751 144.032 -149.913 147.913 -149.913H176.087C179.975 -149.913 183.13 -146.751 183.13 -142.87V-111.174C183.13 -107.962 185.307 -105.159 188.413 -104.356C198.034 -101.869 207.212 -98.066 215.678 -93.0651C218.453 -91.431 221.975 -91.8677 224.243 -94.1498L246.641 -116.548C249.297 -119.211 253.967 -119.203 256.615 -116.548L276.548 -96.615C277.872 -95.2909 278.605 -93.5159 278.605 -91.6283C278.605 -89.7406 277.872 -87.9657 276.548 -86.6415L254.15 -64.2432C251.882 -61.9682 251.431 -58.4464 253.065 -55.6854C258.073 -47.205 261.87 -38.0344 264.363 -28.413C265.159 -25.3069 267.962 -23.1304 271.174 -23.1304H302.87C306.758 -23.1304 309.913 -19.9679 309.913 -16.0869V12.087Z" fill="#1C253D"/>
<path d="M162 -65.3914C127.05 -65.3914 98.6087 -36.9498 98.6087 -2.00005C98.6087 32.9497 127.05 61.3913 162 61.3913C196.957 61.3913 225.391 32.9497 225.391 -2.00005C225.391 -36.9498 196.957 -65.3914 162 -65.3914ZM162 47.3043C134.812 47.3043 112.696 25.1878 112.696 -2.00005C112.696 -29.1879 134.812 -51.3044 162 -51.3044C189.181 -51.3044 211.304 -29.1879 211.304 -2.00005C211.304 25.1878 189.181 47.3043 162 47.3043Z" fill="#1C253D"/>
</g>
<defs>
<clipPath id="clip0_1783_27418">
<rect width="324" height="324" fill="white" transform="translate(0 -164)"/>
</clipPath>
</defs>
</svg>
