<svg width="417" height="479" viewBox="0 0 417 479" fill="none" xmlns="http://www.w3.org/2000/svg">
<g clip-path="url(#clip0_4024_23962)">
<path d="M404.609 74.3478H389.144C387.847 70.1141 386.15 66.025 384.089 62.13L395.014 51.205C397.352 48.8672 398.64 45.7528 398.64 42.4361C398.64 39.1235 397.352 36.0091 395.014 33.6713L383.325 21.9822C378.653 17.3107 370.475 17.2983 365.795 21.9822L354.87 32.9072C350.979 30.8461 346.886 29.1526 342.652 27.8515V12.3913C342.652 5.55957 337.093 0 330.261 0H313.739C306.907 0 301.348 5.55957 301.348 12.3913V27.8557C297.114 29.1567 293.025 30.8502 289.13 32.9113L278.201 21.9863C273.368 17.1537 265.504 17.1537 260.671 21.9863L248.978 33.6754C244.15 38.508 244.15 46.3724 248.978 51.205L259.903 62.1341C257.842 66.025 256.148 70.1183 254.847 74.352H239.391C232.56 74.352 227 79.9115 227 86.7433V103.265C227 110.093 232.56 115.652 239.391 115.652H254.856C256.157 119.886 257.85 123.975 259.911 127.87L248.986 138.799C244.154 143.632 244.154 151.496 248.986 156.329L260.675 168.022C265.508 172.85 273.372 172.85 278.205 168.022L289.134 157.097C293.025 159.158 297.118 160.852 301.352 162.153V177.609C301.352 184.44 306.912 190 313.743 190H330.265C337.097 190 342.656 184.44 342.656 177.609V162.144C346.89 160.843 350.983 159.15 354.874 157.089L365.799 168.018C370.483 172.698 378.661 172.689 383.329 168.018L395.018 156.329C397.356 153.991 398.644 150.877 398.644 147.564C398.644 144.247 397.356 141.137 395.018 138.799L384.093 127.87C386.154 123.979 387.847 119.886 389.148 115.652H404.609C411.44 115.652 417 110.093 417 103.261V86.7391C417 79.9074 411.44 74.3478 404.609 74.3478ZM408.739 103.261C408.739 105.537 406.889 107.391 404.609 107.391H386.022C384.138 107.391 382.494 108.668 382.023 110.489C380.561 116.127 378.335 121.509 375.398 126.482C374.444 128.105 374.704 130.171 376.034 131.501L389.169 144.64C389.946 145.416 390.375 146.453 390.375 147.564C390.375 148.675 389.946 149.712 389.169 150.488L377.48 162.177C375.927 163.73 373.188 163.73 371.631 162.177L358.497 149.043C357.167 147.708 355.101 147.452 353.474 148.407C348.509 151.339 343.127 153.57 337.485 155.028C335.668 155.494 334.391 157.138 334.391 159.022V177.609C334.391 179.885 332.541 181.739 330.261 181.739H313.739C311.463 181.739 309.609 179.885 309.609 177.609V159.022C309.609 157.138 308.332 155.494 306.511 155.023C300.873 153.565 295.491 151.339 290.518 148.402C289.865 148.014 289.142 147.828 288.42 147.828C287.35 147.828 286.292 148.241 285.495 149.038L272.36 162.173C270.745 163.784 268.127 163.784 266.512 162.173L254.823 150.484C253.208 148.869 253.208 146.246 254.823 144.635L267.957 131.501C269.292 130.167 269.552 128.101 268.593 126.482C265.661 121.509 263.43 116.131 261.972 110.489C261.506 108.668 259.862 107.391 257.978 107.391H239.391C237.115 107.391 235.261 105.537 235.261 103.261V86.7391C235.261 84.4633 237.115 82.6087 239.391 82.6087H257.978C259.862 82.6087 261.506 81.3324 261.977 79.5109C263.435 73.8728 265.661 68.4909 268.598 63.5178C269.556 61.8946 269.296 59.8293 267.962 58.4994L254.827 45.3646C253.216 43.7537 253.216 41.1309 254.827 39.5159L266.516 27.8267C268.131 26.2117 270.75 26.2159 272.365 27.8267L285.499 40.9615C286.833 42.2957 288.895 42.56 290.518 41.5976C295.491 38.665 300.869 36.4346 306.511 34.9765C308.332 34.5057 309.609 32.8617 309.609 30.9783V12.3913C309.609 10.1154 311.463 8.26087 313.739 8.26087H330.261C332.541 8.26087 334.391 10.1154 334.391 12.3913V30.9783C334.391 32.8617 335.668 34.5057 337.489 34.9765C343.131 36.4346 348.513 38.665 353.478 41.5976C355.105 42.5559 357.171 42.2998 358.501 40.9615L371.635 27.8267C373.193 26.2654 375.931 26.2696 377.484 27.8267L389.173 39.5159C389.95 40.2924 390.379 41.3333 390.379 42.4402C390.379 43.5472 389.95 44.588 389.173 45.3646L376.038 58.4994C374.708 59.8335 374.444 61.8987 375.402 63.5178C378.339 68.4909 380.565 73.8687 382.028 79.5109C382.494 81.3324 384.138 82.6087 386.022 82.6087H404.609C406.889 82.6087 408.739 84.4633 408.739 86.7391V103.261Z" fill="#283A53"/>
<path d="M322 57.8261C301.505 57.8261 284.826 74.5048 284.826 95C284.826 115.495 301.505 132.174 322 132.174C342.499 132.174 359.174 115.495 359.174 95C359.174 74.5048 342.499 57.8261 322 57.8261ZM322 123.913C306.057 123.913 293.087 110.944 293.087 95C293.087 79.0565 306.057 66.087 322 66.087C337.939 66.087 350.913 79.0565 350.913 95C350.913 110.944 337.939 123.913 322 123.913Z" fill="#283A53"/>
</g>
<g clip-path="url(#clip1_4024_23962)">
<path d="M344.174 366.957H304.455C301.124 356.083 296.764 345.58 291.47 335.576L319.53 307.516C325.534 301.511 328.844 293.513 328.844 284.994C328.844 276.486 325.534 268.487 319.53 262.482L289.507 232.459C277.509 220.461 256.504 220.429 244.484 232.459L216.424 260.519C206.431 255.226 195.917 250.876 185.043 247.534V207.826C185.043 190.279 170.764 176 153.217 176H110.783C93.2358 176 78.9565 190.279 78.9565 207.826V247.545C68.0826 250.887 57.58 255.236 47.576 260.53L19.5054 232.47C7.09322 220.058 -13.1057 220.058 -25.5179 232.47L-55.5511 262.493C-67.9527 274.905 -67.9527 295.104 -55.5511 307.516L-27.4911 335.587C-32.7849 345.58 -37.1344 356.093 -40.4762 366.967H-80.1739C-97.7207 366.967 -112 381.246 -112 398.793V441.228C-112 458.764 -97.7207 473.043 -80.1739 473.043H-40.455C-37.1132 483.917 -32.7636 494.42 -27.4699 504.424L-55.5299 532.495C-67.9421 544.907 -67.9421 565.106 -55.5299 577.518L-25.5073 607.551C-13.0951 619.953 7.10384 619.953 19.516 607.551L47.5866 579.491C57.58 584.785 68.0932 589.134 78.9671 592.476V632.174C78.9671 649.721 93.2464 664 110.793 664H153.228C170.775 664 185.054 649.721 185.054 632.174V592.455C195.928 589.113 206.441 584.764 216.435 579.47L244.495 607.541C256.525 619.56 277.53 619.539 289.518 607.541L319.541 577.518C325.545 571.513 328.855 563.514 328.855 555.006C328.855 546.488 325.545 538.499 319.541 532.495L291.481 504.424C296.774 494.431 301.124 483.917 304.466 473.043H344.174C361.721 473.043 376 458.764 376 441.217V398.783C376 381.236 361.721 366.957 344.174 366.957ZM354.783 441.217C354.783 447.063 350.03 451.826 344.174 451.826H296.435C291.597 451.826 287.375 455.104 286.166 459.783C282.41 474.263 276.692 488.087 269.149 500.859C266.699 505.029 267.367 510.333 270.783 513.749L304.519 547.495C306.513 549.49 307.616 552.153 307.616 555.006C307.616 557.86 306.513 560.523 304.519 562.517L274.496 592.54C270.507 596.529 263.474 596.529 259.474 592.54L225.738 558.804C222.322 555.378 217.018 554.72 212.838 557.17C200.087 564.703 186.263 570.431 171.772 574.176C167.104 575.375 163.826 579.597 163.826 584.435V632.174C163.826 638.019 159.073 642.783 153.217 642.783H110.783C104.937 642.783 100.174 638.019 100.174 632.174V584.435C100.174 579.597 96.8958 575.375 92.2174 574.166C77.7365 570.421 63.9134 564.703 51.1405 557.16C49.4644 556.163 47.6078 555.685 45.7513 555.685C43.0037 555.685 40.2878 556.746 38.2404 558.794L4.5047 592.529C0.356705 596.667 -6.36922 596.667 -10.5172 592.529L-40.5398 562.507C-44.6878 558.359 -44.6878 551.622 -40.5398 547.485L-6.80417 513.749C-3.37756 510.322 -2.70922 505.018 -5.17043 500.859C-12.7026 488.087 -18.4313 474.274 -22.1762 459.783C-23.375 455.104 -27.5972 451.826 -32.4348 451.826H-80.1739C-86.0193 451.826 -90.7826 447.063 -90.7826 441.217V398.783C-90.7826 392.937 -86.0193 388.174 -80.1739 388.174H-32.4348C-27.5972 388.174 -23.3749 384.896 -22.1656 380.217C-18.4207 365.737 -12.7026 351.913 -5.15982 339.141C-2.6986 334.971 -3.36696 329.667 -6.79356 326.251L-40.5292 292.515C-44.6666 288.378 -44.6666 281.641 -40.5292 277.493L-10.5066 247.471C-6.3586 243.323 0.367302 243.333 4.5153 247.471L38.251 281.206C41.6776 284.633 46.9713 285.312 51.1405 282.84C63.9134 275.308 77.7259 269.579 92.2174 265.834C96.8958 264.625 100.174 260.403 100.174 255.565V207.826C100.174 201.981 104.937 197.217 110.783 197.217H153.217C159.073 197.217 163.826 201.981 163.826 207.826V255.565C163.826 260.403 167.104 264.625 171.783 265.834C186.274 269.579 200.097 275.308 212.849 282.84C217.029 285.301 222.333 284.644 225.749 281.206L259.485 247.471C263.484 243.461 270.518 243.471 274.507 247.471L304.529 277.493C306.524 279.488 307.627 282.161 307.627 285.004C307.627 287.847 306.524 290.521 304.529 292.515L270.794 326.251C267.378 329.678 266.699 334.982 269.16 339.141C276.703 351.913 282.421 365.726 286.176 380.217C287.375 384.896 291.597 388.174 296.435 388.174H344.174C350.03 388.174 354.783 392.937 354.783 398.783V441.217Z" fill="#283A53"/>
<path d="M132 324.522C79.3596 324.522 36.5217 367.36 36.5217 420C36.5217 472.64 79.3596 515.478 132 515.478C184.651 515.478 227.478 472.64 227.478 420C227.478 367.36 184.651 324.522 132 324.522ZM132 494.261C91.0504 494.261 57.7391 460.95 57.7391 420C57.7391 379.05 91.0504 345.739 132 345.739C172.939 345.739 206.261 379.05 206.261 420C206.261 460.95 172.939 494.261 132 494.261Z" fill="#283A53"/>
</g>
<defs>
<clipPath id="clip0_4024_23962">
<rect width="190" height="190" fill="white" transform="translate(227)"/>
</clipPath>
<clipPath id="clip1_4024_23962">
<rect width="488" height="488" fill="white" transform="translate(-112 176)"/>
</clipPath>
</defs>
</svg>
