<svg width="100" height="100" viewBox="0 0 100 100" fill="none" xmlns="http://www.w3.org/2000/svg">
<rect width="100" height="100" rx="4" fill="#3C496A"/>
<rect width="100" height="100" rx="4" fill="url(#paint0_linear_1783_23726)"/>
<g clip-path="url(#clip0_1783_23726)">
<path d="M49.0312 24.8125H50.9688V26.75H49.0312V24.8125Z" fill="white"/>
<path d="M69.375 42.25V36.4375C69.375 36.1806 69.2729 35.9342 69.0913 35.7525C68.9096 35.5708 68.6632 35.4688 68.4062 35.4688H63.702C63.5311 34.9858 63.3352 34.5121 63.1149 34.0495L66.4377 30.718C66.6191 30.5364 66.7209 30.2902 66.7209 30.0336C66.7209 29.7769 66.6191 29.5308 66.4377 29.3492L60.9643 23.8757C60.7827 23.6944 60.5365 23.5926 60.2799 23.5926C60.0233 23.5926 59.7771 23.6944 59.5955 23.8757L56.2639 27.1985C55.8011 26.9779 55.3271 26.7817 54.8438 26.6105V21.9062C54.8438 21.6493 54.7417 21.4029 54.56 21.2212C54.3783 21.0396 54.1319 20.9375 53.875 20.9375H46.125C45.8681 20.9375 45.6217 21.0396 45.44 21.2212C45.2583 21.4029 45.1562 21.6493 45.1562 21.9062V26.6105C44.6733 26.7814 44.1996 26.9773 43.737 27.1976L40.4094 23.8748C40.2277 23.6934 39.9816 23.5916 39.725 23.5916C39.4683 23.5916 39.2222 23.6934 39.0405 23.8748L33.5671 29.3482C33.3858 29.5298 33.2839 29.776 33.2839 30.0326C33.2839 30.2893 33.3858 30.5354 33.5671 30.717L36.8899 34.0486C36.668 34.5113 36.4704 34.9854 36.298 35.4688H31.5938C31.3368 35.4688 31.0904 35.5708 30.9087 35.7525C30.7271 35.9342 30.625 36.1806 30.625 36.4375V42.25H20.9375V44.1875H79.0625V42.25H69.375ZM32.5625 37.4062H36.9994C37.2077 37.4063 37.4104 37.3393 37.5776 37.215C37.7448 37.0908 37.8675 36.916 37.9274 36.7165C38.1775 35.886 38.5098 35.0824 38.9194 34.3179C39.0174 34.1347 39.0539 33.9249 39.0235 33.7195C38.9932 33.514 38.8976 33.3237 38.7509 33.1767L35.6179 30.035L39.7225 25.9304L42.8642 29.0634C43.0112 29.2101 43.2015 29.3057 43.407 29.336C43.6124 29.3664 43.8222 29.3299 44.0054 29.2319C44.7699 28.8223 45.5735 28.49 46.404 28.2399C46.6035 28.18 46.7783 28.0573 46.9025 27.8901C47.0268 27.7229 47.0938 27.5202 47.0938 27.3119V22.875H52.9062V27.3119C52.9062 27.5202 52.9732 27.7229 53.0975 27.8901C53.2217 28.0573 53.3965 28.18 53.596 28.2399C54.4265 28.49 55.2301 28.8223 55.9946 29.2319C56.1778 29.3299 56.3876 29.3664 56.593 29.336C56.7985 29.3057 56.9888 29.2101 57.1358 29.0634L60.2775 25.9304L64.3821 30.035L61.2491 33.1767C61.1024 33.3237 61.0068 33.514 60.9765 33.7195C60.9461 33.9249 60.9826 34.1347 61.0806 34.3179C61.4902 35.0824 61.8225 35.886 62.0726 36.7165C62.1325 36.916 62.2552 37.0908 62.4224 37.215C62.5896 37.3393 62.7923 37.4063 63.0006 37.4062H67.4375V42.25H58.4901C58.6396 41.6149 58.7163 40.9649 58.7188 40.3125C58.7188 38.0001 57.8002 35.7825 56.1651 34.1474C54.53 32.5123 52.3124 31.5938 50 31.5938C47.6876 31.5938 45.47 32.5123 43.8349 34.1474C42.1998 35.7825 41.2812 38.0001 41.2812 40.3125C41.2837 40.9649 41.3604 41.6149 41.5099 42.25H32.5625V37.4062ZM43.2188 40.3125C43.2188 38.514 43.9332 36.7892 45.2049 35.5174C46.4767 34.2457 48.2015 33.5312 50 33.5312C51.7985 33.5312 53.5233 34.2457 54.7951 35.5174C56.0668 36.7892 56.7812 38.514 56.7812 40.3125C56.7801 40.9691 56.6822 41.622 56.4906 42.25H43.5094C43.3178 41.622 43.2199 40.9691 43.2188 40.3125Z" fill="white"/>
<path d="M76.1562 48.0625H70.3186C69.8727 47.4614 69.2922 46.9731 68.6237 46.6366C67.9552 46.3001 67.2172 46.1249 66.4688 46.1249C65.7203 46.1249 64.9823 46.3001 64.3138 46.6366C63.6453 46.9731 63.0648 47.4614 62.6189 48.0625H23.8438C23.0741 48.0663 22.3371 48.3737 21.7929 48.9179C21.2487 49.4621 20.9413 50.1991 20.9375 50.9687C20.9375 51.7395 21.2437 52.4787 21.7887 53.0238C22.3337 53.5688 23.073 53.875 23.8438 53.875H62.6189C63.0648 54.4761 63.6453 54.9644 64.3138 55.3009C64.9823 55.6373 65.7203 55.8126 66.4688 55.8126C67.2172 55.8126 67.9552 55.6373 68.6237 55.3009C69.2922 54.9644 69.8727 54.4761 70.3186 53.875H76.1562C76.9259 53.8712 77.6629 53.5637 78.2071 53.0195C78.7513 52.4753 79.0587 51.7383 79.0625 50.9687C79.0625 50.198 78.7563 49.4587 78.2113 48.9137C77.6662 48.3687 76.927 48.0625 76.1562 48.0625ZM23.8438 51.9375C23.5868 51.9375 23.3404 51.8354 23.1587 51.6537C22.9771 51.4721 22.875 51.2257 22.875 50.9687C22.8746 50.8396 22.9007 50.7118 22.9517 50.5931C23.0027 50.4745 23.0775 50.3676 23.1714 50.279C23.2589 50.1895 23.3635 50.1187 23.4791 50.0707C23.5946 50.0228 23.7187 49.9987 23.8438 50H61.7219C61.5914 50.6392 61.5914 51.2982 61.7219 51.9375H23.8438ZM66.4688 53.875C65.8939 53.875 65.3321 53.7045 64.8541 53.3852C64.3762 53.0659 64.0037 52.612 63.7837 52.0809C63.5638 51.5499 63.5062 50.9655 63.6183 50.4018C63.7305 49.838 64.0073 49.3202 64.4137 48.9137C64.8202 48.5073 65.338 48.2305 65.9018 48.1183C66.4655 48.0062 67.0499 48.0637 67.5809 48.2837C68.112 48.5037 68.5659 48.8762 68.8852 49.3541C69.2046 49.832 69.375 50.3939 69.375 50.9687C69.375 51.7395 69.0688 52.4787 68.5238 53.0238C67.9787 53.5688 67.2395 53.875 66.4688 53.875ZM76.8286 51.6585C76.7411 51.7479 76.6365 51.8188 76.5209 51.8667C76.4054 51.9147 76.2813 51.9387 76.1562 51.9375H71.2156C71.3461 51.2982 71.3461 50.6392 71.2156 50H76.1562C76.4132 50 76.6596 50.1021 76.8413 50.2837C77.0229 50.4654 77.125 50.7118 77.125 50.9687C77.1254 51.0979 77.0993 51.2257 77.0483 51.3444C76.9973 51.463 76.9225 51.5699 76.8286 51.6585Z" fill="white"/>
<path d="M76.1562 59.6875H43.1936C42.7477 59.0864 42.1672 58.5981 41.4987 58.2616C40.8302 57.9251 40.0922 57.7499 39.3438 57.7499C38.5953 57.7499 37.8573 57.9251 37.1888 58.2616C36.5203 58.5981 35.9398 59.0864 35.4939 59.6875H23.8438C23.0741 59.6913 22.3371 59.9987 21.7929 60.5429C21.2487 61.0871 20.9413 61.8241 20.9375 62.5937C20.9375 63.3645 21.2437 64.1037 21.7887 64.6488C22.3337 65.1938 23.073 65.5 23.8438 65.5H35.4939C35.9398 66.1011 36.5203 66.5894 37.1888 66.9259C37.8573 67.2623 38.5953 67.4376 39.3438 67.4376C40.0922 67.4376 40.8302 67.2623 41.4987 66.9259C42.1672 66.5894 42.7477 66.1011 43.1936 65.5H76.1562C76.9259 65.4962 77.6629 65.1887 78.2071 64.6445C78.7513 64.1003 79.0587 63.3633 79.0625 62.5937C79.0625 61.823 78.7563 61.0837 78.2113 60.5387C77.6662 59.9937 76.927 59.6875 76.1562 59.6875ZM23.8438 63.5625C23.5868 63.5625 23.3404 63.4604 23.1587 63.2787C22.9771 63.0971 22.875 62.8507 22.875 62.5937C22.8746 62.4646 22.9007 62.3368 22.9517 62.2181C23.0027 62.0995 23.0775 61.9926 23.1714 61.904C23.2589 61.8145 23.3635 61.7437 23.4791 61.6957C23.5946 61.6478 23.7187 61.6237 23.8438 61.625H34.5969C34.4664 62.2642 34.4664 62.9232 34.5969 63.5625H23.8438ZM39.3438 65.5C38.7689 65.5 38.2071 65.3295 37.7291 65.0102C37.2512 64.6909 36.8787 64.237 36.6587 63.7059C36.4388 63.1749 36.3812 62.5905 36.4933 62.0268C36.6055 61.463 36.8823 60.9452 37.2887 60.5387C37.6952 60.1323 38.213 59.8555 38.7768 59.7433C39.3405 59.6312 39.9249 59.6887 40.4559 59.9087C40.987 60.1287 41.4409 60.5012 41.7602 60.9791C42.0796 61.457 42.25 62.0189 42.25 62.5937C42.25 63.3645 41.9438 64.1037 41.3988 64.6488C40.8538 65.1938 40.1145 65.5 39.3438 65.5ZM76.8286 63.2835C76.7411 63.3729 76.6365 63.4438 76.5209 63.4917C76.4054 63.5397 76.2813 63.5637 76.1562 63.5625H44.0906C44.2211 62.9232 44.2211 62.2642 44.0906 61.625H76.1562C76.4132 61.625 76.6596 61.7271 76.8413 61.9087C77.0229 62.0904 77.125 62.3368 77.125 62.5937C77.1254 62.7229 77.0993 62.8507 77.0483 62.9694C76.9973 63.088 76.9225 63.1949 76.8286 63.2835Z" fill="white"/>
<path d="M76.1562 71.3125H59.6623C59.2164 70.7114 58.636 70.2231 57.9675 69.8866C57.2989 69.5501 56.5609 69.3749 55.8125 69.3749C55.0641 69.3749 54.3261 69.5501 53.6575 69.8866C52.989 70.2231 52.4086 70.7114 51.9627 71.3125H23.8438C23.0741 71.3163 22.3371 71.6237 21.7929 72.1679C21.2487 72.7121 20.9413 73.4491 20.9375 74.2187C20.9375 74.9895 21.2437 75.7287 21.7887 76.2738C22.3337 76.8188 23.073 77.125 23.8438 77.125H51.9627C52.4086 77.7261 52.989 78.2144 53.6575 78.5509C54.3261 78.8873 55.0641 79.0626 55.8125 79.0626C56.5609 79.0626 57.2989 78.8873 57.9675 78.5509C58.636 78.2144 59.2164 77.7261 59.6623 77.125H76.1562C76.9259 77.1212 77.6629 76.8137 78.2071 76.2695C78.7513 75.7253 79.0587 74.9883 79.0625 74.2187C79.0625 73.448 78.7563 72.7087 78.2113 72.1637C77.6662 71.6187 76.927 71.3125 76.1562 71.3125ZM23.8438 75.1875C23.5868 75.1875 23.3404 75.0854 23.1587 74.9037C22.9771 74.7221 22.875 74.4757 22.875 74.2187C22.8746 74.0896 22.9007 73.9618 22.9517 73.8431C23.0027 73.7245 23.0775 73.6176 23.1714 73.529C23.2589 73.4395 23.3635 73.3687 23.4791 73.3207C23.5946 73.2728 23.7187 73.2487 23.8438 73.25H51.0656C50.9351 73.8892 50.9351 74.5482 51.0656 75.1875H23.8438ZM55.8125 77.125C55.2377 77.125 54.6758 76.9545 54.1979 76.6352C53.7199 76.3159 53.3474 75.862 53.1275 75.3309C52.9075 74.7999 52.85 74.2155 52.9621 73.6518C53.0742 73.088 53.351 72.5702 53.7575 72.1637C54.1639 71.7573 54.6818 71.4805 55.2455 71.3683C55.8093 71.2562 56.3936 71.3137 56.9247 71.5337C57.4557 71.7537 57.9096 72.1262 58.229 72.6041C58.5483 73.082 58.7188 73.6439 58.7188 74.2187C58.7188 74.9895 58.4126 75.7287 57.8675 76.2738C57.3225 76.8188 56.5833 77.125 55.8125 77.125ZM76.8286 74.9085C76.7411 74.9979 76.6365 75.0688 76.5209 75.1167C76.4054 75.1647 76.2813 75.1887 76.1562 75.1875H60.5594C60.6899 74.5482 60.6899 73.8892 60.5594 73.25H76.1562C76.4132 73.25 76.6596 73.3521 76.8413 73.5337C77.0229 73.7154 77.125 73.9618 77.125 74.2187C77.1254 74.3479 77.0993 74.4757 77.0483 74.5944C76.9973 74.713 76.9225 74.8199 76.8286 74.9085Z" fill="white"/>
<path d="M38.3528 30.0389L39.7229 28.6689L41.0929 30.0389L39.7229 31.409L38.3528 30.0389Z" fill="white"/>
<path d="M34.5 39.3438H36.4375V41.2812H34.5V39.3438Z" fill="white"/>
<path d="M63.5625 39.3438H65.5V41.2812H63.5625V39.3438Z" fill="white"/>
<path d="M58.9006 30.0403L60.2706 28.6703L61.6406 30.0403L60.2706 31.4103L58.9006 30.0403Z" fill="white"/>
</g>
<defs>
<linearGradient id="paint0_linear_1783_23726" x1="-18.5" y1="-39.5" x2="90.5" y2="111" gradientUnits="userSpaceOnUse">
<stop stop-color="#6D9BBA"/>
<stop offset="1" stop-color="#273048"/>
</linearGradient>
<clipPath id="clip0_1783_23726">
<rect width="62" height="62" fill="white" transform="translate(19 19)"/>
</clipPath>
</defs>
</svg>
