<?xml version="1.0" encoding="utf-8"?><svg viewBox="0 0 56 57" xmlns="http://www.w3.org/2000/svg" xmlns:xlink="http://www.w3.org/1999/xlink"><style>:root>svg{display:none}:root>svg:target{display:block}</style><svg fill="none" viewBox="0 0 56 57" id="arrow" xmlns="http://www.w3.org/2000/svg"><path d="m21 14.51 14 14-14 14"/></svg><svg fill="none" viewBox="0 0 56 57" id="arrow-str" xmlns="http://www.w3.org/2000/svg"><path d="m21 14.51 14 14-14 14" stroke="#000" stroke-width="3" stroke-linecap="round" stroke-linejoin="round"/></svg><svg fill="none" viewBox="0 0 20 20" id="check" xmlns="http://www.w3.org/2000/svg"><rect x=".5" y=".5" width="19" height="19" rx="5.5" fill="#F9F5FF"/><rect x=".5" y=".5" width="19" height="19" rx="5.5" stroke="#34C759"/><path d="M14.667 6.5 8.25 12.917 5.333 10" stroke="#34C759" stroke-width="2" stroke-linecap="round" stroke-linejoin="round"/></svg><svg fill="none" viewBox="0 0 24 24" id="link" xmlns="http://www.w3.org/2000/svg"><path d="M19 3H5a2 2 0 0 0-2 2v14a2 2 0 0 0 2 2h14a2 2 0 0 0 2-2V5a2 2 0 0 0-2-2ZM8 8l8 8"/><path d="M16 8v8H8"/></svg></svg>