<svg width="100" height="101" viewBox="0 0 100 101" fill="none" xmlns="http://www.w3.org/2000/svg">
<g clip-path="url(#clip0_1993_13840)">
<mask id="mask0_1993_13840" style="mask-type:luminance" maskUnits="userSpaceOnUse" x="0" y="0" width="100" height="101">
<path d="M0 0.51075H100V100.511H0V0.51075Z" fill="white"/>
</mask>
<g mask="url(#mask0_1993_13840)">
<path d="M71.4843 54.3682C68.73 54.3682 59.7656 44.3586 59.7656 36.657C59.7656 30.2801 65.0613 24.8207 71.4843 24.8453C77.9076 24.8207 83.2031 30.2801 83.2031 36.657C83.2031 44.3586 74.2386 54.3682 71.4843 54.3682Z" stroke="white" stroke-width="4" stroke-miterlimit="22.926" stroke-linecap="round" stroke-linejoin="round"/>
<path d="M71.4844 40.4707C73.636 40.4707 75.3907 38.716 75.3907 36.5645C75.3907 34.4127 73.636 32.658 71.4844 32.658C69.3328 32.658 67.5782 34.4127 67.5782 36.5645C67.5782 38.716 69.3328 40.4707 71.4844 40.4707Z" stroke="white" stroke-width="4" stroke-miterlimit="22.926" stroke-linecap="round" stroke-linejoin="round"/>
<path d="M51.1055 88.3001C54.2335 86.1099 56.7405 84.155 57.9489 83.1904C62.9274 79.2163 65.0274 84.7515 68.0174 80.7771C70.521 77.4493 80.1426 88.3302 76.8889 77.8306C76.1069 75.3066 81.676 69.0185 80.1895 65.1579C78.6501 61.1605 87.7284 60.2066 80.1301 55.5824C74.62 52.229 83.1694 50.5857 79.8436 46.3218M59.8639 33.9161C56.0876 32.0589 50.5256 26.4763 54.0272 25.089C58.5901 23.2816 54.6561 18.8757 58.8764 18.4247C65.7049 17.6952 55.1266 13.0331 63.1971 9.14974C70.3803 5.6931 60.7069 -0.253969 55.5661 3.86224C49.2669 8.9058 41.6196 5.26302 43.6358 13.4997C44.6739 17.741 38.8729 16.3117 38.3506 18.7874C37.6114 22.2921 44.6292 22.6779 43.6196 25.9753C43.0553 27.8193 40.4108 25.2536 40.4108 31.0972C40.4108 36.7228 31.2688 33.4283 28.6919 31.0972C25.6852 28.3775 8.62604 29.53 23.3151 38.2388C26.8139 40.3132 25.409 43.5618 22.0692 45.0851C15.786 47.9505 24.0352 56.3949 31.5393 56.1107C31.9569 56.0949 36.1352 60.7134 29.463 60.4609C24.5555 60.2751 28.4165 70.3906 23.4713 73.3613C20.9825 74.8564 25.6114 78.2185 18.5153 79.6587C16.2663 80.115 16.4731 82.3429 17.7178 83.6466C18.8493 84.8314 21.0198 85.5015 21.3202 86.1361C22.3022 88.2113 18.2192 91.1894 24.4422 93.4495C28.5618 94.9456 24.6225 101.53 35.8467 96.9757" stroke="white" stroke-width="4" stroke-miterlimit="22.926" stroke-linecap="round" stroke-linejoin="round"/>
<path d="M43.7192 93.0659H43.7206" stroke="white" stroke-width="4" stroke-miterlimit="2.613" stroke-linecap="round" stroke-linejoin="round"/>
</g>
</g>
<defs>
<clipPath id="clip0_1993_13840">
<rect width="100" height="100" fill="white" transform="translate(0 0.510742)"/>
</clipPath>
</defs>
</svg>
