<svg width="49" height="49" viewBox="0 0 49 49" fill="none" xmlns="http://www.w3.org/2000/svg">
<g clip-path="url(#clip0_4001_3924)">
<path d="M40.7361 11.4104L38.1442 7.89286V4.46785H36.478V7.89286L33.8861 11.3179C33.7935 11.503 33.7009 11.5956 33.7009 11.7807V37.6997C33.7009 38.1625 34.0712 38.5328 34.534 38.5328H36.5705V42.5132H30.7388V8.17056C30.7388 5.94893 27.2212 2.98676 20.5563 2.80163V0.765137H18.8901V2.70906C11.9475 2.8942 8.70762 6.0415 8.70762 8.17056V47.1416H7.68937V48.8078H31.757V47.1416H30.7388V44.0869H37.4036C37.8665 44.0869 38.2368 43.7166 38.2368 43.2538V38.5328H40.0881C40.5509 38.5328 40.9212 38.1625 40.9212 37.6997V11.8733C40.9212 11.6881 40.8287 11.503 40.7361 11.4104ZM15.0022 39.7362V37.6071H24.5367V39.7362H15.0022ZM25.2773 41.4024C25.7401 41.4024 26.1104 41.0321 26.1104 40.5693V36.8666C26.1104 36.4037 25.7401 36.0335 25.2773 36.0335H14.1691C13.7063 36.0335 13.336 36.4037 13.336 36.8666V40.5693C13.336 41.0321 13.7063 41.4024 14.1691 41.4024H18.8901V43.5315H10.3738V10.855H18.9826V12.9841H13.2434C12.7806 12.9841 12.4103 13.3544 12.4103 13.8172V25.851C12.4103 26.3139 12.7806 26.6841 13.2434 26.6841H18.8901V28.8132H14.1691C13.7063 28.8132 13.336 29.1835 13.336 29.6463V33.349C13.336 33.8119 13.7063 34.1821 14.1691 34.1821H25.2773C25.7401 34.1821 26.1104 33.8119 26.1104 33.349V29.6463C26.1104 29.1835 25.7401 28.8132 25.2773 28.8132H20.5563V26.6841H26.2029C26.6658 26.6841 27.036 26.3139 27.036 25.851V13.7246C27.036 13.2618 26.6658 12.8915 26.2029 12.8915H20.5563V10.7625H29.1651V43.4389H20.5563V41.3098H25.2773V41.4024ZM25.3698 14.5577V25.0179H23.2408V14.5577H25.3698ZM21.6671 24.9253H17.6867V14.5577H21.6671V24.9253ZM14.0765 24.9253V14.5577H16.2056V25.0179H14.0765V24.9253ZM24.4441 30.2943V32.4233H15.0022V30.2943H24.4441ZM19.5381 4.37528C26.6658 4.37528 29.0725 7.43002 29.0725 8.17056V9.18881H10.3738V8.17056C10.3738 7.05975 12.9657 4.37528 19.5381 4.37528ZM10.3738 47.1416V45.0126H29.1651V47.1416H10.3738ZM39.255 36.9592H35.2746V12.151L37.3111 9.55908L39.255 12.151V36.9592Z" fill="url(#paint0_linear_4001_3924)"/>
</g>
<defs>
<linearGradient id="paint0_linear_4001_3924" x1="24.3053" y1="0.765137" x2="24.3053" y2="48.8078" gradientUnits="userSpaceOnUse">
<stop stop-color="#6D9BBA"/>
<stop offset="1" stop-color="#273048"/>
</linearGradient>
<clipPath id="clip0_4001_3924">
<rect width="33.2318" height="48.0427" fill="white" transform="translate(7.68937 0.765137)"/>
</clipPath>
</defs>
</svg>
