<svg width="49" height="49" viewBox="0 0 49 49" fill="none" xmlns="http://www.w3.org/2000/svg">
<g clip-path="url(#clip0_4001_4248)">
<path d="M18.8994 28.8659C21.3468 28.8659 23.3411 26.8716 23.3411 24.4242C23.3411 21.9767 21.3468 19.9825 18.8994 19.9825C18.1742 19.9825 17.5397 20.1638 16.9052 20.4357C18.2649 18.1696 20.8936 16.9912 22.5253 16.9912V15.3595C19.262 15.3595 14.4577 18.5322 14.4577 23.4271C14.4577 23.4271 14.4577 24.0616 14.4577 24.3335C14.4577 26.9623 16.4519 28.8659 18.8994 28.8659ZM18.8994 21.6141C20.4404 21.6141 21.7094 22.8832 21.7094 24.4242C21.7094 25.9652 20.4404 27.2342 18.8994 27.2342C17.3584 27.2342 16.0893 25.9652 16.0893 24.4242C16.0893 22.8832 17.3584 21.6141 18.8994 21.6141ZM44.2804 17.0818H46.0934V15.4502H44.2804C41.833 15.4502 39.8388 17.4444 39.8388 19.8919V24.4242C39.8388 26.8716 41.833 28.8659 44.2804 28.8659H46.0934V27.2342H44.2804C42.7394 27.2342 41.4704 25.9652 41.4704 24.4242V19.8919C41.4704 18.3509 42.7394 17.0818 44.2804 17.0818ZM36.5755 15.5408C35.3971 15.5408 34.4 16.5379 34.4 17.7163C34.4 18.8947 35.3971 19.8919 36.5755 19.8919C37.7539 19.8919 38.751 18.8947 38.751 17.7163C38.751 16.5379 37.7539 15.5408 36.5755 15.5408ZM36.5755 18.2602C36.3035 18.2602 36.0316 17.9883 36.0316 17.7163C36.0316 17.4444 36.2129 17.0818 36.5755 17.0818C36.8474 17.0818 37.1194 17.3538 37.1194 17.6257C37.1194 17.8976 36.8474 18.2602 36.5755 18.2602ZM33.2216 30.0443C33.4028 30.8601 33.4935 31.5853 33.4935 32.2198C33.4935 40.5593 26.695 47.2671 18.4462 47.2671C10.1067 47.2671 3.39882 40.4686 3.39882 32.2198C3.39882 24.7868 15.4548 7.11069 18.4462 2.94094C19.7152 4.75387 22.6159 8.92362 25.5166 13.6372L26.8763 12.8214C22.9785 6.47616 19.1713 1.12801 19.1713 1.12801C18.8994 0.674778 18.1742 0.674778 17.9023 1.12801C17.0865 1.94383 1.76718 23.2458 1.76718 32.2198C1.76718 41.3751 9.2002 48.8081 18.4462 48.8081C27.6921 48.8081 35.1251 41.3751 35.1251 32.1291C35.1251 31.404 35.0345 30.5882 34.8532 29.591L33.2216 30.0443ZM8.11244 25.9652C6.93404 28.7752 6.29951 30.7694 6.29951 32.2198C6.29951 38.837 11.7383 44.2758 18.4462 44.2758C20.8936 44.2758 23.2504 43.5506 25.2447 42.1909L24.3382 40.8312C22.6159 42.0096 20.531 42.6442 18.4462 42.6442C12.6448 42.6442 7.93115 37.9305 7.93115 32.1291C7.93115 31.3133 8.20309 29.6817 9.56279 26.5091L8.11244 25.9652Z" fill="url(#paint0_linear_4001_4248)"/>
<path d="M33.5937 27.2456V28.7227H24.6427C24.6814 27.9682 24.7977 27.3096 24.9914 26.7468C25.1852 26.1841 25.4822 25.679 25.8826 25.2314C26.296 24.771 26.6964 24.3937 27.0839 24.0996C27.4713 23.8054 28.0203 23.4409 28.7307 23.0061C29.8415 22.3155 30.5713 21.7976 30.92 21.4523C31.6433 20.7489 32.005 19.9688 32.005 19.1119C32.005 18.3574 31.7596 17.7435 31.2687 17.2703C30.7779 16.7844 30.1386 16.5414 29.3507 16.5414C28.4078 16.5414 27.7297 16.8675 27.3163 17.5197C26.9159 18.1592 26.7028 18.9713 26.677 19.956H25.0108V19.5915C25.0108 18.2487 25.4112 17.168 26.212 16.3496C27.0257 15.5311 28.0978 15.1218 29.4282 15.1218C30.7327 15.1218 31.7725 15.4799 32.5475 16.1961C33.3224 16.9123 33.7099 17.8714 33.7099 19.0736C33.7099 19.5851 33.6195 20.0711 33.4387 20.5315C33.2708 20.9791 33.077 21.3564 32.8575 21.6633C32.6508 21.9702 32.3279 22.2963 31.8887 22.6416C31.4625 22.9869 31.1073 23.2555 30.8231 23.4473C30.539 23.6264 30.1321 23.8758 29.6025 24.1955C28.5434 24.8221 27.8395 25.3081 27.4907 25.6534C26.9999 26.1394 26.6834 26.6701 26.5414 27.2456H33.5937Z" fill="url(#paint1_linear_4001_4248)"/>
</g>
<defs>
<linearGradient id="paint0_linear_4001_4248" x1="23.9303" y1="0.788086" x2="23.9303" y2="48.8081" gradientUnits="userSpaceOnUse">
<stop stop-color="#6D9BBA"/>
<stop offset="1" stop-color="#273048"/>
</linearGradient>
<linearGradient id="paint1_linear_4001_4248" x1="29.1763" y1="15.1218" x2="29.1763" y2="28.7227" gradientUnits="userSpaceOnUse">
<stop stop-color="#6D9BBA"/>
<stop offset="1" stop-color="#273048"/>
</linearGradient>
<clipPath id="clip0_4001_4248">
<rect width="44.3262" height="48.0427" fill="white" transform="translate(1.76718 0.765137)"/>
</clipPath>
</defs>
</svg>
