<svg width="49" height="49" viewBox="0 0 49 49" fill="none" xmlns="http://www.w3.org/2000/svg">
<g clip-path="url(#clip0_4001_4294)">
<path d="M35.7361 0.765137H14.1252C12.2966 0.765137 10.8836 2.17816 10.8836 4.00677V32.2672C10.8836 33.9296 12.7122 35.5919 13.7096 36.1738C14.0421 36.34 14.7902 36.7556 16.1201 37.4206C17.5331 38.0855 19.3617 38.9998 20.7747 39.7479V41.3271H22.2708V39.3323C22.2708 39.0829 22.1046 38.8336 21.8553 38.6673C20.276 37.8361 18.2811 36.8387 16.7019 36.0907C15.6213 35.5919 14.707 35.0932 14.3746 34.927C13.5434 34.3452 12.2135 33.0984 12.2135 32.1841V3.92365C12.2135 2.92623 13.0447 2.17816 13.959 2.17816H35.5699C36.5673 2.17816 37.3154 3.00935 37.3154 3.92365V32.1841C37.3154 33.1815 36.0686 34.4283 35.1543 34.8439C34.9049 35.0101 34.24 35.2595 33.4919 35.6751C31.9126 36.4231 29.5022 37.5868 27.6736 38.5842C27.6736 38.7505 27.5073 38.9998 27.5073 39.3323V41.244H29.0035V39.7479C30.6659 38.8336 32.8269 37.8361 34.3231 37.0881C35.2374 36.6725 35.8192 36.34 36.0686 36.2569C37.1491 35.6751 38.8946 34.0127 38.8946 32.2672V4.00677C38.9777 2.17816 37.4816 0.765137 35.7361 0.765137ZM25.6787 45.9818V38.0855L34.4893 33.3477C34.8218 33.1815 35.3205 32.6828 35.4867 32.4334C35.5699 32.3503 35.653 32.1841 35.653 32.0178V18.9682C35.653 18.7188 35.4867 18.4695 35.2374 18.3032C34.988 18.2201 34.7387 18.2201 34.4893 18.3863C34.4893 18.3863 32.3282 19.8825 30.1671 19.8825C29.1697 19.8825 28.671 19.55 28.0892 19.1344C27.4242 18.7188 26.593 18.2201 25.18 18.2201C23.767 18.2201 22.8527 18.7188 22.0215 19.2175C21.3565 19.6331 20.7747 19.8825 19.9435 19.8825C17.9487 19.8825 15.372 18.3032 15.2889 18.3032C15.0395 18.137 14.7902 18.137 14.5408 18.3032C14.3746 18.4695 14.2083 18.7188 14.2083 18.9682V31.9347C14.2083 32.1009 14.2914 32.2672 14.3746 32.3503C14.6239 32.6828 15.1226 33.1815 15.5382 33.3477C15.8707 33.5971 17.1175 34.1789 18.6967 35.0101C20.3591 35.9244 22.4371 36.9218 24.1826 37.9193V45.8987L21.8553 42.9064L20.6916 43.8207L24.3488 48.3922C24.5151 48.5585 24.6813 48.6416 24.9307 48.6416C25.18 48.6416 25.3462 48.5585 25.5125 48.3922L29.1697 43.8207L28.006 42.9064L25.6787 45.9818ZM25.0138 36.7556C23.1852 35.7582 21.1072 34.6776 19.3617 33.7633C17.8655 33.0153 16.6188 32.3503 16.2863 32.1009C16.1201 32.0178 15.8707 31.7685 15.7045 31.6022V20.1318C16.785 20.6305 18.4474 21.2955 19.9435 21.2955C21.1903 21.2955 22.0215 20.7968 22.7696 20.3812C23.5176 19.9656 24.0995 19.6331 25.18 19.6331C26.1774 19.6331 26.6761 19.9656 27.258 20.3812C27.9229 20.7968 28.7541 21.2955 30.1671 21.2955C31.7464 21.2955 33.1594 20.7137 34.1568 20.215V31.6854C33.9906 31.8516 33.8244 32.0178 33.7413 32.0178L25.0138 36.7556ZM25.6787 10.5732V4.92108H24.1826V9.82509H22.1877C21.9384 9.82509 21.689 9.99133 21.5228 10.2407C21.4397 10.49 21.4397 10.7394 21.6059 10.9888L24.2657 14.646C24.4319 14.8122 24.5982 14.9785 24.8475 14.9785C25.0969 14.9785 25.2631 14.8953 25.4294 14.646L28.1723 10.7394L27.0086 9.90821L24.8475 12.9836L23.6008 11.2381H24.8475C25.3462 11.3212 25.6787 10.9888 25.6787 10.5732ZM18.198 13.0667V8.24583H16.7019V12.3187H14.707C14.4577 12.3187 14.2083 12.4849 14.0421 12.7343C13.959 12.9836 13.959 13.233 14.1252 13.4823L16.785 17.1396C16.9512 17.3058 17.1175 17.472 17.3668 17.472C17.6162 17.472 17.7824 17.3889 17.9487 17.1396L20.7747 13.1498L19.611 12.3187L17.3668 15.4772L16.0369 13.7317H17.3668C17.8655 13.7317 18.198 13.3992 18.198 13.0667ZM33.1594 13.0667V8.24583H31.6633V12.3187H29.6684C29.4191 12.3187 29.1697 12.4849 29.0035 12.7343C28.9204 12.9836 28.9204 13.233 29.0866 13.4823L31.7464 17.1396C31.9126 17.3058 32.0789 17.472 32.3282 17.472C32.5776 17.472 32.7438 17.3889 32.9101 17.1396L35.7361 13.1498L34.5724 12.3187L32.3282 15.4772L30.9983 13.7317H32.3282C32.8269 13.7317 33.1594 13.3992 33.1594 13.0667Z" fill="url(#paint0_linear_4001_4294)"/>
</g>
<defs>
<linearGradient id="paint0_linear_4001_4294" x1="24.8907" y1="0.765137" x2="24.8907" y2="48.6416" gradientUnits="userSpaceOnUse">
<stop stop-color="#6D9BBA"/>
<stop offset="1" stop-color="#273048"/>
</linearGradient>
<clipPath id="clip0_4001_4294">
<rect width="28.0942" height="48.0427" fill="white" transform="translate(10.8836 0.765137)"/>
</clipPath>
</defs>
</svg>
