<svg width="49" height="49" viewBox="0 0 49 49" fill="none" xmlns="http://www.w3.org/2000/svg">
<path d="M47.7765 11.075L48.5979 9.71813C41.388 5.55693 33.083 3.29541 24.778 3.29541C16.3817 3.29541 8.16793 5.55693 0.958065 9.71813C0.775537 9.80859 0.593009 9.98951 0.593009 10.2609C0.501745 10.4418 0.593009 10.7132 0.684273 10.8941L3.23967 14.6935C3.51346 15.0553 3.96978 15.1458 4.33484 14.9649C10.5408 11.3464 17.6594 9.53721 24.8693 9.53721C31.8053 9.53721 38.6501 11.256 44.6736 14.603L43.0308 17.0455C37.4637 14.0602 31.1665 12.432 24.8693 12.432C18.2982 12.432 11.7272 14.1507 6.06885 17.4073C5.88633 17.4978 5.7038 17.6787 5.7038 17.9501C5.61253 18.131 5.7038 18.4024 5.79506 18.5833L8.35046 22.3826C8.62425 22.7445 9.08057 22.8349 9.44562 22.654C14.1914 20.0307 19.5759 18.6737 24.9605 18.6737C30.0713 18.6737 35.1821 19.9402 39.7453 22.2922L38.1938 24.7346C33.8131 22.3826 29.2499 21.2971 24.6867 21.2971C19.8497 21.2971 15.104 22.4731 10.8146 24.7346C10.6321 24.8251 10.4495 25.006 10.4495 25.2774C10.3583 25.4583 10.4495 25.7297 10.5408 25.9106L13.0962 29.71C13.2787 30.0718 13.735 30.1623 14.1001 29.9813C17.3856 28.3531 20.9449 27.4484 24.6867 27.4484C28.0635 27.4484 31.349 28.1721 34.452 29.529L32.718 32.1524C30.1626 30.9764 27.4246 30.4337 24.6867 30.4337C21.675 30.4337 18.7546 31.0669 16.0166 32.4238C15.8341 32.5142 15.6516 32.6952 15.5603 32.9666C15.4691 33.1475 15.5603 33.4189 15.6516 33.5998L18.207 37.3991C18.3895 37.6705 18.572 37.761 18.8458 37.761C18.9371 37.761 19.0284 37.761 19.2109 37.6705C22.6789 36.1327 26.6945 36.1327 30.2538 37.6705L30.8927 36.2231C27.1509 34.5949 22.9527 34.5044 19.2109 35.9518L17.5681 33.4189C19.8497 32.4238 22.2226 31.9715 24.778 31.9715C27.5159 31.9715 30.2538 32.6047 32.8092 33.7807C33.1743 33.9616 33.6306 33.8712 33.8131 33.5093L36.3685 29.6195C36.4598 29.4386 36.5511 29.1672 36.4598 28.9863C36.3685 28.8054 36.2773 28.6244 36.0035 28.4435C32.4442 26.6343 28.7023 25.7297 24.6867 25.7297C20.9449 25.7297 17.3856 26.5438 14.0088 28.0817L12.3661 25.8202C16.1992 23.9205 20.3973 22.9254 24.6867 22.9254C29.2499 22.9254 33.7219 24.1014 37.7375 26.182C38.1025 26.3629 38.5589 26.2725 38.7414 25.9106L41.2055 22.2017C41.2968 22.0208 41.388 21.7494 41.2968 21.5685C41.2055 21.3876 41.1143 21.2067 40.9317 21.0257C36.0035 18.3119 30.3451 16.8645 24.5955 16.8645C19.1196 16.8645 13.735 18.2214 8.89804 20.7543L7.25529 18.3119C12.5486 15.5076 18.4808 13.9698 24.5042 13.9698C30.8014 13.9698 37.0986 15.5981 42.5745 18.6737C42.9395 18.8547 43.3959 18.7642 43.6697 18.4024L46.225 14.603C46.3163 14.4221 46.4076 14.2412 46.3163 13.9698C46.225 13.7889 46.1338 13.6079 45.9513 13.427C39.4715 9.71813 32.0791 7.72799 24.5955 7.72799C17.3856 7.72799 10.267 9.53721 3.87852 13.0652L2.23576 10.6227C9.08057 6.82338 16.7468 4.83324 24.5955 4.83324C32.8092 4.9237 40.7492 7.0043 47.7765 11.075ZM24.6867 38.5751C22.7702 38.5751 21.1274 40.113 21.1274 42.1031C21.1274 44.0932 22.6789 45.6311 24.6867 45.6311C26.6033 45.6311 28.246 44.0932 28.246 42.1031C28.246 40.113 26.6033 38.5751 24.6867 38.5751ZM24.6867 44.0028C23.5916 44.0028 22.7702 43.0982 22.7702 42.1031C22.7702 41.108 23.6828 40.2034 24.6867 40.2034C25.7819 40.2034 26.6033 41.108 26.6033 42.1031C26.6033 43.0982 25.7819 44.0028 24.6867 44.0028Z" fill="url(#paint0_linear_4001_4284)"/>
<defs>
<linearGradient id="paint0_linear_4001_4284" x1="24.5766" y1="3.29541" x2="24.5766" y2="45.6311" gradientUnits="userSpaceOnUse">
<stop stop-color="#6D9BBA"/>
<stop offset="1" stop-color="#273048"/>
</linearGradient>
</defs>
</svg>
