<svg width="49" height="49" viewBox="0 0 49 49" fill="none" xmlns="http://www.w3.org/2000/svg">
<g clip-path="url(#clip0_4001_3979)">
<path d="M41.875 27.3058C41.875 11.2915 25.5983 0.877894 24.8982 0.440346C24.6357 0.265327 24.3731 0.265327 24.1106 0.440346C23.323 0.790384 7.04626 11.2915 7.04626 27.3058C7.04626 36.6693 14.3971 44.2826 23.6731 44.6326V48.308H25.2482V44.6326C34.4367 44.1951 41.875 36.5818 41.875 27.3058ZM25.2482 43.145V39.032L35.9244 28.2684L34.8743 27.2182L25.2482 36.8443V30.8936L33.2116 22.9303L32.1615 21.8802L25.2482 28.7934V23.2803L30.5863 17.9422L29.5362 16.8921L25.2482 21.1801V10.679H23.6731V21.1801L19.3851 16.8921L18.335 17.9422L23.6731 23.2803V28.7934L16.7598 21.8802L15.7097 22.9303L23.6731 30.8936V36.7568L14.047 27.1307L12.9969 28.2684L23.6731 38.9445V43.145C15.2722 42.7074 8.62144 35.7942 8.62144 27.3058C8.62144 13.5668 21.9229 3.6782 24.4607 2.01552C26.9984 3.6782 40.2999 13.4793 40.2999 27.3058C40.2999 35.7942 33.5616 42.7074 25.2482 43.145Z" fill="url(#paint0_linear_4001_3979)"/>
</g>
<defs>
<linearGradient id="paint0_linear_4001_3979" x1="24.4607" y1="0.309082" x2="24.4607" y2="48.308" gradientUnits="userSpaceOnUse">
<stop stop-color="#6D9BBA"/>
<stop offset="1" stop-color="#273048"/>
</linearGradient>
<clipPath id="clip0_4001_3979">
<rect width="34.8288" height="48.0427" fill="white" transform="translate(7.04626 0.265137)"/>
</clipPath>
</defs>
</svg>
