<svg width="49" height="49" viewBox="0 0 49 49" fill="none" xmlns="http://www.w3.org/2000/svg">
<path d="M11.4728 32.7288H13.0801V15.8442H11.4728V32.7288ZM15.0447 38.473H16.6521V10.1H15.0447V38.473V38.473ZM4.32886 27.2456H5.93624V21.3273H4.32886V27.2456ZM7.90081 29.2474H9.50818V19.3256H7.90081V29.2474ZM18.6167 48.3078H20.224V0.265137H18.6167V48.3078ZM0.756912 26.0272H2.36429V22.5458H0.756912V26.0272V26.0272ZM25.7605 36.1231H27.3679V12.4499H25.7605V36.1231ZM29.3325 31.5973H30.9399V16.9756H29.3325V31.5973ZM22.1886 43.3469H23.796V5.22607H22.1886V43.3469ZM33.083 27.7678H34.6904V20.8051H33.083V27.7678ZM43.6203 26.8975H45.2277V21.6755H43.6203V26.8975V26.8975ZM47.1922 22.6328V25.9401H48.7996V22.6328H47.1922ZM36.4764 30.3789H38.0838V18.1941H36.4764V30.3789ZM40.0483 28.203H41.6557V20.2829H40.0483V28.203Z" fill="url(#paint0_linear_4001_3814)"/>
<defs>
<linearGradient id="paint0_linear_4001_3814" x1="24.7783" y1="0.265137" x2="24.7783" y2="48.3078" gradientUnits="userSpaceOnUse">
<stop stop-color="#6D9BBA"/>
<stop offset="1" stop-color="#273048"/>
</linearGradient>
</defs>
</svg>
