<svg width="49" height="49" viewBox="0 0 49 49" fill="none" xmlns="http://www.w3.org/2000/svg">
<g clip-path="url(#clip0_4001_3830)">
<path d="M28.0204 1.03412C27.7515 0.585958 27.0344 0.585958 26.7655 1.03412C26.7655 1.03412 24.2558 4.52976 21.298 9.28025L22.6425 10.0869C24.704 6.86019 26.4966 4.17123 27.393 2.82676C30.2612 7.12909 42.2719 24.9658 42.2719 32.3157C42.2719 40.5618 35.5495 47.1946 27.393 47.1946C20.312 47.1946 14.2171 42.1752 12.783 35.2735C12.6933 34.8254 12.6037 34.3772 12.5141 33.929L10.9903 34.1083C11.0799 34.6461 11.1696 35.1839 11.2592 35.7217C12.783 43.3404 19.595 48.8976 27.393 48.8976C36.4458 48.8976 43.8852 41.5477 43.8852 32.4053C43.7956 23.5317 28.6478 2.02007 28.0204 1.03412ZM27.3033 42.713C25.9588 42.713 24.6144 42.4441 23.3595 41.9063L22.7321 43.3404C24.1662 43.9678 25.69 44.2367 27.3033 44.2367C33.9361 44.2367 39.314 38.8588 39.314 32.226C39.314 31.0608 38.9555 29.5371 38.1488 27.4755L36.7147 28.0133C37.4317 29.8956 37.7903 31.2401 37.7903 32.226C37.7903 38.0521 33.1294 42.713 27.3033 42.713ZM10.9903 28.2822L11.6177 28.9096L14.6652 25.8622V28.0133L12.2452 30.4334L13.3207 31.509L14.6652 30.1645V32.7638H16.189V30.1645L17.5334 31.509L18.609 30.4334L16.189 27.9237V25.7725L19.2365 28.82L19.7742 28.2822L20.5809 28.103L19.5053 23.9799L21.3876 25.0555L22.2839 28.3719L23.8077 27.9237L23.2699 26.0414L25.5107 27.2963L26.3174 25.9518L24.0766 24.6969L25.9588 24.1592L25.5107 22.6354L22.1943 23.5317L20.312 22.4561L24.4351 21.3806L24.2558 20.6635L24.4351 19.8568L20.312 18.7812L22.1943 17.7057L25.5107 18.602L25.9588 17.0782L24.0766 16.5404L26.3174 15.2856L25.5107 13.9411L23.2699 15.196L23.8077 13.3137L22.2839 12.8655L21.3876 16.1819L19.5053 17.2575L20.5809 13.1344L19.7742 13.0448L19.2365 12.4174L16.189 15.4649V13.3137L18.609 10.8936L17.5334 9.81805L16.189 11.1625V8.5632H14.5756V11.1625L13.2311 9.81805L12.1555 10.8936L14.5756 13.3137V15.4649L11.6177 12.4174L10.9903 13.0448L10.1836 13.2241L11.2592 17.3471L9.37694 16.2715L8.48062 12.9552L6.95688 13.4033L7.49467 15.2856L5.25387 14.0307L4.53682 15.2856L6.77762 16.5404L4.89535 17.0782L5.34351 18.602L8.65989 17.7057L10.5422 18.7812L6.41909 19.8568L6.59835 20.6635L6.41909 21.4702L10.5422 22.5458L8.65989 23.6214L5.34351 22.725L4.89535 24.2488L6.77762 24.7866L4.53682 26.0414L5.34351 27.3859L7.5843 26.1311L7.04651 28.0133L8.57026 28.4615L9.46657 25.1451L11.3488 24.0695L10.2733 28.1926L10.9903 28.2822ZM21.298 20.6635L18.3401 21.4702L16.9957 20.6635L18.3401 19.8568L21.298 20.6635ZM16.189 17.7057L18.3401 15.5545L17.5334 18.5123L16.189 19.319V17.7057ZM16.189 22.008L17.5334 22.8147L18.3401 25.7725L16.189 23.6214V22.008ZM14.6652 23.6214L12.5141 25.7725L13.3207 22.8147L14.6652 22.008V23.6214ZM14.6652 17.7057V19.319L13.3207 18.5123L12.5141 15.5545L14.6652 17.7057ZM9.46657 20.6635L12.4244 19.8568L13.7689 20.6635L12.4244 21.4702L9.46657 20.6635Z" fill="url(#paint0_linear_4001_3830)"/>
</g>
<defs>
<linearGradient id="paint0_linear_4001_3830" x1="24.211" y1="0.697998" x2="24.211" y2="48.8976" gradientUnits="userSpaceOnUse">
<stop stop-color="#6D9BBA"/>
<stop offset="1" stop-color="#273048"/>
</linearGradient>
<clipPath id="clip0_4001_3830">
<rect width="39.2588" height="48.0427" fill="white" transform="translate(4.53682 0.765137)"/>
</clipPath>
</defs>
</svg>
