<svg width="49" height="49" viewBox="0 0 49 49" fill="none" xmlns="http://www.w3.org/2000/svg">
<g clip-path="url(#clip0_4001_4257)">
<path d="M36.3894 10.5427H36.1965V4.46498C37.8365 4.0791 39.0906 2.63203 39.0906 0.799072H37.4506C37.4506 1.95673 36.4859 2.82497 35.4247 2.82497C34.267 2.82497 33.3988 1.86026 33.3988 0.799072H31.6623C31.6623 2.53556 32.9164 3.98263 34.5565 4.46498V10.6391H25.5846V4.46498C27.2246 4.0791 28.4788 2.63203 28.4788 0.799072H26.8388C26.8388 1.95673 25.874 2.82497 24.8129 2.82497C23.6552 2.82497 22.787 1.86026 22.787 0.799072H21.0505C21.0505 2.53556 22.3046 3.98263 23.9446 4.46498V10.6391H14.9728V4.46498C16.6128 4.0791 17.9634 2.63203 17.9634 0.799072H16.2269C16.2269 1.95673 15.2622 2.82497 14.201 2.82497C13.0434 2.82497 12.1751 1.86026 12.1751 0.799072H10.4386C10.4386 2.53556 11.6928 3.98263 13.2363 4.46498V10.6391H13.1398C11.1139 10.5427 9.47392 12.2792 9.47392 14.3051V33.5993C9.47392 35.6252 11.1139 37.3617 13.2363 37.3617H13.3328V43.4394C11.6928 43.8253 10.5351 45.2723 10.5351 47.1053H12.2716C12.2716 45.9476 13.2363 45.0794 14.2975 45.0794C15.4551 45.0794 16.3234 46.0441 16.3234 47.1053H18.0599C18.0599 45.2723 16.8057 43.8253 15.0693 43.4394V37.3617H23.9446V43.4394C22.3046 43.8253 21.0505 45.2723 21.0505 47.1053H22.787C22.787 45.9476 23.7517 45.0794 24.8129 45.0794C25.9705 45.0794 26.8388 46.0441 26.8388 47.1053H28.5752C28.5752 45.2723 27.3211 43.8253 25.6811 43.4394V37.3617H34.5565V43.4394C32.9164 43.8253 31.6623 45.2723 31.6623 47.1053H33.3988C33.3988 45.9476 34.3635 45.0794 35.4247 45.0794C36.5824 45.0794 37.4506 46.0441 37.4506 47.1053H39.1871C39.1871 45.2723 37.933 43.8253 36.2929 43.4394V37.3617H36.4859C38.5118 37.3617 40.2483 35.7217 40.2483 33.5993V14.3051C40.1518 12.2792 38.4153 10.5427 36.3894 10.5427ZM38.4153 33.5993C38.4153 34.757 37.4506 35.6252 36.3894 35.6252H13.2363C12.0786 35.6252 11.2104 34.6605 11.2104 33.5993V14.3051C11.2104 13.1474 12.1751 12.2792 13.2363 12.2792H36.3894C37.5471 12.2792 38.4153 13.2439 38.4153 14.3051V33.5993ZM4.55388 8.42031C6.57978 8.42031 8.31626 6.68382 8.31626 4.65792C8.31626 2.63203 6.57978 0.895544 4.55388 0.895544C2.43152 0.895544 0.791504 2.63203 0.791504 4.65792C0.791504 6.68382 2.43152 8.42031 4.55388 8.42031ZM4.55388 2.63203C5.61507 2.63203 6.57978 3.50027 6.57978 4.65792C6.57978 5.81558 5.61507 6.68382 4.55388 6.68382C3.39623 6.68382 2.52799 5.71911 2.52799 4.65792C2.52799 3.59674 3.39623 2.63203 4.55388 2.63203ZM4.55388 40.4488C2.43152 40.4488 0.791504 42.1853 0.791504 44.2112C0.791504 46.2371 2.43152 47.9735 4.55388 47.9735C6.57978 47.9735 8.31626 46.3335 8.31626 44.2112C8.31626 42.0888 6.57978 40.4488 4.55388 40.4488ZM4.55388 46.2371C3.39623 46.2371 2.52799 45.2723 2.52799 44.2112C2.52799 43.15 3.4927 42.1853 4.55388 42.1853C5.61507 42.1853 6.57978 43.0535 6.57978 44.2112C6.57978 45.3688 5.61507 46.2371 4.55388 46.2371ZM45.0718 8.42031C47.0977 8.42031 48.8342 6.78029 48.8342 4.65792C48.8342 2.53556 47.0977 0.895544 45.0718 0.895544C42.9495 0.895544 41.3094 2.63203 41.3094 4.65792C41.3094 6.68382 42.9495 8.42031 45.0718 8.42031ZM45.0718 2.63203C46.133 2.63203 47.0977 3.50027 47.0977 4.65792C47.0977 5.81558 46.133 6.68382 45.0718 6.68382C43.9142 6.68382 43.0459 5.71911 43.0459 4.65792C43.0459 3.59674 43.9142 2.63203 45.0718 2.63203ZM45.0718 40.4488C43.0459 40.4488 41.3094 42.0888 41.3094 44.2112C41.3094 46.3335 42.9495 47.9735 45.0718 47.9735C47.0977 47.9735 48.8342 46.3335 48.8342 44.2112C48.8342 42.0888 47.0977 40.4488 45.0718 40.4488ZM45.0718 46.2371C43.9142 46.2371 43.0459 45.2723 43.0459 44.2112C43.0459 43.15 44.0106 42.1853 45.0718 42.1853C46.2295 42.1853 47.0977 43.15 47.0977 44.2112C47.0977 45.2723 46.133 46.2371 45.0718 46.2371ZM5.42213 8.51678H3.68564V20.0933C3.68564 20.5757 4.07153 20.9616 4.55388 20.9616H9.37745V19.2251H5.42213V8.51678ZM45.9401 20.0933V8.51678H44.2036V19.2251H40.2483V20.9616H45.0718C45.5542 20.9616 45.9401 20.5757 45.9401 20.0933ZM3.68564 28.7758V40.3523H5.42213V29.644H9.37745V27.9075H4.55388C4.07153 27.9075 3.68564 28.2934 3.68564 28.7758ZM44.2036 40.3523H45.9401V28.7758C45.9401 28.2934 45.5542 27.9075 45.0718 27.9075H40.2483V29.644H44.2036V40.3523ZM19.9893 19.9969C21.1469 19.9969 22.0152 20.8651 22.0152 21.9263H23.7517C23.7517 19.9004 22.1117 18.3569 19.9893 18.3569C17.9634 18.3569 16.2269 19.9969 16.2269 21.9263C16.2269 23.5663 18.0599 24.2416 19.6999 24.8204C20.5681 25.1098 22.0152 25.6887 22.0152 26.0746C22.0152 27.0393 21.7258 28.004 19.9893 28.004C18.8316 28.004 17.9634 27.1357 17.9634 26.0746H16.2269C16.2269 28.1005 17.8669 29.644 19.9893 29.644C22.4011 29.644 23.7517 28.2934 23.7517 26.0746C23.7517 24.4345 21.9187 23.7592 20.2787 23.1804C19.4105 22.891 17.9634 22.3122 17.9634 21.9263C17.9634 20.8651 18.8316 19.9969 19.9893 19.9969ZM29.6364 19.9969C30.7941 19.9969 31.6623 20.8651 31.6623 21.9263H33.3988C33.3988 19.9004 31.7588 18.3569 29.6364 18.3569C27.6105 18.3569 25.874 19.9969 25.874 21.9263V26.0746C25.874 28.1005 27.5141 29.644 29.6364 29.644C31.6623 29.644 33.3988 28.004 33.3988 26.0746V24.724C33.3988 24.2416 33.0129 23.8557 32.5306 23.8557H30.3117V25.5922H31.6623V26.171C31.6623 27.2322 30.6976 28.1005 29.6364 28.1005C28.4788 28.1005 27.6105 27.2322 27.6105 26.171V22.0228C27.6105 20.8651 28.4788 19.9969 29.6364 19.9969Z" fill="url(#paint0_linear_4001_4257)"/>
</g>
<defs>
<linearGradient id="paint0_linear_4001_4257" x1="24.8129" y1="0.799072" x2="24.8129" y2="47.9735" gradientUnits="userSpaceOnUse">
<stop stop-color="#6D9BBA"/>
<stop offset="1" stop-color="#273048"/>
</linearGradient>
<clipPath id="clip0_4001_4257">
<rect width="48.0427" height="47.1745" fill="white" transform="translate(0.791504 0.799072)"/>
</clipPath>
</defs>
</svg>
