<svg width="100" height="111" viewBox="0 0 100 111" fill="none" xmlns="http://www.w3.org/2000/svg">
<g clip-path="url(#clip0_1694_13197)">
<path d="M0 58.1112V75.8231C0 80.7934 2.65926 85.3866 6.97507 87.869L42.7224 108.45C47.0383 110.933 52.3568 110.933 56.6726 108.45L92.4203 87.869C96.7358 85.3866 99.3953 80.7934 99.3953 75.8231V57.4736C85.8905 65.9166 68.3513 71.017 49.1841 71.017C30.4918 71.0217 13.3593 66.1774 0 58.1112Z" fill="#AEACAC"/>
<path d="M92.4149 22.6202L56.6678 2.03924C52.352 -0.443418 47.0334 -0.443418 42.7176 2.03924L6.97507 22.6202C2.65926 25.1077 0 29.6962 0 34.6663V58.1114C13.3593 66.1729 30.4918 71.0225 49.1793 71.0225C68.3514 71.0225 85.8858 65.9217 99.3905 57.4787V34.6663C99.3905 29.6962 96.7311 25.1077 92.4149 22.6202Z" fill="url(#paint0_linear_1694_13197)"/>
<path d="M90.9517 39.854C90.6854 39.854 90.4679 39.6366 90.4679 39.371V38.1587C90.4679 34.2173 88.3408 30.5465 84.9212 28.5758L55.2433 11.4919C51.8188 9.52123 47.5708 9.52123 44.1462 11.4919L14.4729 28.5806C11.0532 30.5513 8.92679 34.2222 8.92679 38.1635V39.3758C8.92679 39.6415 8.70882 39.8589 8.4424 39.8589C8.17598 39.8589 7.95801 39.6415 7.95801 39.3758V38.1635C7.95801 36.0528 8.5151 33.9758 9.57585 32.1501C10.6318 30.3243 12.1625 28.8029 13.9934 27.745L43.6618 10.6611C45.4927 9.60812 47.5804 9.04785 49.6923 9.04785C51.8091 9.04785 53.8919 9.60332 55.7229 10.6611L85.401 27.745C87.2321 28.798 88.7577 30.3195 89.8186 32.1501C90.8746 33.9758 91.4361 36.0576 91.4361 38.1635V39.3758C91.4361 39.6415 91.2186 39.854 90.9517 39.854Z" fill="black"/>
<path d="M49.6932 103.176C47.5765 103.176 45.4936 102.621 43.6627 101.563L13.9846 84.4787C12.1536 83.426 10.6278 81.8997 9.56706 80.074C8.51104 78.2483 7.94922 76.1666 7.94922 74.0605V72.8483C7.94922 72.5828 8.16719 72.3652 8.43354 72.3652C8.69996 72.3652 8.91793 72.5828 8.91793 72.8483V74.0605C8.91793 78.0017 11.0444 81.6727 14.4642 83.6436L44.1422 100.727C47.5619 102.698 51.8148 102.698 55.2394 100.727L84.9173 83.6436C88.3369 81.6727 90.4633 78.0017 90.4633 74.0605V72.8483C90.4633 72.5828 90.6815 72.3652 90.9477 72.3652C91.2146 72.3652 91.4322 72.5828 91.4322 72.8483V74.0605C91.4322 76.1713 90.8754 78.2483 89.8146 80.074C88.7585 81.8997 87.2329 83.4213 85.3971 84.4787L55.7189 101.563C53.8976 102.621 51.81 103.176 49.6932 103.176Z" fill="black"/>
<path d="M63.4835 85.6472H35.4766C35.341 85.6472 35.2344 85.5411 35.2344 85.406C35.2344 85.2708 35.341 85.1641 35.4766 85.1641H63.4835C63.6192 85.1641 63.7257 85.2708 63.7257 85.406C63.7257 85.5411 63.6143 85.6472 63.4835 85.6472Z" fill="black"/>
<path d="M63.4835 72.612H35.4766C35.341 72.612 35.2344 72.5053 35.2344 72.3701C35.2344 72.235 35.341 72.1289 35.4766 72.1289H63.4835C63.6192 72.1289 63.7257 72.235 63.7257 72.3701C63.7257 72.5053 63.6143 72.612 63.4835 72.612Z" fill="black"/>
<path d="M27.7644 81.7401H26.5728L25.1778 78.1124L23.8313 81.7401H22.6396L20.2129 75.2529H21.8405L22.6494 77.4698L23.2355 79.5664L24.6983 75.2529H25.6477L27.1735 79.5664L27.7305 77.48L28.5007 75.2529H30.1282L27.7644 81.7401Z" fill="black"/>
<path d="M34.6481 80.6387H31.3107L30.836 81.7495H29.2715L32.1923 75.2583H33.7713L36.6922 81.7495H35.118L34.6481 80.6387ZM32.9867 76.7218L31.8629 79.3542H34.1007L32.9867 76.7218Z" fill="black"/>
<path d="M43.1148 81.7495H41.5066L39.8403 79.6151H38.7892V81.7495H37.3361V75.2583C38.3969 75.2583 39.3753 75.2583 40.4265 75.2583C42.0007 75.2583 42.8338 76.3063 42.8338 77.4461C42.8241 78.2914 42.5723 79.0401 41.3274 79.4894L43.1148 81.6434V81.7495ZM38.7892 76.4995V78.3928H40.4458C41.1142 78.3928 41.4049 77.8907 41.4049 77.4847C41.3952 77.0401 41.1094 76.4995 40.4265 76.4995H38.7892Z" fill="black"/>
<path d="M49.6156 81.7495H48.0074L46.3412 79.6151H45.29V81.7495H43.8369V75.2583C44.8977 75.2583 45.8762 75.2583 46.9273 75.2583C48.5015 75.2583 49.3346 76.3063 49.3346 77.4461C49.325 78.2914 49.0731 79.0401 47.8282 79.4894L49.6156 81.6434V81.7495ZM45.29 76.4995V78.3928H46.9466C47.6151 78.3928 47.9057 77.8907 47.9057 77.4847C47.896 77.0401 47.6102 76.4995 46.9273 76.4995H45.29Z" fill="black"/>
<path d="M55.3943 80.6387H52.0568L51.5822 81.7495H50.0176L52.9385 75.2583H54.5175L57.4383 81.7495H55.8641L55.3943 80.6387ZM53.728 76.7218L52.6042 79.3542H54.8469L53.728 76.7218Z" fill="black"/>
<path d="M62.4175 79.4792L62.3254 77.4367V75.2583H63.7882V81.7495H62.5434L59.3077 77.5961L59.3658 79.7306V81.7542H57.8836V75.263H59.1285L62.4175 79.4792Z" fill="black"/>
<path d="M66.5543 76.5475H64.5732V75.2583C66.472 75.2583 68.0706 75.2583 69.9787 75.2583V76.5475H67.9976V81.7495H66.5543V76.5475Z" fill="black"/>
<path d="M73.8824 77.8374L75.5297 75.2583H77.196V75.3306L74.5899 79.1705V81.7495H73.1365V79.1705L70.6426 75.3306V75.2583H72.3183L73.8824 77.8374Z" fill="black"/>
<path d="M32.9622 67.2355L29.7361 62.2943V62.2847H30.4821L33.2867 66.6221L36.1009 62.2847H36.8469V62.2943L33.6063 67.2355V70.5347H32.967V67.2355H32.9622Z" fill="black"/>
<path d="M39.0993 66.0908H43.9481V66.6704H39.0993V69.926H44.3258V70.5395H38.4745V62.2847H44.1854V62.8837H39.0993V66.0908Z" fill="black"/>
<path d="M52.7928 70.5395L51.8822 68.5104H46.9414L46.0405 70.5395H45.3527L49.0631 62.2847H49.7606L53.4709 70.5395H52.7928ZM51.6351 67.9212L49.4118 62.8981L47.1885 67.9212H51.6351Z" fill="black"/>
<path d="M61.6129 70.5395H60.775L57.9122 67.4142H55.655V70.5395H55.0156V62.2847C56.2314 62.2847 57.4375 62.2847 58.6582 62.2847C60.4552 62.2847 61.3659 63.5695 61.3756 64.8543C61.3852 66.197 60.4988 67.3756 58.6921 67.3756L61.6129 70.5395ZM55.655 66.8105H58.5855C60.029 66.8105 60.6683 65.999 60.6781 64.8398C60.6877 63.8738 60.029 62.8691 58.6582 62.8691H55.655V66.8105Z" fill="black"/>
<path d="M68.8838 63.8739C68.2831 62.9079 67.3096 62.7678 66.3748 62.7533C65.406 62.7533 63.8656 63.106 63.8656 64.4294C63.8656 65.4775 64.9991 65.7287 66.3942 65.9847C67.9925 66.2889 69.6446 66.5739 69.6446 68.3565C69.6344 70.2207 67.7506 70.6653 66.3699 70.6653C65.0815 70.6653 63.6138 70.1335 62.9744 68.8727L63.5411 68.5883C64.0497 69.5876 65.3479 70.0855 66.365 70.0855C67.3823 70.0855 69 69.8004 69 68.3416C69.0101 67.1052 67.6392 66.8347 66.2827 66.5739C64.7715 66.2793 63.2215 65.975 63.2215 64.4535C63.1875 62.7099 65.0088 62.1641 66.365 62.1641C67.5469 62.1641 68.5736 62.3524 69.3925 63.5648L68.8838 63.8739Z" fill="black"/>
<path d="M50.0175 89.4927L50.933 92.3082H53.9071L51.4998 94.0521L52.42 96.8724L50.0175 95.1292L47.6102 96.8724L48.5305 94.0521L46.1279 92.3082H49.0972L50.0175 89.4927Z" fill="black"/>
<path d="M90.1243 52.1074L91.0446 54.9234H94.0135L91.6108 56.667L92.5318 59.483L90.1243 57.7441L87.7216 59.483L88.6372 56.667L86.2345 54.9234H89.2088L90.1243 52.1074Z" fill="black"/>
<path d="M90.1248 48.5433L89.4707 46.5437H87.3633L89.0687 45.3024L88.4194 43.3027L90.1248 44.5392L91.8342 43.3027L91.1809 45.3024L92.8903 46.5437H90.7788L90.1248 48.5433Z" fill="black"/>
<path d="M90.1248 63.8252L89.4707 65.8249H87.3633L89.0687 67.0613L88.4194 69.0656L90.1248 67.8291L91.8342 69.0656L91.1809 67.0613L92.8903 65.8249H90.7788L90.1248 63.8252Z" fill="black"/>
<path d="M8.59774 52.1074L9.51321 54.9234H12.4873L10.08 56.667L11.0002 59.483L8.59774 57.7441L6.19036 59.483L7.11071 56.667L4.70331 54.9234H7.6774L8.59774 52.1074Z" fill="black"/>
<path d="M8.5977 48.5429L7.94378 46.5432H5.83191L7.54175 45.3019L6.88783 43.3022L8.5977 44.5387L10.3028 43.3022L9.65365 45.3019L11.3587 46.5432H9.24682L8.5977 48.5429Z" fill="black"/>
<path d="M8.5977 63.8252L7.94378 65.8249H5.83191L7.54175 67.0613L6.88783 69.0656L8.5977 67.8291L10.3028 69.0656L9.65365 67.0613L11.3587 65.8249H9.24682L8.5977 63.8252Z" fill="black"/>
<path d="M49.6622 52.2042C47.0599 52.2042 44.814 51.723 42.9243 50.7608C41.0655 49.7986 39.6405 48.5206 38.6491 46.9269C37.6578 45.3031 37.1622 43.4989 37.1622 41.5143H43.5283C43.5283 43.108 44.0705 44.401 45.1547 45.3933C46.27 46.3555 47.7724 46.8367 49.6622 46.8367C50.9323 46.8367 52.0166 46.6112 52.9149 46.1601C53.8443 45.679 54.5568 45.0324 55.0525 44.2205C55.5482 43.3786 55.796 42.4164 55.796 41.3339C55.796 39.7101 55.2539 38.387 54.1696 37.3646C53.0853 36.3121 51.5984 35.7859 49.7087 35.7859C48.7793 35.7859 47.9583 35.9062 47.2458 36.1468C46.5643 36.3873 45.9602 36.703 45.4335 37.0939L42.4131 32.0422L53.5655 24.6449L53.1473 23.8781H38.5562V18.4204H60.7216V25.0057L49.2439 32.403L45.6659 31.7716C46.2545 31.5912 46.8895 31.4558 47.5711 31.3656C48.2526 31.2453 48.9961 31.1852 49.8016 31.1852C52.3728 31.1852 54.5723 31.6212 56.4001 32.4932C58.2588 33.3352 59.6839 34.5079 60.6752 36.0114C61.6665 37.5149 62.1622 39.244 62.1622 41.1985V41.7849C62.1622 43.6793 61.6665 45.4234 60.6752 47.0171C59.6839 48.5807 58.2588 49.8437 56.4001 50.806C54.5414 51.7381 52.2954 52.2042 49.6622 52.2042Z" fill="black"/>
</g>
<defs>
<linearGradient id="paint0_linear_1694_13197" x1="49.6944" y1="0.701902" x2="49.6944" y2="71.9577" gradientUnits="userSpaceOnUse">
<stop stop-color="#C7C7C7"/>
<stop offset="0.4077" stop-color="#B4B1B1"/>
<stop offset="0.5728" stop-color="#ADABAB"/>
<stop offset="0.694" stop-color="#B4B0B0"/>
<stop offset="0.7937" stop-color="#B5AFAF"/>
<stop offset="0.8792" stop-color="#A29B9B"/>
<stop offset="0.9515" stop-color="#B7B1B1"/>
</linearGradient>
<clipPath id="clip0_1694_13197">
<rect width="100" height="110.135" fill="white" transform="translate(0 0.177246)"/>
</clipPath>
</defs>
</svg>
