<svg width="100" height="111" viewBox="0 0 100 111" fill="none" xmlns="http://www.w3.org/2000/svg">
<g clip-path="url(#clip0_1694_13232)">
<path d="M0 58.1205V75.8895C0 80.8755 2.66781 85.4839 6.99755 87.9741L42.8599 108.622C47.1897 111.112 52.5252 111.112 56.855 108.622L92.7175 87.9741C97.0469 85.4839 99.7147 80.8755 99.7147 75.8895V57.481C86.1671 65.951 68.571 71.0678 49.3424 71.0678C30.5899 71.0727 13.4022 66.2127 0 58.1205Z" fill="#FAB20D"/>
<path d="M92.7126 22.5151L56.8501 1.86798C52.5204 -0.62266 47.1848 -0.62266 42.855 1.86798L6.99755 22.5151C2.66781 25.0106 0 29.6139 0 34.6001V58.1206C13.4022 66.208 30.5899 71.0727 49.3375 71.0727C68.571 71.0727 86.1622 65.9559 99.7098 57.4859V34.6001C99.7098 29.6139 97.042 25.0106 92.7126 22.5151Z" fill="url(#paint0_linear_1694_13232)"/>
<path d="M91.2451 39.8042C90.978 39.8042 90.7591 39.5861 90.7591 39.3196V38.1034C90.7591 34.1493 88.6263 30.4667 85.1955 28.4897L55.4219 11.3508C51.9863 9.37375 47.7246 9.37375 44.289 11.3508L14.5202 28.4945C11.0895 30.4716 8.95626 34.1542 8.95626 38.1082V39.3244C8.95626 39.591 8.73759 39.8091 8.47032 39.8091C8.20305 39.8091 7.98438 39.591 7.98438 39.3244V38.1082C7.98438 35.9907 8.54319 33.9071 9.60745 32.0754C10.6668 30.2438 12.2023 28.7175 14.0392 27.6563L43.803 10.5173C45.6399 9.46102 47.7343 8.89893 49.853 8.89893C51.9765 8.89893 54.066 9.45613 55.9029 10.5173L85.6766 27.6563C87.5137 28.7126 89.0437 30.2389 90.1081 32.0754C91.1675 33.9071 91.7311 35.9956 91.7311 38.1082V39.3244C91.7311 39.591 91.5123 39.8042 91.2451 39.8042Z" fill="black"/>
<path d="M49.8529 103.33C47.7294 103.33 45.6399 102.772 43.803 101.712L14.0294 84.5724C12.1926 83.5157 10.6619 81.985 9.59762 80.1535C8.53832 78.3213 7.97461 76.2332 7.97461 74.1206V72.9038C7.97461 72.6374 8.19328 72.4199 8.46055 72.4199C8.72783 72.4199 8.9465 72.6374 8.9465 72.9038V74.1206C8.9465 78.0745 11.0798 81.757 14.5105 83.7339L44.284 100.873C47.7147 102.85 51.9813 102.85 55.4169 100.873L85.1906 83.7339C88.6213 81.757 90.7542 78.0745 90.7542 74.1206V72.9038C90.7542 72.6374 90.9731 72.4199 91.2402 72.4199C91.508 72.4199 91.7262 72.6374 91.7262 72.9038V74.1206C91.7262 76.2381 91.1675 78.3213 90.1031 80.1535C89.0437 81.985 87.5129 83.5115 85.6717 84.5724L55.898 101.712C54.0709 102.772 51.9765 103.33 49.8529 103.33Z" fill="black"/>
<path d="M63.6877 85.7454H35.5907C35.4546 85.7454 35.3477 85.6384 35.3477 85.5027C35.3477 85.367 35.4546 85.2607 35.5907 85.2607H63.6877C63.8237 85.2607 63.9307 85.367 63.9307 85.5027C63.9307 85.6384 63.8189 85.7454 63.6877 85.7454Z" fill="black"/>
<path d="M63.6877 72.6672H35.5907C35.4546 72.6672 35.3477 72.5609 35.3477 72.4253C35.3477 72.2896 35.4546 72.1826 35.5907 72.1826H63.6877C63.8237 72.1826 63.9307 72.2896 63.9307 72.4253C63.9307 72.5609 63.8189 72.6672 63.6877 72.6672Z" fill="black"/>
<path d="M27.8541 81.8251H26.6587L25.2592 78.1859L23.9083 81.8251H22.7128L20.2783 75.3174H21.9111L22.7225 77.5419L23.3106 79.6447L24.778 75.3174H25.7305L27.2613 79.6447L27.8201 77.5509L28.5927 75.3174H30.2255L27.8541 81.8251Z" fill="black"/>
<path d="M34.7591 80.7202H31.411L30.9348 81.8349H29.3652L32.2954 75.3223H33.8796L36.8098 81.8349H35.2305L34.7591 80.7202ZM33.0923 76.7901L31.965 79.4314H34.21L33.0923 76.7901Z" fill="black"/>
<path d="M43.2533 81.8349H41.6401L39.9685 79.6929H38.9139V81.8349H37.4561V75.3223C38.5203 75.3223 39.502 75.3223 40.5564 75.3223C42.1357 75.3223 42.9715 76.374 42.9715 77.5174C42.9618 78.3649 42.7092 79.1167 41.4603 79.567L43.2533 81.7279V81.8349ZM38.9139 76.5677V78.467H40.5759C41.2464 78.467 41.538 77.9628 41.538 77.5558C41.5283 77.1104 41.2416 76.5677 40.5564 76.5677H38.9139Z" fill="black"/>
<path d="M49.7748 81.8349H48.1615L46.4899 79.6929H45.4354V81.8349H43.9776V75.3223C45.0418 75.3223 46.0234 75.3223 47.0779 75.3223C48.6572 75.3223 49.493 76.374 49.493 77.5174C49.4833 78.3649 49.2306 79.1167 47.9817 79.567L49.7748 81.7279V81.8349ZM45.4354 76.5677V78.467H47.0973C47.7679 78.467 48.0595 77.9628 48.0595 77.5558C48.0498 77.1104 47.7631 76.5677 47.0779 76.5677H45.4354Z" fill="black"/>
<path d="M55.5717 80.7202H52.2235L51.7473 81.8349H50.1777L53.1079 75.3223H54.6921L57.6223 81.8349H56.043L55.5717 80.7202ZM53.9 76.7901L52.7726 79.4314H55.0226L53.9 76.7901Z" fill="black"/>
<path d="M62.6177 79.5572L62.5254 77.5076V75.3223H63.993V81.8349H62.7441L59.498 77.6677L59.5563 79.809V81.8397H58.0693V75.3272H59.3182L62.6177 79.5572Z" fill="black"/>
<path d="M66.7678 76.616H64.7803V75.3223C66.6852 75.3223 68.2888 75.3223 70.2032 75.3223V76.616H68.2159V81.8349H66.7678V76.616Z" fill="black"/>
<path d="M74.1203 77.9097L75.7727 75.3223H77.4441V75.395L74.8301 79.2474V81.8349H73.372V79.2474L70.8692 75.395V75.3223H72.551L74.1203 77.9097Z" fill="black"/>
<path d="M33.0683 67.2739L29.832 62.3168V62.3071H30.5803L33.3938 66.6585L36.2172 62.3071H36.9655V62.3168L33.7146 67.2739V70.5833H33.0731V67.2739H33.0683Z" fill="black"/>
<path d="M39.2255 66.1255H44.0898V66.7069H39.2255V69.9728H44.4688V70.5882H38.5986V62.3071H44.3279V62.908H39.2255V66.1255Z" fill="black"/>
<path d="M52.9631 70.5882L52.0495 68.5531H47.0929L46.189 70.5882H45.499L49.2213 62.3071H49.921L53.6434 70.5882H52.9631ZM51.8017 67.962L49.5712 62.9225L47.3407 67.962H51.8017Z" fill="black"/>
<path d="M61.8119 70.5882H60.9712L58.0993 67.4531H55.8348V70.5882H55.1934V62.3071C56.4131 62.3071 57.6231 62.3071 58.8476 62.3071C60.6505 62.3071 61.5641 63.5961 61.5738 64.885C61.5835 66.2321 60.6942 67.4144 58.8817 67.4144L61.8119 70.5882ZM55.8348 66.8475H58.7748C60.2229 66.8475 60.8643 66.0334 60.8741 64.8705C60.8838 63.9013 60.2229 62.8935 58.8476 62.8935H55.8348V66.8475Z" fill="black"/>
<path d="M69.1052 63.9018C68.5026 62.9327 67.5259 62.7922 66.588 62.7776C65.6161 62.7776 64.0709 63.1314 64.0709 64.4591C64.0709 65.5106 65.2079 65.7625 66.6075 66.0194C68.2111 66.3246 69.8682 66.6105 69.8682 68.3986C69.8584 70.2688 67.9681 70.715 66.5832 70.715C65.2906 70.715 63.8182 70.1814 63.1768 68.917L63.7453 68.6311C64.2555 69.6342 65.5578 70.1332 66.5783 70.1332C67.5988 70.1332 69.2218 69.8474 69.2218 68.384C69.2315 67.1436 67.8563 66.8722 66.4957 66.6105C64.9796 66.315 63.4246 66.0097 63.4246 64.4833C63.3905 62.7341 65.2177 62.1865 66.5783 62.1865C67.764 62.1865 68.7942 62.3755 69.6154 63.5917L69.1052 63.9018Z" fill="black"/>
<path d="M50.1785 89.6025L51.0969 92.4277H54.0806L51.6655 94.1767L52.5887 97.0067L50.1785 95.2571L47.7634 97.0067L48.6866 94.1767L46.2764 92.4277H49.2552L50.1785 89.6025Z" fill="black"/>
<path d="M90.414 52.0972L91.3371 54.9222H94.3161L91.9056 56.6714L92.8294 59.4964L90.414 57.752L88.0035 59.4964L88.9224 56.6714L86.5119 54.9222H89.4958L90.414 52.0972Z" fill="black"/>
<path d="M90.4145 48.5212L89.7585 46.5151H87.6445L89.355 45.2698L88.704 43.2637L90.4145 44.5042L92.1298 43.2637L91.4739 45.2698L93.1893 46.5151H91.0704L90.4145 48.5212Z" fill="black"/>
<path d="M90.4145 63.8525L89.7585 65.8586H87.6445L89.355 67.0991L88.704 69.11L90.4145 67.8695L92.1298 69.11L91.4739 67.0991L93.1893 65.8586H91.0704L90.4145 63.8525Z" fill="black"/>
<path d="M8.62553 52.0972L9.54399 54.9222H12.5276L10.1125 56.6714L11.0358 59.4964L8.62553 57.752L6.21041 59.4964L7.13371 56.6714L4.71857 54.9222H7.70224L8.62553 52.0972Z" fill="black"/>
<path d="M8.62546 48.5212L7.96944 46.5151H5.85076L7.56616 45.2698L6.91011 43.2637L8.62546 44.5042L10.336 43.2637L9.68483 45.2698L11.3953 46.5151H9.27665L8.62546 48.5212Z" fill="black"/>
<path d="M8.62546 63.8525L7.96944 65.8586H5.85076L7.56616 67.0991L6.91011 69.11L8.62546 67.8695L10.336 69.11L9.68483 67.0991L11.3953 65.8586H9.27665L8.62546 63.8525Z" fill="black"/>
<path d="M61.6605 27.2928H41.7515V33.752H48.9143C56.7622 33.752 63.7646 36.9549 63.7112 45.5656C63.7112 53.9145 56.7088 57.9073 49.2836 57.9073C41.1733 57.9073 34.2243 55.0194 34.1709 46.4087H41.0712C41.0712 50.4499 45.7071 51.5015 49.1816 51.5015C52.554 51.5015 56.8157 49.9266 56.8157 45.5656C56.8691 41.4178 52.7095 40.2112 48.9191 40.2112H34.963C34.963 33.5969 34.963 27.4527 34.963 20.7803H61.6605V27.2928Z" fill="black"/>
</g>
<defs>
<linearGradient id="paint0_linear_1694_13232" x1="49.8543" y1="0.526344" x2="49.8543" y2="72.0112" gradientUnits="userSpaceOnUse">
<stop stop-color="#FAB20D"/>
<stop offset="0.4077" stop-color="#FAB30F"/>
<stop offset="0.5728" stop-color="#FAB516"/>
<stop offset="0.694" stop-color="#FAB822"/>
<stop offset="0.7937" stop-color="#FABE34"/>
<stop offset="0.8792" stop-color="#FAC44A"/>
<stop offset="0.9515" stop-color="#FACC64"/>
</linearGradient>
<clipPath id="clip0_1694_13232">
<rect width="100" height="110.49" fill="white"/>
</clipPath>
</defs>
</svg>
