<svg width="47" height="47" viewBox="0 0 47 47" fill="none" xmlns="http://www.w3.org/2000/svg">
<g filter="url(#filter0_b_1984_13740)">
<circle cx="23.7378" cy="23.2483" r="22.8671" stroke="white" stroke-width="0.762238"/>
</g>
<g clip-path="url(#clip0_1984_13740)">
<path d="M13.1467 16.2581C13.3214 16.4911 13.6127 16.5494 13.8457 16.4329C16.8747 14.7437 20.3114 13.8699 23.7481 13.8699C27.0101 13.8699 30.2721 14.6854 33.1846 16.1999L32.1943 17.7726C29.5731 16.4329 26.7189 15.7339 23.8064 15.7339C20.7191 15.7339 17.6902 16.4911 14.9524 17.9474C14.8359 18.0056 14.7194 18.1221 14.7194 18.2969C14.6612 18.4134 14.7194 18.5881 14.7777 18.7046L16.4087 21.1511C16.5252 21.3841 16.8164 21.4424 17.0494 21.3259C19.1464 20.2774 21.4181 19.6949 23.8064 19.6949C25.9616 19.6949 28.0586 20.1609 30.0391 21.0346L28.9906 22.6656C27.3596 21.9084 25.6121 21.5589 23.8646 21.5589C21.9424 21.5589 20.0784 21.9666 18.3309 22.8403C18.2144 22.8986 18.0979 23.0151 18.0397 23.1898C17.9814 23.3063 18.0397 23.4811 18.0979 23.5976L19.7289 26.0441C19.8454 26.2188 19.9619 26.2771 20.1366 26.2771C20.1949 26.2771 20.2531 26.2771 20.3696 26.2188C22.5831 25.2286 25.1461 25.2286 27.4179 26.2188L27.8256 25.2868C25.4374 24.2383 22.7579 24.1801 20.3696 25.1121L19.1464 23.5393C20.6026 22.8986 22.1171 22.6074 23.7481 22.6074C25.4956 22.6074 27.2431 23.0151 28.8741 23.7723C29.1071 23.8888 29.3983 23.8306 29.5148 23.5976L31.1458 21.0929C31.2041 20.9764 31.2623 20.8016 31.2041 20.6851C31.1458 20.5686 31.0876 20.4521 30.9128 20.3356C28.6411 19.1706 26.2529 18.5881 23.6899 18.5881C21.3016 18.5881 19.0299 19.1124 16.8747 20.1026L15.8262 18.4716C18.2727 17.2484 20.9521 16.6076 23.6899 16.6076C26.6024 16.6076 29.4566 17.3649 32.0196 18.7046C32.2526 18.8211 32.5438 18.7629 32.6603 18.5299L34.2331 16.1416C34.2913 16.0251 34.3496 15.8504 34.2913 15.7339C34.3496 15.7339 34.2913 15.6174 34.1166 15.5009C30.9711 13.7534 27.3596 12.8214 23.7481 12.8214C20.2531 12.8214 16.8164 13.6952 13.7292 15.3261L12.6807 13.6952C16.0592 11.8894 19.8454 10.8992 23.6899 10.8992C27.7091 10.8992 31.7283 11.9477 35.2233 13.9282L35.7475 13.0544C32.0778 11.0157 27.9421 9.90894 23.7481 9.90894C19.5542 9.90894 15.3602 11.0157 11.6905 13.1127C11.574 13.1709 11.5157 13.2874 11.4575 13.4039C11.3992 13.5204 11.4575 13.6952 11.5157 13.8117L13.1467 16.2581ZM21.4764 29.0731C21.4764 30.2963 22.4666 31.3448 23.7481 31.3448C24.9714 31.3448 26.0199 30.3545 26.0199 29.0731C26.0199 27.7916 24.9714 26.8013 23.7481 26.8013C22.4666 26.8013 21.4764 27.7916 21.4764 29.0731ZM24.9714 29.0731C24.9714 29.7721 24.3889 30.2963 23.7481 30.2963C23.0491 30.2963 22.5249 29.7138 22.5249 29.0731C22.5249 28.3741 23.1074 27.8498 23.7481 27.8498C24.3889 27.8498 24.9714 28.3741 24.9714 29.0731ZM36.4465 33.1505C36.4465 33.0923 36.4465 32.9758 36.3883 32.9175L33.8836 27.6751C33.8253 27.5003 33.5923 27.3838 33.4176 27.3838H27.3013V28.4323H33.1263L35.165 32.6845H12.3312L14.3699 28.4323H20.2531V27.3838H14.0204C13.8457 27.3838 13.6709 27.5003 13.5544 27.6751L11.0497 32.9175C10.9915 32.9758 10.9915 33.034 10.9915 33.1505V36.063C10.9915 36.3543 11.2245 36.5873 11.5157 36.5873H35.9805C36.2718 36.5873 36.5048 36.3543 36.5048 36.063L36.4465 33.1505ZM35.4563 35.5388H12.04V33.6165H35.4563V35.5388Z" fill="white"/>
</g>
<defs>
<filter id="filter0_b_1984_13740" x="-4.08392" y="-4.57343" width="55.6434" height="55.6434" filterUnits="userSpaceOnUse" color-interpolation-filters="sRGB">
<feFlood flood-opacity="0" result="BackgroundImageFix"/>
<feGaussianBlur in="BackgroundImageFix" stdDeviation="2.28671"/>
<feComposite in2="SourceAlpha" operator="in" result="effect1_backgroundBlur_1984_13740"/>
<feBlend mode="normal" in="SourceGraphic" in2="effect1_backgroundBlur_1984_13740" result="shape"/>
</filter>
<clipPath id="clip0_1984_13740">
<rect width="25.5133" height="26.6783" fill="white" transform="translate(10.9915 9.90894)"/>
</clipPath>
</defs>
</svg>
