<svg width="47" height="47" viewBox="0 0 47 47" fill="none" xmlns="http://www.w3.org/2000/svg">
<g filter="url(#filter0_b_1984_13731)">
<path d="M46.6119 23.2483C46.6119 35.8774 36.3739 46.1154 23.7448 46.1154C11.1156 46.1154 0.877621 35.8774 0.877621 23.2483C0.877621 10.6191 11.1156 0.381119 23.7448 0.381119C36.3739 0.381119 46.6119 10.6191 46.6119 23.2483Z" stroke="white" stroke-width="0.762238"/>
</g>
<path d="M18.2979 34.958H13.3996L20.8631 13.3382H26.7537L34.2066 34.958H29.3083L23.8928 18.2786H23.7239L18.2979 34.958ZM17.9917 26.46H29.5617V30.0281H17.9917V26.46Z" fill="white"/>
<path d="M16.1922 41.6236V36.6409H17.452V41.6236H16.1922ZM14.3308 39.7621V38.5023H19.3135V39.7621H14.3308ZM22.9273 41.6236V36.6409H24.1871V41.6236H22.9273ZM21.0658 39.7621V38.5023H26.0485V39.7621H21.0658ZM29.6624 41.6236V36.6409H30.9221V41.6236H29.6624ZM27.8009 39.7621V38.5023H32.7836V39.7621H27.8009Z" fill="white"/>
<path d="M17.1534 11.401C16.805 11.401 16.4947 11.3411 16.2225 11.2214C15.9519 11.1001 15.738 10.9336 15.5809 10.7221C15.4254 10.509 15.3453 10.2632 15.3406 9.98483H16.3579C16.3641 10.1015 16.4022 10.2041 16.4722 10.2928C16.5437 10.3799 16.6386 10.4476 16.7568 10.4958C16.875 10.544 17.008 10.5681 17.1558 10.5681C17.3098 10.5681 17.4459 10.5409 17.5641 10.4864C17.6823 10.432 17.7748 10.3566 17.8417 10.2601C17.9086 10.1637 17.942 10.0525 17.942 9.9265C17.942 9.79896 17.9063 9.68619 17.8347 9.5882C17.7647 9.48866 17.6636 9.41089 17.5314 9.35489C17.4008 9.2989 17.2452 9.2709 17.0648 9.2709H16.6192V8.52898H17.0648C17.2172 8.52898 17.3518 8.50254 17.4684 8.44965C17.5866 8.39677 17.6784 8.32367 17.7437 8.23034C17.809 8.13546 17.8417 8.02503 17.8417 7.89904C17.8417 7.77928 17.8129 7.67429 17.7554 7.58407C17.6994 7.49231 17.6201 7.42076 17.5174 7.36943C17.4163 7.3181 17.2981 7.29244 17.1628 7.29244C17.0259 7.29244 16.9007 7.31732 16.7872 7.3671C16.6736 7.41531 16.5826 7.48453 16.5142 7.57474C16.4457 7.66495 16.4092 7.77072 16.4045 7.89204H15.4363C15.441 7.61674 15.5195 7.3741 15.6719 7.16412C15.8244 6.95414 16.0297 6.79004 16.2879 6.67183C16.5476 6.55207 16.8408 6.49218 17.1674 6.49218C17.4972 6.49218 17.7857 6.55207 18.033 6.67183C18.2803 6.7916 18.4724 6.95336 18.6093 7.15712C18.7477 7.35932 18.8162 7.58641 18.8146 7.83838C18.8162 8.10591 18.733 8.32911 18.565 8.50798C18.3985 8.68685 18.1816 8.80039 17.914 8.84861V8.88594C18.2656 8.93105 18.5331 9.05315 18.7166 9.25224C18.9017 9.44977 18.9935 9.69708 18.9919 9.99416C18.9935 10.2664 18.9149 10.5082 18.7563 10.7198C18.5992 10.9313 18.3822 11.0977 18.1054 11.219C17.8285 11.3404 17.5112 11.401 17.1534 11.401ZM21.4633 11.401C21.1335 11.401 20.8395 11.3404 20.5814 11.219C20.3247 11.0977 20.121 10.9305 19.9701 10.7174C19.8192 10.5043 19.7407 10.2601 19.7344 9.98483H20.7143C20.7252 10.1699 20.803 10.32 20.9476 10.4351C21.0923 10.5502 21.2642 10.6078 21.4633 10.6078C21.6219 10.6078 21.7619 10.5728 21.8832 10.5028C22.0061 10.4312 22.1018 10.3325 22.1702 10.2065C22.2402 10.0789 22.2752 9.93272 22.2752 9.76785C22.2752 9.59987 22.2394 9.45211 22.1679 9.32456C22.0979 9.19702 22.0007 9.09748 21.8762 9.02593C21.7518 8.95438 21.6095 8.91783 21.4493 8.91627C21.3093 8.91627 21.1732 8.94505 21.041 9.0026C20.9103 9.06015 20.8084 9.13869 20.7353 9.23824L19.8371 9.07726L20.0634 6.55751H22.9844V7.38343H20.8963L20.7727 8.58031H20.8007C20.8847 8.4621 21.0114 8.36411 21.181 8.28634C21.3505 8.20857 21.5403 8.16968 21.7502 8.16968C22.038 8.16968 22.2946 8.23734 22.5202 8.37266C22.7457 8.50798 22.9238 8.69385 23.0544 8.93027C23.1851 9.16514 23.2496 9.43577 23.2481 9.74219C23.2496 10.0642 23.175 10.3503 23.0241 10.6008C22.8748 10.8496 22.6656 11.0456 22.3965 11.1887C22.129 11.3302 21.8179 11.401 21.4633 11.401ZM25.0749 8.81828C24.8634 8.81828 24.6705 8.76695 24.4963 8.6643C24.3236 8.56009 24.186 8.42166 24.0833 8.24901C23.9807 8.0748 23.9293 7.88193 23.9293 7.6704C23.9293 7.46042 23.9807 7.26911 24.0833 7.09646C24.186 6.92225 24.3236 6.78382 24.4963 6.68117C24.6705 6.57695 24.8634 6.52485 25.0749 6.52485C25.2864 6.52485 25.4785 6.57695 25.6512 6.68117C25.8254 6.78382 25.9638 6.92225 26.0665 7.09646C26.1691 7.26911 26.2204 7.46042 26.2204 7.6704C26.2204 7.88193 26.1691 8.0748 26.0665 8.24901C25.9638 8.42166 25.8254 8.56009 25.6512 8.6643C25.4785 8.76695 25.2864 8.81828 25.0749 8.81828ZM25.0749 8.15568C25.1651 8.15568 25.2468 8.13391 25.3199 8.09036C25.393 8.0468 25.4505 7.98848 25.4925 7.91537C25.5361 7.84227 25.5578 7.76061 25.5578 7.6704C25.5578 7.58174 25.5361 7.50086 25.4925 7.42776C25.4505 7.35465 25.393 7.29633 25.3199 7.25277C25.2468 7.20922 25.1651 7.18745 25.0749 7.18745C24.9862 7.18745 24.9054 7.20922 24.8323 7.25277C24.7591 7.29633 24.7008 7.35465 24.6573 7.42776C24.6137 7.50086 24.5919 7.58174 24.5919 7.6704C24.5919 7.76061 24.6137 7.84227 24.6573 7.91537C24.7008 7.98848 24.7591 8.0468 24.8323 8.09036C24.9054 8.13391 24.9862 8.15568 25.0749 8.15568ZM31.0966 8.23034H30.0747C30.0561 8.09813 30.0179 7.9807 29.9604 7.87804C29.9028 7.77383 29.829 7.68517 29.7388 7.61207C29.6485 7.53897 29.5443 7.48297 29.4261 7.44409C29.3095 7.4052 29.1827 7.38576 29.0458 7.38576C28.7985 7.38576 28.5831 7.4472 28.3996 7.57008C28.216 7.6914 28.0737 7.86871 27.9726 8.10202C27.8715 8.33378 27.8209 8.6153 27.8209 8.9466C27.8209 9.28723 27.8715 9.57343 27.9726 9.80518C28.0753 10.0369 28.2184 10.2119 28.4019 10.3301C28.5854 10.4483 28.7977 10.5074 29.0388 10.5074C29.1741 10.5074 29.2994 10.4896 29.4145 10.4538C29.5311 10.418 29.6345 10.3659 29.7248 10.2975C29.815 10.2275 29.8896 10.1427 29.9487 10.0432C30.0094 9.94361 30.0514 9.83007 30.0747 9.70253L31.0966 9.70719C31.0702 9.9265 31.0041 10.138 30.8983 10.3418C30.7941 10.544 30.6533 10.7252 30.476 10.8854C30.3003 11.0441 30.0903 11.17 29.8461 11.2634C29.6034 11.3551 29.3289 11.401 29.0225 11.401C28.5963 11.401 28.2152 11.3046 27.8793 11.1117C27.5449 10.9188 27.2804 10.6397 27.086 10.2741C26.8932 9.90862 26.7967 9.46611 26.7967 8.9466C26.7967 8.42554 26.8947 7.98226 27.0907 7.61674C27.2867 7.25122 27.5526 6.9728 27.8886 6.78149C28.2246 6.58862 28.6025 6.49218 29.0225 6.49218C29.2994 6.49218 29.556 6.53107 29.7924 6.60884C30.0304 6.68661 30.2411 6.80015 30.4247 6.94947C30.6082 7.09723 30.7575 7.27844 30.8726 7.49308C30.9893 7.70773 31.064 7.95348 31.0966 8.23034Z" fill="white"/>
<defs>
<filter id="filter0_b_1984_13731" x="-4.07692" y="-4.57343" width="55.6434" height="55.6434" filterUnits="userSpaceOnUse" color-interpolation-filters="sRGB">
<feFlood flood-opacity="0" result="BackgroundImageFix"/>
<feGaussianBlur in="BackgroundImageFix" stdDeviation="2.28671"/>
<feComposite in2="SourceAlpha" operator="in" result="effect1_backgroundBlur_1984_13731"/>
<feBlend mode="normal" in="SourceGraphic" in2="effect1_backgroundBlur_1984_13731" result="shape"/>
</filter>
</defs>
</svg>
