<svg width="47" height="47" viewBox="0 0 47 47" fill="none" xmlns="http://www.w3.org/2000/svg">
<g filter="url(#filter0_b_1984_13725)">
<path d="M46.1154 23.2483C46.1154 35.8774 35.8774 46.1154 23.2483 46.1154C10.6191 46.1154 0.381119 35.8774 0.381119 23.2483C0.381119 10.6191 10.6191 0.381119 23.2483 0.381119C35.8774 0.381119 46.1154 10.6191 46.1154 23.2483Z" stroke="white" stroke-width="0.762238"/>
</g>
<path d="M17.8014 34.9583H12.9031L20.3666 13.3384H26.2572L33.7101 34.9583H28.8118L23.3963 18.2789H23.2274L17.8014 34.9583ZM17.4952 26.4602H29.0652V30.0283H17.4952V26.4602Z" fill="white"/>
<path d="M19.5069 41.6236V36.6409H20.7667V41.6236H19.5069ZM17.6454 39.7621V38.5023H22.6281V39.7621H17.6454ZM26.242 41.6236V36.6409H27.5018V41.6236H26.242ZM24.3805 39.7621V38.5023H29.3632V39.7621H24.3805Z" fill="white"/>
<path d="M17.1325 11.4013C16.8027 11.4013 16.5087 11.3406 16.2505 11.2193C15.9939 11.098 15.7901 10.9308 15.6393 10.7177C15.4884 10.5046 15.4098 10.2604 15.4036 9.98507H16.3835C16.3944 10.1702 16.4722 10.3203 16.6168 10.4354C16.7615 10.5505 16.9334 10.608 17.1325 10.608C17.2911 10.608 17.4311 10.573 17.5524 10.503C17.6753 10.4315 17.7709 10.3327 17.8394 10.2067C17.9094 10.0792 17.9444 9.93297 17.9444 9.7681C17.9444 9.60011 17.9086 9.45235 17.837 9.32481C17.7671 9.19727 17.6698 9.09772 17.5454 9.02617C17.421 8.95462 17.2787 8.91807 17.1185 8.91652C16.9785 8.91652 16.8424 8.94529 16.7102 9.00284C16.5795 9.06039 16.4776 9.13894 16.4045 9.23848L15.5063 9.0775L15.7326 6.55776H18.6536V7.38367H16.5655L16.4419 8.58055H16.4699C16.5538 8.46234 16.6806 8.36435 16.8501 8.28658C17.0197 8.20881 17.2094 8.16993 17.4194 8.16993C17.7072 8.16993 17.9638 8.23759 18.1893 8.3729C18.4149 8.50822 18.593 8.69409 18.7236 8.93051C18.8543 9.16538 18.9188 9.43602 18.9173 9.74243C18.9188 10.0644 18.8442 10.3506 18.6933 10.601C18.544 10.8499 18.3348 11.0459 18.0657 11.189C17.7982 11.3305 17.4871 11.4013 17.1325 11.4013ZM21.367 11.4013C21.0373 11.4013 20.7433 11.3406 20.4851 11.2193C20.2285 11.098 20.0247 10.9308 19.8738 10.7177C19.723 10.5046 19.6444 10.2604 19.6382 9.98507H20.6181C20.629 10.1702 20.7068 10.3203 20.8514 10.4354C20.9961 10.5505 21.1679 10.608 21.367 10.608C21.5257 10.608 21.6657 10.573 21.787 10.503C21.9099 10.4315 22.0055 10.3327 22.0739 10.2067C22.1439 10.0792 22.1789 9.93297 22.1789 9.7681C22.1789 9.60011 22.1432 9.45235 22.0716 9.32481C22.0016 9.19727 21.9044 9.09772 21.78 9.02617C21.6555 8.95462 21.5132 8.91807 21.353 8.91652C21.213 8.91652 21.0769 8.94529 20.9447 9.00284C20.8141 9.06039 20.7122 9.13894 20.6391 9.23848L19.7409 9.0775L19.9672 6.55776H22.8882V7.38367H20.8001L20.6764 8.58055H20.7044C20.7884 8.46234 20.9152 8.36435 21.0847 8.28658C21.2543 8.20881 21.444 8.16993 21.654 8.16993C21.9417 8.16993 22.1984 8.23759 22.4239 8.3729C22.6494 8.50822 22.8275 8.69409 22.9582 8.93051C23.0888 9.16538 23.1534 9.43602 23.1518 9.74243C23.1534 10.0644 23.0787 10.3506 22.9279 10.601C22.7785 10.8499 22.5693 11.0459 22.3003 11.189C22.0327 11.3305 21.7217 11.4013 21.367 11.4013ZM24.9787 8.81853C24.7671 8.81853 24.5743 8.7672 24.4 8.66454C24.2274 8.56033 24.0897 8.4219 23.9871 8.24925C23.8844 8.07505 23.8331 7.88218 23.8331 7.67064C23.8331 7.46066 23.8844 7.26935 23.9871 7.0967C24.0897 6.9225 24.2274 6.78407 24.4 6.68141C24.5743 6.5772 24.7671 6.52509 24.9787 6.52509C25.1902 6.52509 25.3823 6.5772 25.5549 6.68141C25.7291 6.78407 25.8676 6.9225 25.9702 7.0967C26.0729 7.26935 26.1242 7.46066 26.1242 7.67064C26.1242 7.88218 26.0729 8.07505 25.9702 8.24925C25.8676 8.4219 25.7291 8.56033 25.5549 8.66454C25.3823 8.7672 25.1902 8.81853 24.9787 8.81853ZM24.9787 8.15593C25.0689 8.15593 25.1505 8.13415 25.2236 8.0906C25.2967 8.04705 25.3543 7.98872 25.3963 7.91562C25.4398 7.84251 25.4616 7.76086 25.4616 7.67064C25.4616 7.58198 25.4398 7.5011 25.3963 7.428C25.3543 7.3549 25.2967 7.29657 25.2236 7.25302C25.1505 7.20947 25.0689 7.18769 24.9787 7.18769C24.89 7.18769 24.8091 7.20947 24.736 7.25302C24.6629 7.29657 24.6046 7.3549 24.561 7.428C24.5175 7.5011 24.4957 7.58198 24.4957 7.67064C24.4957 7.76086 24.5175 7.84251 24.561 7.91562C24.6046 7.98872 24.6629 8.04705 24.736 8.0906C24.8091 8.13415 24.89 8.15593 24.9787 8.15593ZM31.0004 8.23059H29.9785C29.9598 8.09838 29.9217 7.98094 29.8642 7.87829C29.8066 7.77408 29.7327 7.68542 29.6425 7.61232C29.5523 7.53921 29.4481 7.48322 29.3299 7.44433C29.2132 7.40545 29.0865 7.386 28.9496 7.386C28.7023 7.386 28.4869 7.44744 28.3033 7.57032C28.1198 7.69164 27.9775 7.86896 27.8764 8.10227C27.7753 8.33402 27.7247 8.61555 27.7247 8.94685C27.7247 9.28748 27.7753 9.57367 27.8764 9.80543C27.979 10.0372 28.1221 10.2122 28.3057 10.3304C28.4892 10.4486 28.7015 10.5077 28.9426 10.5077C29.0779 10.5077 29.2031 10.4898 29.3182 10.454C29.4349 10.4183 29.5383 10.3661 29.6285 10.2977C29.7187 10.2277 29.7934 10.1429 29.8525 10.0434C29.9132 9.94386 29.9552 9.83031 29.9785 9.70277L31.0004 9.70744C30.9739 9.92675 30.9078 10.1383 30.8021 10.342C30.6979 10.5442 30.5571 10.7254 30.3798 10.8856C30.204 11.0443 29.994 11.1703 29.7498 11.2636C29.5072 11.3554 29.2327 11.4013 28.9263 11.4013C28.5001 11.4013 28.119 11.3048 27.783 11.112C27.4486 10.9191 27.1842 10.6399 26.9898 10.2744C26.7969 9.90886 26.7005 9.46635 26.7005 8.94685C26.7005 8.42579 26.7985 7.9825 26.9945 7.61698C27.1904 7.25146 27.4564 6.97305 27.7924 6.78173C28.1283 6.58886 28.5063 6.49243 28.9263 6.49243C29.2031 6.49243 29.4598 6.53131 29.6962 6.60908C29.9342 6.68685 30.1449 6.8004 30.3284 6.94972C30.512 7.09748 30.6613 7.27868 30.7764 7.49333C30.8931 7.70797 30.9677 7.95372 31.0004 8.23059Z" fill="white"/>
<defs>
<filter id="filter0_b_1984_13725" x="-4.57343" y="-4.57343" width="55.6434" height="55.6434" filterUnits="userSpaceOnUse" color-interpolation-filters="sRGB">
<feFlood flood-opacity="0" result="BackgroundImageFix"/>
<feGaussianBlur in="BackgroundImageFix" stdDeviation="2.28671"/>
<feComposite in2="SourceAlpha" operator="in" result="effect1_backgroundBlur_1984_13725"/>
<feBlend mode="normal" in="SourceGraphic" in2="effect1_backgroundBlur_1984_13725" result="shape"/>
</filter>
</defs>
</svg>
