<svg width="47" height="47" viewBox="0 0 47 47" fill="none" xmlns="http://www.w3.org/2000/svg">
<g filter="url(#filter0_b_1984_13737)">
<circle cx="23.2413" cy="23.2483" r="22.8671" stroke="white" stroke-width="0.762238"/>
</g>
<g clip-path="url(#clip0_1984_13737)">
<path d="M20.3049 25.5136C21.664 25.5136 22.7714 24.4062 22.7714 23.0471C22.7714 21.688 21.664 20.5806 20.3049 20.5806C19.9022 20.5806 19.5499 20.6813 19.1975 20.8323C19.9526 19.5739 21.4123 18.9195 22.3184 18.9195V18.0135C20.5063 18.0135 17.8384 19.7752 17.8384 22.4934C17.8384 22.4934 17.8384 22.8458 17.8384 22.9968C17.8384 24.4565 18.9458 25.5136 20.3049 25.5136ZM20.3049 21.4867C21.1606 21.4867 21.8653 22.1914 21.8653 23.0471C21.8653 23.9028 21.1606 24.6075 20.3049 24.6075C19.4492 24.6075 18.7445 23.9028 18.7445 23.0471C18.7445 22.1914 19.4492 21.4867 20.3049 21.4867ZM34.3991 18.9699H35.4059V18.0638H34.3991C33.04 18.0638 31.9326 19.1712 31.9326 20.5303V23.0471C31.9326 24.4062 33.04 25.5136 34.3991 25.5136H35.4059V24.6075H34.3991C33.5434 24.6075 32.8387 23.9028 32.8387 23.0471V20.5303C32.8387 19.6746 33.5434 18.9699 34.3991 18.9699ZM30.1205 18.1141C29.4662 18.1141 28.9125 18.6678 28.9125 19.3222C28.9125 19.9766 29.4662 20.5303 30.1205 20.5303C30.7749 20.5303 31.3286 19.9766 31.3286 19.3222C31.3286 18.6678 30.7749 18.1141 30.1205 18.1141ZM30.1205 19.6242C29.9695 19.6242 29.8185 19.4732 29.8185 19.3222C29.8185 19.1712 29.9192 18.9699 30.1205 18.9699C30.2715 18.9699 30.4225 19.1209 30.4225 19.2719C30.4225 19.4229 30.2715 19.6242 30.1205 19.6242ZM28.2581 26.168C28.3587 26.621 28.4091 27.0237 28.4091 27.376C28.4091 32.007 24.6339 35.7319 20.0532 35.7319C15.4223 35.7319 11.6974 31.9567 11.6974 27.376C11.6974 23.2485 18.3921 13.4328 20.0532 11.1174C20.7579 12.1241 22.3687 14.4396 23.9795 17.0571L24.7345 16.604C22.5701 13.0805 20.4559 10.1106 20.4559 10.1106C20.3049 9.85895 19.9022 9.85895 19.7512 10.1106C19.2982 10.5637 10.7913 22.3927 10.7913 27.376C10.7913 32.46 14.9189 36.5876 20.0532 36.5876C25.1876 36.5876 29.3151 32.46 29.3151 27.3257C29.3151 26.923 29.2648 26.47 29.1641 25.9163L28.2581 26.168ZM14.3149 23.9028C13.6605 25.4633 13.3081 26.5707 13.3081 27.376C13.3081 31.0506 16.3283 34.0708 20.0532 34.0708C21.4123 34.0708 22.7211 33.6681 23.8285 32.913L23.3251 32.158C22.3687 32.8124 21.211 33.1647 20.0532 33.1647C16.8317 33.1647 14.2142 30.5472 14.2142 27.3257C14.2142 26.8727 14.3652 25.9666 15.1203 24.2048L14.3149 23.9028Z" fill="white"/>
<path d="M28.4647 24.6137V25.434H23.4942C23.5157 25.015 23.5803 24.6492 23.6879 24.3368C23.7954 24.0243 23.9604 23.7438 24.1828 23.4952C24.4123 23.2396 24.6346 23.0301 24.8498 22.8667C25.065 22.7034 25.3698 22.501 25.7643 22.2595C26.3811 21.876 26.7864 21.5884 26.98 21.3967C27.3817 21.0061 27.5825 20.5729 27.5825 20.0971C27.5825 19.6781 27.4462 19.3372 27.1737 19.0744C26.9011 18.8046 26.5461 18.6696 26.1086 18.6696C25.585 18.6696 25.2084 18.8507 24.9789 19.2129C24.7566 19.568 24.6382 20.019 24.6239 20.5658H23.6986V20.3634C23.6986 19.6177 23.921 19.0176 24.3657 18.5631C24.8175 18.1086 25.4128 17.8813 26.1516 17.8813C26.876 17.8813 27.4534 18.0802 27.8838 18.4779C28.3141 18.8756 28.5293 19.4082 28.5293 20.0758C28.5293 20.3598 28.4791 20.6297 28.3787 20.8854C28.2854 21.1339 28.1778 21.3434 28.0559 21.5139C27.9411 21.6843 27.7618 21.8654 27.518 22.0571C27.2813 22.2489 27.084 22.398 26.9262 22.5045C26.7684 22.604 26.5425 22.7424 26.2484 22.92C25.6603 23.268 25.2694 23.5378 25.0757 23.7296C24.8032 23.9994 24.6274 24.2942 24.5486 24.6137H28.4647Z" fill="white"/>
</g>
<defs>
<filter id="filter0_b_1984_13737" x="-4.58042" y="-4.57343" width="55.6434" height="55.6434" filterUnits="userSpaceOnUse" color-interpolation-filters="sRGB">
<feFlood flood-opacity="0" result="BackgroundImageFix"/>
<feGaussianBlur in="BackgroundImageFix" stdDeviation="2.28671"/>
<feComposite in2="SourceAlpha" operator="in" result="effect1_backgroundBlur_1984_13737"/>
<feBlend mode="normal" in="SourceGraphic" in2="effect1_backgroundBlur_1984_13737" result="shape"/>
</filter>
<clipPath id="clip0_1984_13737">
<rect width="24.6145" height="26.6783" fill="white" transform="translate(10.7913 9.90918)"/>
</clipPath>
</defs>
</svg>
