<svg width="40" height="40" viewBox="0 0 40 40" fill="none" xmlns="http://www.w3.org/2000/svg">
<g clip-path="url(#clip0_1788_27894)">
<g clip-path="url(#clip1_1788_27894)">
<path d="M31.6667 0H8.33333C3.73833 0 0 3.73833 0 8.33333V31.6667C0 36.2617 3.73833 40 8.33333 40H31.6667C36.2617 40 40 36.2617 40 31.6667V8.33333C40 3.73833 36.2617 0 31.6667 0ZM36.6667 31.6667C36.6667 34.4233 34.4233 36.6667 31.6667 36.6667H8.33333C5.57667 36.6667 3.33333 34.4233 3.33333 31.6667V8.33333C3.33333 5.57667 5.57667 3.33333 8.33333 3.33333H31.6667C34.4233 3.33333 36.6667 5.57667 36.6667 8.33333V31.6667ZM31.6667 13.3333C31.6667 14.255 30.9217 15 30 15H16.6667V16.6667C16.6667 17.5883 15.9217 18.3333 15 18.3333C14.0783 18.3333 13.3333 17.5883 13.3333 16.6667V15H10C9.07833 15 8.33333 14.255 8.33333 13.3333C8.33333 12.4117 9.07833 11.6667 10 11.6667H13.3333V10C13.3333 9.07833 14.0783 8.33333 15 8.33333C15.9217 8.33333 16.6667 9.07833 16.6667 10V11.6667H30C30.9217 11.6667 31.6667 12.4117 31.6667 13.3333ZM31.6667 26.6667C31.6667 27.5883 30.9217 28.3333 30 28.3333H26.6667V30C26.6667 30.9217 25.9217 31.6667 25 31.6667C24.0783 31.6667 23.3333 30.9217 23.3333 30V28.3333H10C9.07833 28.3333 8.33333 27.5883 8.33333 26.6667C8.33333 25.745 9.07833 25 10 25H23.3333V23.3333C23.3333 22.4117 24.0783 21.6667 25 21.6667C25.9217 21.6667 26.6667 22.4117 26.6667 23.3333V25H30C30.9217 25 31.6667 25.745 31.6667 26.6667Z" fill="#546EB3"/>
<path d="M31.6667 0H8.33333C3.73833 0 0 3.73833 0 8.33333V31.6667C0 36.2617 3.73833 40 8.33333 40H31.6667C36.2617 40 40 36.2617 40 31.6667V8.33333C40 3.73833 36.2617 0 31.6667 0ZM36.6667 31.6667C36.6667 34.4233 34.4233 36.6667 31.6667 36.6667H8.33333C5.57667 36.6667 3.33333 34.4233 3.33333 31.6667V8.33333C3.33333 5.57667 5.57667 3.33333 8.33333 3.33333H31.6667C34.4233 3.33333 36.6667 5.57667 36.6667 8.33333V31.6667ZM31.6667 13.3333C31.6667 14.255 30.9217 15 30 15H16.6667V16.6667C16.6667 17.5883 15.9217 18.3333 15 18.3333C14.0783 18.3333 13.3333 17.5883 13.3333 16.6667V15H10C9.07833 15 8.33333 14.255 8.33333 13.3333C8.33333 12.4117 9.07833 11.6667 10 11.6667H13.3333V10C13.3333 9.07833 14.0783 8.33333 15 8.33333C15.9217 8.33333 16.6667 9.07833 16.6667 10V11.6667H30C30.9217 11.6667 31.6667 12.4117 31.6667 13.3333ZM31.6667 26.6667C31.6667 27.5883 30.9217 28.3333 30 28.3333H26.6667V30C26.6667 30.9217 25.9217 31.6667 25 31.6667C24.0783 31.6667 23.3333 30.9217 23.3333 30V28.3333H10C9.07833 28.3333 8.33333 27.5883 8.33333 26.6667C8.33333 25.745 9.07833 25 10 25H23.3333V23.3333C23.3333 22.4117 24.0783 21.6667 25 21.6667C25.9217 21.6667 26.6667 22.4117 26.6667 23.3333V25H30C30.9217 25 31.6667 25.745 31.6667 26.6667Z" fill="url(#paint0_linear_1788_27894)"/>
</g>
</g>
<defs>
<linearGradient id="paint0_linear_1788_27894" x1="-7.4" y1="-15.8" x2="36.2" y2="44.4" gradientUnits="userSpaceOnUse">
<stop stop-color="#6D9BBA"/>
<stop offset="1" stop-color="#3E4D76"/>
</linearGradient>
<clipPath id="clip0_1788_27894">
<rect width="40" height="40" fill="white"/>
</clipPath>
<clipPath id="clip1_1788_27894">
<rect width="40" height="40" fill="white"/>
</clipPath>
</defs>
</svg>
