<svg width="40" height="40" viewBox="0 0 40 40" fill="none" xmlns="http://www.w3.org/2000/svg">
<g clip-path="url(#clip0_1788_27901)">
<path d="M31.6667 3.33325H8.33333C3.73833 3.33325 0 7.07159 0 11.6666V28.3333C0 32.9283 3.73833 36.6666 8.33333 36.6666H31.6667C36.2617 36.6666 40 32.9283 40 28.3333V11.6666C40 7.07159 36.2617 3.33325 31.6667 3.33325ZM36.6667 28.3333C36.6667 31.0899 34.4233 33.3333 31.6667 33.3333H8.33333C5.57667 33.3333 3.33333 31.0899 3.33333 28.3333V11.6666C3.33333 8.90992 5.57667 6.66659 8.33333 6.66659H31.6667C34.4233 6.66659 36.6667 8.90992 36.6667 11.6666V28.3333ZM18.3333 28.3333C18.3333 29.2549 17.5867 29.9999 16.6667 29.9999H8.33333C7.41333 29.9999 6.66667 29.2549 6.66667 28.3333C6.66667 27.4116 7.41333 26.6666 8.33333 26.6666H16.6667C17.5867 26.6666 18.3333 27.4116 18.3333 28.3333ZM33.3333 28.3333C33.3333 29.2549 32.5883 29.9999 31.6667 29.9999H23.3333C22.4117 29.9999 21.6667 29.2549 21.6667 28.3333C21.6667 27.4116 22.4117 26.6666 23.3333 26.6666H31.6667C32.5883 26.6666 33.3333 27.4116 33.3333 28.3333ZM6.66667 14.9999V11.6666C6.66667 10.7466 7.41333 9.99992 8.33333 9.99992H23.3333C24.2533 9.99992 25 10.7466 25 11.6666V14.9999C25 15.9199 24.2533 16.6666 23.3333 16.6666H8.33333C7.41333 16.6666 6.66667 15.9199 6.66667 14.9999ZM6.66667 21.6666C6.66667 20.7449 7.41333 19.9999 8.33333 19.9999H10C10.92 19.9999 11.6667 20.7449 11.6667 21.6666C11.6667 22.5883 10.92 23.3333 10 23.3333H8.33333C7.41333 23.3333 6.66667 22.5883 6.66667 21.6666ZM18.3333 21.6666C18.3333 22.5883 17.5867 23.3333 16.6667 23.3333H15C14.08 23.3333 13.3333 22.5883 13.3333 21.6666C13.3333 20.7449 14.08 19.9999 15 19.9999H16.6667C17.5867 19.9999 18.3333 20.7449 18.3333 21.6666ZM21.6667 23.3333C20.7467 23.3333 20 22.5883 20 21.6666C20 20.7449 20.7467 19.9999 21.6667 19.9999H23.3333C24.255 19.9999 25 20.7449 25 21.6666C25 22.5883 24.255 23.3333 23.3333 23.3333H21.6667Z" fill="#546EB3"/>
<path d="M31.6667 3.33325H8.33333C3.73833 3.33325 0 7.07159 0 11.6666V28.3333C0 32.9283 3.73833 36.6666 8.33333 36.6666H31.6667C36.2617 36.6666 40 32.9283 40 28.3333V11.6666C40 7.07159 36.2617 3.33325 31.6667 3.33325ZM36.6667 28.3333C36.6667 31.0899 34.4233 33.3333 31.6667 33.3333H8.33333C5.57667 33.3333 3.33333 31.0899 3.33333 28.3333V11.6666C3.33333 8.90992 5.57667 6.66659 8.33333 6.66659H31.6667C34.4233 6.66659 36.6667 8.90992 36.6667 11.6666V28.3333ZM18.3333 28.3333C18.3333 29.2549 17.5867 29.9999 16.6667 29.9999H8.33333C7.41333 29.9999 6.66667 29.2549 6.66667 28.3333C6.66667 27.4116 7.41333 26.6666 8.33333 26.6666H16.6667C17.5867 26.6666 18.3333 27.4116 18.3333 28.3333ZM33.3333 28.3333C33.3333 29.2549 32.5883 29.9999 31.6667 29.9999H23.3333C22.4117 29.9999 21.6667 29.2549 21.6667 28.3333C21.6667 27.4116 22.4117 26.6666 23.3333 26.6666H31.6667C32.5883 26.6666 33.3333 27.4116 33.3333 28.3333ZM6.66667 14.9999V11.6666C6.66667 10.7466 7.41333 9.99992 8.33333 9.99992H23.3333C24.2533 9.99992 25 10.7466 25 11.6666V14.9999C25 15.9199 24.2533 16.6666 23.3333 16.6666H8.33333C7.41333 16.6666 6.66667 15.9199 6.66667 14.9999ZM6.66667 21.6666C6.66667 20.7449 7.41333 19.9999 8.33333 19.9999H10C10.92 19.9999 11.6667 20.7449 11.6667 21.6666C11.6667 22.5883 10.92 23.3333 10 23.3333H8.33333C7.41333 23.3333 6.66667 22.5883 6.66667 21.6666ZM18.3333 21.6666C18.3333 22.5883 17.5867 23.3333 16.6667 23.3333H15C14.08 23.3333 13.3333 22.5883 13.3333 21.6666C13.3333 20.7449 14.08 19.9999 15 19.9999H16.6667C17.5867 19.9999 18.3333 20.7449 18.3333 21.6666ZM21.6667 23.3333C20.7467 23.3333 20 22.5883 20 21.6666C20 20.7449 20.7467 19.9999 21.6667 19.9999H23.3333C24.255 19.9999 25 20.7449 25 21.6666C25 22.5883 24.255 23.3333 23.3333 23.3333H21.6667Z" fill="url(#paint0_linear_1788_27901)"/>
</g>
<defs>
<linearGradient id="paint0_linear_1788_27901" x1="-7.4" y1="-9.83341" x2="26.4349" y2="46.2269" gradientUnits="userSpaceOnUse">
<stop stop-color="#6D9BBA"/>
<stop offset="1" stop-color="#3E4D76"/>
</linearGradient>
<clipPath id="clip0_1788_27901">
<rect width="40" height="40" fill="white"/>
</clipPath>
</defs>
</svg>
