<svg width="32" height="33" viewBox="0 0 32 33" fill="none" xmlns="http://www.w3.org/2000/svg">
<path fill-rule="evenodd" clip-rule="evenodd" d="M12.5915 4.38444C13.6002 3.82107 14.7626 3.5 16 3.5C17.2374 3.5 18.3998 3.82107 19.4085 4.38444L20.1464 3.64645C20.3417 3.45118 20.6583 3.45118 20.8536 3.64645C21.0488 3.84171 21.0488 4.15829 20.8536 4.35355L20.2612 4.94595C21.9266 6.22558 23 8.23743 23 10.5H9C9 8.23743 10.0734 6.22558 11.7388 4.94595L11.1464 4.35355C10.9512 4.15829 10.9512 3.84171 11.1464 3.64645C11.3417 3.45118 11.6583 3.45118 11.8536 3.64645L12.5915 4.38444ZM14 7.5C14 8.05228 13.5523 8.5 13 8.5C12.4477 8.5 12 8.05228 12 7.5C12 6.94772 12.4477 6.5 13 6.5C13.5523 6.5 14 6.94772 14 7.5ZM19 8.5C19.5523 8.5 20 8.05228 20 7.5C20 6.94772 19.5523 6.5 19 6.5C18.4477 6.5 18 6.94772 18 7.5C18 8.05228 18.4477 8.5 19 8.5Z" fill="#87C527"/>
<path d="M5 13C5 12.1716 5.67157 11.5 6.5 11.5C7.32843 11.5 8 12.1716 8 13V19C8 19.8284 7.32843 20.5 6.5 20.5C5.67157 20.5 5 19.8284 5 19V13Z" fill="#87C527"/>
<path d="M12 24.5V28C12 28.8284 12.6716 29.5 13.5 29.5C14.3284 29.5 15 28.8284 15 28V24.5H17V28C17 28.8284 17.6716 29.5 18.5 29.5C19.3284 29.5 20 28.8284 20 28V24.5H21C22.1046 24.5 23 23.6046 23 22.5V11.5H9V22.5C9 23.6046 9.89543 24.5 11 24.5H12Z" fill="#87C527"/>
<path d="M24 13C24 12.1716 24.6716 11.5 25.5 11.5C26.3284 11.5 27 12.1716 27 13V19C27 19.8284 26.3284 20.5 25.5 20.5C24.6716 20.5 24 19.8284 24 19V13Z" fill="#87C527"/>
</svg>
