<svg width="120" height="40" viewBox="0 0 120 40" fill="none" xmlns="http://www.w3.org/2000/svg">
<rect x="0.5" y="0.507812" width="119" height="39" rx="6.5" fill="black"/>
<rect x="0.5" y="0.507812" width="119" height="39" rx="6.5" stroke="#A6A6A6"/>
<path d="M81.5259 19.2087V21.4997H80.0899V23.0021H81.5259V28.1071C81.5259 29.8503 82.3145 30.5475 84.2984 30.5475C84.647 30.5475 84.9791 30.506 85.2696 30.4562V28.9704C85.0206 28.9953 84.8628 29.0119 84.5889 29.0119C83.7007 29.0119 83.3106 28.5969 83.3106 27.6506V23.0021H85.2696V21.4997H83.3106V19.2087H81.5259Z" fill="white"/>
<path d="M90.3234 30.6721C92.9631 30.6721 94.5817 28.904 94.5817 25.9738C94.5817 23.0602 92.9548 21.2839 90.3234 21.2839C87.6838 21.2839 86.0568 23.0602 86.0568 25.9738C86.0568 28.904 87.6755 30.6721 90.3234 30.6721ZM90.3234 29.0866C88.7712 29.0866 87.8996 27.9494 87.8996 25.9738C87.8996 24.0148 88.7712 22.8693 90.3234 22.8693C91.8674 22.8693 92.7473 24.0148 92.7473 25.9738C92.7473 27.9411 91.8674 29.0866 90.3234 29.0866Z" fill="white"/>
<path d="M95.9666 30.4977H97.7513V25.1603C97.7513 23.8903 98.7059 23.0353 100.059 23.0353C100.374 23.0353 100.906 23.0934 101.055 23.1432V21.3835C100.864 21.3337 100.524 21.3088 100.258 21.3088C99.0794 21.3088 98.075 21.9562 97.8177 22.8444H97.6849V21.4582H95.9666V30.4977Z" fill="white"/>
<path d="M105.486 22.8029C106.806 22.8029 107.669 23.7243 107.711 25.1437H103.145C103.245 23.7326 104.166 22.8029 105.486 22.8029ZM107.703 28.0573C107.371 28.7629 106.632 29.153 105.553 29.153C104.125 29.153 103.204 28.1486 103.145 26.5632V26.4636H109.529V25.841C109.529 23.0021 108.01 21.2839 105.495 21.2839C102.946 21.2839 101.328 23.1183 101.328 26.007C101.328 28.8957 102.913 30.6721 105.503 30.6721C107.57 30.6721 109.014 29.676 109.421 28.0573H107.703Z" fill="white"/>
<path d="M69.8223 27.1596C69.96 29.3793 71.8098 30.7989 74.5629 30.7989C77.5053 30.7989 79.3464 29.3104 79.3464 26.9359C79.3464 25.0689 78.2968 24.0365 75.7502 23.4429L74.3822 23.1073C72.7647 22.7288 72.1109 22.2212 72.1109 21.335C72.1109 20.2165 73.1261 19.4852 74.6489 19.4852C76.0943 19.4852 77.0923 20.1993 77.273 21.3436H79.1486C79.0367 19.2529 77.1956 17.7817 74.6747 17.7817C71.9646 17.7817 70.1579 19.2529 70.1579 21.464C70.1579 23.288 71.1817 24.372 73.4272 24.8968L75.0275 25.284C76.6707 25.6712 77.3934 26.239 77.3934 27.1854C77.3934 28.2866 76.2578 29.0868 74.7091 29.0868C73.0487 29.0868 71.8958 28.3383 71.7323 27.1596H69.8223Z" fill="white"/>
<path d="M51.335 21.3088C50.1065 21.3088 49.044 21.923 48.4961 22.9523H48.3633V21.4582H46.6451V33.5026H48.4297V29.1281H48.5708C49.044 30.0827 50.065 30.6471 51.3516 30.6471C53.6343 30.6471 55.087 28.8459 55.087 25.9738C55.087 23.1017 53.6343 21.3088 51.335 21.3088ZM50.8287 29.0451C49.3345 29.0451 48.3965 27.8664 48.3965 25.9821C48.3965 24.0895 49.3345 22.9108 50.837 22.9108C52.3477 22.9108 53.2525 24.0646 53.2525 25.9738C53.2525 27.8913 52.3477 29.0451 50.8287 29.0451Z" fill="white"/>
<path d="M61.3318 21.3088C60.1033 21.3088 59.0408 21.923 58.4929 22.9523H58.3601V21.4582H56.6419V33.5026H58.4265V29.1281H58.5676C59.0408 30.0827 60.0618 30.6471 61.3484 30.6471C63.6311 30.6471 65.0838 28.8459 65.0838 25.9738C65.0838 23.1017 63.6311 21.3088 61.3318 21.3088ZM60.8255 29.0451C59.3313 29.0451 58.3933 27.8664 58.3933 25.9821C58.3933 24.0895 59.3313 22.9108 60.8338 22.9108C62.3445 22.9108 63.2493 24.0646 63.2493 25.9738C63.2493 27.8913 62.3445 29.0451 60.8255 29.0451Z" fill="white"/>
<path d="M43.4431 30.4977H45.4907L41.0083 18.0829H38.9348L34.4524 30.4977H36.4312L37.5755 27.2026H42.3074L43.4431 30.4977ZM39.8726 20.337H40.0189L41.817 25.5851H38.0659L39.8726 20.337Z" fill="white"/>
<path d="M35.6511 8.71875V14.7078H37.8135C39.5981 14.7078 40.6316 13.6079 40.6316 11.6946C40.6316 9.8103 39.5898 8.71875 37.8135 8.71875H35.6511ZM36.5808 9.56543H37.7097C38.9507 9.56543 39.6853 10.354 39.6853 11.707C39.6853 13.0808 38.9631 13.8611 37.7097 13.8611H36.5808V9.56543Z" fill="white"/>
<path d="M43.7967 14.7949C45.1165 14.7949 45.9258 13.9109 45.9258 12.4458C45.9258 10.989 45.1124 10.1008 43.7967 10.1008C42.4769 10.1008 41.6634 10.989 41.6634 12.4458C41.6634 13.9109 42.4727 14.7949 43.7967 14.7949ZM43.7967 14.0022C43.0206 14.0022 42.5848 13.4336 42.5848 12.4458C42.5848 11.4663 43.0206 10.8936 43.7967 10.8936C44.5687 10.8936 45.0086 11.4663 45.0086 12.4458C45.0086 13.4294 44.5687 14.0022 43.7967 14.0022Z" fill="white"/>
<path d="M52.818 10.188H51.9256L51.1205 13.637H51.0499L50.1202 10.188H49.2652L48.3355 13.637H48.2691L47.4598 10.188H46.555L47.8001 14.7078H48.7174L49.6471 11.3792H49.7176L50.6515 14.7078H51.577L52.818 10.188Z" fill="white"/>
<path d="M53.8456 14.7078H54.7379V12.064C54.7379 11.3584 55.1571 10.9185 55.817 10.9185C56.477 10.9185 56.7924 11.2795 56.7924 12.0059V14.7078H57.6847V11.7817C57.6847 10.7068 57.1286 10.1008 56.12 10.1008C55.4394 10.1008 54.9911 10.4038 54.7711 10.906H54.7047V10.188H53.8456V14.7078Z" fill="white"/>
<path d="M59.09 14.7078H59.9824V8.42407H59.09V14.7078Z" fill="white"/>
<path d="M63.3384 14.7949C64.6582 14.7949 65.4675 13.9109 65.4675 12.4458C65.4675 10.989 64.6541 10.1008 63.3384 10.1008C62.0186 10.1008 61.2051 10.989 61.2051 12.4458C61.2051 13.9109 62.0144 14.7949 63.3384 14.7949ZM63.3384 14.0022C62.5623 14.0022 62.1265 13.4336 62.1265 12.4458C62.1265 11.4663 62.5623 10.8936 63.3384 10.8936C64.1104 10.8936 64.5503 11.4663 64.5503 12.4458C64.5503 13.4294 64.1104 14.0022 63.3384 14.0022Z" fill="white"/>
<path d="M68.1263 14.0312C67.6407 14.0312 67.2879 13.7947 67.2879 13.3879C67.2879 12.9895 67.5701 12.7778 68.1927 12.7363L69.2967 12.6658V13.0435C69.2967 13.6038 68.7986 14.0312 68.1263 14.0312ZM67.898 14.7825C68.4915 14.7825 68.9854 14.5251 69.2552 14.0728H69.3257V14.7078H70.1849V11.6199C70.1849 10.6653 69.5457 10.1008 68.4126 10.1008C67.3875 10.1008 66.657 10.5989 66.5657 11.375H67.429C67.5286 11.0554 67.8731 10.8728 68.3711 10.8728C68.9812 10.8728 69.2967 11.1426 69.2967 11.6199V12.01L68.0723 12.0806C66.9974 12.147 66.3914 12.616 66.3914 13.4294C66.3914 14.2554 67.0264 14.7825 67.898 14.7825Z" fill="white"/>
<path d="M73.213 14.7825C73.8355 14.7825 74.3626 14.4878 74.6324 13.9939H74.703V14.7078H75.558V8.42407H74.6656V10.906H74.5992C74.3543 10.408 73.8314 10.1133 73.213 10.1133C72.0716 10.1133 71.337 11.0181 71.337 12.4458C71.337 13.8777 72.0633 14.7825 73.213 14.7825ZM73.4662 10.9143C74.2132 10.9143 74.6822 11.5078 74.6822 12.45C74.6822 13.3962 74.2174 13.9814 73.4662 13.9814C72.7108 13.9814 72.2584 13.4045 72.2584 12.4458C72.2584 11.4954 72.7149 10.9143 73.4662 10.9143Z" fill="white"/>
<path d="M81.3444 14.7949C82.6643 14.7949 83.4736 13.9109 83.4736 12.4458C83.4736 10.989 82.6601 10.1008 81.3444 10.1008C80.0246 10.1008 79.2111 10.989 79.2111 12.4458C79.2111 13.9109 80.0205 14.7949 81.3444 14.7949ZM81.3444 14.0022C80.5683 14.0022 80.1325 13.4336 80.1325 12.4458C80.1325 11.4663 80.5683 10.8936 81.3444 10.8936C82.1164 10.8936 82.5563 11.4663 82.5563 12.4458C82.5563 13.4294 82.1164 14.0022 81.3444 14.0022Z" fill="white"/>
<path d="M84.6548 14.7078H85.5471V12.064C85.5471 11.3584 85.9663 10.9185 86.6262 10.9185C87.2861 10.9185 87.6016 11.2795 87.6016 12.0059V14.7078H88.4939V11.7817C88.4939 10.7068 87.9377 10.1008 86.9292 10.1008C86.2485 10.1008 85.8003 10.4038 85.5803 10.906H85.5139V10.188H84.6548V14.7078Z" fill="white"/>
<path d="M92.6036 9.06323V10.2087H91.8856V10.96H92.6036V13.5125C92.6036 14.384 92.9979 14.7327 93.9898 14.7327C94.1642 14.7327 94.3302 14.7119 94.4754 14.687V13.9441C94.3509 13.9565 94.2721 13.9648 94.1351 13.9648C93.691 13.9648 93.4959 13.7573 93.4959 13.2842V10.96H94.4754V10.2087H93.4959V9.06323H92.6036Z" fill="white"/>
<path d="M95.6732 14.7078H96.5656V12.0681C96.5656 11.3833 96.9723 10.9226 97.7028 10.9226C98.3336 10.9226 98.6698 11.2878 98.6698 12.01V14.7078H99.5622V11.79C99.5622 10.7151 98.9687 10.105 98.0058 10.105C97.3251 10.105 96.8478 10.408 96.6278 10.9143H96.5573V8.42407H95.6732V14.7078Z" fill="white"/>
<path d="M102.781 10.8604C103.441 10.8604 103.873 11.321 103.894 12.0308H101.611C101.661 11.3252 102.121 10.8604 102.781 10.8604ZM103.889 13.4875C103.723 13.8403 103.354 14.0354 102.814 14.0354C102.101 14.0354 101.64 13.5332 101.611 12.7405V12.6907H104.802V12.3794C104.802 10.96 104.043 10.1008 102.785 10.1008C101.511 10.1008 100.702 11.0181 100.702 12.4624C100.702 13.9067 101.495 14.7949 102.789 14.7949C103.823 14.7949 104.545 14.2969 104.748 13.4875H103.889Z" fill="white"/>
<path d="M24.769 20.3086C24.7907 18.6276 25.6934 17.037 27.1256 16.1566C26.2221 14.8663 24.7088 14.0481 23.1344 13.9989C21.4552 13.8226 19.8272 15.0037 18.9715 15.0037C18.0992 15.0037 16.7817 14.0164 15.363 14.0456C13.5137 14.1053 11.7898 15.1567 10.8901 16.7734C8.95607 20.1219 10.3987 25.0429 12.2513 27.7495C13.1782 29.0749 14.2615 30.5553 15.6789 30.5028C17.066 30.4453 17.584 29.6183 19.2583 29.6183C20.9171 29.6183 21.4031 30.5028 22.8493 30.4694C24.3377 30.4453 25.2754 29.1382 26.1698 27.8003C26.8358 26.8559 27.3483 25.8122 27.6882 24.7078C25.9391 23.968 24.771 22.2078 24.769 20.3086Z" fill="white"/>
<path d="M22.0373 12.2189C22.8489 11.2447 23.2487 9.9925 23.1518 8.72827C21.912 8.85849 20.7668 9.45105 19.9443 10.3879C19.14 11.3032 18.7214 12.5334 18.8006 13.7493C20.0408 13.762 21.2601 13.1855 22.0373 12.2189Z" fill="white"/>
</svg>
