<svg width="132" height="134" viewBox="0 0 132 134" fill="none" xmlns="http://www.w3.org/2000/svg">
<g clip-path="url(#clip0_1790_28361)">
<path d="M3.9814 0.5H0V12.5347H3.9814V0.5Z" fill="black"/>
<path d="M3.9814 12.5288H0V28.5693H3.9814V12.5288Z" fill="black"/>
<path d="M3.9814 32.5859H0V36.5975H3.9814V32.5859Z" fill="black"/>
<path d="M3.9814 40.6045H0V44.6161H3.9814V40.6045Z" fill="black"/>
<path d="M3.9814 52.6387H0V60.6618H3.9814V52.6387Z" fill="black"/>
<path d="M3.9814 68.6792H0V88.7311H3.9814V68.6792Z" fill="black"/>
<path d="M3.9814 96.7544H0V100.766H3.9814V96.7544Z" fill="black"/>
<path d="M3.9814 104.778H0V124.83H3.9814V104.778Z" fill="black"/>
<path d="M3.9814 124.831H0V132.854H3.9814V124.831Z" fill="black"/>
<path d="M7.96562 0.5H3.98422V4.51156H7.96562V0.5Z" fill="black"/>
<path d="M7.96562 24.5635H3.98422V28.575H7.96562V24.5635Z" fill="black"/>
<path d="M7.96562 44.6157H3.98422V48.6273H7.96562V44.6157Z" fill="black"/>
<path d="M7.96562 60.6562H3.98422V64.6679H7.96562V60.6562Z" fill="black"/>
<path d="M7.96562 68.6792H3.98422V72.6908H7.96562V68.6792Z" fill="black"/>
<path d="M7.96562 80.7139H3.98422V88.7371H7.96562V80.7139Z" fill="black"/>
<path d="M7.96562 92.7432H3.98422V96.7548H7.96562V92.7432Z" fill="black"/>
<path d="M7.96577 104.778H3.98438V108.789H7.96577V104.778Z" fill="black"/>
<path d="M7.96562 128.842H3.98422V132.853H7.96562V128.842Z" fill="black"/>
<path d="M11.9443 0.5H7.96289V4.51156H11.9443V0.5Z" fill="black"/>
<path d="M11.9443 8.52295H7.96289V12.5345H11.9443V8.52295Z" fill="black"/>
<path d="M11.9443 12.5288H7.96289V20.5519H11.9443V12.5288Z" fill="black"/>
<path d="M11.9443 24.5635H7.96289V28.575H11.9443V24.5635Z" fill="black"/>
<path d="M11.9443 32.5859H7.96289V40.6091H11.9443V32.5859Z" fill="black"/>
<path d="M11.9443 52.6387H7.96289V56.6503H11.9443V52.6387Z" fill="black"/>
<path d="M11.9443 60.6562H7.96289V64.6679H11.9443V60.6562Z" fill="black"/>
<path d="M11.9443 68.6792H7.96289V76.7024H11.9443V68.6792Z" fill="black"/>
<path d="M11.9443 80.7139H7.96289V84.7255H11.9443V80.7139Z" fill="black"/>
<path d="M11.9443 88.7314H7.96289V100.766H11.9443V88.7314Z" fill="black"/>
<path d="M11.9443 104.778H7.96289V108.789H11.9443V104.778Z" fill="black"/>
<path d="M11.9443 112.795H7.96289V124.824H11.9443V112.795Z" fill="black"/>
<path d="M11.9443 128.842H7.96289V132.853H11.9443V128.842Z" fill="black"/>
<path d="M15.9287 0.5H11.9473V4.51156H15.9287V0.5Z" fill="black"/>
<path d="M15.9287 8.52295H11.9473V12.5345H15.9287V8.52295Z" fill="black"/>
<path d="M15.9287 12.5288H11.9473V20.5519H15.9287V12.5288Z" fill="black"/>
<path d="M15.9287 24.5635H11.9473V28.575H15.9287V24.5635Z" fill="black"/>
<path d="M15.9287 32.5859H11.9473V36.5975H15.9287V32.5859Z" fill="black"/>
<path d="M15.9287 40.6045H11.9473V44.6161H15.9287V40.6045Z" fill="black"/>
<path d="M15.9287 60.6562H11.9473V68.6791H15.9287V60.6562Z" fill="black"/>
<path d="M15.9287 76.7017H11.9473V84.7249H15.9287V76.7017Z" fill="black"/>
<path d="M15.9287 96.7544H11.9473V100.766H15.9287V96.7544Z" fill="black"/>
<path d="M15.9287 104.778H11.9473V108.789H15.9287V104.778Z" fill="black"/>
<path d="M15.9287 112.795H11.9473V124.824H15.9287V112.795Z" fill="black"/>
<path d="M15.9287 128.842H11.9473V132.853H15.9287V128.842Z" fill="black"/>
<path d="M19.9032 0.5H15.9219V4.51156H19.9032V0.5Z" fill="black"/>
<path d="M19.9032 8.52295H15.9219V12.5345H19.9032V8.52295Z" fill="black"/>
<path d="M19.9032 12.5288H15.9219V20.5519H19.9032V12.5288Z" fill="black"/>
<path d="M19.9032 24.5635H15.9219V28.575H19.9032V24.5635Z" fill="black"/>
<path d="M19.9032 36.5928H15.9219V40.6044H19.9032V36.5928Z" fill="black"/>
<path d="M19.9032 48.627H15.9219V64.6675H19.9032V48.627Z" fill="black"/>
<path d="M19.9032 68.6792H15.9219V72.6908H19.9032V68.6792Z" fill="black"/>
<path d="M19.9032 84.7202H15.9219V88.7318H19.9032V84.7202Z" fill="black"/>
<path d="M19.9032 92.7432H15.9219V96.7548H19.9032V92.7432Z" fill="black"/>
<path d="M19.9032 104.778H15.9219V108.789H19.9032V104.778Z" fill="black"/>
<path d="M19.9032 112.795H15.9219V124.824H19.9032V112.795Z" fill="black"/>
<path d="M19.9032 128.842H15.9219V132.853H19.9032V128.842Z" fill="black"/>
<path d="M23.8819 0.5H19.9005V4.51156H23.8819V0.5Z" fill="black"/>
<path d="M23.8819 24.5635H19.9005V28.575H23.8819V24.5635Z" fill="black"/>
<path d="M23.8819 32.5859H19.9005V36.5975H23.8819V32.5859Z" fill="black"/>
<path d="M23.8819 48.627H19.9005V52.6386H23.8819V48.627Z" fill="black"/>
<path d="M23.8819 56.6509H19.9005V64.674H23.8819V56.6509Z" fill="black"/>
<path d="M23.8819 72.6914H19.9005V84.7262H23.8819V72.6914Z" fill="black"/>
<path d="M23.8819 88.7314H19.9005V92.7431H23.8819V88.7314Z" fill="black"/>
<path d="M23.8818 104.778H19.9004V108.789H23.8818V104.778Z" fill="black"/>
<path d="M23.8819 128.842H19.9005V132.853H23.8819V128.842Z" fill="black"/>
<path d="M27.8661 0.5H23.8847V12.5347H27.8661V0.5Z" fill="black"/>
<path d="M27.8661 12.5288H23.8847V28.5693H27.8661V12.5288Z" fill="black"/>
<path d="M27.8661 32.5859H23.8847V36.5975H27.8661V32.5859Z" fill="black"/>
<path d="M27.8661 40.6045H23.8847V44.6161H27.8661V40.6045Z" fill="black"/>
<path d="M27.8661 48.627H23.8847V52.6386H27.8661V48.627Z" fill="black"/>
<path d="M27.8661 56.6509H23.8847V60.6624H27.8661V56.6509Z" fill="black"/>
<path d="M27.8661 64.668H23.8847V68.6796H27.8661V64.668Z" fill="black"/>
<path d="M27.8661 72.6914H23.8847V76.703H27.8661V72.6914Z" fill="black"/>
<path d="M27.8661 80.7139H23.8847V84.7255H27.8661V80.7139Z" fill="black"/>
<path d="M27.8661 88.7314H23.8847V92.7431H27.8661V88.7314Z" fill="black"/>
<path d="M27.8661 96.7544H23.8847V100.766H27.8661V96.7544Z" fill="black"/>
<path d="M27.8662 104.778H23.8848V124.83H27.8662V104.778Z" fill="black"/>
<path d="M27.8661 124.831H23.8847V132.854H27.8661V124.831Z" fill="black"/>
<path d="M31.8456 32.5859H27.8643V36.5975H31.8456V32.5859Z" fill="black"/>
<path d="M31.8456 40.6045H27.8643V44.6161H31.8456V40.6045Z" fill="black"/>
<path d="M31.8456 48.627H27.8643V52.6386H31.8456V48.627Z" fill="black"/>
<path d="M31.8456 56.6509H27.8643V68.6858H31.8456V56.6509Z" fill="black"/>
<path d="M31.8456 76.7017H27.8643V88.7365H31.8456V76.7017Z" fill="black"/>
<path d="M31.8456 88.7314H27.8643V92.7431H31.8456V88.7314Z" fill="black"/>
<path d="M31.8456 96.7544H27.8643V100.766H31.8456V96.7544Z" fill="black"/>
<path d="M35.829 0.5H31.8477V8.52314H35.829V0.5Z" fill="black"/>
<path d="M35.829 12.5288H31.8477V16.5403H35.829V12.5288Z" fill="black"/>
<path d="M35.829 24.5635H31.8477V32.5866H35.829V24.5635Z" fill="black"/>
<path d="M35.829 40.6045H31.8477V44.6161H35.829V40.6045Z" fill="black"/>
<path d="M35.829 60.6562H31.8477V68.6791H35.829V60.6562Z" fill="black"/>
<path d="M35.829 72.6914H31.8477V76.703H35.829V72.6914Z" fill="black"/>
<path d="M35.829 80.7139H31.8477V84.7255H35.829V80.7139Z" fill="black"/>
<path d="M35.829 92.7432H31.8477V96.7548H35.829V92.7432Z" fill="black"/>
<path d="M35.829 100.766H31.8477V104.777H35.829V100.766Z" fill="black"/>
<path d="M35.829 104.778H31.8477V112.801H35.829V104.778Z" fill="black"/>
<path d="M35.829 116.807H31.8477V124.83H35.829V116.807Z" fill="black"/>
<path d="M35.829 128.842H31.8477V132.853H35.829V128.842Z" fill="black"/>
<path d="M39.8037 0.5H35.8223V8.52314H39.8037V0.5Z" fill="black"/>
<path d="M39.8037 12.5288H35.8223V24.5635H39.8037V12.5288Z" fill="black"/>
<path d="M39.8037 28.5747H35.8223V36.5978H39.8037V28.5747Z" fill="black"/>
<path d="M39.8037 40.6045H35.8223V44.6161H39.8037V40.6045Z" fill="black"/>
<path d="M39.8037 48.627H35.8223V56.6501H39.8037V48.627Z" fill="black"/>
<path d="M39.8037 64.668H35.8223V72.6912H39.8037V64.668Z" fill="black"/>
<path d="M39.8037 76.7017H35.8223V80.7133H39.8037V76.7017Z" fill="black"/>
<path d="M39.8037 88.7314H35.8223V100.766H39.8037V88.7314Z" fill="black"/>
<path d="M39.8037 108.784H35.8223V112.795H39.8037V108.784Z" fill="black"/>
<path d="M39.8037 116.807H35.8223V124.83H39.8037V116.807Z" fill="black"/>
<path d="M39.8037 124.831H35.8223V128.842H39.8037V124.831Z" fill="black"/>
<path d="M43.7823 4.51172H39.801V12.5349H43.7823V4.51172Z" fill="black"/>
<path d="M43.7823 16.5405H39.801V28.5752H43.7823V16.5405Z" fill="black"/>
<path d="M43.7823 32.5859H39.801V44.6206H43.7823V32.5859Z" fill="black"/>
<path d="M43.7823 52.6387H39.801V56.6503H43.7823V52.6387Z" fill="black"/>
<path d="M43.7823 60.6562H39.801V64.6679H43.7823V60.6562Z" fill="black"/>
<path d="M43.7823 76.7017H39.801V80.7133H43.7823V76.7017Z" fill="black"/>
<path d="M43.7823 88.7314H39.801V92.7431H43.7823V88.7314Z" fill="black"/>
<path d="M43.7823 96.7544H39.801V104.778H43.7823V96.7544Z" fill="black"/>
<path d="M43.7822 104.778H39.8008V108.789H43.7822V104.778Z" fill="black"/>
<path d="M43.7823 116.807H39.801V124.83H43.7823V116.807Z" fill="black"/>
<path d="M43.7823 128.842H39.801V132.853H43.7823V128.842Z" fill="black"/>
<path d="M47.7666 12.5288H43.7852V16.5403H47.7666V12.5288Z" fill="black"/>
<path d="M47.7666 20.5527H43.7852V24.5643H47.7666V20.5527Z" fill="black"/>
<path d="M47.7666 28.5747H43.7852V36.5978H47.7666V28.5747Z" fill="black"/>
<path d="M47.7666 48.627H43.7852V52.6386H47.7666V48.627Z" fill="black"/>
<path d="M47.7666 56.6509H43.7852V60.6624H47.7666V56.6509Z" fill="black"/>
<path d="M47.7666 64.668H43.7852V76.7029H47.7666V64.668Z" fill="black"/>
<path d="M47.7666 80.7139H43.7852V88.7371H47.7666V80.7139Z" fill="black"/>
<path d="M47.7666 100.766H43.7852V104.777H47.7666V100.766Z" fill="black"/>
<path d="M47.7665 104.778H43.7852V116.812H47.7665V104.778Z" fill="black"/>
<path d="M47.7666 120.818H43.7852V124.829H47.7666V120.818Z" fill="black"/>
<path d="M47.7666 128.842H43.7852V132.853H47.7666V128.842Z" fill="black"/>
<path d="M51.746 0.5H47.7646V4.51156H51.746V0.5Z" fill="black"/>
<path d="M51.746 8.52295H47.7646V12.5345H51.746V8.52295Z" fill="black"/>
<path d="M51.746 16.5405H47.7646V20.5521H51.746V16.5405Z" fill="black"/>
<path d="M51.746 24.5635H47.7646V28.575H51.746V24.5635Z" fill="black"/>
<path d="M51.746 44.6157H47.7646V52.6389H51.746V44.6157Z" fill="black"/>
<path d="M51.746 64.668H47.7646V68.6796H51.746V64.668Z" fill="black"/>
<path d="M51.746 72.6914H47.7646V88.7317H51.746V72.6914Z" fill="black"/>
<path d="M51.746 88.7314H47.7646V92.7431H51.746V88.7314Z" fill="black"/>
<path d="M51.746 100.766H47.7646V104.777H51.746V100.766Z" fill="black"/>
<path d="M51.746 104.778H47.7646V108.789H51.746V104.778Z" fill="black"/>
<path d="M51.746 120.818H47.7646V124.829H51.746V120.818Z" fill="black"/>
<path d="M51.746 128.842H47.7646V132.853H51.746V128.842Z" fill="black"/>
<path d="M55.7295 8.52295H51.748V12.5345H55.7295V8.52295Z" fill="black"/>
<path d="M55.7295 16.5405H51.748V20.5521H55.7295V16.5405Z" fill="black"/>
<path d="M55.7295 36.5928H51.748V44.6159H55.7295V36.5928Z" fill="black"/>
<path d="M55.7295 56.6509H51.748V60.6624H55.7295V56.6509Z" fill="black"/>
<path d="M55.7295 64.668H51.748V84.72H55.7295V64.668Z" fill="black"/>
<path d="M55.7295 88.7314H51.748V92.7431H55.7295V88.7314Z" fill="black"/>
<path d="M55.7295 100.766H51.748V104.777H55.7295V100.766Z" fill="black"/>
<path d="M55.7295 108.784H51.748V116.807H55.7295V108.784Z" fill="black"/>
<path d="M59.7089 4.51172H55.7275V12.5349H59.7089V4.51172Z" fill="black"/>
<path d="M59.7089 20.5527H55.7275V28.5759H59.7089V20.5527Z" fill="black"/>
<path d="M59.7089 32.5859H55.7275V40.6091H59.7089V32.5859Z" fill="black"/>
<path d="M59.7089 48.627H55.7275V60.6617H59.7089V48.627Z" fill="black"/>
<path d="M59.7089 68.6792H55.7275V72.6908H59.7089V68.6792Z" fill="black"/>
<path d="M59.7089 76.7017H55.7275V80.7133H59.7089V76.7017Z" fill="black"/>
<path d="M59.7089 84.7202H55.7275V88.7318H59.7089V84.7202Z" fill="black"/>
<path d="M59.7089 88.7314H55.7275V92.7431H59.7089V88.7314Z" fill="black"/>
<path d="M59.7089 96.7544H55.7275V104.778H59.7089V96.7544Z" fill="black"/>
<path d="M59.7089 104.778H55.7275V108.789H59.7089V104.778Z" fill="black"/>
<path d="M59.7089 116.807H55.7275V120.818H59.7089V116.807Z" fill="black"/>
<path d="M63.6885 12.5288H59.707V16.5403H63.6885V12.5288Z" fill="black"/>
<path d="M63.6885 20.5527H59.707V24.5643H63.6885V20.5527Z" fill="black"/>
<path d="M63.6885 28.5747H59.707V36.5978H63.6885V28.5747Z" fill="black"/>
<path d="M63.6885 48.627H59.707V52.6386H63.6885V48.627Z" fill="black"/>
<path d="M63.6885 60.6562H59.707V64.6679H63.6885V60.6562Z" fill="black"/>
<path d="M63.6885 68.6792H59.707V76.7024H63.6885V68.6792Z" fill="black"/>
<path d="M63.6885 84.7202H59.707V88.7318H63.6885V84.7202Z" fill="black"/>
<path d="M63.6885 88.7314H59.707V96.7547H63.6885V88.7314Z" fill="black"/>
<path d="M63.6885 100.766H59.707V104.777H63.6885V100.766Z" fill="black"/>
<path d="M63.6885 112.795H59.707V116.806H63.6885V112.795Z" fill="black"/>
<path d="M63.6885 120.818H59.707V124.829H63.6885V120.818Z" fill="black"/>
<path d="M67.6671 8.52295H63.6856V12.5345H67.6671V8.52295Z" fill="black"/>
<path d="M67.6671 16.5405H63.6856V32.581H67.6671V16.5405Z" fill="black"/>
<path d="M67.6671 36.5928H63.6856V40.6044H67.6671V36.5928Z" fill="black"/>
<path d="M67.6671 44.6157H63.6856V52.6389H67.6671V44.6157Z" fill="black"/>
<path d="M67.6671 64.668H63.6856V68.6796H67.6671V64.668Z" fill="black"/>
<path d="M67.6671 72.6914H63.6856V76.703H67.6671V72.6914Z" fill="black"/>
<path d="M67.6671 80.7139H63.6856V88.7371H67.6671V80.7139Z" fill="black"/>
<path d="M67.6671 100.766H63.6856V104.777H67.6671V100.766Z" fill="black"/>
<path d="M67.6671 108.784H63.6856V124.824H67.6671V108.784Z" fill="black"/>
<path d="M67.6671 128.842H63.6856V132.853H67.6671V128.842Z" fill="black"/>
<path d="M71.6455 4.51172H67.6641V8.52327H71.6455V4.51172Z" fill="black"/>
<path d="M71.6455 28.5747H67.6641V40.6094H71.6455V28.5747Z" fill="black"/>
<path d="M71.6455 44.6157H67.6641V48.6273H71.6455V44.6157Z" fill="black"/>
<path d="M71.6455 56.6509H67.6641V60.6624H71.6455V56.6509Z" fill="black"/>
<path d="M71.6455 76.7017H67.6641V80.7133H71.6455V76.7017Z" fill="black"/>
<path d="M71.6455 88.7314H67.6641V92.7431H71.6455V88.7314Z" fill="black"/>
<path d="M71.6455 96.7544H67.6641V100.766H71.6455V96.7544Z" fill="black"/>
<path d="M71.6455 104.778H67.6641V120.819H71.6455V104.778Z" fill="black"/>
<path d="M71.6455 124.831H67.6641V132.854H71.6455V124.831Z" fill="black"/>
<path d="M75.6306 0.5H71.6492V4.51156H75.6306V0.5Z" fill="black"/>
<path d="M75.6306 8.52295H71.6492V12.5345H75.6306V8.52295Z" fill="black"/>
<path d="M75.6306 12.5288H71.6492V32.5809H75.6306V12.5288Z" fill="black"/>
<path d="M75.6306 36.5928H71.6492V44.6159H75.6306V36.5928Z" fill="black"/>
<path d="M75.6306 56.6509H71.6492V60.6624H75.6306V56.6509Z" fill="black"/>
<path d="M75.6306 64.668H71.6492V80.7084H75.6306V64.668Z" fill="black"/>
<path d="M75.6309 104.778H71.6494V116.812H75.6309V104.778Z" fill="black"/>
<path d="M79.6094 0.5H75.628V4.51156H79.6094V0.5Z" fill="black"/>
<path d="M79.6094 12.5288H75.628V16.5403H79.6094V12.5288Z" fill="black"/>
<path d="M79.6094 28.5747H75.628V32.5862H79.6094V28.5747Z" fill="black"/>
<path d="M79.6094 36.5928H75.628V40.6044H79.6094V36.5928Z" fill="black"/>
<path d="M79.6094 56.6509H75.628V60.6624H79.6094V56.6509Z" fill="black"/>
<path d="M79.6094 76.7017H75.628V80.7133H79.6094V76.7017Z" fill="black"/>
<path d="M79.6094 88.7314H75.628V92.7431H79.6094V88.7314Z" fill="black"/>
<path d="M79.6094 96.7544H75.628V104.778H79.6094V96.7544Z" fill="black"/>
<path d="M79.6094 104.778H75.6279V108.789H79.6094V104.778Z" fill="black"/>
<path d="M79.6094 116.807H75.628V120.818H79.6094V116.807Z" fill="black"/>
<path d="M79.6094 128.842H75.628V132.853H79.6094V128.842Z" fill="black"/>
<path d="M83.5879 0.5H79.6064V4.51156H83.5879V0.5Z" fill="black"/>
<path d="M83.5879 8.52295H79.6064V12.5345H83.5879V8.52295Z" fill="black"/>
<path d="M83.5879 24.5635H79.6064V28.575H83.5879V24.5635Z" fill="black"/>
<path d="M83.5879 36.5928H79.6064V40.6044H83.5879V36.5928Z" fill="black"/>
<path d="M83.5879 48.627H79.6064V60.6617H83.5879V48.627Z" fill="black"/>
<path d="M83.5879 64.668H79.6064V72.6912H83.5879V64.668Z" fill="black"/>
<path d="M83.5879 84.7202H79.6064V88.7318H83.5879V84.7202Z" fill="black"/>
<path d="M83.5879 88.7314H79.6064V96.7547H83.5879V88.7314Z" fill="black"/>
<path d="M83.5879 100.766H79.6064V104.777H83.5879V100.766Z" fill="black"/>
<path d="M83.5879 104.778H79.6064V112.801H83.5879V104.778Z" fill="black"/>
<path d="M83.5879 120.818H79.6064V124.829H83.5879V120.818Z" fill="black"/>
<path d="M83.5879 124.831H79.6064V128.842H83.5879V124.831Z" fill="black"/>
<path d="M87.5676 0.5H83.5862V4.51156H87.5676V0.5Z" fill="black"/>
<path d="M87.5676 12.5288H83.5862V16.5403H87.5676V12.5288Z" fill="black"/>
<path d="M87.5676 32.5859H83.5862V36.5975H87.5676V32.5859Z" fill="black"/>
<path d="M87.5676 40.6045H83.5862V52.6392H87.5676V40.6045Z" fill="black"/>
<path d="M87.5676 60.6562H83.5862V68.6791H87.5676V60.6562Z" fill="black"/>
<path d="M87.5676 72.6914H83.5862V76.703H87.5676V72.6914Z" fill="black"/>
<path d="M87.5676 84.7202H83.5862V88.7318H87.5676V84.7202Z" fill="black"/>
<path d="M87.5676 100.766H83.5862V104.777H87.5676V100.766Z" fill="black"/>
<path d="M87.5674 104.778H83.5859V108.789H87.5674V104.778Z" fill="black"/>
<path d="M87.5676 116.807H83.5862V124.83H87.5676V116.807Z" fill="black"/>
<path d="M87.5676 128.842H83.5862V132.853H87.5676V128.842Z" fill="black"/>
<path d="M91.5459 20.5527H87.5645V32.5875H91.5459V20.5527Z" fill="black"/>
<path d="M91.5459 36.5928H87.5645V52.6333H91.5459V36.5928Z" fill="black"/>
<path d="M91.5459 56.6509H87.5645V60.6624H91.5459V56.6509Z" fill="black"/>
<path d="M91.5459 64.668H87.5645V68.6796H91.5459V64.668Z" fill="black"/>
<path d="M91.5459 76.7017H87.5645V88.7365H91.5459V76.7017Z" fill="black"/>
<path d="M91.5459 92.7432H87.5645V100.766H91.5459V92.7432Z" fill="black"/>
<path d="M91.5459 112.795H87.5645V124.824H91.5459V112.795Z" fill="black"/>
<path d="M95.5311 0.5H91.5497V12.5347H95.5311V0.5Z" fill="black"/>
<path d="M95.5311 12.5288H91.5497V24.5635H95.5311V12.5288Z" fill="black"/>
<path d="M95.5311 28.5747H91.5497V32.5862H95.5311V28.5747Z" fill="black"/>
<path d="M95.5311 36.5928H91.5497V48.6275H95.5311V36.5928Z" fill="black"/>
<path d="M95.5311 52.6387H91.5497V56.6503H95.5311V52.6387Z" fill="black"/>
<path d="M95.5311 68.6792H91.5497V72.6908H95.5311V68.6792Z" fill="black"/>
<path d="M95.5311 76.7017H91.5497V80.7133H95.5311V76.7017Z" fill="black"/>
<path d="M95.5311 96.7544H91.5497V100.766H95.5311V96.7544Z" fill="black"/>
<path d="M95.5312 104.778H91.5498V116.812H95.5312V104.778Z" fill="black"/>
<path d="M99.5156 8.52295H95.5342V12.5345H99.5156V8.52295Z" fill="black"/>
<path d="M99.5156 12.5288H95.5342V16.5403H99.5156V12.5288Z" fill="black"/>
<path d="M99.5156 20.5527H95.5342V32.5875H99.5156V20.5527Z" fill="black"/>
<path d="M99.5156 36.5928H95.5342V44.6159H99.5156V36.5928Z" fill="black"/>
<path d="M99.5156 48.627H95.5342V56.6501H99.5156V48.627Z" fill="black"/>
<path d="M99.5156 64.668H95.5342V76.7029H99.5156V64.668Z" fill="black"/>
<path d="M99.5156 84.7202H95.5342V88.7318H99.5156V84.7202Z" fill="black"/>
<path d="M99.5156 88.7314H95.5342V92.7431H99.5156V88.7314Z" fill="black"/>
<path d="M99.5156 96.7544H95.5342V104.778H99.5156V96.7544Z" fill="black"/>
<path d="M99.5156 104.778H95.5342V116.812H99.5156V104.778Z" fill="black"/>
<path d="M99.5156 120.818H95.5342V124.829H99.5156V120.818Z" fill="black"/>
<path d="M99.5156 128.842H95.5342V132.853H99.5156V128.842Z" fill="black"/>
<path d="M103.494 40.6045H99.5126V48.6276H103.494V40.6045Z" fill="black"/>
<path d="M103.494 52.6387H99.5126V56.6503H103.494V52.6387Z" fill="black"/>
<path d="M103.494 60.6562H99.5126V72.6907H103.494V60.6562Z" fill="black"/>
<path d="M103.494 80.7139H99.5126V84.7255H103.494V80.7139Z" fill="black"/>
<path d="M103.494 96.7544H99.5126V100.766H103.494V96.7544Z" fill="black"/>
<path d="M103.494 112.795H99.5126V116.806H103.494V112.795Z" fill="black"/>
<path d="M103.494 120.818H99.5126V124.829H103.494V120.818Z" fill="black"/>
<path d="M103.494 128.842H99.5126V132.853H103.494V128.842Z" fill="black"/>
<path d="M107.473 0.5H103.492V12.5347H107.473V0.5Z" fill="black"/>
<path d="M107.473 12.5288H103.492V28.5693H107.473V12.5288Z" fill="black"/>
<path d="M107.473 32.5859H103.492V44.6206H107.473V32.5859Z" fill="black"/>
<path d="M107.473 52.6387H103.492V72.6906H107.473V52.6387Z" fill="black"/>
<path d="M107.473 76.7017H103.492V80.7133H107.473V76.7017Z" fill="black"/>
<path d="M107.473 84.7202H103.492V88.7318H107.473V84.7202Z" fill="black"/>
<path d="M107.473 88.7314H103.492V92.7431H107.473V88.7314Z" fill="black"/>
<path d="M107.473 96.7544H103.492V100.766H107.473V96.7544Z" fill="black"/>
<path d="M107.474 104.778H103.492V108.789H107.474V104.778Z" fill="black"/>
<path d="M107.473 112.795H103.492V116.806H107.473V112.795Z" fill="black"/>
<path d="M107.473 120.818H103.492V124.829H107.473V120.818Z" fill="black"/>
<path d="M111.452 0.5H107.471V4.51156H111.452V0.5Z" fill="black"/>
<path d="M111.452 24.5635H107.471V28.575H111.452V24.5635Z" fill="black"/>
<path d="M111.452 36.5928H107.471V64.668H111.452V36.5928Z" fill="black"/>
<path d="M111.452 72.6914H107.471V76.703H111.452V72.6914Z" fill="black"/>
<path d="M111.452 88.7314H107.471V100.766H111.452V88.7314Z" fill="black"/>
<path d="M111.452 112.795H107.471V124.824H111.452V112.795Z" fill="black"/>
<path d="M111.452 124.831H107.471V128.842H111.452V124.831Z" fill="black"/>
<path d="M115.431 0.5H111.449V4.51156H115.431V0.5Z" fill="black"/>
<path d="M115.431 8.52295H111.449V12.5345H115.431V8.52295Z" fill="black"/>
<path d="M115.431 12.5288H111.449V20.5519H115.431V12.5288Z" fill="black"/>
<path d="M115.431 24.5635H111.449V28.575H115.431V24.5635Z" fill="black"/>
<path d="M115.431 40.6045H111.449V44.6161H115.431V40.6045Z" fill="black"/>
<path d="M115.431 48.627H111.449V52.6386H115.431V48.627Z" fill="black"/>
<path d="M115.431 56.6509H111.449V80.7145H115.431V56.6509Z" fill="black"/>
<path d="M115.431 88.7314H111.449V92.7431H115.431V88.7314Z" fill="black"/>
<path d="M115.431 96.7544H111.449V104.778H115.431V96.7544Z" fill="black"/>
<path d="M115.431 104.778H111.449V116.812H115.431V104.778Z" fill="black"/>
<path d="M115.431 124.831H111.449V132.854H115.431V124.831Z" fill="black"/>
<path d="M119.416 0.5H115.434V4.51156H119.416V0.5Z" fill="black"/>
<path d="M119.416 8.52295H115.434V12.5345H119.416V8.52295Z" fill="black"/>
<path d="M119.416 12.5288H115.434V20.5519H119.416V12.5288Z" fill="black"/>
<path d="M119.416 24.5635H115.434V28.575H119.416V24.5635Z" fill="black"/>
<path d="M119.416 32.5859H115.434V72.6899H119.416V32.5859Z" fill="black"/>
<path d="M119.416 80.7139H115.434V88.7371H119.416V80.7139Z" fill="black"/>
<path d="M119.416 92.7432H115.434V96.7548H119.416V92.7432Z" fill="black"/>
<path d="M119.416 100.766H115.434V104.777H119.416V100.766Z" fill="black"/>
<path d="M119.416 108.784H115.434V112.795H119.416V108.784Z" fill="black"/>
<path d="M119.416 120.818H115.434V124.829H119.416V120.818Z" fill="black"/>
<path d="M119.416 124.831H115.434V128.842H119.416V124.831Z" fill="black"/>
<path d="M123.395 0.5H119.413V4.51156H123.395V0.5Z" fill="black"/>
<path d="M123.395 8.52295H119.413V12.5345H123.395V8.52295Z" fill="black"/>
<path d="M123.395 12.5288H119.413V20.5519H123.395V12.5288Z" fill="black"/>
<path d="M123.395 24.5635H119.413V28.575H123.395V24.5635Z" fill="black"/>
<path d="M123.395 36.5928H119.413V40.6044H123.395V36.5928Z" fill="black"/>
<path d="M123.395 56.6509H119.413V68.6858H123.395V56.6509Z" fill="black"/>
<path d="M123.395 72.6914H119.413V76.703H123.395V72.6914Z" fill="black"/>
<path d="M123.395 80.7139H119.413V88.7371H123.395V80.7139Z" fill="black"/>
<path d="M123.395 108.784H119.413V124.824H123.395V108.784Z" fill="black"/>
<path d="M123.395 128.842H119.413V132.853H123.395V128.842Z" fill="black"/>
<path d="M127.374 0.5H123.393V4.51156H127.374V0.5Z" fill="black"/>
<path d="M127.374 24.5635H123.393V28.575H127.374V24.5635Z" fill="black"/>
<path d="M127.374 32.5859H123.393V56.6496H127.374V32.5859Z" fill="black"/>
<path d="M127.374 68.6792H123.393V80.714H127.374V68.6792Z" fill="black"/>
<path d="M127.374 88.7314H123.393V92.7431H127.374V88.7314Z" fill="black"/>
<path d="M127.374 96.7544H123.393V100.766H127.374V96.7544Z" fill="black"/>
<path d="M127.374 108.784H123.393V112.795H127.374V108.784Z" fill="black"/>
<path d="M127.374 116.807H123.393V120.818H127.374V116.807Z" fill="black"/>
<path d="M131.358 0.5H127.377V12.5347H131.358V0.5Z" fill="black"/>
<path d="M131.358 12.5288H127.377V28.5693H131.358V12.5288Z" fill="black"/>
<path d="M131.358 32.5859H127.377V52.638H131.358V32.5859Z" fill="black"/>
<path d="M131.358 68.6792H127.377V72.6908H131.358V68.6792Z" fill="black"/>
<path d="M131.358 76.7017H127.377V80.7133H131.358V76.7017Z" fill="black"/>
<path d="M131.358 84.7202H127.377V88.7318H131.358V84.7202Z" fill="black"/>
<path d="M131.358 88.7314H127.377V96.7547H131.358V88.7314Z" fill="black"/>
<path d="M131.358 108.784H127.377V120.819H131.358V108.784Z" fill="black"/>
<path d="M131.358 124.831H127.377V128.842H131.358V124.831Z" fill="black"/>
</g>
<defs>
<clipPath id="clip0_1790_28361">
<rect width="132" height="133" fill="white" transform="translate(0 0.5)"/>
</clipPath>
</defs>
</svg>
