<svg width="131" height="132" viewBox="0 0 131 132" fill="none" xmlns="http://www.w3.org/2000/svg">
<g clip-path="url(#clip0_1790_28005)">
<path d="M3.5344 0.5H0V25.2408H3.5344V0.5Z" fill="black"/>
<path d="M3.5344 28.7749H0V32.3093H3.5344V28.7749Z" fill="black"/>
<path d="M3.5344 42.9131H0V46.4475H3.5344V42.9131Z" fill="black"/>
<path d="M3.5344 49.9814H0V60.5847H3.5344V49.9814Z" fill="black"/>
<path d="M3.5344 67.6533H0V71.1877H3.5344V67.6533Z" fill="black"/>
<path d="M3.5344 85.3257H0V88.86H3.5344V85.3257Z" fill="black"/>
<path d="M3.5344 95.9287H0V99.463H3.5344V95.9287Z" fill="black"/>
<path d="M3.5344 106.533H0V131.274H3.5344V106.533Z" fill="black"/>
<path d="M7.06954 0.5H3.53516V4.0344H7.06954V0.5Z" fill="black"/>
<path d="M7.06954 21.707H3.53516V25.2414H7.06954V21.707Z" fill="black"/>
<path d="M7.06954 32.3096H3.53516V35.8439H7.06954V32.3096Z" fill="black"/>
<path d="M7.06954 39.3774H3.53516V42.9118H7.06954V39.3774Z" fill="black"/>
<path d="M7.06954 46.4473H3.53516V49.9817H7.06954V46.4473Z" fill="black"/>
<path d="M7.06954 53.5156H3.53516V60.5845H7.06954V53.5156Z" fill="black"/>
<path d="M7.06954 64.1196H3.53516V67.654H7.06954V64.1196Z" fill="black"/>
<path d="M7.06954 71.1885H3.53516V88.8607H7.06954V71.1885Z" fill="black"/>
<path d="M7.06954 92.395H3.53516V95.9293H7.06954V92.395Z" fill="black"/>
<path d="M7.06954 106.533H3.53516V110.067H7.06954V106.533Z" fill="black"/>
<path d="M7.06954 127.739H3.53516V131.273H7.06954V127.739Z" fill="black"/>
<path d="M10.6038 0.5H7.06946V4.0344H10.6038V0.5Z" fill="black"/>
<path d="M10.6038 7.56934H7.06946V18.1725H10.6038V7.56934Z" fill="black"/>
<path d="M10.6038 21.707H7.06946V25.2414H10.6038V21.707Z" fill="black"/>
<path d="M10.6038 28.7749H7.06946V32.3093H10.6038V28.7749Z" fill="black"/>
<path d="M10.6038 39.3774H7.06946V60.5839H10.6038V39.3774Z" fill="black"/>
<path d="M10.6038 67.6533H7.06946V71.1877H10.6038V67.6533Z" fill="black"/>
<path d="M10.6038 74.7227H7.06946V78.257H10.6038V74.7227Z" fill="black"/>
<path d="M10.6038 81.791H7.06946V92.394H10.6038V81.791Z" fill="black"/>
<path d="M10.6038 99.4634H7.06946V102.998H10.6038V99.4634Z" fill="black"/>
<path d="M10.6038 106.533H7.06946V110.067H10.6038V106.533Z" fill="black"/>
<path d="M10.6038 113.601H7.06946V124.204H10.6038V113.601Z" fill="black"/>
<path d="M10.6038 127.739H7.06946V131.273H10.6038V127.739Z" fill="black"/>
<path d="M14.133 0.5H10.5986V4.0344H14.133V0.5Z" fill="black"/>
<path d="M14.133 7.56934H10.5986V18.1725H14.133V7.56934Z" fill="black"/>
<path d="M14.133 21.707H10.5986V25.2414H14.133V21.707Z" fill="black"/>
<path d="M14.133 28.7749H10.5986V42.9125H14.133V28.7749Z" fill="black"/>
<path d="M14.133 46.4473H10.5986V49.9817H14.133V46.4473Z" fill="black"/>
<path d="M14.133 53.5156H10.5986V57.05H14.133V53.5156Z" fill="black"/>
<path d="M14.133 67.6533H10.5986V71.1877H14.133V67.6533Z" fill="black"/>
<path d="M14.133 81.791H10.5986V92.394H14.133V81.791Z" fill="black"/>
<path d="M14.133 99.4634H10.5986V102.998H14.133V99.4634Z" fill="black"/>
<path d="M14.133 106.533H10.5986V110.067H14.133V106.533Z" fill="black"/>
<path d="M14.133 113.601H10.5986V124.204H14.133V113.601Z" fill="black"/>
<path d="M14.133 127.739H10.5986V131.273H14.133V127.739Z" fill="black"/>
<path d="M17.6682 0.5H14.1338V4.0344H17.6682V0.5Z" fill="black"/>
<path d="M17.6682 7.56934H14.1338V18.1725H17.6682V7.56934Z" fill="black"/>
<path d="M17.6682 21.707H14.1338V25.2414H17.6682V21.707Z" fill="black"/>
<path d="M17.6682 32.3096H14.1338V35.8439H17.6682V32.3096Z" fill="black"/>
<path d="M17.6682 49.9814H14.1338V57.0502H17.6682V49.9814Z" fill="black"/>
<path d="M17.6682 78.2578H14.1338V85.3264H17.6682V78.2578Z" fill="black"/>
<path d="M17.6682 88.8599H14.1338V92.3942H17.6682V88.8599Z" fill="black"/>
<path d="M17.6682 95.9287H14.1338V102.998H17.6682V95.9287Z" fill="black"/>
<path d="M17.6682 106.533H14.1338V110.067H17.6682V106.533Z" fill="black"/>
<path d="M17.6682 113.601H14.1338V124.204H17.6682V113.601Z" fill="black"/>
<path d="M17.6682 127.739H14.1338V131.273H17.6682V127.739Z" fill="black"/>
<path d="M21.2082 0.5H17.6738V4.0344H21.2082V0.5Z" fill="black"/>
<path d="M21.2082 21.707H17.6738V25.2414H21.2082V21.707Z" fill="black"/>
<path d="M21.2082 28.7749H17.6738V42.9125H21.2082V28.7749Z" fill="black"/>
<path d="M21.2082 57.0503H17.6738V60.5847H21.2082V57.0503Z" fill="black"/>
<path d="M21.2082 71.1885H17.6738V74.7228H21.2082V71.1885Z" fill="black"/>
<path d="M21.2082 81.791H17.6738V88.8596H21.2082V81.791Z" fill="black"/>
<path d="M21.2082 99.4634H17.6738V102.998H21.2082V99.4634Z" fill="black"/>
<path d="M21.2082 106.533H17.6738V110.067H21.2082V106.533Z" fill="black"/>
<path d="M21.2082 127.739H17.6738V131.273H21.2082V127.739Z" fill="black"/>
<path d="M24.7426 0.5H21.2083V25.2408H24.7426V0.5Z" fill="black"/>
<path d="M24.7426 28.7749H21.2083V32.3093H24.7426V28.7749Z" fill="black"/>
<path d="M24.7426 35.8442H21.2083V39.3786H24.7426V35.8442Z" fill="black"/>
<path d="M24.7426 42.9131H21.2083V46.4475H24.7426V42.9131Z" fill="black"/>
<path d="M24.7426 49.9814H21.2083V53.5158H24.7426V49.9814Z" fill="black"/>
<path d="M24.7426 57.0503H21.2083V60.5847H24.7426V57.0503Z" fill="black"/>
<path d="M24.7426 64.1196H21.2083V67.654H24.7426V64.1196Z" fill="black"/>
<path d="M24.7426 71.1885H21.2083V74.7228H24.7426V71.1885Z" fill="black"/>
<path d="M24.7426 78.2578H21.2083V81.7921H24.7426V78.2578Z" fill="black"/>
<path d="M24.7426 85.3257H21.2083V88.86H24.7426V85.3257Z" fill="black"/>
<path d="M24.7426 92.395H21.2083V95.9293H24.7426V92.395Z" fill="black"/>
<path d="M24.7426 99.4634H21.2083V102.998H24.7426V99.4634Z" fill="black"/>
<path d="M24.7426 106.533H21.2083V131.274H24.7426V106.533Z" fill="black"/>
<path d="M28.2776 28.7749H24.7432V35.8437H28.2776V28.7749Z" fill="black"/>
<path d="M28.2776 53.5156H24.7432V57.05H28.2776V53.5156Z" fill="black"/>
<path d="M28.2776 60.585H24.7432V64.1193H28.2776V60.585Z" fill="black"/>
<path d="M28.2776 67.6533H24.7432V71.1877H28.2776V67.6533Z" fill="black"/>
<path d="M28.2776 74.7227H24.7432V78.257H28.2776V74.7227Z" fill="black"/>
<path d="M28.2776 88.8599H24.7432V95.9292H28.2776V88.8599Z" fill="black"/>
<path d="M31.8068 0.5H28.2725V7.56883H31.8068V0.5Z" fill="black"/>
<path d="M31.8068 11.1025H28.2725V14.6369H31.8068V11.1025Z" fill="black"/>
<path d="M31.8068 21.707H28.2725V28.7758H31.8068V21.707Z" fill="black"/>
<path d="M31.8068 35.8442H28.2725V39.3786H31.8068V35.8442Z" fill="black"/>
<path d="M31.8068 42.9131H28.2725V57.0507H31.8068V42.9131Z" fill="black"/>
<path d="M31.8068 71.1885H28.2725V74.7228H31.8068V71.1885Z" fill="black"/>
<path d="M31.8068 78.2578H28.2725V81.7921H31.8068V78.2578Z" fill="black"/>
<path d="M31.8068 88.8599H28.2725V113.601H31.8068V88.8599Z" fill="black"/>
<path d="M31.8068 117.136H28.2725V124.204H31.8068V117.136Z" fill="black"/>
<path d="M31.8068 127.739H28.2725V131.273H31.8068V127.739Z" fill="black"/>
<path d="M35.3413 0.5H31.8069V4.0344H35.3413V0.5Z" fill="black"/>
<path d="M35.3413 14.6382H31.8069V18.1726H35.3413V14.6382Z" fill="black"/>
<path d="M35.3413 25.2407H31.8069V42.9128H35.3413V25.2407Z" fill="black"/>
<path d="M35.3413 46.4473H31.8069V57.0505H35.3413V46.4473Z" fill="black"/>
<path d="M35.3413 64.1196H31.8069V67.654H35.3413V64.1196Z" fill="black"/>
<path d="M35.3413 71.1885H31.8069V74.7228H35.3413V71.1885Z" fill="black"/>
<path d="M35.3413 78.2578H31.8069V81.7921H35.3413V78.2578Z" fill="black"/>
<path d="M35.3413 88.8599H31.8069V102.998H35.3413V88.8599Z" fill="black"/>
<path d="M35.3413 117.136H31.8069V124.204H35.3413V117.136Z" fill="black"/>
<path d="M35.3413 127.739H31.8069V131.273H35.3413V127.739Z" fill="black"/>
<path d="M38.8759 4.03418H35.3416V25.2406H38.8759V4.03418Z" fill="black"/>
<path d="M38.8759 28.7749H35.3416V32.3093H38.8759V28.7749Z" fill="black"/>
<path d="M38.8759 35.8442H35.3416V39.3786H38.8759V35.8442Z" fill="black"/>
<path d="M38.8759 46.4473H35.3416V49.9817H38.8759V46.4473Z" fill="black"/>
<path d="M38.8759 60.585H35.3416V67.6537H38.8759V60.585Z" fill="black"/>
<path d="M38.8759 71.1885H35.3416V81.7921H38.8759V71.1885Z" fill="black"/>
<path d="M38.8759 85.3257H35.3416V92.3943H38.8759V85.3257Z" fill="black"/>
<path d="M38.8759 106.533H35.3416V110.067H38.8759V106.533Z" fill="black"/>
<path d="M38.8759 120.67H35.3416V124.205H38.8759V120.67Z" fill="black"/>
<path d="M42.4104 4.03418H38.876V7.5686H42.4104V4.03418Z" fill="black"/>
<path d="M42.4104 11.1025H38.876V18.1714H42.4104V11.1025Z" fill="black"/>
<path d="M42.4104 25.2407H38.876V35.8439H42.4104V25.2407Z" fill="black"/>
<path d="M42.4104 42.9131H38.876V46.4475H42.4104V42.9131Z" fill="black"/>
<path d="M42.4104 49.9814H38.876V64.119H42.4104V49.9814Z" fill="black"/>
<path d="M42.4104 71.1885H38.876V74.7228H42.4104V71.1885Z" fill="black"/>
<path d="M42.4104 78.2578H38.876V81.7921H42.4104V78.2578Z" fill="black"/>
<path d="M42.4104 95.9287H38.876V99.463H42.4104V95.9287Z" fill="black"/>
<path d="M42.4104 102.997H38.876V113.601H42.4104V102.997Z" fill="black"/>
<path d="M42.4104 117.136H38.876V120.67H42.4104V117.136Z" fill="black"/>
<path d="M45.9504 11.1025H42.416V14.6369H45.9504V11.1025Z" fill="black"/>
<path d="M45.9504 21.707H42.416V25.2414H45.9504V21.707Z" fill="black"/>
<path d="M45.9504 28.7749H42.416V32.3093H45.9504V28.7749Z" fill="black"/>
<path d="M45.9504 39.3774H42.416V42.9118H45.9504V39.3774Z" fill="black"/>
<path d="M45.9504 46.4473H42.416V49.9817H45.9504V46.4473Z" fill="black"/>
<path d="M45.9504 57.0503H42.416V71.1881H45.9504V57.0503Z" fill="black"/>
<path d="M45.9504 74.7227H42.416V81.7913H45.9504V74.7227Z" fill="black"/>
<path d="M45.9504 85.3257H42.416V88.86H45.9504V85.3257Z" fill="black"/>
<path d="M45.9504 99.4634H42.416V110.066H45.9504V99.4634Z" fill="black"/>
<path d="M45.9504 117.136H42.416V127.739H45.9504V117.136Z" fill="black"/>
<path d="M49.4854 4.03418H45.951V7.5686H49.4854V4.03418Z" fill="black"/>
<path d="M49.4854 18.1719H45.951V21.7063H49.4854V18.1719Z" fill="black"/>
<path d="M49.4854 32.3096H45.951V35.8439H49.4854V32.3096Z" fill="black"/>
<path d="M49.4854 39.3774H45.951V42.9118H49.4854V39.3774Z" fill="black"/>
<path d="M49.4854 49.9814H45.951V64.119H49.4854V49.9814Z" fill="black"/>
<path d="M49.4854 67.6533H45.951V78.2563H49.4854V67.6533Z" fill="black"/>
<path d="M49.4854 92.395H45.951V95.9293H49.4854V92.395Z" fill="black"/>
<path d="M49.4854 99.4634H45.951V102.998H49.4854V99.4634Z" fill="black"/>
<path d="M49.4854 117.136H45.951V127.739H49.4854V117.136Z" fill="black"/>
<path d="M53.0147 4.03418H49.4803V7.5686H53.0147V4.03418Z" fill="black"/>
<path d="M53.0147 11.1025H49.4803V14.6369H53.0147V11.1025Z" fill="black"/>
<path d="M53.0147 18.1719H49.4803V35.8438H53.0147V18.1719Z" fill="black"/>
<path d="M53.0147 39.3774H49.4803V46.4463H53.0147V39.3774Z" fill="black"/>
<path d="M53.0147 57.0503H49.4803V64.1191H53.0147V57.0503Z" fill="black"/>
<path d="M53.0147 71.1885H49.4803V78.2571H53.0147V71.1885Z" fill="black"/>
<path d="M53.0147 81.791H49.4803V85.3253H53.0147V81.791Z" fill="black"/>
<path d="M53.0147 88.8599H49.4803V92.3942H53.0147V88.8599Z" fill="black"/>
<path d="M53.0147 120.67H49.4803V124.205H53.0147V120.67Z" fill="black"/>
<path d="M53.0147 127.739H49.4803V131.273H53.0147V127.739Z" fill="black"/>
<path d="M56.5491 0.5H53.0146V4.0344H56.5491V0.5Z" fill="black"/>
<path d="M56.5491 7.56934H53.0146V11.1038H56.5491V7.56934Z" fill="black"/>
<path d="M56.5491 14.6382H53.0146V21.707H56.5491V14.6382Z" fill="black"/>
<path d="M56.5491 32.3096H53.0146V42.9128H56.5491V32.3096Z" fill="black"/>
<path d="M56.5491 46.4473H53.0146V49.9817H56.5491V46.4473Z" fill="black"/>
<path d="M56.5491 53.5156H53.0146V60.5845H56.5491V53.5156Z" fill="black"/>
<path d="M56.5491 64.1196H53.0146V67.654H56.5491V64.1196Z" fill="black"/>
<path d="M56.5491 88.8599H53.0146V92.3942H56.5491V88.8599Z" fill="black"/>
<path d="M56.5491 102.997H53.0146V110.066H56.5491V102.997Z" fill="black"/>
<path d="M56.5491 127.739H53.0146V131.273H56.5491V127.739Z" fill="black"/>
<path d="M60.0891 7.56934H56.5547V14.6382H60.0891V7.56934Z" fill="black"/>
<path d="M60.0891 21.707H56.5547V25.2414H60.0891V21.707Z" fill="black"/>
<path d="M60.0891 28.7749H56.5547V35.8437H60.0891V28.7749Z" fill="black"/>
<path d="M60.0891 42.9131H56.5547V57.0507H60.0891V42.9131Z" fill="black"/>
<path d="M60.0891 60.585H56.5547V85.3255H60.0891V60.585Z" fill="black"/>
<path d="M60.0891 88.8599H56.5547V95.9292H60.0891V88.8599Z" fill="black"/>
<path d="M60.0891 106.533H56.5547V110.067H60.0891V106.533Z" fill="black"/>
<path d="M60.0891 117.136H56.5547V127.739H60.0891V117.136Z" fill="black"/>
<path d="M63.6184 11.1025H60.084V21.7057H63.6184V11.1025Z" fill="black"/>
<path d="M63.6184 25.2407H60.084V28.7752H63.6184V25.2407Z" fill="black"/>
<path d="M63.6184 32.3096H60.084V35.8439H63.6184V32.3096Z" fill="black"/>
<path d="M63.6184 42.9131H60.084V46.4475H63.6184V42.9131Z" fill="black"/>
<path d="M63.6184 49.9814H60.084V53.5158H63.6184V49.9814Z" fill="black"/>
<path d="M63.6184 67.6533H60.084V74.722H63.6184V67.6533Z" fill="black"/>
<path d="M63.6184 85.3257H60.084V92.3943H63.6184V85.3257Z" fill="black"/>
<path d="M63.6184 102.997H60.084V106.531H63.6184V102.997Z" fill="black"/>
<path d="M63.6184 110.067H60.084V117.136H63.6184V110.067Z" fill="black"/>
<path d="M63.6184 120.67H60.084V124.205H63.6184V120.67Z" fill="black"/>
<path d="M63.6184 127.739H60.084V131.273H63.6184V127.739Z" fill="black"/>
<path d="M67.1535 0.5H63.6191V4.0344H67.1535V0.5Z" fill="black"/>
<path d="M67.1535 7.56934H63.6191V14.6382H67.1535V7.56934Z" fill="black"/>
<path d="M67.1535 21.707H63.6191V25.2414H67.1535V21.707Z" fill="black"/>
<path d="M67.1535 28.7749H63.6191V32.3093H67.1535V28.7749Z" fill="black"/>
<path d="M67.1535 35.8442H63.6191V42.9131H67.1535V35.8442Z" fill="black"/>
<path d="M67.1535 49.9814H63.6191V53.5158H67.1535V49.9814Z" fill="black"/>
<path d="M67.1535 57.0503H63.6191V64.1191H67.1535V57.0503Z" fill="black"/>
<path d="M67.1535 71.1885H63.6191V78.2571H67.1535V71.1885Z" fill="black"/>
<path d="M67.1535 81.791H63.6191V85.3253H67.1535V81.791Z" fill="black"/>
<path d="M67.1535 92.395H63.6191V95.9293H67.1535V92.395Z" fill="black"/>
<path d="M67.1535 99.4634H63.6191V110.066H67.1535V99.4634Z" fill="black"/>
<path d="M67.1535 113.601H63.6191V124.204H67.1535V113.601Z" fill="black"/>
<path d="M70.6887 0.5H67.1543V4.0344H70.6887V0.5Z" fill="black"/>
<path d="M70.6887 7.56934H67.1543V11.1038H70.6887V7.56934Z" fill="black"/>
<path d="M70.6887 14.6382H67.1543V21.707H70.6887V14.6382Z" fill="black"/>
<path d="M70.6887 28.7749H67.1543V35.8437H70.6887V28.7749Z" fill="black"/>
<path d="M70.6887 46.4473H67.1543V53.5161H70.6887V46.4473Z" fill="black"/>
<path d="M70.6887 74.7227H67.1543V78.257H70.6887V74.7227Z" fill="black"/>
<path d="M70.6887 81.791H67.1543V85.3253H70.6887V81.791Z" fill="black"/>
<path d="M70.6887 88.8599H67.1543V95.9292H70.6887V88.8599Z" fill="black"/>
<path d="M70.6887 110.067H67.1543V113.601H70.6887V110.067Z" fill="black"/>
<path d="M70.6887 117.136H67.1543V120.67H70.6887V117.136Z" fill="black"/>
<path d="M70.6887 124.204H67.1543V131.273H70.6887V124.204Z" fill="black"/>
<path d="M74.2169 0.5H70.6826V4.0344H74.2169V0.5Z" fill="black"/>
<path d="M74.2169 7.56934H70.6826V14.6382H74.2169V7.56934Z" fill="black"/>
<path d="M74.2169 21.707H70.6826V28.7758H74.2169V21.707Z" fill="black"/>
<path d="M74.2169 32.3096H70.6826V35.8439H74.2169V32.3096Z" fill="black"/>
<path d="M74.2169 39.3774H70.6826V46.4463H74.2169V39.3774Z" fill="black"/>
<path d="M74.2169 60.585H70.6826V67.6537H74.2169V60.585Z" fill="black"/>
<path d="M74.2169 71.1885H70.6826V78.2571H74.2169V71.1885Z" fill="black"/>
<path d="M74.2169 85.3257H70.6826V92.3943H74.2169V85.3257Z" fill="black"/>
<path d="M74.2169 95.9287H70.6826V110.067H74.2169V95.9287Z" fill="black"/>
<path d="M74.2169 117.136H70.6826V120.67H74.2169V117.136Z" fill="black"/>
<path d="M77.7522 0.5H74.2179V7.56883H77.7522V0.5Z" fill="black"/>
<path d="M77.7522 28.7749H74.2179V35.8437H77.7522V28.7749Z" fill="black"/>
<path d="M77.7522 46.4473H74.2179V49.9817H77.7522V46.4473Z" fill="black"/>
<path d="M77.7522 53.5156H74.2179V64.1188H77.7522V53.5156Z" fill="black"/>
<path d="M77.7522 71.1885H74.2179V81.7921H77.7522V71.1885Z" fill="black"/>
<path d="M77.7522 92.395H74.2179V106.532H77.7522V92.395Z" fill="black"/>
<path d="M77.7522 113.601H74.2179V120.669H77.7522V113.601Z" fill="black"/>
<path d="M81.2926 11.1025H77.7576V28.7746H81.2926V11.1025Z" fill="black"/>
<path d="M81.2926 35.8442H77.7576V46.4474H81.2926V35.8442Z" fill="black"/>
<path d="M81.2926 49.9814H77.7576V71.1881H81.2926V49.9814Z" fill="black"/>
<path d="M81.2926 74.7227H77.7576V81.7913H81.2926V74.7227Z" fill="black"/>
<path d="M81.2926 85.3257H77.7576V88.86H81.2926V85.3257Z" fill="black"/>
<path d="M81.2926 92.395H77.7576V95.9293H81.2926V92.395Z" fill="black"/>
<path d="M81.2926 99.4634H77.7576V110.066H81.2926V99.4634Z" fill="black"/>
<path d="M81.2926 120.67H77.7576V124.205H81.2926V120.67Z" fill="black"/>
<path d="M84.8322 0.5H81.2979V7.56883H84.8322V0.5Z" fill="black"/>
<path d="M84.8322 28.7749H81.2979V39.3781H84.8322V28.7749Z" fill="black"/>
<path d="M84.8322 42.9131H81.2979V46.4475H84.8322V42.9131Z" fill="black"/>
<path d="M84.8322 60.585H81.2979V64.1193H84.8322V60.585Z" fill="black"/>
<path d="M84.8322 67.6533H81.2979V71.1877H84.8322V67.6533Z" fill="black"/>
<path d="M84.8322 74.7227H81.2979V88.8599H84.8322V74.7227Z" fill="black"/>
<path d="M84.8322 95.9287H81.2979V106.532H84.8322V95.9287Z" fill="black"/>
<path d="M84.8322 117.136H81.2979V124.204H84.8322V117.136Z" fill="black"/>
<path d="M88.3565 14.6382H84.8221V32.3102H88.3565V14.6382Z" fill="black"/>
<path d="M88.3565 35.8442H84.8221V46.4474H88.3565V35.8442Z" fill="black"/>
<path d="M88.3565 49.9814H84.8221V53.5158H88.3565V49.9814Z" fill="black"/>
<path d="M88.3565 60.585H84.8221V64.1193H88.3565V60.585Z" fill="black"/>
<path d="M88.3565 78.2578H84.8221V99.4637H88.3565V78.2578Z" fill="black"/>
<path d="M88.3565 102.997H84.8221V106.531H88.3565V102.997Z" fill="black"/>
<path d="M88.3565 127.739H84.8221V131.273H88.3565V127.739Z" fill="black"/>
<path d="M91.8908 0.5H88.3565V21.7064H91.8908V0.5Z" fill="black"/>
<path d="M91.8908 35.8442H88.3565V46.4474H91.8908V35.8442Z" fill="black"/>
<path d="M91.8908 57.0503H88.3565V60.5847H91.8908V57.0503Z" fill="black"/>
<path d="M91.8908 74.7227H88.3565V78.257H91.8908V74.7227Z" fill="black"/>
<path d="M91.8908 81.791H88.3565V88.8596H91.8908V81.791Z" fill="black"/>
<path d="M91.8908 92.395H88.3565V95.9293H91.8908V92.395Z" fill="black"/>
<path d="M91.8908 99.4634H88.3565V110.066H91.8908V99.4634Z" fill="black"/>
<path d="M91.8908 117.136H88.3565V131.273H91.8908V117.136Z" fill="black"/>
<path d="M95.4308 7.56934H91.8965V18.1725H95.4308V7.56934Z" fill="black"/>
<path d="M95.4308 21.707H91.8965V25.2414H95.4308V21.707Z" fill="black"/>
<path d="M95.4308 28.7749H91.8965V32.3093H95.4308V28.7749Z" fill="black"/>
<path d="M95.4308 39.3774H91.8965V53.515H95.4308V39.3774Z" fill="black"/>
<path d="M95.4308 64.1196H91.8965V74.7231H95.4308V64.1196Z" fill="black"/>
<path d="M95.4308 78.2578H91.8965V85.3264H95.4308V78.2578Z" fill="black"/>
<path d="M95.4308 88.8599H91.8965V102.998H95.4308V88.8599Z" fill="black"/>
<path d="M95.4308 106.533H91.8965V120.67H95.4308V106.533Z" fill="black"/>
<path d="M95.4308 127.739H91.8965V131.273H95.4308V127.739Z" fill="black"/>
<path d="M98.9601 7.56934H95.4258V18.1725H98.9601V7.56934Z" fill="black"/>
<path d="M98.9601 25.2407H95.4258V32.3096H98.9601V25.2407Z" fill="black"/>
<path d="M98.9601 39.3774H95.4258V42.9118H98.9601V39.3774Z" fill="black"/>
<path d="M98.9601 46.4473H95.4258V49.9817H98.9601V46.4473Z" fill="black"/>
<path d="M98.9601 60.585H95.4258V67.6537H98.9601V60.585Z" fill="black"/>
<path d="M98.9601 71.1885H95.4258V74.7228H98.9601V71.1885Z" fill="black"/>
<path d="M98.9601 81.791H95.4258V85.3253H98.9601V81.791Z" fill="black"/>
<path d="M98.9601 88.8599H95.4258V92.3942H98.9601V88.8599Z" fill="black"/>
<path d="M98.9601 95.9287H95.4258V99.463H98.9601V95.9287Z" fill="black"/>
<path d="M102.495 0.5H98.9608V7.56883H102.495V0.5Z" fill="black"/>
<path d="M102.495 14.6382H98.9608V18.1726H102.495V14.6382Z" fill="black"/>
<path d="M102.495 21.707H98.9608V28.7758H102.495V21.707Z" fill="black"/>
<path d="M102.495 32.3096H98.9608V35.8439H102.495V32.3096Z" fill="black"/>
<path d="M102.495 46.4473H98.9608V49.9817H102.495V46.4473Z" fill="black"/>
<path d="M102.495 53.5156H98.9608V57.05H102.495V53.5156Z" fill="black"/>
<path d="M102.495 60.585H98.9608V67.6537H102.495V60.585Z" fill="black"/>
<path d="M102.495 71.1885H98.9608V78.2571H102.495V71.1885Z" fill="black"/>
<path d="M102.495 88.8599H98.9608V92.3942H102.495V88.8599Z" fill="black"/>
<path d="M102.495 95.9287H98.9609V117.135H102.495V95.9287Z" fill="black"/>
<path d="M102.495 120.67H98.9608V124.205H102.495V120.67Z" fill="black"/>
<path d="M106.035 35.8442H102.5V39.3786H106.035V35.8442Z" fill="black"/>
<path d="M106.035 42.9131H102.5V57.0507H106.035V42.9131Z" fill="black"/>
<path d="M106.035 64.1196H102.5V74.7231H106.035V64.1196Z" fill="black"/>
<path d="M106.035 85.3257H102.5V88.86H106.035V85.3257Z" fill="black"/>
<path d="M106.035 95.9287H102.5V102.998H106.035V95.9287Z" fill="black"/>
<path d="M106.035 113.601H102.5V120.669H106.035V113.601Z" fill="black"/>
<path d="M106.035 127.739H102.5V131.273H106.035V127.739Z" fill="black"/>
<path d="M109.564 0.5H106.03V25.2408H109.564V0.5Z" fill="black"/>
<path d="M109.564 28.7749H106.03V32.3093H109.564V28.7749Z" fill="black"/>
<path d="M109.564 42.9131H106.03V49.9819H109.564V42.9131Z" fill="black"/>
<path d="M109.564 53.5156H106.03V57.05H109.564V53.5156Z" fill="black"/>
<path d="M109.564 60.585H106.03V64.1193H109.564V60.585Z" fill="black"/>
<path d="M109.564 78.2578H106.03V92.3951H109.564V78.2578Z" fill="black"/>
<path d="M109.565 95.9287H106.03V102.998H109.565V95.9287Z" fill="black"/>
<path d="M109.564 106.533H106.03V110.067H109.564V106.533Z" fill="black"/>
<path d="M109.564 113.601H106.03V124.204H109.564V113.601Z" fill="black"/>
<path d="M113.1 0.5H109.565V4.0344H113.1V0.5Z" fill="black"/>
<path d="M113.1 21.707H109.565V25.2414H113.1V21.707Z" fill="black"/>
<path d="M113.1 32.3096H109.565V49.9816H113.1V32.3096Z" fill="black"/>
<path d="M113.1 53.5156H109.565V60.5845H113.1V53.5156Z" fill="black"/>
<path d="M113.1 67.6533H109.565V74.722H113.1V67.6533Z" fill="black"/>
<path d="M113.1 78.2578H109.565V81.7921H113.1V78.2578Z" fill="black"/>
<path d="M113.1 95.9287H109.565V102.998H113.1V95.9287Z" fill="black"/>
<path d="M113.1 113.601H109.565V117.135H113.1V113.601Z" fill="black"/>
<path d="M113.1 124.204H109.565V127.738H113.1V124.204Z" fill="black"/>
<path d="M116.639 0.5H113.105V4.0344H116.639V0.5Z" fill="black"/>
<path d="M116.639 7.56934H113.105V18.1725H116.639V7.56934Z" fill="black"/>
<path d="M116.639 21.707H113.105V25.2414H116.639V21.707Z" fill="black"/>
<path d="M116.639 42.9131H113.105V57.0507H116.639V42.9131Z" fill="black"/>
<path d="M116.639 64.1196H113.105V67.654H116.639V64.1196Z" fill="black"/>
<path d="M116.639 71.1885H113.105V74.7228H116.639V71.1885Z" fill="black"/>
<path d="M116.639 81.791H113.105V92.394H116.639V81.791Z" fill="black"/>
<path d="M116.639 95.9287H113.104V131.273H116.639V95.9287Z" fill="black"/>
<path d="M120.174 0.5H116.64V4.0344H120.174V0.5Z" fill="black"/>
<path d="M120.174 7.56934H116.64V18.1725H120.174V7.56934Z" fill="black"/>
<path d="M120.174 21.707H116.64V25.2414H120.174V21.707Z" fill="black"/>
<path d="M120.174 28.7749H116.64V32.3093H120.174V28.7749Z" fill="black"/>
<path d="M120.174 46.4473H116.64V49.9817H120.174V46.4473Z" fill="black"/>
<path d="M120.174 57.0503H116.64V64.1191H120.174V57.0503Z" fill="black"/>
<path d="M120.174 67.6533H116.64V71.1877H120.174V67.6533Z" fill="black"/>
<path d="M120.174 74.7227H116.64V78.257H120.174V74.7227Z" fill="black"/>
<path d="M120.174 81.791H116.64V85.3253H120.174V81.791Z" fill="black"/>
<path d="M120.174 92.395H116.64V95.9293H120.174V92.395Z" fill="black"/>
<path d="M120.174 113.601H116.64V117.135H120.174V113.601Z" fill="black"/>
<path d="M120.174 120.67H116.64V131.274H120.174V120.67Z" fill="black"/>
<path d="M123.703 0.5H120.169V4.0344H123.703V0.5Z" fill="black"/>
<path d="M123.703 7.56934H120.169V18.1725H123.703V7.56934Z" fill="black"/>
<path d="M123.703 21.707H120.169V25.2414H123.703V21.707Z" fill="black"/>
<path d="M123.703 39.3774H120.169V46.4463H123.703V39.3774Z" fill="black"/>
<path d="M123.703 49.9814H120.169V53.5158H123.703V49.9814Z" fill="black"/>
<path d="M123.703 57.0503H120.169V60.5847H123.703V57.0503Z" fill="black"/>
<path d="M123.703 81.791H120.169V88.8596H123.703V81.791Z" fill="black"/>
<path d="M123.703 99.4634H120.169V110.066H123.703V99.4634Z" fill="black"/>
<path d="M123.703 117.136H120.169V131.273H123.703V117.136Z" fill="black"/>
<path d="M127.238 0.5H123.704V4.0344H127.238V0.5Z" fill="black"/>
<path d="M127.238 21.707H123.704V25.2414H127.238V21.707Z" fill="black"/>
<path d="M127.238 28.7749H123.704V35.8437H127.238V28.7749Z" fill="black"/>
<path d="M127.238 42.9131H123.704V71.1884H127.238V42.9131Z" fill="black"/>
<path d="M127.238 81.791H123.704V106.532H127.238V81.791Z" fill="black"/>
<path d="M127.238 117.136H123.704V120.67H127.238V117.136Z" fill="black"/>
<path d="M127.238 127.739H123.704V131.273H127.238V127.739Z" fill="black"/>
<path d="M130.773 0.5H127.238V25.2408H130.773V0.5Z" fill="black"/>
<path d="M130.773 28.7749H127.238V32.3093H130.773V28.7749Z" fill="black"/>
<path d="M130.773 42.9131H127.238V49.9819H130.773V42.9131Z" fill="black"/>
<path d="M130.773 53.5156H127.238V67.6532H130.773V53.5156Z" fill="black"/>
<path d="M130.773 71.1885H127.238V74.7228H130.773V71.1885Z" fill="black"/>
<path d="M130.773 81.791H127.238V85.3253H130.773V81.791Z" fill="black"/>
<path d="M130.773 88.8599H127.238V92.3942H130.773V88.8599Z" fill="black"/>
<path d="M130.773 102.997H127.238V113.601H130.773V102.997Z" fill="black"/>
<path d="M130.773 117.136H127.238V120.67H130.773V117.136Z" fill="black"/>
<path d="M130.773 127.739H127.238V131.273H130.773V127.739Z" fill="black"/>
</g>
<defs>
<clipPath id="clip0_1790_28005">
<rect width="131" height="131" fill="white" transform="translate(0 0.5)"/>
</clipPath>
</defs>
</svg>
