<svg width="40" height="40" viewBox="0 0 40 40" fill="none" xmlns="http://www.w3.org/2000/svg">
<g clip-path="url(#clip0_1788_27880)">
<path d="M28.3464 39.9598C18.2691 40.1538 12.8732 27.2981 20.0577 20.2511V8.46304C20.4075 -2.49289 36.2886 -2.47797 36.635 8.46304V20.2512C43.8213 27.2998 38.4204 40.1538 28.3464 39.9598ZM28.3464 3.48984C25.5998 3.48984 23.3732 5.7164 23.3732 8.46304V20.9573C23.3731 21.428 23.173 21.8763 22.8228 22.1907C19.4097 25.2412 19.1159 30.4811 22.1664 33.8942C25.217 37.3073 30.4568 37.6012 33.8699 34.5506C37.283 31.5001 37.5769 26.2602 34.5263 22.8471C34.3199 22.6162 34.1008 22.397 33.8699 22.1907C33.5197 21.8763 33.3196 21.428 33.3195 20.9573V8.46304C33.3195 5.7164 31.093 3.48984 28.3464 3.48984ZM28.3464 33.3289C25.5936 33.2943 23.3901 31.0347 23.4247 28.2819C23.4506 26.2154 24.7491 24.3793 26.6887 23.666V13.4362C26.6887 12.5206 27.4309 11.7784 28.3464 11.7784C29.262 11.7784 30.0041 12.5206 30.0041 13.4362V23.666C32.588 24.6162 33.9124 27.481 32.9623 30.0649C32.249 32.0046 30.4128 33.303 28.3464 33.3289ZM28.3464 26.698C27.4309 26.698 26.6887 27.4402 26.6887 28.3558C26.6887 29.2713 27.4309 30.0135 28.3464 30.0135C29.262 30.0135 30.0041 29.2713 30.0041 28.3558C30.0041 27.4402 29.262 26.698 28.3464 26.698ZM10.4877 25.2707C9.56672 25.2575 8.83086 24.5001 8.84414 23.5792C8.85024 23.1535 9.01899 22.7462 9.31571 22.4409L11.0663 20.6887C11.2759 20.4791 11.5122 20.2979 11.7691 20.15V18.3497C10.6316 18.186 9.56868 17.6874 8.71563 16.9174L7.12578 17.8408C7.1293 18.1367 7.0925 18.4317 7.01641 18.7177L6.38149 21.1131C6.14711 21.9984 5.23938 22.5262 4.35407 22.2918C3.46875 22.0574 2.94102 21.1497 3.17539 20.2644L3.81196 17.869L1.39993 17.2059C0.510707 16.9879 -0.0333553 16.0903 0.184613 15.2011C0.402582 14.3119 1.30016 13.7678 2.18938 13.9858C2.20922 13.9906 2.22899 13.9959 2.24868 14.0015L4.64078 14.6364C4.92618 14.7103 5.20039 14.8218 5.45641 14.968L6.98485 14.0811C6.72672 13.0906 6.73243 12.0499 7.00141 11.0623L5.45969 10.1705C5.20375 10.3167 4.92946 10.4283 4.64407 10.502L2.24696 11.1353C1.3768 11.4201 0.440629 10.9455 0.155863 10.0754C-0.128902 9.20523 0.345707 8.26906 1.21579 7.98429C1.27563 7.96468 1.33649 7.94859 1.39821 7.93593L3.7936 7.30265L3.17524 4.87906C2.94086 3.99375 3.46852 3.08601 4.35391 2.85164C5.2393 2.61726 6.14696 3.14492 6.38133 4.03031L7.01625 6.4257C7.09274 6.71164 7.13016 7.00664 7.12735 7.30265L8.76516 8.25422C9.61 7.5089 10.6539 7.02609 11.769 6.86507L11.7508 5.1825C11.4915 5.03453 11.2534 4.85218 11.043 4.64039L9.29243 2.8882C8.65641 2.22968 8.67461 1.18023 9.33313 0.544138C9.97555 -0.0763307 10.994 -0.0763307 11.6364 0.544138L13.3886 2.29633L15.1723 0.544138C15.8084 -0.114378 16.8578 -0.132581 17.5164 0.503435C18.1749 1.13945 18.1931 2.1889 17.5571 2.8475C17.5438 2.86133 17.5302 2.87484 17.5164 2.8882L15.7642 4.64039C15.5569 4.84961 15.322 5.02968 15.0663 5.17586L15.0845 8.46312C15.0845 9.37867 14.3423 10.1209 13.4268 10.1209H12.598C11.2247 10.1209 10.1114 11.2341 10.1114 12.6074C10.1114 13.9807 11.2247 15.094 12.598 15.094H13.4268C14.3423 15.094 15.0845 15.8362 15.0845 16.7517V21.3685C15.0845 22.2841 14.3423 23.0262 13.4268 23.0262L11.6597 24.7851C11.3489 25.0959 10.9273 25.2706 10.4877 25.2707Z" fill="black"/>
<path d="M28.3464 39.9598C18.2691 40.1538 12.8732 27.2981 20.0577 20.2511V8.46304C20.4075 -2.49289 36.2886 -2.47797 36.635 8.46304V20.2512C43.8213 27.2998 38.4204 40.1538 28.3464 39.9598ZM28.3464 3.48984C25.5998 3.48984 23.3732 5.7164 23.3732 8.46304V20.9573C23.3731 21.428 23.173 21.8763 22.8228 22.1907C19.4097 25.2412 19.1159 30.4811 22.1664 33.8942C25.217 37.3073 30.4568 37.6012 33.8699 34.5506C37.283 31.5001 37.5769 26.2602 34.5263 22.8471C34.3199 22.6162 34.1008 22.397 33.8699 22.1907C33.5197 21.8763 33.3196 21.428 33.3195 20.9573V8.46304C33.3195 5.7164 31.093 3.48984 28.3464 3.48984ZM28.3464 33.3289C25.5936 33.2943 23.3901 31.0347 23.4247 28.2819C23.4506 26.2154 24.7491 24.3793 26.6887 23.666V13.4362C26.6887 12.5206 27.4309 11.7784 28.3464 11.7784C29.262 11.7784 30.0041 12.5206 30.0041 13.4362V23.666C32.588 24.6162 33.9124 27.481 32.9623 30.0649C32.249 32.0046 30.4128 33.303 28.3464 33.3289ZM28.3464 26.698C27.4309 26.698 26.6887 27.4402 26.6887 28.3558C26.6887 29.2713 27.4309 30.0135 28.3464 30.0135C29.262 30.0135 30.0041 29.2713 30.0041 28.3558C30.0041 27.4402 29.262 26.698 28.3464 26.698ZM10.4877 25.2707C9.56672 25.2575 8.83086 24.5001 8.84414 23.5792C8.85024 23.1535 9.01899 22.7462 9.31571 22.4409L11.0663 20.6887C11.2759 20.4791 11.5122 20.2979 11.7691 20.15V18.3497C10.6316 18.186 9.56868 17.6874 8.71563 16.9174L7.12578 17.8408C7.1293 18.1367 7.0925 18.4317 7.01641 18.7177L6.38149 21.1131C6.14711 21.9984 5.23938 22.5262 4.35407 22.2918C3.46875 22.0574 2.94102 21.1497 3.17539 20.2644L3.81196 17.869L1.39993 17.2059C0.510707 16.9879 -0.0333553 16.0903 0.184613 15.2011C0.402582 14.3119 1.30016 13.7678 2.18938 13.9858C2.20922 13.9906 2.22899 13.9959 2.24868 14.0015L4.64078 14.6364C4.92618 14.7103 5.20039 14.8218 5.45641 14.968L6.98485 14.0811C6.72672 13.0906 6.73243 12.0499 7.00141 11.0623L5.45969 10.1705C5.20375 10.3167 4.92946 10.4283 4.64407 10.502L2.24696 11.1353C1.3768 11.4201 0.440629 10.9455 0.155863 10.0754C-0.128902 9.20523 0.345707 8.26906 1.21579 7.98429C1.27563 7.96468 1.33649 7.94859 1.39821 7.93593L3.7936 7.30265L3.17524 4.87906C2.94086 3.99375 3.46852 3.08601 4.35391 2.85164C5.2393 2.61726 6.14696 3.14492 6.38133 4.03031L7.01625 6.4257C7.09274 6.71164 7.13016 7.00664 7.12735 7.30265L8.76516 8.25422C9.61 7.5089 10.6539 7.02609 11.769 6.86507L11.7508 5.1825C11.4915 5.03453 11.2534 4.85218 11.043 4.64039L9.29243 2.8882C8.65641 2.22968 8.67461 1.18023 9.33313 0.544138C9.97555 -0.0763307 10.994 -0.0763307 11.6364 0.544138L13.3886 2.29633L15.1723 0.544138C15.8084 -0.114378 16.8578 -0.132581 17.5164 0.503435C18.1749 1.13945 18.1931 2.1889 17.5571 2.8475C17.5438 2.86133 17.5302 2.87484 17.5164 2.8882L15.7642 4.64039C15.5569 4.84961 15.322 5.02968 15.0663 5.17586L15.0845 8.46312C15.0845 9.37867 14.3423 10.1209 13.4268 10.1209H12.598C11.2247 10.1209 10.1114 11.2341 10.1114 12.6074C10.1114 13.9807 11.2247 15.094 12.598 15.094H13.4268C14.3423 15.094 15.0845 15.8362 15.0845 16.7517V21.3685C15.0845 22.2841 14.3423 23.0262 13.4268 23.0262L11.6597 24.7851C11.3489 25.0959 10.9273 25.2706 10.4877 25.2707Z" fill="url(#paint0_linear_1788_27880)"/>
</g>
<defs>
<linearGradient id="paint0_linear_1788_27880" x1="19.9999" y1="0.0380859" x2="19.9999" y2="39.962" gradientUnits="userSpaceOnUse">
<stop stop-color="#6D9BBA"/>
<stop offset="1" stop-color="#273048"/>
</linearGradient>
<clipPath id="clip0_1788_27880">
<rect width="40" height="40" fill="white"/>
</clipPath>
</defs>
</svg>
