<svg width="40" height="41" viewBox="0 0 40 41" fill="none" xmlns="http://www.w3.org/2000/svg">
<g clip-path="url(#clip0_1790_27996)">
<g clip-path="url(#clip1_1790_27996)">
<path d="M32.5 0.5H22.5C18.365 0.5 15 3.865 15 8V13.8333C15 14.7533 15.745 15.5 16.6667 15.5C17.5883 15.5 18.3333 14.7533 18.3333 13.8333V8C18.3333 5.70333 20.2017 3.83333 22.5 3.83333H32.5C34.7983 3.83333 36.6667 5.70333 36.6667 8V23.8333H24.9767C24.925 22.4133 24.3183 21.02 23.155 20.03C21.1817 18.355 18.23 18.385 16.28 20.11L8.88333 26.7767C8.2 27.3933 8.14667 28.4467 8.76167 29.13C9.38 29.8133 10.4317 29.8667 11.1167 29.2517L18.5 22.5967C19.2117 21.9717 20.28 21.9633 20.9967 22.57C21.795 23.25 21.8933 24.4533 21.1133 25.385L14.5133 34.9367C13.7417 36.055 13.3333 37.3667 13.3333 38.8317C13.3333 39.7517 14.0783 40.445 15 40.445C15.9217 40.445 16.6667 39.645 16.6667 38.725C16.6667 38.045 16.87 37.39 17.2567 36.83L18.0533 35.675C19.3367 36.6283 20.87 37.165 22.5017 37.165H32.5017C36.6367 37.165 40.0017 33.8 40.0017 29.665V8C40.0017 3.865 36.635 0.5 32.5 0.5ZM36.6667 29.6667C36.6667 31.9633 34.7983 33.8333 32.5 33.8333H22.5C21.5567 33.8333 20.6733 33.5067 19.945 32.935C20.1333 32.6617 23.74 27.435 23.9233 27.1667H36.6667V29.6667ZM25 30.5C25 29.58 25.745 28.8333 26.6667 28.8333H28.3333C29.255 28.8333 30 29.58 30 30.5C30 31.42 29.255 32.1667 28.3333 32.1667H26.6667C25.745 32.1667 25 31.42 25 30.5ZM11.1783 15.0117L7.23833 18.9517C4.72 21.47 3.33333 24.82 3.33333 28.38V38.8333C3.33333 39.7533 2.58833 40.5 1.66667 40.5C0.745 40.5 0 39.7533 0 38.8333V28.38C0 23.9283 1.73333 19.7433 4.88167 16.595L8.82167 12.655C9.47333 12.0033 10.5267 12.0033 11.1783 12.655C11.83 13.3067 11.83 14.3617 11.1783 15.0117Z" fill="black"/>
<path d="M32.5 0.5H22.5C18.365 0.5 15 3.865 15 8V13.8333C15 14.7533 15.745 15.5 16.6667 15.5C17.5883 15.5 18.3333 14.7533 18.3333 13.8333V8C18.3333 5.70333 20.2017 3.83333 22.5 3.83333H32.5C34.7983 3.83333 36.6667 5.70333 36.6667 8V23.8333H24.9767C24.925 22.4133 24.3183 21.02 23.155 20.03C21.1817 18.355 18.23 18.385 16.28 20.11L8.88333 26.7767C8.2 27.3933 8.14667 28.4467 8.76167 29.13C9.38 29.8133 10.4317 29.8667 11.1167 29.2517L18.5 22.5967C19.2117 21.9717 20.28 21.9633 20.9967 22.57C21.795 23.25 21.8933 24.4533 21.1133 25.385L14.5133 34.9367C13.7417 36.055 13.3333 37.3667 13.3333 38.8317C13.3333 39.7517 14.0783 40.445 15 40.445C15.9217 40.445 16.6667 39.645 16.6667 38.725C16.6667 38.045 16.87 37.39 17.2567 36.83L18.0533 35.675C19.3367 36.6283 20.87 37.165 22.5017 37.165H32.5017C36.6367 37.165 40.0017 33.8 40.0017 29.665V8C40.0017 3.865 36.635 0.5 32.5 0.5ZM36.6667 29.6667C36.6667 31.9633 34.7983 33.8333 32.5 33.8333H22.5C21.5567 33.8333 20.6733 33.5067 19.945 32.935C20.1333 32.6617 23.74 27.435 23.9233 27.1667H36.6667V29.6667ZM25 30.5C25 29.58 25.745 28.8333 26.6667 28.8333H28.3333C29.255 28.8333 30 29.58 30 30.5C30 31.42 29.255 32.1667 28.3333 32.1667H26.6667C25.745 32.1667 25 31.42 25 30.5ZM11.1783 15.0117L7.23833 18.9517C4.72 21.47 3.33333 24.82 3.33333 28.38V38.8333C3.33333 39.7533 2.58833 40.5 1.66667 40.5C0.745 40.5 0 39.7533 0 38.8333V28.38C0 23.9283 1.73333 19.7433 4.88167 16.595L8.82167 12.655C9.47333 12.0033 10.5267 12.0033 11.1783 12.655C11.83 13.3067 11.83 14.3617 11.1783 15.0117Z" fill="#273048"/>
<path d="M32.5 0.5H22.5C18.365 0.5 15 3.865 15 8V13.8333C15 14.7533 15.745 15.5 16.6667 15.5C17.5883 15.5 18.3333 14.7533 18.3333 13.8333V8C18.3333 5.70333 20.2017 3.83333 22.5 3.83333H32.5C34.7983 3.83333 36.6667 5.70333 36.6667 8V23.8333H24.9767C24.925 22.4133 24.3183 21.02 23.155 20.03C21.1817 18.355 18.23 18.385 16.28 20.11L8.88333 26.7767C8.2 27.3933 8.14667 28.4467 8.76167 29.13C9.38 29.8133 10.4317 29.8667 11.1167 29.2517L18.5 22.5967C19.2117 21.9717 20.28 21.9633 20.9967 22.57C21.795 23.25 21.8933 24.4533 21.1133 25.385L14.5133 34.9367C13.7417 36.055 13.3333 37.3667 13.3333 38.8317C13.3333 39.7517 14.0783 40.445 15 40.445C15.9217 40.445 16.6667 39.645 16.6667 38.725C16.6667 38.045 16.87 37.39 17.2567 36.83L18.0533 35.675C19.3367 36.6283 20.87 37.165 22.5017 37.165H32.5017C36.6367 37.165 40.0017 33.8 40.0017 29.665V8C40.0017 3.865 36.635 0.5 32.5 0.5ZM36.6667 29.6667C36.6667 31.9633 34.7983 33.8333 32.5 33.8333H22.5C21.5567 33.8333 20.6733 33.5067 19.945 32.935C20.1333 32.6617 23.74 27.435 23.9233 27.1667H36.6667V29.6667ZM25 30.5C25 29.58 25.745 28.8333 26.6667 28.8333H28.3333C29.255 28.8333 30 29.58 30 30.5C30 31.42 29.255 32.1667 28.3333 32.1667H26.6667C25.745 32.1667 25 31.42 25 30.5ZM11.1783 15.0117L7.23833 18.9517C4.72 21.47 3.33333 24.82 3.33333 28.38V38.8333C3.33333 39.7533 2.58833 40.5 1.66667 40.5C0.745 40.5 0 39.7533 0 38.8333V28.38C0 23.9283 1.73333 19.7433 4.88167 16.595L8.82167 12.655C9.47333 12.0033 10.5267 12.0033 11.1783 12.655C11.83 13.3067 11.83 14.3617 11.1783 15.0117Z" fill="url(#paint0_linear_1790_27996)"/>
</g>
</g>
<defs>
<linearGradient id="paint0_linear_1790_27996" x1="20.0008" y1="0.5" x2="20.0008" y2="40.5" gradientUnits="userSpaceOnUse">
<stop stop-color="#6D9BBA"/>
<stop offset="1" stop-color="#273048"/>
</linearGradient>
<clipPath id="clip0_1790_27996">
<rect width="40" height="40" fill="white" transform="translate(0 0.5)"/>
</clipPath>
<clipPath id="clip1_1790_27996">
<rect width="40" height="40" fill="white" transform="translate(0 0.5)"/>
</clipPath>
</defs>
</svg>
