<svg width="40" height="40" viewBox="0 0 40 40" fill="none" xmlns="http://www.w3.org/2000/svg">
<g clip-path="url(#clip0_1790_27989)">
<g clip-path="url(#clip1_1790_27989)">
<path d="M14.1667 13.3333H8.33333C7.41333 13.3333 6.66667 12.5867 6.66667 11.6667V8.33333C6.66667 7.41333 7.41333 6.66667 8.33333 6.66667H10.8333C11.275 6.66667 11.7 6.84167 12.0117 7.155L15.345 10.4883C15.8217 10.965 15.965 11.6817 15.7067 12.305C15.4483 12.9283 14.84 13.3333 14.1667 13.3333ZM10 16.6667H8.33333C7.41333 16.6667 6.66667 17.4133 6.66667 18.3333C6.66667 19.2533 7.41333 20 8.33333 20H10C10.92 20 11.6667 19.2533 11.6667 18.3333C11.6667 17.4133 10.92 16.6667 10 16.6667ZM10 23.3333H8.33333C7.41333 23.3333 6.66667 24.08 6.66667 25C6.66667 25.92 7.41333 26.6667 8.33333 26.6667H10C10.92 26.6667 11.6667 25.92 11.6667 25C11.6667 24.08 10.92 23.3333 10 23.3333ZM21.6667 26.6667H23.3333C24.2533 26.6667 25 25.92 25 25C25 24.08 24.2533 23.3333 23.3333 23.3333H21.6667C20.7467 23.3333 20 24.08 20 25C20 25.92 20.7467 26.6667 21.6667 26.6667ZM16.6667 16.6667H15C14.08 16.6667 13.3333 17.4133 13.3333 18.3333C13.3333 19.2533 14.08 20 15 20H16.6667C17.5867 20 18.3333 19.2533 18.3333 18.3333C18.3333 17.4133 17.5867 16.6667 16.6667 16.6667ZM16.6667 23.3333H15C14.08 23.3333 13.3333 24.08 13.3333 25C13.3333 25.92 14.08 26.6667 15 26.6667H16.6667C17.5867 26.6667 18.3333 25.92 18.3333 25C18.3333 24.08 17.5867 23.3333 16.6667 23.3333ZM10 30H8.33333C7.41333 30 6.66667 30.7467 6.66667 31.6667C6.66667 32.5867 7.41333 33.3333 8.33333 33.3333H10C10.92 33.3333 11.6667 32.5867 11.6667 31.6667C11.6667 30.7467 10.92 30 10 30ZM21.6667 33.3333H23.3333C24.2533 33.3333 25 32.5867 25 31.6667C25 30.7467 24.2533 30 23.3333 30H21.6667C20.7467 30 20 30.7467 20 31.6667C20 32.5867 20.7467 33.3333 21.6667 33.3333ZM16.6667 30H15C14.08 30 13.3333 30.7467 13.3333 31.6667C13.3333 32.5867 14.08 33.3333 15 33.3333H16.6667C17.5867 33.3333 18.3333 32.5867 18.3333 31.6667C18.3333 30.7467 17.5867 30 16.6667 30ZM31.6667 21.6667H30C29.08 21.6667 28.3333 22.4133 28.3333 23.3333V31.6667C28.3333 34.4233 26.09 36.6667 23.3333 36.6667H8.33333C5.57667 36.6667 3.33333 34.4233 3.33333 31.6667V8.33333C3.33333 5.57667 5.57667 3.33333 8.33333 3.33333H15C15.92 3.33333 16.6667 2.58667 16.6667 1.66667C16.6667 0.746667 15.92 0 15 0H8.33333C3.73833 0 0 3.73833 0 8.33333V31.6667C0 36.2617 3.73833 40 8.33333 40H23.3333C27.3567 40 30.7233 37.1317 31.4983 33.3333H31.6667C32.5867 33.3333 33.3333 32.5867 33.3333 31.6667V23.3333C33.3333 22.4133 32.5867 21.6667 31.6667 21.6667ZM22.33 8.66667C21.595 9.22 21.4467 10.265 22 11C22.555 11.735 23.5983 11.885 24.3333 11.33C26.6867 9.55833 29.9767 9.55833 32.3317 11.33C32.6317 11.555 32.9833 11.665 33.3317 11.665C33.8383 11.665 34.3383 11.435 34.665 11C35.2183 10.265 35.07 9.22 34.335 8.66667C30.8017 6.01 25.865 6.00833 22.33 8.66667ZM38.81 3.70333C32.7383 -1.21833 23.9233 -1.21667 17.8533 3.70333C17.1383 4.28333 17.0283 5.33167 17.6083 6.04667C18.185 6.76167 19.2383 6.87333 19.9517 6.29167C24.8083 2.35833 31.855 2.35667 36.7117 6.29167C37.02 6.54167 37.3917 6.66333 37.76 6.66333C38.245 6.66333 38.7267 6.45333 39.055 6.045C39.635 5.33 39.525 4.28167 38.81 3.70333ZM30.8317 15.8317C30.8317 14.4517 29.7117 13.3317 28.3317 13.3317C26.9517 13.3317 25.8317 14.4517 25.8317 15.8317C25.8317 17.2117 26.9517 18.3317 28.3317 18.3317C29.7117 18.3317 30.8317 17.2117 30.8317 15.8317Z" fill="black"/>
<path d="M14.1667 13.3333H8.33333C7.41333 13.3333 6.66667 12.5867 6.66667 11.6667V8.33333C6.66667 7.41333 7.41333 6.66667 8.33333 6.66667H10.8333C11.275 6.66667 11.7 6.84167 12.0117 7.155L15.345 10.4883C15.8217 10.965 15.965 11.6817 15.7067 12.305C15.4483 12.9283 14.84 13.3333 14.1667 13.3333ZM10 16.6667H8.33333C7.41333 16.6667 6.66667 17.4133 6.66667 18.3333C6.66667 19.2533 7.41333 20 8.33333 20H10C10.92 20 11.6667 19.2533 11.6667 18.3333C11.6667 17.4133 10.92 16.6667 10 16.6667ZM10 23.3333H8.33333C7.41333 23.3333 6.66667 24.08 6.66667 25C6.66667 25.92 7.41333 26.6667 8.33333 26.6667H10C10.92 26.6667 11.6667 25.92 11.6667 25C11.6667 24.08 10.92 23.3333 10 23.3333ZM21.6667 26.6667H23.3333C24.2533 26.6667 25 25.92 25 25C25 24.08 24.2533 23.3333 23.3333 23.3333H21.6667C20.7467 23.3333 20 24.08 20 25C20 25.92 20.7467 26.6667 21.6667 26.6667ZM16.6667 16.6667H15C14.08 16.6667 13.3333 17.4133 13.3333 18.3333C13.3333 19.2533 14.08 20 15 20H16.6667C17.5867 20 18.3333 19.2533 18.3333 18.3333C18.3333 17.4133 17.5867 16.6667 16.6667 16.6667ZM16.6667 23.3333H15C14.08 23.3333 13.3333 24.08 13.3333 25C13.3333 25.92 14.08 26.6667 15 26.6667H16.6667C17.5867 26.6667 18.3333 25.92 18.3333 25C18.3333 24.08 17.5867 23.3333 16.6667 23.3333ZM10 30H8.33333C7.41333 30 6.66667 30.7467 6.66667 31.6667C6.66667 32.5867 7.41333 33.3333 8.33333 33.3333H10C10.92 33.3333 11.6667 32.5867 11.6667 31.6667C11.6667 30.7467 10.92 30 10 30ZM21.6667 33.3333H23.3333C24.2533 33.3333 25 32.5867 25 31.6667C25 30.7467 24.2533 30 23.3333 30H21.6667C20.7467 30 20 30.7467 20 31.6667C20 32.5867 20.7467 33.3333 21.6667 33.3333ZM16.6667 30H15C14.08 30 13.3333 30.7467 13.3333 31.6667C13.3333 32.5867 14.08 33.3333 15 33.3333H16.6667C17.5867 33.3333 18.3333 32.5867 18.3333 31.6667C18.3333 30.7467 17.5867 30 16.6667 30ZM31.6667 21.6667H30C29.08 21.6667 28.3333 22.4133 28.3333 23.3333V31.6667C28.3333 34.4233 26.09 36.6667 23.3333 36.6667H8.33333C5.57667 36.6667 3.33333 34.4233 3.33333 31.6667V8.33333C3.33333 5.57667 5.57667 3.33333 8.33333 3.33333H15C15.92 3.33333 16.6667 2.58667 16.6667 1.66667C16.6667 0.746667 15.92 0 15 0H8.33333C3.73833 0 0 3.73833 0 8.33333V31.6667C0 36.2617 3.73833 40 8.33333 40H23.3333C27.3567 40 30.7233 37.1317 31.4983 33.3333H31.6667C32.5867 33.3333 33.3333 32.5867 33.3333 31.6667V23.3333C33.3333 22.4133 32.5867 21.6667 31.6667 21.6667ZM22.33 8.66667C21.595 9.22 21.4467 10.265 22 11C22.555 11.735 23.5983 11.885 24.3333 11.33C26.6867 9.55833 29.9767 9.55833 32.3317 11.33C32.6317 11.555 32.9833 11.665 33.3317 11.665C33.8383 11.665 34.3383 11.435 34.665 11C35.2183 10.265 35.07 9.22 34.335 8.66667C30.8017 6.01 25.865 6.00833 22.33 8.66667ZM38.81 3.70333C32.7383 -1.21833 23.9233 -1.21667 17.8533 3.70333C17.1383 4.28333 17.0283 5.33167 17.6083 6.04667C18.185 6.76167 19.2383 6.87333 19.9517 6.29167C24.8083 2.35833 31.855 2.35667 36.7117 6.29167C37.02 6.54167 37.3917 6.66333 37.76 6.66333C38.245 6.66333 38.7267 6.45333 39.055 6.045C39.635 5.33 39.525 4.28167 38.81 3.70333ZM30.8317 15.8317C30.8317 14.4517 29.7117 13.3317 28.3317 13.3317C26.9517 13.3317 25.8317 14.4517 25.8317 15.8317C25.8317 17.2117 26.9517 18.3317 28.3317 18.3317C29.7117 18.3317 30.8317 17.2117 30.8317 15.8317Z" fill="#273048"/>
<path d="M14.1667 13.3333H8.33333C7.41333 13.3333 6.66667 12.5867 6.66667 11.6667V8.33333C6.66667 7.41333 7.41333 6.66667 8.33333 6.66667H10.8333C11.275 6.66667 11.7 6.84167 12.0117 7.155L15.345 10.4883C15.8217 10.965 15.965 11.6817 15.7067 12.305C15.4483 12.9283 14.84 13.3333 14.1667 13.3333ZM10 16.6667H8.33333C7.41333 16.6667 6.66667 17.4133 6.66667 18.3333C6.66667 19.2533 7.41333 20 8.33333 20H10C10.92 20 11.6667 19.2533 11.6667 18.3333C11.6667 17.4133 10.92 16.6667 10 16.6667ZM10 23.3333H8.33333C7.41333 23.3333 6.66667 24.08 6.66667 25C6.66667 25.92 7.41333 26.6667 8.33333 26.6667H10C10.92 26.6667 11.6667 25.92 11.6667 25C11.6667 24.08 10.92 23.3333 10 23.3333ZM21.6667 26.6667H23.3333C24.2533 26.6667 25 25.92 25 25C25 24.08 24.2533 23.3333 23.3333 23.3333H21.6667C20.7467 23.3333 20 24.08 20 25C20 25.92 20.7467 26.6667 21.6667 26.6667ZM16.6667 16.6667H15C14.08 16.6667 13.3333 17.4133 13.3333 18.3333C13.3333 19.2533 14.08 20 15 20H16.6667C17.5867 20 18.3333 19.2533 18.3333 18.3333C18.3333 17.4133 17.5867 16.6667 16.6667 16.6667ZM16.6667 23.3333H15C14.08 23.3333 13.3333 24.08 13.3333 25C13.3333 25.92 14.08 26.6667 15 26.6667H16.6667C17.5867 26.6667 18.3333 25.92 18.3333 25C18.3333 24.08 17.5867 23.3333 16.6667 23.3333ZM10 30H8.33333C7.41333 30 6.66667 30.7467 6.66667 31.6667C6.66667 32.5867 7.41333 33.3333 8.33333 33.3333H10C10.92 33.3333 11.6667 32.5867 11.6667 31.6667C11.6667 30.7467 10.92 30 10 30ZM21.6667 33.3333H23.3333C24.2533 33.3333 25 32.5867 25 31.6667C25 30.7467 24.2533 30 23.3333 30H21.6667C20.7467 30 20 30.7467 20 31.6667C20 32.5867 20.7467 33.3333 21.6667 33.3333ZM16.6667 30H15C14.08 30 13.3333 30.7467 13.3333 31.6667C13.3333 32.5867 14.08 33.3333 15 33.3333H16.6667C17.5867 33.3333 18.3333 32.5867 18.3333 31.6667C18.3333 30.7467 17.5867 30 16.6667 30ZM31.6667 21.6667H30C29.08 21.6667 28.3333 22.4133 28.3333 23.3333V31.6667C28.3333 34.4233 26.09 36.6667 23.3333 36.6667H8.33333C5.57667 36.6667 3.33333 34.4233 3.33333 31.6667V8.33333C3.33333 5.57667 5.57667 3.33333 8.33333 3.33333H15C15.92 3.33333 16.6667 2.58667 16.6667 1.66667C16.6667 0.746667 15.92 0 15 0H8.33333C3.73833 0 0 3.73833 0 8.33333V31.6667C0 36.2617 3.73833 40 8.33333 40H23.3333C27.3567 40 30.7233 37.1317 31.4983 33.3333H31.6667C32.5867 33.3333 33.3333 32.5867 33.3333 31.6667V23.3333C33.3333 22.4133 32.5867 21.6667 31.6667 21.6667ZM22.33 8.66667C21.595 9.22 21.4467 10.265 22 11C22.555 11.735 23.5983 11.885 24.3333 11.33C26.6867 9.55833 29.9767 9.55833 32.3317 11.33C32.6317 11.555 32.9833 11.665 33.3317 11.665C33.8383 11.665 34.3383 11.435 34.665 11C35.2183 10.265 35.07 9.22 34.335 8.66667C30.8017 6.01 25.865 6.00833 22.33 8.66667ZM38.81 3.70333C32.7383 -1.21833 23.9233 -1.21667 17.8533 3.70333C17.1383 4.28333 17.0283 5.33167 17.6083 6.04667C18.185 6.76167 19.2383 6.87333 19.9517 6.29167C24.8083 2.35833 31.855 2.35667 36.7117 6.29167C37.02 6.54167 37.3917 6.66333 37.76 6.66333C38.245 6.66333 38.7267 6.45333 39.055 6.045C39.635 5.33 39.525 4.28167 38.81 3.70333ZM30.8317 15.8317C30.8317 14.4517 29.7117 13.3317 28.3317 13.3317C26.9517 13.3317 25.8317 14.4517 25.8317 15.8317C25.8317 17.2117 26.9517 18.3317 28.3317 18.3317C29.7117 18.3317 30.8317 17.2117 30.8317 15.8317Z" fill="url(#paint0_linear_1790_27989)"/>
</g>
</g>
<defs>
<linearGradient id="paint0_linear_1790_27989" x1="19.7136" y1="0" x2="19.7136" y2="40" gradientUnits="userSpaceOnUse">
<stop stop-color="#6D9BBA"/>
<stop offset="1" stop-color="#273048"/>
</linearGradient>
<clipPath id="clip0_1790_27989">
<rect width="40" height="40" fill="white"/>
</clipPath>
<clipPath id="clip1_1790_27989">
<rect width="40" height="40" fill="white"/>
</clipPath>
</defs>
</svg>
