<svg width="40" height="40" viewBox="0 0 40 40" fill="none" xmlns="http://www.w3.org/2000/svg">
<g clip-path="url(#clip0_1788_27883)">
<g clip-path="url(#clip1_1788_27883)">
<path d="M28.3333 40C18.2033 40.195 12.7767 27.27 20 20.185V8.33333C20.3517 -2.68167 36.3183 -2.66667 36.6667 8.33333V20.185C43.8917 27.2717 38.4617 40.195 28.3333 40ZM28.3333 3.33333C27.0073 3.33333 25.7355 3.86012 24.7978 4.7978C23.8601 5.73548 23.3333 7.00725 23.3333 8.33333V20.895C23.3333 21.1289 23.284 21.3603 23.1887 21.5739C23.0933 21.7875 22.9541 21.9787 22.78 22.135C21.5215 23.2599 20.6342 24.7404 20.2356 26.3806C19.8371 28.0209 19.946 29.7435 20.548 31.3204C21.1501 32.8974 22.2168 34.2543 23.607 35.2117C24.9972 36.169 26.6454 36.6816 28.3333 36.6816C30.0213 36.6816 31.6695 36.169 33.0597 35.2117C34.4499 34.2543 35.5166 32.8974 36.1186 31.3204C36.7207 29.7435 36.8296 28.0209 36.431 26.3806C36.0325 24.7404 35.1452 23.2599 33.8867 22.135C33.7126 21.9787 33.5733 21.7875 33.478 21.5739C33.3827 21.3603 33.3334 21.1289 33.3333 20.895V8.33333C33.3333 7.00725 32.8066 5.73548 31.8689 4.7978C30.9312 3.86012 29.6594 3.33333 28.3333 3.33333ZM28.3333 33.3333C27.162 33.3186 26.0328 32.894 25.142 32.1334C24.2511 31.3727 23.6549 30.324 23.4568 29.1695C23.2588 28.0149 23.4714 26.8275 24.0578 25.8134C24.6441 24.7993 25.5672 24.0226 26.6667 23.6183V13.3333C26.6667 12.8913 26.8423 12.4674 27.1548 12.1548C27.4674 11.8423 27.8913 11.6667 28.3333 11.6667C28.7754 11.6667 29.1993 11.8423 29.5118 12.1548C29.8244 12.4674 30 12.8913 30 13.3333V23.6183C31.0994 24.0226 32.0225 24.7993 32.6089 25.8134C33.1953 26.8275 33.4079 28.0149 33.2098 29.1695C33.0118 30.324 32.4155 31.3727 31.5247 32.1334C30.6338 32.894 29.5047 33.3186 28.3333 33.3333ZM28.3333 26.6667C27.8913 26.6667 27.4674 26.8423 27.1548 27.1548C26.8423 27.4674 26.6667 27.8913 26.6667 28.3333C26.6667 28.7754 26.8423 29.1993 27.1548 29.5118C27.4674 29.8244 27.8913 30 28.3333 30C28.7754 30 29.1993 29.8244 29.5118 29.5118C29.8244 29.1993 30 28.7754 30 28.3333C30 27.8913 29.8244 27.4674 29.5118 27.1548C29.1993 26.8423 28.7754 26.6667 28.3333 26.6667ZM8.33333 28.3333C8.0412 28.3325 7.75443 28.2548 7.50177 28.1082C7.2491 27.9615 7.03942 27.751 6.89374 27.4978C6.74805 27.2446 6.67148 26.9575 6.67171 26.6654C6.67193 26.3733 6.74893 26.0863 6.895 25.8333L8.68667 22.75C8.17742 22.3327 7.7102 21.8666 7.29167 21.3583L4.14667 23.12C3.95532 23.2369 3.74234 23.3141 3.52048 23.3468C3.29863 23.3794 3.07245 23.367 2.85551 23.3102C2.63856 23.2535 2.43531 23.1535 2.25792 23.0163C2.08053 22.8791 1.93264 22.7075 1.82313 22.5118C1.71361 22.3161 1.64472 22.1004 1.62056 21.8774C1.59641 21.6545 1.6175 21.4289 1.68256 21.2143C1.74763 20.9997 1.85533 20.8004 1.99923 20.6285C2.14312 20.4565 2.32025 20.3153 2.52 20.2133L5.62667 18.4717C5.40749 17.8868 5.24453 17.2824 5.14 16.6667H1.66667C1.22464 16.6667 0.800716 16.4911 0.488155 16.1785C0.175595 15.866 0 15.442 0 15C0 14.558 0.175595 14.1341 0.488155 13.8215C0.800716 13.5089 1.22464 13.3333 1.66667 13.3333H5.13667C5.23666 12.7369 5.39005 12.1506 5.595 11.5817L2.5 9.77333C2.29698 9.67138 2.11695 9.529 1.97096 9.35494C1.82497 9.18088 1.71611 8.97881 1.65106 8.76114C1.58601 8.54348 1.56615 8.31481 1.59269 8.08919C1.61924 7.86356 1.69162 7.64575 1.80541 7.44912C1.9192 7.25249 2.07199 7.0812 2.25439 6.94578C2.43679 6.81035 2.64495 6.71364 2.86608 6.66159C3.08722 6.60954 3.31666 6.60324 3.54032 6.6431C3.76397 6.68295 3.97712 6.76811 4.16667 6.89333L7.23833 8.68C7.65521 8.16728 8.12195 7.6972 8.63167 7.27667L6.88 4.14667C6.76306 3.95532 6.68593 3.74234 6.65324 3.52048C6.62055 3.29863 6.63297 3.07245 6.68976 2.85551C6.74654 2.63856 6.84652 2.43531 6.98371 2.25792C7.1209 2.08053 7.29248 1.93264 7.48817 1.82313C7.68387 1.71361 7.89965 1.64472 8.12259 1.62056C8.34554 1.59641 8.57107 1.6175 8.78568 1.68256C9.00029 1.74763 9.19955 1.85533 9.37155 1.99923C9.54355 2.14312 9.68474 2.32025 9.78667 2.52L11.5233 5.61833C12.0997 5.40607 12.6944 5.24761 13.3 5.145L13.3333 1.66667C13.3333 1.22464 13.5089 0.800716 13.8215 0.488155C14.1341 0.175595 14.558 0 15 0C15.442 0 15.866 0.175595 16.1785 0.488155C16.4911 0.800716 16.6667 1.22464 16.6667 1.66667V5.14833C16.6629 5.93822 16.3794 6.70123 15.8665 7.30197C15.3536 7.90272 14.6445 8.30237 13.865 8.43C12.3472 8.71183 10.9737 9.51027 9.97778 10.6898C8.98182 11.8693 8.42478 13.3571 8.40122 14.9006C8.37766 16.4442 8.88905 17.9483 9.84855 19.1577C10.808 20.367 12.1565 21.207 13.665 21.535C14.0891 21.6323 14.4583 21.8915 14.6938 22.2574C14.9293 22.6232 15.0124 23.0666 14.9253 23.4929C14.8383 23.9192 14.588 24.2945 14.2279 24.5388C13.8679 24.783 13.4266 24.8768 12.9983 24.8C12.5164 24.7022 12.0424 24.5691 11.58 24.4017L9.77333 27.5C9.62734 27.7529 9.41748 27.963 9.16475 28.1092C8.91203 28.2555 8.62532 28.3327 8.33333 28.3333Z" fill="black"/>
<path d="M28.3333 40C18.2033 40.195 12.7767 27.27 20 20.185V8.33333C20.3517 -2.68167 36.3183 -2.66667 36.6667 8.33333V20.185C43.8917 27.2717 38.4617 40.195 28.3333 40ZM28.3333 3.33333C27.0073 3.33333 25.7355 3.86012 24.7978 4.7978C23.8601 5.73548 23.3333 7.00725 23.3333 8.33333V20.895C23.3333 21.1289 23.284 21.3603 23.1887 21.5739C23.0933 21.7875 22.9541 21.9787 22.78 22.135C21.5215 23.2599 20.6342 24.7404 20.2356 26.3806C19.8371 28.0209 19.946 29.7435 20.548 31.3204C21.1501 32.8974 22.2168 34.2543 23.607 35.2117C24.9972 36.169 26.6454 36.6816 28.3333 36.6816C30.0213 36.6816 31.6695 36.169 33.0597 35.2117C34.4499 34.2543 35.5166 32.8974 36.1186 31.3204C36.7207 29.7435 36.8296 28.0209 36.431 26.3806C36.0325 24.7404 35.1452 23.2599 33.8867 22.135C33.7126 21.9787 33.5733 21.7875 33.478 21.5739C33.3827 21.3603 33.3334 21.1289 33.3333 20.895V8.33333C33.3333 7.00725 32.8066 5.73548 31.8689 4.7978C30.9312 3.86012 29.6594 3.33333 28.3333 3.33333ZM28.3333 33.3333C27.162 33.3186 26.0328 32.894 25.142 32.1334C24.2511 31.3727 23.6549 30.324 23.4568 29.1695C23.2588 28.0149 23.4714 26.8275 24.0578 25.8134C24.6441 24.7993 25.5672 24.0226 26.6667 23.6183V13.3333C26.6667 12.8913 26.8423 12.4674 27.1548 12.1548C27.4674 11.8423 27.8913 11.6667 28.3333 11.6667C28.7754 11.6667 29.1993 11.8423 29.5118 12.1548C29.8244 12.4674 30 12.8913 30 13.3333V23.6183C31.0994 24.0226 32.0225 24.7993 32.6089 25.8134C33.1953 26.8275 33.4079 28.0149 33.2098 29.1695C33.0118 30.324 32.4155 31.3727 31.5247 32.1334C30.6338 32.894 29.5047 33.3186 28.3333 33.3333ZM28.3333 26.6667C27.8913 26.6667 27.4674 26.8423 27.1548 27.1548C26.8423 27.4674 26.6667 27.8913 26.6667 28.3333C26.6667 28.7754 26.8423 29.1993 27.1548 29.5118C27.4674 29.8244 27.8913 30 28.3333 30C28.7754 30 29.1993 29.8244 29.5118 29.5118C29.8244 29.1993 30 28.7754 30 28.3333C30 27.8913 29.8244 27.4674 29.5118 27.1548C29.1993 26.8423 28.7754 26.6667 28.3333 26.6667ZM8.33333 28.3333C8.0412 28.3325 7.75443 28.2548 7.50177 28.1082C7.2491 27.9615 7.03942 27.751 6.89374 27.4978C6.74805 27.2446 6.67148 26.9575 6.67171 26.6654C6.67193 26.3733 6.74893 26.0863 6.895 25.8333L8.68667 22.75C8.17742 22.3327 7.7102 21.8666 7.29167 21.3583L4.14667 23.12C3.95532 23.2369 3.74234 23.3141 3.52048 23.3468C3.29863 23.3794 3.07245 23.367 2.85551 23.3102C2.63856 23.2535 2.43531 23.1535 2.25792 23.0163C2.08053 22.8791 1.93264 22.7075 1.82313 22.5118C1.71361 22.3161 1.64472 22.1004 1.62056 21.8774C1.59641 21.6545 1.6175 21.4289 1.68256 21.2143C1.74763 20.9997 1.85533 20.8004 1.99923 20.6285C2.14312 20.4565 2.32025 20.3153 2.52 20.2133L5.62667 18.4717C5.40749 17.8868 5.24453 17.2824 5.14 16.6667H1.66667C1.22464 16.6667 0.800716 16.4911 0.488155 16.1785C0.175595 15.866 0 15.442 0 15C0 14.558 0.175595 14.1341 0.488155 13.8215C0.800716 13.5089 1.22464 13.3333 1.66667 13.3333H5.13667C5.23666 12.7369 5.39005 12.1506 5.595 11.5817L2.5 9.77333C2.29698 9.67138 2.11695 9.529 1.97096 9.35494C1.82497 9.18088 1.71611 8.97881 1.65106 8.76114C1.58601 8.54348 1.56615 8.31481 1.59269 8.08919C1.61924 7.86356 1.69162 7.64575 1.80541 7.44912C1.9192 7.25249 2.07199 7.0812 2.25439 6.94578C2.43679 6.81035 2.64495 6.71364 2.86608 6.66159C3.08722 6.60954 3.31666 6.60324 3.54032 6.6431C3.76397 6.68295 3.97712 6.76811 4.16667 6.89333L7.23833 8.68C7.65521 8.16728 8.12195 7.6972 8.63167 7.27667L6.88 4.14667C6.76306 3.95532 6.68593 3.74234 6.65324 3.52048C6.62055 3.29863 6.63297 3.07245 6.68976 2.85551C6.74654 2.63856 6.84652 2.43531 6.98371 2.25792C7.1209 2.08053 7.29248 1.93264 7.48817 1.82313C7.68387 1.71361 7.89965 1.64472 8.12259 1.62056C8.34554 1.59641 8.57107 1.6175 8.78568 1.68256C9.00029 1.74763 9.19955 1.85533 9.37155 1.99923C9.54355 2.14312 9.68474 2.32025 9.78667 2.52L11.5233 5.61833C12.0997 5.40607 12.6944 5.24761 13.3 5.145L13.3333 1.66667C13.3333 1.22464 13.5089 0.800716 13.8215 0.488155C14.1341 0.175595 14.558 0 15 0C15.442 0 15.866 0.175595 16.1785 0.488155C16.4911 0.800716 16.6667 1.22464 16.6667 1.66667V5.14833C16.6629 5.93822 16.3794 6.70123 15.8665 7.30197C15.3536 7.90272 14.6445 8.30237 13.865 8.43C12.3472 8.71183 10.9737 9.51027 9.97778 10.6898C8.98182 11.8693 8.42478 13.3571 8.40122 14.9006C8.37766 16.4442 8.88905 17.9483 9.84855 19.1577C10.808 20.367 12.1565 21.207 13.665 21.535C14.0891 21.6323 14.4583 21.8915 14.6938 22.2574C14.9293 22.6232 15.0124 23.0666 14.9253 23.4929C14.8383 23.9192 14.588 24.2945 14.2279 24.5388C13.8679 24.783 13.4266 24.8768 12.9983 24.8C12.5164 24.7022 12.0424 24.5691 11.58 24.4017L9.77333 27.5C9.62734 27.7529 9.41748 27.963 9.16475 28.1092C8.91203 28.2555 8.62532 28.3327 8.33333 28.3333Z" fill="#273048"/>
<path d="M28.3333 40C18.2033 40.195 12.7767 27.27 20 20.185V8.33333C20.3517 -2.68167 36.3183 -2.66667 36.6667 8.33333V20.185C43.8917 27.2717 38.4617 40.195 28.3333 40ZM28.3333 3.33333C27.0073 3.33333 25.7355 3.86012 24.7978 4.7978C23.8601 5.73548 23.3333 7.00725 23.3333 8.33333V20.895C23.3333 21.1289 23.284 21.3603 23.1887 21.5739C23.0933 21.7875 22.9541 21.9787 22.78 22.135C21.5215 23.2599 20.6342 24.7404 20.2356 26.3806C19.8371 28.0209 19.946 29.7435 20.548 31.3204C21.1501 32.8974 22.2168 34.2543 23.607 35.2117C24.9972 36.169 26.6454 36.6816 28.3333 36.6816C30.0213 36.6816 31.6695 36.169 33.0597 35.2117C34.4499 34.2543 35.5166 32.8974 36.1186 31.3204C36.7207 29.7435 36.8296 28.0209 36.431 26.3806C36.0325 24.7404 35.1452 23.2599 33.8867 22.135C33.7126 21.9787 33.5733 21.7875 33.478 21.5739C33.3827 21.3603 33.3334 21.1289 33.3333 20.895V8.33333C33.3333 7.00725 32.8066 5.73548 31.8689 4.7978C30.9312 3.86012 29.6594 3.33333 28.3333 3.33333ZM28.3333 33.3333C27.162 33.3186 26.0328 32.894 25.142 32.1334C24.2511 31.3727 23.6549 30.324 23.4568 29.1695C23.2588 28.0149 23.4714 26.8275 24.0578 25.8134C24.6441 24.7993 25.5672 24.0226 26.6667 23.6183V13.3333C26.6667 12.8913 26.8423 12.4674 27.1548 12.1548C27.4674 11.8423 27.8913 11.6667 28.3333 11.6667C28.7754 11.6667 29.1993 11.8423 29.5118 12.1548C29.8244 12.4674 30 12.8913 30 13.3333V23.6183C31.0994 24.0226 32.0225 24.7993 32.6089 25.8134C33.1953 26.8275 33.4079 28.0149 33.2098 29.1695C33.0118 30.324 32.4155 31.3727 31.5247 32.1334C30.6338 32.894 29.5047 33.3186 28.3333 33.3333ZM28.3333 26.6667C27.8913 26.6667 27.4674 26.8423 27.1548 27.1548C26.8423 27.4674 26.6667 27.8913 26.6667 28.3333C26.6667 28.7754 26.8423 29.1993 27.1548 29.5118C27.4674 29.8244 27.8913 30 28.3333 30C28.7754 30 29.1993 29.8244 29.5118 29.5118C29.8244 29.1993 30 28.7754 30 28.3333C30 27.8913 29.8244 27.4674 29.5118 27.1548C29.1993 26.8423 28.7754 26.6667 28.3333 26.6667ZM8.33333 28.3333C8.0412 28.3325 7.75443 28.2548 7.50177 28.1082C7.2491 27.9615 7.03942 27.751 6.89374 27.4978C6.74805 27.2446 6.67148 26.9575 6.67171 26.6654C6.67193 26.3733 6.74893 26.0863 6.895 25.8333L8.68667 22.75C8.17742 22.3327 7.7102 21.8666 7.29167 21.3583L4.14667 23.12C3.95532 23.2369 3.74234 23.3141 3.52048 23.3468C3.29863 23.3794 3.07245 23.367 2.85551 23.3102C2.63856 23.2535 2.43531 23.1535 2.25792 23.0163C2.08053 22.8791 1.93264 22.7075 1.82313 22.5118C1.71361 22.3161 1.64472 22.1004 1.62056 21.8774C1.59641 21.6545 1.6175 21.4289 1.68256 21.2143C1.74763 20.9997 1.85533 20.8004 1.99923 20.6285C2.14312 20.4565 2.32025 20.3153 2.52 20.2133L5.62667 18.4717C5.40749 17.8868 5.24453 17.2824 5.14 16.6667H1.66667C1.22464 16.6667 0.800716 16.4911 0.488155 16.1785C0.175595 15.866 0 15.442 0 15C0 14.558 0.175595 14.1341 0.488155 13.8215C0.800716 13.5089 1.22464 13.3333 1.66667 13.3333H5.13667C5.23666 12.7369 5.39005 12.1506 5.595 11.5817L2.5 9.77333C2.29698 9.67138 2.11695 9.529 1.97096 9.35494C1.82497 9.18088 1.71611 8.97881 1.65106 8.76114C1.58601 8.54348 1.56615 8.31481 1.59269 8.08919C1.61924 7.86356 1.69162 7.64575 1.80541 7.44912C1.9192 7.25249 2.07199 7.0812 2.25439 6.94578C2.43679 6.81035 2.64495 6.71364 2.86608 6.66159C3.08722 6.60954 3.31666 6.60324 3.54032 6.6431C3.76397 6.68295 3.97712 6.76811 4.16667 6.89333L7.23833 8.68C7.65521 8.16728 8.12195 7.6972 8.63167 7.27667L6.88 4.14667C6.76306 3.95532 6.68593 3.74234 6.65324 3.52048C6.62055 3.29863 6.63297 3.07245 6.68976 2.85551C6.74654 2.63856 6.84652 2.43531 6.98371 2.25792C7.1209 2.08053 7.29248 1.93264 7.48817 1.82313C7.68387 1.71361 7.89965 1.64472 8.12259 1.62056C8.34554 1.59641 8.57107 1.6175 8.78568 1.68256C9.00029 1.74763 9.19955 1.85533 9.37155 1.99923C9.54355 2.14312 9.68474 2.32025 9.78667 2.52L11.5233 5.61833C12.0997 5.40607 12.6944 5.24761 13.3 5.145L13.3333 1.66667C13.3333 1.22464 13.5089 0.800716 13.8215 0.488155C14.1341 0.175595 14.558 0 15 0C15.442 0 15.866 0.175595 16.1785 0.488155C16.4911 0.800716 16.6667 1.22464 16.6667 1.66667V5.14833C16.6629 5.93822 16.3794 6.70123 15.8665 7.30197C15.3536 7.90272 14.6445 8.30237 13.865 8.43C12.3472 8.71183 10.9737 9.51027 9.97778 10.6898C8.98182 11.8693 8.42478 13.3571 8.40122 14.9006C8.37766 16.4442 8.88905 17.9483 9.84855 19.1577C10.808 20.367 12.1565 21.207 13.665 21.535C14.0891 21.6323 14.4583 21.8915 14.6938 22.2574C14.9293 22.6232 15.0124 23.0666 14.9253 23.4929C14.8383 23.9192 14.588 24.2945 14.2279 24.5388C13.8679 24.783 13.4266 24.8768 12.9983 24.8C12.5164 24.7022 12.0424 24.5691 11.58 24.4017L9.77333 27.5C9.62734 27.7529 9.41748 27.963 9.16475 28.1092C8.91203 28.2555 8.62532 28.3327 8.33333 28.3333Z" fill="url(#paint0_linear_1788_27883)"/>
</g>
</g>
<defs>
<linearGradient id="paint0_linear_1788_27883" x1="19.988" y1="0" x2="19.988" y2="40.0022" gradientUnits="userSpaceOnUse">
<stop stop-color="#6D9BBA"/>
<stop offset="1" stop-color="#273048"/>
</linearGradient>
<clipPath id="clip0_1788_27883">
<rect width="40" height="40" fill="white"/>
</clipPath>
<clipPath id="clip1_1788_27883">
<rect width="40" height="40" fill="white"/>
</clipPath>
</defs>
</svg>
