<svg width="135" height="40" viewBox="0 0 135 40" fill="none" xmlns="http://www.w3.org/2000/svg">
<rect x="0.5" y="0.507812" width="134" height="39" rx="4.5" fill="black"/>
<rect x="0.5" y="0.507812" width="134" height="39" rx="4.5" stroke="#A6A6A6"/>
<path d="M68.136 21.7589C65.784 21.7589 63.867 23.5479 63.867 26.0119C63.867 28.4609 65.784 30.2649 68.136 30.2649C70.489 30.2649 72.406 28.4609 72.406 26.0119C72.405 23.5479 70.488 21.7589 68.136 21.7589ZM68.136 28.5909C66.847 28.5909 65.736 27.5279 65.736 26.0129C65.736 24.4819 66.848 23.4349 68.136 23.4349C69.425 23.4349 70.536 24.4819 70.536 26.0129C70.536 27.5269 69.425 28.5909 68.136 28.5909ZM58.822 21.7589C56.47 21.7589 54.553 23.5479 54.553 26.0119C54.553 28.4609 56.47 30.2649 58.822 30.2649C61.175 30.2649 63.092 28.4609 63.092 26.0119C63.092 23.5479 61.175 21.7589 58.822 21.7589ZM58.822 28.5909C57.533 28.5909 56.422 27.5279 56.422 26.0129C56.422 24.4819 57.534 23.4349 58.822 23.4349C60.111 23.4349 61.222 24.4819 61.222 26.0129C61.223 27.5269 60.111 28.5909 58.822 28.5909ZM47.744 23.0649V24.8689H52.062C51.933 25.8839 51.595 26.6249 51.079 27.1399C50.451 27.7679 49.468 28.4609 47.744 28.4609C45.086 28.4609 43.008 26.3179 43.008 23.6599C43.008 21.0019 45.086 18.8589 47.744 18.8589C49.178 18.8589 50.225 19.4229 50.998 20.1479L52.271 18.8749C51.191 17.8439 49.758 17.0549 47.744 17.0549C44.103 17.0549 41.042 20.0189 41.042 23.6599C41.042 27.3009 44.103 30.2649 47.744 30.2649C49.709 30.2649 51.192 29.6199 52.351 28.4119C53.543 27.2199 53.914 25.5439 53.914 24.1909C53.914 23.7729 53.882 23.3859 53.817 23.0639H47.744V23.0649ZM93.052 24.4659C92.698 23.5159 91.618 21.7589 89.411 21.7589C87.22 21.7589 85.399 23.4829 85.399 26.0119C85.399 28.3959 87.204 30.2649 89.62 30.2649C91.569 30.2649 92.697 29.0729 93.165 28.3799L91.715 27.4129C91.232 28.1219 90.571 28.5889 89.62 28.5889C88.67 28.5889 87.993 28.1539 87.558 27.2999L93.245 24.9479L93.052 24.4659ZM87.252 25.8839C87.204 24.2399 88.525 23.4029 89.476 23.4029C90.217 23.4029 90.845 23.7739 91.055 24.3049L87.252 25.8839ZM82.629 30.0079H84.497V17.5069H82.629V30.0079ZM79.567 22.7099H79.503C79.084 22.2099 78.278 21.7589 77.264 21.7589C75.137 21.7589 73.188 23.6279 73.188 26.0289C73.188 28.4129 75.137 30.2659 77.264 30.2659C78.279 30.2659 79.084 29.8149 79.503 29.2999H79.567V29.9119C79.567 31.5389 78.697 32.4089 77.296 32.4089C76.152 32.4089 75.443 31.5879 75.153 30.8949L73.526 31.5719C73.993 32.6989 75.233 34.0849 77.296 34.0849C79.487 34.0849 81.34 32.7959 81.34 29.6539V22.0179H79.568V22.7099H79.567ZM77.425 28.5909C76.136 28.5909 75.057 27.5109 75.057 26.0289C75.057 24.5299 76.136 23.4349 77.425 23.4349C78.697 23.4349 79.696 24.5299 79.696 26.0289C79.696 27.5109 78.697 28.5909 77.425 28.5909ZM101.806 17.5069H97.335V30.0079H99.2V25.2719H101.805C103.873 25.2719 105.907 23.7749 105.907 21.3899C105.907 19.0049 103.874 17.5069 101.806 17.5069ZM101.854 23.5319H99.2V19.2469H101.854C103.249 19.2469 104.041 20.4019 104.041 21.3899C104.041 22.3579 103.249 23.5319 101.854 23.5319ZM113.386 21.7369C112.035 21.7369 110.636 22.3319 110.057 23.6509L111.713 24.3419C112.067 23.6509 112.727 23.4249 113.418 23.4249C114.383 23.4249 115.364 24.0039 115.38 25.0329V25.1619C115.042 24.9689 114.318 24.6799 113.434 24.6799C111.649 24.6799 109.831 25.6609 109.831 27.4939C109.831 29.1669 111.295 30.2439 112.935 30.2439C114.189 30.2439 114.881 29.6809 115.315 29.0209H115.379V29.9859H117.181V25.1929C117.182 22.9749 115.524 21.7369 113.386 21.7369ZM113.16 28.5879C112.55 28.5879 111.697 28.2819 111.697 27.5259C111.697 26.5609 112.759 26.1909 113.676 26.1909C114.495 26.1909 114.882 26.3679 115.38 26.6089C115.235 27.7679 114.238 28.5879 113.16 28.5879ZM123.743 22.0099L121.604 27.4299H121.54L119.32 22.0099H117.31L120.639 29.5849L118.741 33.7989H120.687L125.818 22.0099H123.743ZM106.937 30.0079H108.802V17.5069H106.937V30.0079Z" fill="white"/>
<path d="M47.418 10.2508C47.418 11.0888 47.1701 11.7558 46.673 12.2538C46.109 12.8458 45.3731 13.1418 44.4691 13.1418C43.6031 13.1418 42.8661 12.8418 42.2611 12.2418C41.6551 11.6408 41.3521 10.8968 41.3521 10.0088C41.3521 9.11976 41.6551 8.37576 42.2611 7.77576C42.8661 7.17476 43.6031 6.87476 44.4691 6.87476C44.8991 6.87476 45.3101 6.95876 45.7001 7.12576C46.0911 7.29376 46.404 7.51676 46.6381 7.79576L46.111 8.32376C45.714 7.84876 45.167 7.61176 44.468 7.61176C43.836 7.61176 43.29 7.83376 42.829 8.27776C42.368 8.72176 42.1381 9.29876 42.1381 10.0078C42.1381 10.7168 42.368 11.2938 42.829 11.7378C43.29 12.1818 43.836 12.4038 44.468 12.4038C45.138 12.4038 45.6971 12.1808 46.1441 11.7338C46.4341 11.4428 46.602 11.0378 46.647 10.5188H44.468V9.79776H47.375C47.405 9.95476 47.418 10.1058 47.418 10.2508Z" fill="white"/>
<path d="M52.0281 7.74481H49.2961V9.64681H51.7601V10.3678H49.2961V12.2698H52.0281V13.0078H48.5251V7.00781H52.0281V7.74481Z" fill="white"/>
<path d="M55.279 13.0078H54.508V7.74481H52.832V7.00781H56.955V7.74481H55.279V13.0078Z" fill="white"/>
<path d="M59.938 13.0078V7.00781H60.709V13.0078H59.938Z" fill="white"/>
<path d="M64.1281 13.0078H63.3572V7.74481H61.6812V7.00781H65.8042V7.74481H64.1281V13.0078Z" fill="white"/>
<path d="M73.6089 12.2328C73.0189 12.8388 72.2859 13.1418 71.4089 13.1418C70.5319 13.1418 69.7989 12.8388 69.2099 12.2328C68.6199 11.6268 68.3259 10.8848 68.3259 10.0078C68.3259 9.1308 68.6199 8.3888 69.2099 7.7828C69.7989 7.1768 70.5319 6.8728 71.4089 6.8728C72.2809 6.8728 73.0129 7.1778 73.6049 7.7868C74.1969 8.3958 74.4929 9.1358 74.4929 10.0078C74.4929 10.8848 74.1979 11.6268 73.6089 12.2328ZM69.7789 11.7298C70.2229 12.1798 70.7659 12.4038 71.4089 12.4038C72.0519 12.4038 72.5959 12.1788 73.0389 11.7298C73.4829 11.2798 73.7059 10.7058 73.7059 10.0078C73.7059 9.3098 73.4829 8.7358 73.0389 8.2858C72.5959 7.8358 72.0519 7.6118 71.4089 7.6118C70.7659 7.6118 70.2229 7.8368 69.7789 8.2858C69.3359 8.7358 69.1129 9.3098 69.1129 10.0078C69.1129 10.7058 69.3359 11.2798 69.7789 11.7298Z" fill="white"/>
<path d="M75.5749 13.0078V7.00781H76.513L79.429 11.6748H79.4619L79.429 10.5188V7.00781H80.1999V13.0078H79.3949L76.344 8.11381H76.3109L76.344 9.26981V13.0078H75.5749Z" fill="white"/>
<path d="M47.418 10.2508C47.418 11.0888 47.1701 11.7558 46.673 12.2538C46.109 12.8458 45.3731 13.1418 44.4691 13.1418C43.6031 13.1418 42.8661 12.8418 42.2611 12.2418C41.6551 11.6408 41.3521 10.8968 41.3521 10.0088C41.3521 9.11976 41.6551 8.37576 42.2611 7.77576C42.8661 7.17476 43.6031 6.87476 44.4691 6.87476C44.8991 6.87476 45.3101 6.95876 45.7001 7.12576C46.0911 7.29376 46.404 7.51676 46.6381 7.79576L46.111 8.32376C45.714 7.84876 45.167 7.61176 44.468 7.61176C43.836 7.61176 43.29 7.83376 42.829 8.27776C42.368 8.72176 42.1381 9.29876 42.1381 10.0078C42.1381 10.7168 42.368 11.2938 42.829 11.7378C43.29 12.1818 43.836 12.4038 44.468 12.4038C45.138 12.4038 45.6971 12.1808 46.1441 11.7338C46.4341 11.4428 46.602 11.0378 46.647 10.5188H44.468V9.79776H47.375C47.405 9.95476 47.418 10.1058 47.418 10.2508Z" stroke="white" stroke-width="0.2" stroke-miterlimit="10"/>
<path d="M52.0281 7.74481H49.2961V9.64681H51.7601V10.3678H49.2961V12.2698H52.0281V13.0078H48.5251V7.00781H52.0281V7.74481Z" stroke="white" stroke-width="0.2" stroke-miterlimit="10"/>
<path d="M55.279 13.0078H54.508V7.74481H52.832V7.00781H56.955V7.74481H55.279V13.0078Z" stroke="white" stroke-width="0.2" stroke-miterlimit="10"/>
<path d="M59.938 13.0078V7.00781H60.709V13.0078H59.938Z" stroke="white" stroke-width="0.2" stroke-miterlimit="10"/>
<path d="M64.1281 13.0078H63.3572V7.74481H61.6812V7.00781H65.8042V7.74481H64.1281V13.0078Z" stroke="white" stroke-width="0.2" stroke-miterlimit="10"/>
<path d="M73.6089 12.2328C73.0189 12.8388 72.2859 13.1418 71.4089 13.1418C70.5319 13.1418 69.7989 12.8388 69.2099 12.2328C68.6199 11.6268 68.3259 10.8848 68.3259 10.0078C68.3259 9.1308 68.6199 8.3888 69.2099 7.7828C69.7989 7.1768 70.5319 6.8728 71.4089 6.8728C72.2809 6.8728 73.0129 7.1778 73.6049 7.7868C74.1969 8.3958 74.4929 9.1358 74.4929 10.0078C74.4929 10.8848 74.1979 11.6268 73.6089 12.2328ZM69.7789 11.7298C70.2229 12.1798 70.7659 12.4038 71.4089 12.4038C72.0519 12.4038 72.5959 12.1788 73.0389 11.7298C73.4829 11.2798 73.7059 10.7058 73.7059 10.0078C73.7059 9.3098 73.4829 8.7358 73.0389 8.2858C72.5959 7.8358 72.0519 7.6118 71.4089 7.6118C70.7659 7.6118 70.2229 7.8368 69.7789 8.2858C69.3359 8.7358 69.1129 9.3098 69.1129 10.0078C69.1129 10.7058 69.3359 11.2798 69.7789 11.7298Z" stroke="white" stroke-width="0.2" stroke-miterlimit="10"/>
<path d="M75.5749 13.0078V7.00781H76.513L79.429 11.6748H79.4619L79.429 10.5188V7.00781H80.1999V13.0078H79.3949L76.344 8.11381H76.3109L76.344 9.26981V13.0078H75.5749Z" stroke="white" stroke-width="0.2" stroke-miterlimit="10"/>
<g filter="url(#filter0_ii_1933_12656)">
<path d="M10.436 7.54566C10.145 7.85366 9.97302 8.33166 9.97302 8.95066V31.0667C9.97302 31.6867 10.145 32.1637 10.436 32.4717L10.51 32.5437L22.899 20.1547V20.0087V19.8627L10.51 7.47266L10.436 7.54566Z" fill="url(#paint0_linear_1933_12656)"/>
<path d="M27.028 24.2857L22.899 20.1547V20.0087V19.8627L27.029 15.7327L27.122 15.7857L32.015 18.5657C33.412 19.3597 33.412 20.6587 32.015 21.4537L27.122 24.2337L27.028 24.2857Z" fill="url(#paint1_linear_1933_12656)"/>
<g filter="url(#filter1_i_1933_12656)">
<path d="M27.122 24.2328L22.898 20.0088L10.436 32.4718C10.896 32.9598 11.657 33.0198 12.514 32.5338L27.122 24.2328Z" fill="url(#paint2_linear_1933_12656)"/>
</g>
<path d="M27.122 15.7848L12.514 7.48476C11.657 6.99776 10.896 7.05876 10.436 7.54676L22.899 20.0098L27.122 15.7848Z" fill="url(#paint3_linear_1933_12656)"/>
</g>
<defs>
<filter id="filter0_ii_1933_12656" x="9.97302" y="7.14868" width="23.0897" height="25.7207" filterUnits="userSpaceOnUse" color-interpolation-filters="sRGB">
<feFlood flood-opacity="0" result="BackgroundImageFix"/>
<feBlend mode="normal" in="SourceGraphic" in2="BackgroundImageFix" result="shape"/>
<feColorMatrix in="SourceAlpha" type="matrix" values="0 0 0 0 0 0 0 0 0 0 0 0 0 0 0 0 0 0 127 0" result="hardAlpha"/>
<feOffset dy="-0.15"/>
<feComposite in2="hardAlpha" operator="arithmetic" k2="-1" k3="1"/>
<feColorMatrix type="matrix" values="0 0 0 0 0 0 0 0 0 0 0 0 0 0 0 0 0 0 0.12 0"/>
<feBlend mode="normal" in2="shape" result="effect1_innerShadow_1933_12656"/>
<feColorMatrix in="SourceAlpha" type="matrix" values="0 0 0 0 0 0 0 0 0 0 0 0 0 0 0 0 0 0 127 0" result="hardAlpha"/>
<feOffset dy="0.15"/>
<feComposite in2="hardAlpha" operator="arithmetic" k2="-1" k3="1"/>
<feColorMatrix type="matrix" values="0 0 0 0 1 0 0 0 0 1 0 0 0 0 1 0 0 0 0.25 0"/>
<feBlend mode="normal" in2="effect1_innerShadow_1933_12656" result="effect2_innerShadow_1933_12656"/>
</filter>
<filter id="filter1_i_1933_12656" x="10.436" y="20.0088" width="16.686" height="12.8606" filterUnits="userSpaceOnUse" color-interpolation-filters="sRGB">
<feFlood flood-opacity="0" result="BackgroundImageFix"/>
<feBlend mode="normal" in="SourceGraphic" in2="BackgroundImageFix" result="shape"/>
<feColorMatrix in="SourceAlpha" type="matrix" values="0 0 0 0 0 0 0 0 0 0 0 0 0 0 0 0 0 0 127 0" result="hardAlpha"/>
<feOffset dy="-0.15"/>
<feComposite in2="hardAlpha" operator="arithmetic" k2="-1" k3="1"/>
<feColorMatrix type="matrix" values="0 0 0 0 0 0 0 0 0 0 0 0 0 0 0 0 0 0 0.08 0"/>
<feBlend mode="normal" in2="shape" result="effect1_innerShadow_1933_12656"/>
</filter>
<linearGradient id="paint0_linear_1933_12656" x1="21.8008" y1="8.71666" x2="5.01882" y2="25.4987" gradientUnits="userSpaceOnUse">
<stop stop-color="#00A0FF"/>
<stop offset="0.0066" stop-color="#00A1FF"/>
<stop offset="0.2601" stop-color="#00BEFF"/>
<stop offset="0.5122" stop-color="#00D2FF"/>
<stop offset="0.7604" stop-color="#00DFFF"/>
<stop offset="1" stop-color="#00E3FF"/>
</linearGradient>
<linearGradient id="paint1_linear_1933_12656" x1="33.8335" y1="20.0087" x2="9.63765" y2="20.0087" gradientUnits="userSpaceOnUse">
<stop stop-color="#FFE000"/>
<stop offset="0.4087" stop-color="#FFBD00"/>
<stop offset="0.7754" stop-color="#FFA500"/>
<stop offset="1" stop-color="#FF9C00"/>
</linearGradient>
<linearGradient id="paint2_linear_1933_12656" x1="24.8281" y1="22.3027" x2="2.06964" y2="45.0612" gradientUnits="userSpaceOnUse">
<stop stop-color="#FF3A44"/>
<stop offset="1" stop-color="#C31162"/>
</linearGradient>
<linearGradient id="paint3_linear_1933_12656" x1="7.29743" y1="0.184557" x2="17.4597" y2="10.3469" gradientUnits="userSpaceOnUse">
<stop stop-color="#32A071"/>
<stop offset="0.0685" stop-color="#2DA771"/>
<stop offset="0.4762" stop-color="#15CF74"/>
<stop offset="0.8009" stop-color="#06E775"/>
<stop offset="1" stop-color="#00F076"/>
</linearGradient>
</defs>
</svg>
