<svg width="60" height="60" viewBox="0 0 60 60" fill="none" xmlns="http://www.w3.org/2000/svg">
<g clip-path="url(#clip0_4001_2525)">
<g clip-path="url(#clip1_4001_2525)">
<path d="M54.8785 0.879357L0.896088 54.8618C0.128057 55.6171 -0.175711 56.7265 0.100058 57.7679C0.375945 58.8092 1.18908 59.6226 2.23042 59.8987C3.27164 60.1748 4.38104 59.8713 5.13666 59.1034L59.119 5.12098C59.6816 4.55855 59.9977 3.79567 59.9977 3.00023C59.9977 2.20478 59.6816 1.44191 59.119 0.879474C57.9322 -0.252774 56.0653 -0.252774 54.8785 0.879357ZM57.7055 3.7064L3.72313 57.6888C3.3274 58.0658 2.70534 58.0658 2.30961 57.6888C1.91939 57.2985 1.91939 56.6656 2.30961 56.2753L56.292 2.29288C56.6826 1.90254 57.3157 1.90277 57.706 2.29335C58.0963 2.68392 58.0961 3.317 57.7055 3.70734V3.7064Z" fill="#808082"/>
<path d="M54.8785 0.879357L0.896088 54.8618C0.128057 55.6171 -0.175711 56.7265 0.100058 57.7679C0.375945 58.8092 1.18908 59.6226 2.23042 59.8987C3.27164 60.1748 4.38104 59.8713 5.13666 59.1034L59.119 5.12098C59.6816 4.55855 59.9977 3.79567 59.9977 3.00023C59.9977 2.20478 59.6816 1.44191 59.119 0.879474C57.9322 -0.252774 56.0653 -0.252774 54.8785 0.879357ZM57.7055 3.7064L3.72313 57.6888C3.3274 58.0658 2.70534 58.0658 2.30961 57.6888C1.91939 57.2985 1.91939 56.6656 2.30961 56.2753L56.292 2.29288C56.6826 1.90254 57.3157 1.90277 57.706 2.29335C58.0963 2.68392 58.0961 3.317 57.7055 3.70734V3.7064Z" fill="url(#paint0_linear_4001_2525)"/>
<path d="M54.8785 0.879357L0.896088 54.8618C0.128057 55.6171 -0.175711 56.7265 0.100058 57.7679C0.375945 58.8092 1.18908 59.6226 2.23042 59.8987C3.27164 60.1748 4.38104 59.8713 5.13666 59.1034L59.119 5.12098C59.6816 4.55855 59.9977 3.79567 59.9977 3.00023C59.9977 2.20478 59.6816 1.44191 59.119 0.879474C57.9322 -0.252774 56.0653 -0.252774 54.8785 0.879357ZM57.7055 3.7064L3.72313 57.6888C3.3274 58.0658 2.70534 58.0658 2.30961 57.6888C1.91939 57.2985 1.91939 56.6656 2.30961 56.2753L56.292 2.29288C56.6826 1.90254 57.3157 1.90277 57.706 2.29335C58.0963 2.68392 58.0961 3.317 57.7055 3.70734V3.7064Z" fill="url(#paint1_linear_4001_2525)"/>
<path d="M19.318 51.3349L27.6353 45.7567C27.836 45.6215 27.9811 45.4185 28.0441 45.1849L29.3337 40.3664C29.4768 39.8331 29.1603 39.2848 28.627 39.1419C28.0936 38.9988 27.5453 39.3153 27.4024 39.8486L26.2088 44.3052L18.2113 49.6724C16.8262 50.6044 16.4525 52.4793 17.3747 53.8711C17.823 54.5385 18.518 55.0004 19.3069 55.1553C20.0958 55.3101 20.914 55.1452 21.5813 54.6967L23.8405 53.1853L23.0407 56.1673C22.8253 56.9424 22.9292 57.7713 23.3292 58.4692C23.7293 59.167 24.3923 59.6755 25.17 59.8811C25.9469 60.0899 26.7751 59.9786 27.4693 59.5721C28.162 59.1754 28.6663 58.517 28.8689 57.7447L29.6687 54.7567L30.8632 57.1859C31.2369 57.962 31.9306 58.5367 32.7626 58.7594C33.4784 58.9788 34.2513 58.9121 34.9188 58.5734C35.6402 58.2202 36.1916 57.5948 36.4516 56.8349C36.7116 56.0751 36.6591 55.2429 36.3053 54.5218L32.0526 45.8716L34.0759 38.3291L39.5941 43.8473L40.2389 53.4702C40.328 54.7714 41.2403 55.8694 42.5032 56.1953C42.8107 56.2744 43.1291 56.3031 43.4459 56.2802C44.2489 56.2297 44.9987 55.861 45.5289 55.2559C46.0591 54.6508 46.3262 53.8591 46.2709 53.0563L46.089 50.3572L48.2752 52.5434C49.4614 53.7174 51.3717 53.7174 52.5579 52.5434C53.7384 51.36 53.7384 49.4442 52.5579 48.2608L50.3729 46.0747L53.072 46.2566C54.1499 46.3312 55.1858 45.8251 55.7893 44.9291C56.3929 44.0329 56.4725 42.8828 55.9982 41.912C55.5239 40.9412 54.5677 40.2972 53.4898 40.2226L43.8669 39.5778L38.3487 34.0596L45.8913 32.0363L54.5355 36.2859C54.7137 36.3788 54.9023 36.4503 55.0973 36.4989C56.6041 36.9012 58.1698 36.0924 58.7138 34.6307C59.2578 33.169 58.6018 31.5334 57.1986 30.8527L54.7694 29.6582L57.7515 28.8584C58.5275 28.6519 59.1896 28.1454 59.5921 27.4506C59.9946 26.7558 60.1046 25.9295 59.8977 25.1536C59.6907 24.3712 59.1773 23.7052 58.4732 23.3061C57.7829 22.9082 56.9618 22.8041 56.194 23.0172L53.2029 23.817L54.7154 21.5558C55.3371 20.659 55.4274 19.4968 54.9517 18.5146C54.476 17.5325 53.5081 16.8829 52.4189 16.8147C51.3298 16.7467 50.2885 17.2706 49.6942 18.1857L44.3219 26.1921L39.8653 27.3847C39.332 27.5277 39.0155 28.076 39.1586 28.6092C39.3016 29.1426 39.8499 29.459 40.3831 29.316L45.2016 28.0264C45.4352 27.9634 45.6382 27.8182 45.7734 27.6176L51.3526 19.2983C51.5019 19.0717 51.7353 18.9139 52.0012 18.8602C52.2671 18.8063 52.5435 18.8608 52.7691 19.0114C53.2391 19.333 53.3637 19.9724 53.049 20.447L50.0599 24.9155C49.8283 25.2616 49.8356 25.7149 50.0781 26.0535C50.3206 26.3921 50.7474 26.5448 51.1496 26.437L56.7168 24.9455C56.9729 24.8739 57.2469 24.9081 57.4776 25.0405C57.7162 25.1765 57.8906 25.4024 57.9617 25.6677C58.033 25.9331 57.995 26.2159 57.8564 26.4531C57.7228 26.687 57.5004 26.8573 57.2396 26.925L51.6815 28.4145C51.2788 28.5222 50.9851 28.8684 50.9446 29.2832C50.9041 29.698 51.1253 30.0944 51.4995 30.2779L56.315 32.6451C56.799 32.8765 57.0235 33.4415 56.8298 33.942C56.6362 34.4423 56.0899 34.7093 55.5762 34.5545C55.522 34.5393 55.4696 34.5179 55.4203 34.4906L46.4342 30.073C46.2171 29.966 45.9683 29.9416 45.7345 30.004L36.1577 32.5732C35.8128 32.6657 35.5433 32.9352 35.451 33.2802C35.3586 33.6252 35.4574 33.9932 35.7098 34.2457L42.7176 41.2535C42.8886 41.4247 43.1159 41.5281 43.3573 41.5444L53.3491 42.2141C53.6218 42.2327 53.876 42.359 54.0559 42.565C54.2346 42.7678 54.3238 43.0343 54.3028 43.3037C54.2872 43.5766 54.1623 43.8316 53.9563 44.0111C53.7502 44.1905 53.4805 44.2793 53.2082 44.2574L47.8499 43.8986C47.4365 43.8731 47.05 44.1051 46.8784 44.4821C46.7067 44.8591 46.7853 45.303 47.0761 45.5981L51.1448 49.6668C51.4748 49.9945 51.5431 50.5031 51.3113 50.9061C51.0793 51.3092 50.6053 51.5058 50.1562 51.3852C49.9807 51.3386 49.8201 51.2482 49.6894 51.1223L45.6206 47.0536C45.3255 46.7628 44.8818 46.6841 44.5047 46.8558C44.1277 47.0274 43.8956 47.4139 43.9212 47.8273L44.28 53.1896C44.3006 53.4609 44.2109 53.7291 44.031 53.9334C43.8452 54.144 43.5818 54.27 43.3013 54.2823C43.198 54.2881 43.0944 54.2777 42.9944 54.2513C42.5686 54.1424 42.2621 53.7704 42.2367 53.3316L41.5669 43.3349C41.5506 43.0934 41.4472 42.8662 41.276 42.6951L34.2683 35.6874C34.0158 35.4348 33.6478 35.3362 33.3027 35.4286C32.9577 35.521 32.6883 35.7904 32.5957 36.1352L30.0265 45.7121C29.964 45.946 29.9886 46.1946 30.0955 46.4118L34.5061 55.4029C34.6267 55.6478 34.6446 55.9305 34.5561 56.1886C34.4694 56.4467 34.2825 56.659 34.0373 56.7774C33.8119 56.8914 33.5506 56.9114 33.3105 56.8334C33.0258 56.761 32.7881 56.5657 32.6617 56.3006L30.2955 51.4841C30.1121 51.1099 29.7156 50.8888 29.3008 50.9292C28.886 50.9697 28.5398 51.2633 28.4321 51.6661L26.9417 57.2303C26.8728 57.4888 26.7031 57.7086 26.4708 57.8411C26.2338 57.979 25.9517 58.0172 25.6866 57.947C25.4215 57.8769 25.1952 57.7043 25.0573 57.4672C24.9229 57.2321 24.8898 56.9524 24.9653 56.6925L26.4549 51.1343C26.5627 50.7322 26.4099 50.3053 26.0714 50.0628C25.7328 49.8203 25.2794 49.8131 24.9334 50.0446L20.4659 53.0326C20.2229 53.1957 19.9228 53.2497 19.6381 53.1815C19.3949 53.1179 19.1823 52.9697 19.0383 52.7637C18.8837 52.5378 18.8261 52.2593 18.8789 51.9907C18.9313 51.722 19.0896 51.4857 19.318 51.3349Z" fill="#808082"/>
<path d="M19.318 51.3349L27.6353 45.7567C27.836 45.6215 27.9811 45.4185 28.0441 45.1849L29.3337 40.3664C29.4768 39.8331 29.1603 39.2848 28.627 39.1419C28.0936 38.9988 27.5453 39.3153 27.4024 39.8486L26.2088 44.3052L18.2113 49.6724C16.8262 50.6044 16.4525 52.4793 17.3747 53.8711C17.823 54.5385 18.518 55.0004 19.3069 55.1553C20.0958 55.3101 20.914 55.1452 21.5813 54.6967L23.8405 53.1853L23.0407 56.1673C22.8253 56.9424 22.9292 57.7713 23.3292 58.4692C23.7293 59.167 24.3923 59.6755 25.17 59.8811C25.9469 60.0899 26.7751 59.9786 27.4693 59.5721C28.162 59.1754 28.6663 58.517 28.8689 57.7447L29.6687 54.7567L30.8632 57.1859C31.2369 57.962 31.9306 58.5367 32.7626 58.7594C33.4784 58.9788 34.2513 58.9121 34.9188 58.5734C35.6402 58.2202 36.1916 57.5948 36.4516 56.8349C36.7116 56.0751 36.6591 55.2429 36.3053 54.5218L32.0526 45.8716L34.0759 38.3291L39.5941 43.8473L40.2389 53.4702C40.328 54.7714 41.2403 55.8694 42.5032 56.1953C42.8107 56.2744 43.1291 56.3031 43.4459 56.2802C44.2489 56.2297 44.9987 55.861 45.5289 55.2559C46.0591 54.6508 46.3262 53.8591 46.2709 53.0563L46.089 50.3572L48.2752 52.5434C49.4614 53.7174 51.3717 53.7174 52.5579 52.5434C53.7384 51.36 53.7384 49.4442 52.5579 48.2608L50.3729 46.0747L53.072 46.2566C54.1499 46.3312 55.1858 45.8251 55.7893 44.9291C56.3929 44.0329 56.4725 42.8828 55.9982 41.912C55.5239 40.9412 54.5677 40.2972 53.4898 40.2226L43.8669 39.5778L38.3487 34.0596L45.8913 32.0363L54.5355 36.2859C54.7137 36.3788 54.9023 36.4503 55.0973 36.4989C56.6041 36.9012 58.1698 36.0924 58.7138 34.6307C59.2578 33.169 58.6018 31.5334 57.1986 30.8527L54.7694 29.6582L57.7515 28.8584C58.5275 28.6519 59.1896 28.1454 59.5921 27.4506C59.9946 26.7558 60.1046 25.9295 59.8977 25.1536C59.6907 24.3712 59.1773 23.7052 58.4732 23.3061C57.7829 22.9082 56.9618 22.8041 56.194 23.0172L53.2029 23.817L54.7154 21.5558C55.3371 20.659 55.4274 19.4968 54.9517 18.5146C54.476 17.5325 53.5081 16.8829 52.4189 16.8147C51.3298 16.7467 50.2885 17.2706 49.6942 18.1857L44.3219 26.1921L39.8653 27.3847C39.332 27.5277 39.0155 28.076 39.1586 28.6092C39.3016 29.1426 39.8499 29.459 40.3831 29.316L45.2016 28.0264C45.4352 27.9634 45.6382 27.8182 45.7734 27.6176L51.3526 19.2983C51.5019 19.0717 51.7353 18.9139 52.0012 18.8602C52.2671 18.8063 52.5435 18.8608 52.7691 19.0114C53.2391 19.333 53.3637 19.9724 53.049 20.447L50.0599 24.9155C49.8283 25.2616 49.8356 25.7149 50.0781 26.0535C50.3206 26.3921 50.7474 26.5448 51.1496 26.437L56.7168 24.9455C56.9729 24.8739 57.2469 24.9081 57.4776 25.0405C57.7162 25.1765 57.8906 25.4024 57.9617 25.6677C58.033 25.9331 57.995 26.2159 57.8564 26.4531C57.7228 26.687 57.5004 26.8573 57.2396 26.925L51.6815 28.4145C51.2788 28.5222 50.9851 28.8684 50.9446 29.2832C50.9041 29.698 51.1253 30.0944 51.4995 30.2779L56.315 32.6451C56.799 32.8765 57.0235 33.4415 56.8298 33.942C56.6362 34.4423 56.0899 34.7093 55.5762 34.5545C55.522 34.5393 55.4696 34.5179 55.4203 34.4906L46.4342 30.073C46.2171 29.966 45.9683 29.9416 45.7345 30.004L36.1577 32.5732C35.8128 32.6657 35.5433 32.9352 35.451 33.2802C35.3586 33.6252 35.4574 33.9932 35.7098 34.2457L42.7176 41.2535C42.8886 41.4247 43.1159 41.5281 43.3573 41.5444L53.3491 42.2141C53.6218 42.2327 53.876 42.359 54.0559 42.565C54.2346 42.7678 54.3238 43.0343 54.3028 43.3037C54.2872 43.5766 54.1623 43.8316 53.9563 44.0111C53.7502 44.1905 53.4805 44.2793 53.2082 44.2574L47.8499 43.8986C47.4365 43.8731 47.05 44.1051 46.8784 44.4821C46.7067 44.8591 46.7853 45.303 47.0761 45.5981L51.1448 49.6668C51.4748 49.9945 51.5431 50.5031 51.3113 50.9061C51.0793 51.3092 50.6053 51.5058 50.1562 51.3852C49.9807 51.3386 49.8201 51.2482 49.6894 51.1223L45.6206 47.0536C45.3255 46.7628 44.8818 46.6841 44.5047 46.8558C44.1277 47.0274 43.8956 47.4139 43.9212 47.8273L44.28 53.1896C44.3006 53.4609 44.2109 53.7291 44.031 53.9334C43.8452 54.144 43.5818 54.27 43.3013 54.2823C43.198 54.2881 43.0944 54.2777 42.9944 54.2513C42.5686 54.1424 42.2621 53.7704 42.2367 53.3316L41.5669 43.3349C41.5506 43.0934 41.4472 42.8662 41.276 42.6951L34.2683 35.6874C34.0158 35.4348 33.6478 35.3362 33.3027 35.4286C32.9577 35.521 32.6883 35.7904 32.5957 36.1352L30.0265 45.7121C29.964 45.946 29.9886 46.1946 30.0955 46.4118L34.5061 55.4029C34.6267 55.6478 34.6446 55.9305 34.5561 56.1886C34.4694 56.4467 34.2825 56.659 34.0373 56.7774C33.8119 56.8914 33.5506 56.9114 33.3105 56.8334C33.0258 56.761 32.7881 56.5657 32.6617 56.3006L30.2955 51.4841C30.1121 51.1099 29.7156 50.8888 29.3008 50.9292C28.886 50.9697 28.5398 51.2633 28.4321 51.6661L26.9417 57.2303C26.8728 57.4888 26.7031 57.7086 26.4708 57.8411C26.2338 57.979 25.9517 58.0172 25.6866 57.947C25.4215 57.8769 25.1952 57.7043 25.0573 57.4672C24.9229 57.2321 24.8898 56.9524 24.9653 56.6925L26.4549 51.1343C26.5627 50.7322 26.4099 50.3053 26.0714 50.0628C25.7328 49.8203 25.2794 49.8131 24.9334 50.0446L20.4659 53.0326C20.2229 53.1957 19.9228 53.2497 19.6381 53.1815C19.3949 53.1179 19.1823 52.9697 19.0383 52.7637C18.8837 52.5378 18.8261 52.2593 18.8789 51.9907C18.9313 51.722 19.0896 51.4857 19.318 51.3349Z" fill="url(#paint2_linear_4001_2525)"/>
<path d="M19.318 51.3349L27.6353 45.7567C27.836 45.6215 27.9811 45.4185 28.0441 45.1849L29.3337 40.3664C29.4768 39.8331 29.1603 39.2848 28.627 39.1419C28.0936 38.9988 27.5453 39.3153 27.4024 39.8486L26.2088 44.3052L18.2113 49.6724C16.8262 50.6044 16.4525 52.4793 17.3747 53.8711C17.823 54.5385 18.518 55.0004 19.3069 55.1553C20.0958 55.3101 20.914 55.1452 21.5813 54.6967L23.8405 53.1853L23.0407 56.1673C22.8253 56.9424 22.9292 57.7713 23.3292 58.4692C23.7293 59.167 24.3923 59.6755 25.17 59.8811C25.9469 60.0899 26.7751 59.9786 27.4693 59.5721C28.162 59.1754 28.6663 58.517 28.8689 57.7447L29.6687 54.7567L30.8632 57.1859C31.2369 57.962 31.9306 58.5367 32.7626 58.7594C33.4784 58.9788 34.2513 58.9121 34.9188 58.5734C35.6402 58.2202 36.1916 57.5948 36.4516 56.8349C36.7116 56.0751 36.6591 55.2429 36.3053 54.5218L32.0526 45.8716L34.0759 38.3291L39.5941 43.8473L40.2389 53.4702C40.328 54.7714 41.2403 55.8694 42.5032 56.1953C42.8107 56.2744 43.1291 56.3031 43.4459 56.2802C44.2489 56.2297 44.9987 55.861 45.5289 55.2559C46.0591 54.6508 46.3262 53.8591 46.2709 53.0563L46.089 50.3572L48.2752 52.5434C49.4614 53.7174 51.3717 53.7174 52.5579 52.5434C53.7384 51.36 53.7384 49.4442 52.5579 48.2608L50.3729 46.0747L53.072 46.2566C54.1499 46.3312 55.1858 45.8251 55.7893 44.9291C56.3929 44.0329 56.4725 42.8828 55.9982 41.912C55.5239 40.9412 54.5677 40.2972 53.4898 40.2226L43.8669 39.5778L38.3487 34.0596L45.8913 32.0363L54.5355 36.2859C54.7137 36.3788 54.9023 36.4503 55.0973 36.4989C56.6041 36.9012 58.1698 36.0924 58.7138 34.6307C59.2578 33.169 58.6018 31.5334 57.1986 30.8527L54.7694 29.6582L57.7515 28.8584C58.5275 28.6519 59.1896 28.1454 59.5921 27.4506C59.9946 26.7558 60.1046 25.9295 59.8977 25.1536C59.6907 24.3712 59.1773 23.7052 58.4732 23.3061C57.7829 22.9082 56.9618 22.8041 56.194 23.0172L53.2029 23.817L54.7154 21.5558C55.3371 20.659 55.4274 19.4968 54.9517 18.5146C54.476 17.5325 53.5081 16.8829 52.4189 16.8147C51.3298 16.7467 50.2885 17.2706 49.6942 18.1857L44.3219 26.1921L39.8653 27.3847C39.332 27.5277 39.0155 28.076 39.1586 28.6092C39.3016 29.1426 39.8499 29.459 40.3831 29.316L45.2016 28.0264C45.4352 27.9634 45.6382 27.8182 45.7734 27.6176L51.3526 19.2983C51.5019 19.0717 51.7353 18.9139 52.0012 18.8602C52.2671 18.8063 52.5435 18.8608 52.7691 19.0114C53.2391 19.333 53.3637 19.9724 53.049 20.447L50.0599 24.9155C49.8283 25.2616 49.8356 25.7149 50.0781 26.0535C50.3206 26.3921 50.7474 26.5448 51.1496 26.437L56.7168 24.9455C56.9729 24.8739 57.2469 24.9081 57.4776 25.0405C57.7162 25.1765 57.8906 25.4024 57.9617 25.6677C58.033 25.9331 57.995 26.2159 57.8564 26.4531C57.7228 26.687 57.5004 26.8573 57.2396 26.925L51.6815 28.4145C51.2788 28.5222 50.9851 28.8684 50.9446 29.2832C50.9041 29.698 51.1253 30.0944 51.4995 30.2779L56.315 32.6451C56.799 32.8765 57.0235 33.4415 56.8298 33.942C56.6362 34.4423 56.0899 34.7093 55.5762 34.5545C55.522 34.5393 55.4696 34.5179 55.4203 34.4906L46.4342 30.073C46.2171 29.966 45.9683 29.9416 45.7345 30.004L36.1577 32.5732C35.8128 32.6657 35.5433 32.9352 35.451 33.2802C35.3586 33.6252 35.4574 33.9932 35.7098 34.2457L42.7176 41.2535C42.8886 41.4247 43.1159 41.5281 43.3573 41.5444L53.3491 42.2141C53.6218 42.2327 53.876 42.359 54.0559 42.565C54.2346 42.7678 54.3238 43.0343 54.3028 43.3037C54.2872 43.5766 54.1623 43.8316 53.9563 44.0111C53.7502 44.1905 53.4805 44.2793 53.2082 44.2574L47.8499 43.8986C47.4365 43.8731 47.05 44.1051 46.8784 44.4821C46.7067 44.8591 46.7853 45.303 47.0761 45.5981L51.1448 49.6668C51.4748 49.9945 51.5431 50.5031 51.3113 50.9061C51.0793 51.3092 50.6053 51.5058 50.1562 51.3852C49.9807 51.3386 49.8201 51.2482 49.6894 51.1223L45.6206 47.0536C45.3255 46.7628 44.8818 46.6841 44.5047 46.8558C44.1277 47.0274 43.8956 47.4139 43.9212 47.8273L44.28 53.1896C44.3006 53.4609 44.2109 53.7291 44.031 53.9334C43.8452 54.144 43.5818 54.27 43.3013 54.2823C43.198 54.2881 43.0944 54.2777 42.9944 54.2513C42.5686 54.1424 42.2621 53.7704 42.2367 53.3316L41.5669 43.3349C41.5506 43.0934 41.4472 42.8662 41.276 42.6951L34.2683 35.6874C34.0158 35.4348 33.6478 35.3362 33.3027 35.4286C32.9577 35.521 32.6883 35.7904 32.5957 36.1352L30.0265 45.7121C29.964 45.946 29.9886 46.1946 30.0955 46.4118L34.5061 55.4029C34.6267 55.6478 34.6446 55.9305 34.5561 56.1886C34.4694 56.4467 34.2825 56.659 34.0373 56.7774C33.8119 56.8914 33.5506 56.9114 33.3105 56.8334C33.0258 56.761 32.7881 56.5657 32.6617 56.3006L30.2955 51.4841C30.1121 51.1099 29.7156 50.8888 29.3008 50.9292C28.886 50.9697 28.5398 51.2633 28.4321 51.6661L26.9417 57.2303C26.8728 57.4888 26.7031 57.7086 26.4708 57.8411C26.2338 57.979 25.9517 58.0172 25.6866 57.947C25.4215 57.8769 25.1952 57.7043 25.0573 57.4672C24.9229 57.2321 24.8898 56.9524 24.9653 56.6925L26.4549 51.1343C26.5627 50.7322 26.4099 50.3053 26.0714 50.0628C25.7328 49.8203 25.2794 49.8131 24.9334 50.0446L20.4659 53.0326C20.2229 53.1957 19.9228 53.2497 19.6381 53.1815C19.3949 53.1179 19.1823 52.9697 19.0383 52.7637C18.8837 52.5378 18.8261 52.2593 18.8789 51.9907C18.9313 51.722 19.0896 51.4857 19.318 51.3349Z" fill="url(#paint3_linear_4001_2525)"/>
<path d="M16.7719 27.9916C16.7705 29.7649 17.1927 31.5129 18.0035 33.09C18.2575 33.5802 18.8608 33.7718 19.3511 33.5178C19.8413 33.2638 20.0329 32.6605 19.7789 32.1702C19.1148 30.8776 18.7692 29.4449 18.7712 27.9916C18.7767 22.8925 22.909 18.7601 28.0082 18.7546C29.4614 18.7527 30.8941 19.0981 32.1868 19.7624C32.677 20.0163 33.2804 19.8248 33.5343 19.3345C33.7883 18.8443 33.5968 18.2409 33.1065 17.987C31.5294 17.1762 29.7815 16.754 28.0082 16.7554C21.8053 16.7619 16.7785 21.7888 16.7719 27.9916Z" fill="#808082"/>
<path d="M16.7719 27.9916C16.7705 29.7649 17.1927 31.5129 18.0035 33.09C18.2575 33.5802 18.8608 33.7718 19.3511 33.5178C19.8413 33.2638 20.0329 32.6605 19.7789 32.1702C19.1148 30.8776 18.7692 29.4449 18.7712 27.9916C18.7767 22.8925 22.909 18.7601 28.0082 18.7546C29.4614 18.7527 30.8941 19.0981 32.1868 19.7624C32.677 20.0163 33.2804 19.8248 33.5343 19.3345C33.7883 18.8443 33.5968 18.2409 33.1065 17.987C31.5294 17.1762 29.7815 16.754 28.0082 16.7554C21.8053 16.7619 16.7785 21.7888 16.7719 27.9916Z" fill="url(#paint4_linear_4001_2525)"/>
<path d="M16.7719 27.9916C16.7705 29.7649 17.1927 31.5129 18.0035 33.09C18.2575 33.5802 18.8608 33.7718 19.3511 33.5178C19.8413 33.2638 20.0329 32.6605 19.7789 32.1702C19.1148 30.8776 18.7692 29.4449 18.7712 27.9916C18.7767 22.8925 22.909 18.7601 28.0082 18.7546C29.4614 18.7527 30.8941 19.0981 32.1868 19.7624C32.677 20.0163 33.2804 19.8248 33.5343 19.3345C33.7883 18.8443 33.5968 18.2409 33.1065 17.987C31.5294 17.1762 29.7815 16.754 28.0082 16.7554C21.8053 16.7619 16.7785 21.7888 16.7719 27.9916Z" fill="url(#paint5_linear_4001_2525)"/>
<path d="M27.0086 13.1684H29.0179C30.0186 13.1609 30.8496 12.394 30.9373 11.397L31.713 2.09009C31.7574 1.55226 31.5747 1.02028 31.2091 0.623381C30.8434 0.226362 30.3283 0.000615455 29.7886 0.000732604H26.2278C25.6879 0.000498305 25.1726 0.226479 24.807 0.623615C24.4413 1.02075 24.2587 1.55296 24.3035 2.09103L25.0792 11.398C25.1676 12.3984 26.0044 13.1662 27.0086 13.1684ZM29.7137 2.00012L28.95 11.1712L27.0716 11.2331L26.3028 2.00012H29.7137Z" fill="#808082"/>
<path d="M27.0086 13.1684H29.0179C30.0186 13.1609 30.8496 12.394 30.9373 11.397L31.713 2.09009C31.7574 1.55226 31.5747 1.02028 31.2091 0.623381C30.8434 0.226362 30.3283 0.000615455 29.7886 0.000732604H26.2278C25.6879 0.000498305 25.1726 0.226479 24.807 0.623615C24.4413 1.02075 24.2587 1.55296 24.3035 2.09103L25.0792 11.398C25.1676 12.3984 26.0044 13.1662 27.0086 13.1684ZM29.7137 2.00012L28.95 11.1712L27.0716 11.2331L26.3028 2.00012H29.7137Z" fill="url(#paint6_linear_4001_2525)"/>
<path d="M27.0086 13.1684H29.0179C30.0186 13.1609 30.8496 12.394 30.9373 11.397L31.713 2.09009C31.7574 1.55226 31.5747 1.02028 31.2091 0.623381C30.8434 0.226362 30.3283 0.000615455 29.7886 0.000732604H26.2278C25.6879 0.000498305 25.1726 0.226479 24.807 0.623615C24.4413 1.02075 24.2587 1.55296 24.3035 2.09103L25.0792 11.398C25.1676 12.3984 26.0044 13.1662 27.0086 13.1684ZM29.7137 2.00012L28.95 11.1712L27.0716 11.2331L26.3028 2.00012H29.7137Z" fill="url(#paint7_linear_4001_2525)"/>
<path d="M1.94869 31.7024C2.00199 31.7024 2.05494 31.7004 2.10766 31.6964L11.4146 30.9206C12.413 30.8324 13.1801 29.9986 13.1851 28.9962V26.9919C13.1827 25.9874 12.4143 25.1504 11.4136 25.0626L2.10672 24.2868C1.56889 24.2424 1.03691 24.4252 0.640013 24.7908C0.243111 25.1564 0.0172476 25.6715 0.0173647 26.2112V29.7721C0.0171304 30.2843 0.220502 30.7756 0.582844 31.1377C0.94507 31.4997 1.43651 31.703 1.94869 31.7024ZM2.01675 26.2852L11.1858 26.9849V28.9312L2.01675 29.697V26.2852Z" fill="#808082"/>
<path d="M1.94869 31.7024C2.00199 31.7024 2.05494 31.7004 2.10766 31.6964L11.4146 30.9206C12.413 30.8324 13.1801 29.9986 13.1851 28.9962V26.9919C13.1827 25.9874 12.4143 25.1504 11.4136 25.0626L2.10672 24.2868C1.56889 24.2424 1.03691 24.4252 0.640013 24.7908C0.243111 25.1564 0.0172476 25.6715 0.0173647 26.2112V29.7721C0.0171304 30.2843 0.220502 30.7756 0.582844 31.1377C0.94507 31.4997 1.43651 31.703 1.94869 31.7024ZM2.01675 26.2852L11.1858 26.9849V28.9312L2.01675 29.697V26.2852Z" fill="url(#paint8_linear_4001_2525)"/>
<path d="M1.94869 31.7024C2.00199 31.7024 2.05494 31.7004 2.10766 31.6964L11.4146 30.9206C12.413 30.8324 13.1801 29.9986 13.1851 28.9962V26.9919C13.1827 25.9874 12.4143 25.1504 11.4136 25.0626L2.10672 24.2868C1.56889 24.2424 1.03691 24.4252 0.640013 24.7908C0.243111 25.1564 0.0172476 25.6715 0.0173647 26.2112V29.7721C0.0171304 30.2843 0.220502 30.7756 0.582844 31.1377C0.94507 31.4997 1.43651 31.703 1.94869 31.7024ZM2.01675 26.2852L11.1858 26.9849V28.9312L2.01675 29.697V26.2852Z" fill="url(#paint9_linear_4001_2525)"/>
<path d="M18.2664 3.70945C18.0362 3.22093 17.612 2.85109 17.0968 2.68966C16.5814 2.52823 16.0222 2.58985 15.5544 2.85965L12.4714 4.64102C12.0036 4.91093 11.6703 5.36441 11.5523 5.89135C11.4344 6.41829 11.5425 6.97065 11.8506 7.41418L17.1759 15.0857C17.7508 15.906 18.8558 16.1537 19.7261 15.6575L21.4675 14.6518C22.3354 14.1463 22.674 13.0622 22.2483 12.1526L18.2664 3.70945ZM18.8182 13.9461L13.5349 6.33453L16.49 4.62907L20.4107 12.9544L18.8182 13.9461Z" fill="#808082"/>
<path d="M18.2664 3.70945C18.0362 3.22093 17.612 2.85109 17.0968 2.68966C16.5814 2.52823 16.0222 2.58985 15.5544 2.85965L12.4714 4.64102C12.0036 4.91093 11.6703 5.36441 11.5523 5.89135C11.4344 6.41829 11.5425 6.97065 11.8506 7.41418L17.1759 15.0857C17.7508 15.906 18.8558 16.1537 19.7261 15.6575L21.4675 14.6518C22.3354 14.1463 22.674 13.0622 22.2483 12.1526L18.2664 3.70945ZM18.8182 13.9461L13.5349 6.33453L16.49 4.62907L20.4107 12.9544L18.8182 13.9461Z" fill="url(#paint10_linear_4001_2525)"/>
<path d="M18.2664 3.70945C18.0362 3.22093 17.612 2.85109 17.0968 2.68966C16.5814 2.52823 16.0222 2.58985 15.5544 2.85965L12.4714 4.64102C12.0036 4.91093 11.6703 5.36441 11.5523 5.89135C11.4344 6.41829 11.5425 6.97065 11.8506 7.41418L17.1759 15.0857C17.7508 15.906 18.8558 16.1537 19.7261 15.6575L21.4675 14.6518C22.3354 14.1463 22.674 13.0622 22.2483 12.1526L18.2664 3.70945ZM18.8182 13.9461L13.5349 6.33453L16.49 4.62907L20.4107 12.9544L18.8182 13.9461Z" fill="url(#paint11_linear_4001_2525)"/>
<path d="M14.6686 34.5324C14.1635 33.6643 13.079 33.3255 12.1695 33.7516L3.72617 37.7333C3.23766 37.9635 2.86782 38.3877 2.70639 38.9029C2.54495 39.4183 2.60657 39.9777 2.87637 40.4453L4.65774 43.5283C4.92765 43.9961 5.38102 44.3294 5.90808 44.4474C6.43513 44.5653 6.98737 44.4572 7.4309 44.1491L15.1024 38.8239C15.9227 38.2489 16.1705 37.1439 15.6742 36.2736L14.6686 34.5324ZM6.35125 42.4649L4.64579 39.5098L12.937 35.5321L13.9097 37.2175L6.35125 42.4649Z" fill="#808082"/>
<path d="M14.6686 34.5324C14.1635 33.6643 13.079 33.3255 12.1695 33.7516L3.72617 37.7333C3.23766 37.9635 2.86782 38.3877 2.70639 38.9029C2.54495 39.4183 2.60657 39.9777 2.87637 40.4453L4.65774 43.5283C4.92765 43.9961 5.38102 44.3294 5.90808 44.4474C6.43513 44.5653 6.98737 44.4572 7.4309 44.1491L15.1024 38.8239C15.9227 38.2489 16.1705 37.1439 15.6742 36.2736L14.6686 34.5324ZM6.35125 42.4649L4.64579 39.5098L12.937 35.5321L13.9097 37.2175L6.35125 42.4649Z" fill="url(#paint12_linear_4001_2525)"/>
<path d="M14.6686 34.5324C14.1635 33.6643 13.079 33.3255 12.1695 33.7516L3.72617 37.7333C3.23766 37.9635 2.86782 38.3877 2.70639 38.9029C2.54495 39.4183 2.60657 39.9777 2.87637 40.4453L4.65774 43.5283C4.92765 43.9961 5.38102 44.3294 5.90808 44.4474C6.43513 44.5653 6.98737 44.4572 7.4309 44.1491L15.1024 38.8239C15.9227 38.2489 16.1705 37.1439 15.6742 36.2736L14.6686 34.5324ZM6.35125 42.4649L4.64579 39.5098L12.937 35.5321L13.9097 37.2175L6.35125 42.4649Z" fill="url(#paint13_linear_4001_2525)"/>
<path d="M34.5491 14.6519L36.2905 15.6576C37.1607 16.1539 38.2657 15.9061 38.8407 15.0858L44.1671 7.41337C44.4743 6.96972 44.582 6.4176 44.4638 5.89101C44.3456 5.36442 44.0125 4.91117 43.5452 4.64126L40.4613 2.85989C39.9936 2.5901 39.4345 2.52847 38.9192 2.68991C38.4041 2.85134 37.9801 3.22118 37.7501 3.70957L33.7684 12.1569C33.3456 13.0652 33.6838 14.1463 34.5491 14.6519ZM39.5264 4.62908L42.4815 6.33454L37.2332 13.8961L35.5767 13.0103L39.5264 4.62908Z" fill="#808082"/>
<path d="M34.5491 14.6519L36.2905 15.6576C37.1607 16.1539 38.2657 15.9061 38.8407 15.0858L44.1671 7.41337C44.4743 6.96972 44.582 6.4176 44.4638 5.89101C44.3456 5.36442 44.0125 4.91117 43.5452 4.64126L40.4613 2.85989C39.9936 2.5901 39.4345 2.52847 38.9192 2.68991C38.4041 2.85134 37.9801 3.22118 37.7501 3.70957L33.7684 12.1569C33.3456 13.0652 33.6838 14.1463 34.5491 14.6519ZM39.5264 4.62908L42.4815 6.33454L37.2332 13.8961L35.5767 13.0103L39.5264 4.62908Z" fill="url(#paint14_linear_4001_2525)"/>
<path d="M34.5491 14.6519L36.2905 15.6576C37.1607 16.1539 38.2657 15.9061 38.8407 15.0858L44.1671 7.41337C44.4743 6.96972 44.582 6.4176 44.4638 5.89101C44.3456 5.36442 44.0125 4.91117 43.5452 4.64126L40.4613 2.85989C39.9936 2.5901 39.4345 2.52847 38.9192 2.68991C38.4041 2.85134 37.9801 3.22118 37.7501 3.70957L33.7684 12.1569C33.3456 13.0652 33.6838 14.1463 34.5491 14.6519ZM39.5264 4.62908L42.4815 6.33454L37.2332 13.8961L35.5767 13.0103L39.5264 4.62908Z" fill="url(#paint15_linear_4001_2525)"/>
<path d="M5.90737 11.536C5.38079 11.6542 4.92765 11.9874 4.65774 12.4547L2.87637 15.5387C2.60657 16.0063 2.54495 16.5655 2.70639 17.0807C2.86782 17.5958 3.23766 18.0199 3.72605 18.2499L12.1733 22.2315C12.4285 22.3515 12.7071 22.4136 12.989 22.4135C13.6803 22.4145 14.32 22.0478 14.6685 21.4507L15.6681 19.7102C16.1652 18.8401 15.9179 17.7344 15.0973 17.1591L7.42973 11.8328C6.9855 11.5272 6.43419 11.4197 5.90737 11.536ZM12.9691 20.3942L4.64579 16.4734L6.35219 13.5183L13.9417 18.7097L12.9691 20.3942Z" fill="#808082"/>
<path d="M5.90737 11.536C5.38079 11.6542 4.92765 11.9874 4.65774 12.4547L2.87637 15.5387C2.60657 16.0063 2.54495 16.5655 2.70639 17.0807C2.86782 17.5958 3.23766 18.0199 3.72605 18.2499L12.1733 22.2315C12.4285 22.3515 12.7071 22.4136 12.989 22.4135C13.6803 22.4145 14.32 22.0478 14.6685 21.4507L15.6681 19.7102C16.1652 18.8401 15.9179 17.7344 15.0973 17.1591L7.42973 11.8328C6.9855 11.5272 6.43419 11.4197 5.90737 11.536ZM12.9691 20.3942L4.64579 16.4734L6.35219 13.5183L13.9417 18.7097L12.9691 20.3942Z" fill="url(#paint16_linear_4001_2525)"/>
<path d="M5.90737 11.536C5.38079 11.6542 4.92765 11.9874 4.65774 12.4547L2.87637 15.5387C2.60657 16.0063 2.54495 16.5655 2.70639 17.0807C2.86782 17.5958 3.23766 18.0199 3.72605 18.2499L12.1733 22.2315C12.4285 22.3515 12.7071 22.4136 12.989 22.4135C13.6803 22.4145 14.32 22.0478 14.6685 21.4507L15.6681 19.7102C16.1652 18.8401 15.9179 17.7344 15.0973 17.1591L7.42973 11.8328C6.9855 11.5272 6.43419 11.4197 5.90737 11.536ZM12.9691 20.3942L4.64579 16.4734L6.35219 13.5183L13.9417 18.7097L12.9691 20.3942Z" fill="url(#paint17_linear_4001_2525)"/>
</g>
</g>
<defs>
<linearGradient id="paint0_linear_4001_2525" x1="29.9988" y1="0.0302734" x2="29.9988" y2="59.999" gradientUnits="userSpaceOnUse">
<stop stop-color="#E32323"/>
<stop offset="1" stop-color="#C71616"/>
</linearGradient>
<linearGradient id="paint1_linear_4001_2525" x1="29.9988" y1="0.0302734" x2="29.9988" y2="59.999" gradientUnits="userSpaceOnUse">
<stop stop-color="#6D9BBA"/>
<stop offset="1" stop-color="#273048"/>
</linearGradient>
<linearGradient id="paint2_linear_4001_2525" x1="38.4344" y1="16.8088" x2="38.4344" y2="59.9841" gradientUnits="userSpaceOnUse">
<stop stop-color="#E32323"/>
<stop offset="1" stop-color="#C71616"/>
</linearGradient>
<linearGradient id="paint3_linear_4001_2525" x1="38.4344" y1="16.8088" x2="38.4344" y2="59.9841" gradientUnits="userSpaceOnUse">
<stop stop-color="#6D9BBA"/>
<stop offset="1" stop-color="#273048"/>
</linearGradient>
<linearGradient id="paint4_linear_4001_2525" x1="25.2093" y1="16.7554" x2="25.2093" y2="33.6301" gradientUnits="userSpaceOnUse">
<stop stop-color="#E32323"/>
<stop offset="1" stop-color="#C71616"/>
</linearGradient>
<linearGradient id="paint5_linear_4001_2525" x1="25.2093" y1="16.7554" x2="25.2093" y2="33.6301" gradientUnits="userSpaceOnUse">
<stop stop-color="#6D9BBA"/>
<stop offset="1" stop-color="#273048"/>
</linearGradient>
<linearGradient id="paint6_linear_4001_2525" x1="28.0082" y1="0.000732422" x2="28.0082" y2="13.1684" gradientUnits="userSpaceOnUse">
<stop stop-color="#E32323"/>
<stop offset="1" stop-color="#C71616"/>
</linearGradient>
<linearGradient id="paint7_linear_4001_2525" x1="28.0082" y1="0.000732422" x2="28.0082" y2="13.1684" gradientUnits="userSpaceOnUse">
<stop stop-color="#6D9BBA"/>
<stop offset="1" stop-color="#273048"/>
</linearGradient>
<linearGradient id="paint8_linear_4001_2525" x1="6.60121" y1="24.2803" x2="6.60121" y2="31.7024" gradientUnits="userSpaceOnUse">
<stop stop-color="#E32323"/>
<stop offset="1" stop-color="#C71616"/>
</linearGradient>
<linearGradient id="paint9_linear_4001_2525" x1="6.60121" y1="24.2803" x2="6.60121" y2="31.7024" gradientUnits="userSpaceOnUse">
<stop stop-color="#6D9BBA"/>
<stop offset="1" stop-color="#273048"/>
</linearGradient>
<linearGradient id="paint10_linear_4001_2525" x1="16.9686" y1="2.60132" x2="16.9686" y2="15.9125" gradientUnits="userSpaceOnUse">
<stop stop-color="#E32323"/>
<stop offset="1" stop-color="#C71616"/>
</linearGradient>
<linearGradient id="paint11_linear_4001_2525" x1="16.9686" y1="2.60132" x2="16.9686" y2="15.9125" gradientUnits="userSpaceOnUse">
<stop stop-color="#6D9BBA"/>
<stop offset="1" stop-color="#273048"/>
</linearGradient>
<linearGradient id="paint12_linear_4001_2525" x1="9.27363" y1="33.5681" x2="9.27363" y2="44.494" gradientUnits="userSpaceOnUse">
<stop stop-color="#E32323"/>
<stop offset="1" stop-color="#C71616"/>
</linearGradient>
<linearGradient id="paint13_linear_4001_2525" x1="9.27363" y1="33.5681" x2="9.27363" y2="44.494" gradientUnits="userSpaceOnUse">
<stop stop-color="#6D9BBA"/>
<stop offset="1" stop-color="#273048"/>
</linearGradient>
<linearGradient id="paint14_linear_4001_2525" x1="39.0488" y1="2.60156" x2="39.0488" y2="15.9126" gradientUnits="userSpaceOnUse">
<stop stop-color="#E32323"/>
<stop offset="1" stop-color="#C71616"/>
</linearGradient>
<linearGradient id="paint15_linear_4001_2525" x1="39.0488" y1="2.60156" x2="39.0488" y2="15.9126" gradientUnits="userSpaceOnUse">
<stop stop-color="#6D9BBA"/>
<stop offset="1" stop-color="#273048"/>
</linearGradient>
<linearGradient id="paint16_linear_4001_2525" x1="9.27094" y1="11.4902" x2="9.27094" y2="22.4135" gradientUnits="userSpaceOnUse">
<stop stop-color="#E32323"/>
<stop offset="1" stop-color="#C71616"/>
</linearGradient>
<linearGradient id="paint17_linear_4001_2525" x1="9.27094" y1="11.4902" x2="9.27094" y2="22.4135" gradientUnits="userSpaceOnUse">
<stop stop-color="#6D9BBA"/>
<stop offset="1" stop-color="#273048"/>
</linearGradient>
<clipPath id="clip0_4001_2525">
<rect width="60" height="60" fill="white"/>
</clipPath>
<clipPath id="clip1_4001_2525">
<rect width="60" height="60" fill="white"/>
</clipPath>
</defs>
</svg>
