<svg width="61" height="60" viewBox="0 0 61 60" fill="none" xmlns="http://www.w3.org/2000/svg">
<g clip-path="url(#clip0_4001_3580)">
<path d="M59.6443 31.7682C58.5544 25.6509 56.0924 20.0583 52.3262 15.1455C51.9975 14.7168 51.3835 14.6356 50.9546 14.9643C50.5258 15.293 50.4447 15.9071 50.7734 16.336C54.3469 20.9975 56.6835 26.3052 57.7178 32.1112C59.0035 39.3262 58.1241 46.6709 55.1748 53.3513C54.2955 55.3436 51.9587 56.2484 49.967 55.3695C49.5164 55.1706 49.1134 54.895 48.7689 54.5507C47.6246 53.4065 47.2949 51.6424 47.9488 50.1614C52.6987 39.4026 50.3011 26.5852 41.983 18.267C33.6654 9.94927 20.8484 7.55149 10.0897 12.3008C9.1244 12.7272 8.05131 12.7517 7.06752 12.3704C6.08385 11.9893 5.3076 11.2479 4.88162 10.2827C4.00224 8.29059 4.90728 5.95399 6.89971 5.07461C13.5799 2.12558 20.9245 1.24632 28.1393 2.5321C34.9845 3.75203 41.3099 6.88469 46.4317 11.5918C46.8297 11.9575 47.4483 11.9313 47.8142 11.5334C48.1798 11.1356 48.1537 10.5166 47.7559 10.1509C42.3592 5.19156 35.6946 1.89109 28.4824 0.605655C20.883 -0.748449 13.1466 0.178037 6.10928 3.28468C3.13013 4.6 1.77638 8.09372 3.09146 11.0729C3.72849 12.516 4.88947 13.6247 6.36053 14.1949C7.83112 14.7647 9.43636 14.7279 10.8798 14.0908C20.9051 9.66532 32.8486 11.8995 40.5994 19.6507C48.3509 27.4019 50.5851 39.3456 46.1589 49.3711C45.1814 51.5857 45.6742 54.2233 47.3856 55.9343C47.9016 56.4502 48.5042 56.8623 49.1767 57.1594C49.9403 57.4965 50.7495 57.6656 51.56 57.6656C52.2809 57.6656 53.0031 57.5318 53.6958 57.2635C55.1666 56.6936 56.3279 55.5849 56.9649 54.1416C60.0719 47.1041 60.9984 39.3675 59.6443 31.7682Z" fill="#808082"/>
<path d="M59.6443 31.7682C58.5544 25.6509 56.0924 20.0583 52.3262 15.1455C51.9975 14.7168 51.3835 14.6356 50.9546 14.9643C50.5258 15.293 50.4447 15.9071 50.7734 16.336C54.3469 20.9975 56.6835 26.3052 57.7178 32.1112C59.0035 39.3262 58.1241 46.6709 55.1748 53.3513C54.2955 55.3436 51.9587 56.2484 49.967 55.3695C49.5164 55.1706 49.1134 54.895 48.7689 54.5507C47.6246 53.4065 47.2949 51.6424 47.9488 50.1614C52.6987 39.4026 50.3011 26.5852 41.983 18.267C33.6654 9.94927 20.8484 7.55149 10.0897 12.3008C9.1244 12.7272 8.05131 12.7517 7.06752 12.3704C6.08385 11.9893 5.3076 11.2479 4.88162 10.2827C4.00224 8.29059 4.90728 5.95399 6.89971 5.07461C13.5799 2.12558 20.9245 1.24632 28.1393 2.5321C34.9845 3.75203 41.3099 6.88469 46.4317 11.5918C46.8297 11.9575 47.4483 11.9313 47.8142 11.5334C48.1798 11.1356 48.1537 10.5166 47.7559 10.1509C42.3592 5.19156 35.6946 1.89109 28.4824 0.605655C20.883 -0.748449 13.1466 0.178037 6.10928 3.28468C3.13013 4.6 1.77638 8.09372 3.09146 11.0729C3.72849 12.516 4.88947 13.6247 6.36053 14.1949C7.83112 14.7647 9.43636 14.7279 10.8798 14.0908C20.9051 9.66532 32.8486 11.8995 40.5994 19.6507C48.3509 27.4019 50.5851 39.3456 46.1589 49.3711C45.1814 51.5857 45.6742 54.2233 47.3856 55.9343C47.9016 56.4502 48.5042 56.8623 49.1767 57.1594C49.9403 57.4965 50.7495 57.6656 51.56 57.6656C52.2809 57.6656 53.0031 57.5318 53.6958 57.2635C55.1666 56.6936 56.3279 55.5849 56.9649 54.1416C60.0719 47.1041 60.9984 39.3675 59.6443 31.7682Z" fill="url(#paint0_linear_4001_3580)"/>
<path d="M59.6443 31.7682C58.5544 25.6509 56.0924 20.0583 52.3262 15.1455C51.9975 14.7168 51.3835 14.6356 50.9546 14.9643C50.5258 15.293 50.4447 15.9071 50.7734 16.336C54.3469 20.9975 56.6835 26.3052 57.7178 32.1112C59.0035 39.3262 58.1241 46.6709 55.1748 53.3513C54.2955 55.3436 51.9587 56.2484 49.967 55.3695C49.5164 55.1706 49.1134 54.895 48.7689 54.5507C47.6246 53.4065 47.2949 51.6424 47.9488 50.1614C52.6987 39.4026 50.3011 26.5852 41.983 18.267C33.6654 9.94927 20.8484 7.55149 10.0897 12.3008C9.1244 12.7272 8.05131 12.7517 7.06752 12.3704C6.08385 11.9893 5.3076 11.2479 4.88162 10.2827C4.00224 8.29059 4.90728 5.95399 6.89971 5.07461C13.5799 2.12558 20.9245 1.24632 28.1393 2.5321C34.9845 3.75203 41.3099 6.88469 46.4317 11.5918C46.8297 11.9575 47.4483 11.9313 47.8142 11.5334C48.1798 11.1356 48.1537 10.5166 47.7559 10.1509C42.3592 5.19156 35.6946 1.89109 28.4824 0.605655C20.883 -0.748449 13.1466 0.178037 6.10928 3.28468C3.13013 4.6 1.77638 8.09372 3.09146 11.0729C3.72849 12.516 4.88947 13.6247 6.36053 14.1949C7.83112 14.7647 9.43636 14.7279 10.8798 14.0908C20.9051 9.66532 32.8486 11.8995 40.5994 19.6507C48.3509 27.4019 50.5851 39.3456 46.1589 49.3711C45.1814 51.5857 45.6742 54.2233 47.3856 55.9343C47.9016 56.4502 48.5042 56.8623 49.1767 57.1594C49.9403 57.4965 50.7495 57.6656 51.56 57.6656C52.2809 57.6656 53.0031 57.5318 53.6958 57.2635C55.1666 56.6936 56.3279 55.5849 56.9649 54.1416C60.0719 47.1041 60.9984 39.3675 59.6443 31.7682Z" fill="url(#paint1_linear_4001_3580)"/>
<path d="M43.249 38.1103C42.3096 32.8367 39.805 28.0416 36.0068 24.2434C32.2086 20.4451 27.4135 17.9408 22.1401 17.001C16.9944 16.0839 11.755 16.7116 6.98807 18.816C4.00892 20.1311 2.65505 23.625 3.97037 26.6043C5.28568 29.5836 8.7794 30.9374 11.7587 29.622C17.1202 27.255 23.5084 28.4502 27.6541 32.5959C31.8 36.7417 32.9952 43.1299 30.628 48.492C29.6507 50.7065 30.1435 53.344 31.8545 55.0551C32.3705 55.5709 32.973 55.9832 33.6456 56.2801C34.4189 56.6215 35.2268 56.783 36.0224 56.783C38.2916 56.7829 40.4601 55.4681 41.434 53.2623C43.5383 48.4954 44.1659 43.2558 43.249 38.1103ZM39.6443 52.4721C38.7647 54.4643 36.4287 55.3697 34.4362 54.4902C33.9857 54.2915 33.5828 54.0158 33.2385 53.6715C32.0941 52.5273 31.7645 50.7633 32.4183 49.2822C35.1091 43.1868 33.7507 35.9251 29.038 31.2124C25.9384 28.1129 21.7367 26.4645 17.489 26.4645C15.2784 26.4645 13.0549 26.9113 10.9686 27.8322C8.97698 28.7118 6.6399 27.8067 5.76053 25.8141C4.88115 23.822 5.78619 21.4855 7.77862 20.6061C12.1883 18.6594 17.0359 18.0788 21.7972 18.9275C26.6746 19.7967 31.1099 22.1134 34.6234 25.6272C38.1372 29.141 40.454 33.5763 41.323 38.4537C42.1715 43.2148 41.591 48.0622 39.6443 52.4721Z" fill="#808082"/>
<path d="M43.249 38.1103C42.3096 32.8367 39.805 28.0416 36.0068 24.2434C32.2086 20.4451 27.4135 17.9408 22.1401 17.001C16.9944 16.0839 11.755 16.7116 6.98807 18.816C4.00892 20.1311 2.65505 23.625 3.97037 26.6043C5.28568 29.5836 8.7794 30.9374 11.7587 29.622C17.1202 27.255 23.5084 28.4502 27.6541 32.5959C31.8 36.7417 32.9952 43.1299 30.628 48.492C29.6507 50.7065 30.1435 53.344 31.8545 55.0551C32.3705 55.5709 32.973 55.9832 33.6456 56.2801C34.4189 56.6215 35.2268 56.783 36.0224 56.783C38.2916 56.7829 40.4601 55.4681 41.434 53.2623C43.5383 48.4954 44.1659 43.2558 43.249 38.1103ZM39.6443 52.4721C38.7647 54.4643 36.4287 55.3697 34.4362 54.4902C33.9857 54.2915 33.5828 54.0158 33.2385 53.6715C32.0941 52.5273 31.7645 50.7633 32.4183 49.2822C35.1091 43.1868 33.7507 35.9251 29.038 31.2124C25.9384 28.1129 21.7367 26.4645 17.489 26.4645C15.2784 26.4645 13.0549 26.9113 10.9686 27.8322C8.97698 28.7118 6.6399 27.8067 5.76053 25.8141C4.88115 23.822 5.78619 21.4855 7.77862 20.6061C12.1883 18.6594 17.0359 18.0788 21.7972 18.9275C26.6746 19.7967 31.1099 22.1134 34.6234 25.6272C38.1372 29.141 40.454 33.5763 41.323 38.4537C42.1715 43.2148 41.591 48.0622 39.6443 52.4721Z" fill="url(#paint2_linear_4001_3580)"/>
<path d="M43.249 38.1103C42.3096 32.8367 39.805 28.0416 36.0068 24.2434C32.2086 20.4451 27.4135 17.9408 22.1401 17.001C16.9944 16.0839 11.755 16.7116 6.98807 18.816C4.00892 20.1311 2.65505 23.625 3.97037 26.6043C5.28568 29.5836 8.7794 30.9374 11.7587 29.622C17.1202 27.255 23.5084 28.4502 27.6541 32.5959C31.8 36.7417 32.9952 43.1299 30.628 48.492C29.6507 50.7065 30.1435 53.344 31.8545 55.0551C32.3705 55.5709 32.973 55.9832 33.6456 56.2801C34.4189 56.6215 35.2268 56.783 36.0224 56.783C38.2916 56.7829 40.4601 55.4681 41.434 53.2623C43.5383 48.4954 44.1659 43.2558 43.249 38.1103ZM39.6443 52.4721C38.7647 54.4643 36.4287 55.3697 34.4362 54.4902C33.9857 54.2915 33.5828 54.0158 33.2385 53.6715C32.0941 52.5273 31.7645 50.7633 32.4183 49.2822C35.1091 43.1868 33.7507 35.9251 29.038 31.2124C25.9384 28.1129 21.7367 26.4645 17.489 26.4645C15.2784 26.4645 13.0549 26.9113 10.9686 27.8322C8.97698 28.7118 6.6399 27.8067 5.76053 25.8141C4.88115 23.822 5.78619 21.4855 7.77862 20.6061C12.1883 18.6594 17.0359 18.0788 21.7972 18.9275C26.6746 19.7967 31.1099 22.1134 34.6234 25.6272C38.1372 29.141 40.454 33.5763 41.323 38.4537C42.1715 43.2148 41.591 48.0622 39.6443 52.4721Z" fill="url(#paint3_linear_4001_3580)"/>
<path d="M26.344 45.1188C25.8449 42.3163 24.5149 39.7691 22.4981 37.7522C20.4811 35.7351 17.9339 34.4053 15.1319 33.9062C12.4009 33.4196 9.61975 33.7529 7.08873 34.8706C5.64545 35.5079 4.53674 36.669 3.96662 38.1399C3.39673 39.6109 3.43365 41.2159 4.0708 42.6589C4.70783 44.102 5.86869 45.2106 7.33987 45.7808C8.81081 46.3508 10.4158 46.314 11.8591 45.6769C12.6301 45.3363 13.5489 45.5085 14.1453 46.1051C14.7418 46.7014 14.9139 47.6203 14.5735 48.3912C13.5958 50.6058 14.0887 53.2433 15.7999 54.9545C16.3159 55.4704 16.9186 55.8826 17.5909 56.1795C18.3547 56.5166 19.1639 56.6858 19.9743 56.6858C20.6952 56.6858 21.4174 56.552 22.1097 56.2838C23.5808 55.7139 24.742 54.6052 25.3789 53.1619C26.4968 50.6305 26.8305 47.8493 26.344 45.1188ZM23.5896 52.3717C23.1636 53.3367 22.3872 54.0781 21.4036 54.4593C20.4197 54.8403 19.3466 54.8155 18.3814 54.3895C17.9312 54.1908 17.5282 53.9154 17.1838 53.571C16.0394 52.4268 15.7098 50.6627 16.3638 49.1815C17.0279 47.6773 16.6925 45.8849 15.5292 44.7214C14.7639 43.9563 13.7267 43.5493 12.6782 43.5493C12.1326 43.5493 11.5838 43.6597 11.069 43.887C10.1043 44.3133 9.03077 44.3377 8.04698 43.9563C7.06319 43.5752 6.28693 42.8339 5.86096 41.8689C5.43486 40.9038 5.41014 39.8306 5.79135 38.8469C6.17256 37.8633 6.91377 37.0869 7.87905 36.6608C10.0531 35.7009 12.4422 35.4142 14.7888 35.8326C17.1948 36.2613 19.3822 37.4035 21.1146 39.136C22.847 40.8683 23.9893 43.0559 24.4181 45.4622C24.8361 47.8082 24.5496 50.1973 23.5896 52.3717Z" fill="#808082"/>
<path d="M26.344 45.1188C25.8449 42.3163 24.5149 39.7691 22.4981 37.7522C20.4811 35.7351 17.9339 34.4053 15.1319 33.9062C12.4009 33.4196 9.61975 33.7529 7.08873 34.8706C5.64545 35.5079 4.53674 36.669 3.96662 38.1399C3.39673 39.6109 3.43365 41.2159 4.0708 42.6589C4.70783 44.102 5.86869 45.2106 7.33987 45.7808C8.81081 46.3508 10.4158 46.314 11.8591 45.6769C12.6301 45.3363 13.5489 45.5085 14.1453 46.1051C14.7418 46.7014 14.9139 47.6203 14.5735 48.3912C13.5958 50.6058 14.0887 53.2433 15.7999 54.9545C16.3159 55.4704 16.9186 55.8826 17.5909 56.1795C18.3547 56.5166 19.1639 56.6858 19.9743 56.6858C20.6952 56.6858 21.4174 56.552 22.1097 56.2838C23.5808 55.7139 24.742 54.6052 25.3789 53.1619C26.4968 50.6305 26.8305 47.8493 26.344 45.1188ZM23.5896 52.3717C23.1636 53.3367 22.3872 54.0781 21.4036 54.4593C20.4197 54.8403 19.3466 54.8155 18.3814 54.3895C17.9312 54.1908 17.5282 53.9154 17.1838 53.571C16.0394 52.4268 15.7098 50.6627 16.3638 49.1815C17.0279 47.6773 16.6925 45.8849 15.5292 44.7214C14.7639 43.9563 13.7267 43.5493 12.6782 43.5493C12.1326 43.5493 11.5838 43.6597 11.069 43.887C10.1043 44.3133 9.03077 44.3377 8.04698 43.9563C7.06319 43.5752 6.28693 42.8339 5.86096 41.8689C5.43486 40.9038 5.41014 39.8306 5.79135 38.8469C6.17256 37.8633 6.91377 37.0869 7.87905 36.6608C10.0531 35.7009 12.4422 35.4142 14.7888 35.8326C17.1948 36.2613 19.3822 37.4035 21.1146 39.136C22.847 40.8683 23.9893 43.0559 24.4181 45.4622C24.8361 47.8082 24.5496 50.1973 23.5896 52.3717Z" fill="url(#paint4_linear_4001_3580)"/>
<path d="M26.344 45.1188C25.8449 42.3163 24.5149 39.7691 22.4981 37.7522C20.4811 35.7351 17.9339 34.4053 15.1319 33.9062C12.4009 33.4196 9.61975 33.7529 7.08873 34.8706C5.64545 35.5079 4.53674 36.669 3.96662 38.1399C3.39673 39.6109 3.43365 41.2159 4.0708 42.6589C4.70783 44.102 5.86869 45.2106 7.33987 45.7808C8.81081 46.3508 10.4158 46.314 11.8591 45.6769C12.6301 45.3363 13.5489 45.5085 14.1453 46.1051C14.7418 46.7014 14.9139 47.6203 14.5735 48.3912C13.5958 50.6058 14.0887 53.2433 15.7999 54.9545C16.3159 55.4704 16.9186 55.8826 17.5909 56.1795C18.3547 56.5166 19.1639 56.6858 19.9743 56.6858C20.6952 56.6858 21.4174 56.552 22.1097 56.2838C23.5808 55.7139 24.742 54.6052 25.3789 53.1619C26.4968 50.6305 26.8305 47.8493 26.344 45.1188ZM23.5896 52.3717C23.1636 53.3367 22.3872 54.0781 21.4036 54.4593C20.4197 54.8403 19.3466 54.8155 18.3814 54.3895C17.9312 54.1908 17.5282 53.9154 17.1838 53.571C16.0394 52.4268 15.7098 50.6627 16.3638 49.1815C17.0279 47.6773 16.6925 45.8849 15.5292 44.7214C14.7639 43.9563 13.7267 43.5493 12.6782 43.5493C12.1326 43.5493 11.5838 43.6597 11.069 43.887C10.1043 44.3133 9.03077 44.3377 8.04698 43.9563C7.06319 43.5752 6.28693 42.8339 5.86096 41.8689C5.43486 40.9038 5.41014 39.8306 5.79135 38.8469C6.17256 37.8633 6.91377 37.0869 7.87905 36.6608C10.0531 35.7009 12.4422 35.4142 14.7888 35.8326C17.1948 36.2613 19.3822 37.4035 21.1146 39.136C22.847 40.8683 23.9893 43.0559 24.4181 45.4622C24.8361 47.8082 24.5496 50.1973 23.5896 52.3717Z" fill="url(#paint5_linear_4001_3580)"/>
<path d="M10.7223 49.5279C8.32987 47.1357 4.43654 47.1357 2.0445 49.5279C-0.347883 51.9204 -0.347883 55.8134 2.0445 58.2059C3.24064 59.402 4.81201 60.0001 6.38338 60.0001C7.95475 60.0001 9.52624 59.402 10.7225 58.2059C13.1148 55.8133 13.1148 51.9203 10.7223 49.5279ZM9.33885 56.8222C7.70901 58.4516 5.0574 58.4517 3.42802 56.8224C1.79841 55.1926 1.79841 52.5411 3.42802 50.9114C5.05764 49.2819 7.70924 49.2817 9.33885 50.9114C10.9682 52.5413 10.9682 55.1926 9.33885 56.8222Z" fill="#808082"/>
<path d="M10.7223 49.5279C8.32987 47.1357 4.43654 47.1357 2.0445 49.5279C-0.347883 51.9204 -0.347883 55.8134 2.0445 58.2059C3.24064 59.402 4.81201 60.0001 6.38338 60.0001C7.95475 60.0001 9.52624 59.402 10.7225 58.2059C13.1148 55.8133 13.1148 51.9203 10.7223 49.5279ZM9.33885 56.8222C7.70901 58.4516 5.0574 58.4517 3.42802 56.8224C1.79841 55.1926 1.79841 52.5411 3.42802 50.9114C5.05764 49.2819 7.70924 49.2817 9.33885 50.9114C10.9682 52.5413 10.9682 55.1926 9.33885 56.8222Z" fill="url(#paint6_linear_4001_3580)"/>
<path d="M10.7223 49.5279C8.32987 47.1357 4.43654 47.1357 2.0445 49.5279C-0.347883 51.9204 -0.347883 55.8134 2.0445 58.2059C3.24064 59.402 4.81201 60.0001 6.38338 60.0001C7.95475 60.0001 9.52624 59.402 10.7225 58.2059C13.1148 55.8133 13.1148 51.9203 10.7223 49.5279ZM9.33885 56.8222C7.70901 58.4516 5.0574 58.4517 3.42802 56.8224C1.79841 55.1926 1.79841 52.5411 3.42802 50.9114C5.05764 49.2819 7.70924 49.2817 9.33885 50.9114C10.9682 52.5413 10.9682 55.1926 9.33885 56.8222Z" fill="url(#paint7_linear_4001_3580)"/>
</g>
<defs>
<linearGradient id="paint0_linear_4001_3580" x1="30.2501" y1="0" x2="30.2501" y2="60.0001" gradientUnits="userSpaceOnUse">
<stop stop-color="#E32323"/>
<stop offset="1" stop-color="#C71616"/>
</linearGradient>
<linearGradient id="paint1_linear_4001_3580" x1="30.2501" y1="0" x2="30.2501" y2="60.0001" gradientUnits="userSpaceOnUse">
<stop stop-color="#6D9BBA"/>
<stop offset="1" stop-color="#273048"/>
</linearGradient>
<linearGradient id="paint2_linear_4001_3580" x1="30.2501" y1="0" x2="30.2501" y2="60.0001" gradientUnits="userSpaceOnUse">
<stop stop-color="#E32323"/>
<stop offset="1" stop-color="#C71616"/>
</linearGradient>
<linearGradient id="paint3_linear_4001_3580" x1="30.2501" y1="0" x2="30.2501" y2="60.0001" gradientUnits="userSpaceOnUse">
<stop stop-color="#6D9BBA"/>
<stop offset="1" stop-color="#273048"/>
</linearGradient>
<linearGradient id="paint4_linear_4001_3580" x1="30.2501" y1="0" x2="30.2501" y2="60.0001" gradientUnits="userSpaceOnUse">
<stop stop-color="#E32323"/>
<stop offset="1" stop-color="#C71616"/>
</linearGradient>
<linearGradient id="paint5_linear_4001_3580" x1="30.2501" y1="0" x2="30.2501" y2="60.0001" gradientUnits="userSpaceOnUse">
<stop stop-color="#6D9BBA"/>
<stop offset="1" stop-color="#273048"/>
</linearGradient>
<linearGradient id="paint6_linear_4001_3580" x1="30.2501" y1="0" x2="30.2501" y2="60.0001" gradientUnits="userSpaceOnUse">
<stop stop-color="#E32323"/>
<stop offset="1" stop-color="#C71616"/>
</linearGradient>
<linearGradient id="paint7_linear_4001_3580" x1="30.2501" y1="0" x2="30.2501" y2="60.0001" gradientUnits="userSpaceOnUse">
<stop stop-color="#6D9BBA"/>
<stop offset="1" stop-color="#273048"/>
</linearGradient>
<clipPath id="clip0_4001_3580">
<rect width="60" height="60" fill="white" transform="translate(0.25)"/>
</clipPath>
</defs>
</svg>
