<svg width="60" height="60" viewBox="0 0 60 60" fill="none" xmlns="http://www.w3.org/2000/svg">
<path d="M3.1828 37.8804C3.63585 37.8804 4.00311 37.5131 4.00311 37.0601V15.0154H14.4581C15.4679 15.9335 16.681 16.6568 17.7989 17.3215C17.9994 17.4408 18.197 17.5582 18.3896 17.6747L19.3944 18.2822C19.5249 18.3611 19.6718 18.4005 19.8189 18.4005C19.9659 18.4005 20.1128 18.3611 20.2432 18.2822L21.2481 17.6747C21.4408 17.5582 21.6384 17.4407 21.8389 17.3214C22.9568 16.6568 24.1698 15.9335 25.1796 15.0154H28.2362C28.6892 15.0154 29.0565 14.6481 29.0565 14.195C29.0565 13.742 28.6892 13.3747 28.2362 13.3747H26.5649C26.5771 13.3548 26.5905 13.3359 26.6024 13.3159C27.1526 12.3896 27.4315 11.3674 27.4315 10.2777V4.0125C27.4315 3.63762 27.1773 3.31043 26.814 3.21773L25.352 2.84449C23.6765 2.41699 22.3072 1.87547 21.2818 1.23539L20.2533 0.593203C19.9874 0.427266 19.6502 0.427266 19.3843 0.593203L18.3558 1.23539C17.3305 1.87559 15.9612 2.41699 14.2856 2.84449L12.8237 3.21773C12.4604 3.31043 12.2062 3.63762 12.2062 4.0125V10.2777C12.2062 11.3674 12.4851 12.3895 13.0353 13.3159C13.0473 13.3359 13.0608 13.3548 13.0728 13.3747H3.1828C2.72975 13.3747 2.36249 13.742 2.36249 14.195V37.0601C2.36249 37.5131 2.72975 37.8804 3.1828 37.8804ZM13.8469 4.64977L14.6913 4.43414C16.5307 3.9648 18.0559 3.35684 19.2247 2.62699L19.8189 2.25598L20.413 2.62699C21.5818 3.35684 23.107 3.9648 24.9463 4.43414L25.7908 4.64977V10.2777C25.7908 11.0685 25.5893 11.8088 25.1918 12.4781C24.3278 13.9329 22.5601 14.9839 21.0006 15.9111C20.7964 16.0324 20.5953 16.1521 20.3994 16.2705L19.8189 16.6214L19.2384 16.2705C19.0424 16.152 18.8414 16.0325 18.6374 15.9112C17.0777 14.9839 15.3101 13.9329 14.4459 12.4781C14.0484 11.8088 13.8469 11.0685 13.8469 10.2777V4.64977ZM42.2183 51.2201C42.4783 51.9103 42.6102 52.6355 42.6102 53.3759C42.6102 56.77 39.8489 59.5311 36.4549 59.5311H32.5336C32.0805 59.5311 31.7133 59.1639 31.7133 58.7108C31.7133 58.2578 32.0805 57.8905 32.5336 57.8905H36.4549C38.9443 57.8905 40.9696 55.8653 40.9696 53.3759C40.9696 53.0209 40.9282 52.6707 40.8463 52.3296H14.5836C14.6432 52.6736 14.6732 53.0229 14.6732 53.3759C14.6732 55.1578 13.9118 56.7655 12.6976 57.8905H29.3256C29.7786 57.8905 30.1459 58.2578 30.1459 58.7108C30.1459 59.1639 29.7786 59.5311 29.3256 59.5311H8.51776C5.12378 59.5311 2.3626 56.7698 2.3626 53.3759V40.2681C2.3626 39.815 2.72987 39.4478 3.18292 39.4478C3.63596 39.4478 4.00323 39.815 4.00323 40.2681V53.3759C4.00323 55.8653 6.02846 57.8905 8.51788 57.8905C11.0073 57.8905 13.0325 55.8653 13.0325 53.3759C13.0325 52.8339 12.9362 52.3031 12.7461 51.7985C12.6512 51.5466 12.686 51.264 12.8392 51.0427C12.9923 50.8213 13.2444 50.689 13.5137 50.689H35.6347V36.7318C35.6347 36.2788 36.002 35.9115 36.455 35.9115C36.9081 35.9115 37.2753 36.2788 37.2753 36.7318V50.689H41.4508C41.7923 50.689 42.098 50.9006 42.2183 51.2201ZM55.7536 17.6666C57.0211 16.7664 57.6374 15.6309 57.6374 14.1952C57.6374 12.7594 57.0212 11.6241 55.7536 10.7236C54.9432 10.1481 54.5736 9.25582 54.7398 8.27555C54.9991 6.7425 54.6319 5.50383 53.6169 4.48898C52.6015 3.47379 51.3629 3.10652 49.8303 3.36633C48.8501 3.53238 47.958 3.16289 47.3824 2.35242C46.4822 1.08504 45.3466 0.46875 43.911 0.46875C42.4753 0.46875 41.3396 1.08492 40.4394 2.35242C39.8637 3.16301 38.9713 3.53227 37.9914 3.36633C36.4584 3.10676 35.2198 3.47414 34.2048 4.48922C33.1895 5.50453 32.8222 6.74309 33.082 8.27578C33.2481 9.2557 32.8786 10.148 32.068 10.7236C30.8005 11.6241 30.1843 12.7595 30.1843 14.1952C30.1843 15.6308 30.8005 16.7664 32.0681 17.6666C32.8785 18.2421 33.2481 19.1344 33.082 20.1146C32.8226 21.6477 33.1898 22.8862 34.2049 23.9012C34.5421 24.2384 34.9044 24.5025 35.2935 24.6975L31.7168 32.275C31.591 32.5414 31.6178 32.8549 31.7871 33.0962C31.9564 33.3375 32.2421 33.4686 32.5353 33.4418L36.1004 33.1068L38.3883 35.8617C38.5457 36.0512 38.7778 36.158 39.0193 36.158C39.0668 36.158 39.1145 36.1539 39.1622 36.1454C39.4523 36.0941 39.6927 35.8911 39.7918 35.6136L42.6092 27.7257C43.0133 27.8561 43.4461 27.9217 43.9108 27.9217C44.3915 27.9217 44.8379 27.8509 45.2537 27.7114L48.0687 35.5923C48.1678 35.8698 48.4081 36.0729 48.6983 36.1241C48.746 36.1325 48.7937 36.1366 48.8412 36.1366C49.0826 36.1366 49.3148 36.0299 49.4722 35.8404L51.7599 33.0855L55.3251 33.4206C55.6186 33.4491 55.9042 33.3163 56.0735 33.0751C56.2427 32.8337 56.2696 32.5204 56.1438 32.2537L52.5681 24.6782C52.9421 24.4852 53.2912 24.227 53.617 23.9012C54.6325 22.8858 54.9996 21.6472 54.7397 20.1146C54.5736 19.1346 54.9432 18.2422 55.7536 17.6666ZM38.7309 33.7063L37.0858 31.7255C36.9126 31.5169 36.6474 31.4077 36.378 31.4328L33.8146 31.6738L36.9169 25.1011C37.2581 25.113 37.6158 25.0876 37.9914 25.0239C38.9709 24.8577 39.8635 25.2272 40.4392 26.0377C40.6673 26.359 40.9108 26.6381 41.1704 26.8762L38.7309 33.7063ZM54.0458 31.6525L51.4824 31.4115C51.213 31.3863 50.9477 31.4957 50.7745 31.7041L49.1294 33.685L46.6857 26.8436C46.9322 26.6126 47.1642 26.3447 47.3822 26.0378C47.9579 25.2274 48.8502 24.858 49.8302 25.0239C50.2233 25.0904 50.5967 25.1152 50.9524 25.099L54.0458 31.6525ZM54.8035 16.329C53.4793 17.2696 52.8507 18.7871 53.122 20.3886C53.2935 21.3998 53.0946 22.1033 52.4567 22.7411C51.8191 23.3786 51.1158 23.5777 50.1041 23.4064C48.5026 23.1349 46.9851 23.7638 46.0446 25.088C45.4507 25.9242 44.8125 26.2811 43.9107 26.2811C43.009 26.2811 42.3707 25.9242 41.7767 25.0879C40.9806 23.9668 39.7708 23.3443 38.4467 23.3443C38.2067 23.3443 37.963 23.3648 37.7173 23.4064C36.7062 23.5778 36.0026 23.3789 35.3648 22.7411C34.7273 22.1037 34.5282 21.4001 34.6994 20.3885C34.9707 18.7871 34.3421 17.2696 33.0179 16.329C32.1815 15.7351 31.8248 15.0969 31.8248 14.1952C31.8248 13.2934 32.1817 12.6552 33.0179 12.0612C34.3423 11.1206 34.9708 9.60293 34.6994 8.00156C34.528 6.99047 34.727 6.28688 35.3647 5.64914C36.0021 5.01164 36.7057 4.81219 37.7173 4.98375C39.3185 5.25516 40.8362 4.62656 41.7767 3.30223C42.3707 2.46598 43.0089 2.10914 43.9107 2.10914C44.8126 2.10914 45.4507 2.46598 46.0446 3.30223C46.9853 4.62668 48.5028 5.25539 50.1042 4.98375C51.1157 4.81207 51.8189 5.01129 52.4566 5.64914C53.0941 6.28652 53.2931 6.99012 53.122 8.00168C52.8507 9.60305 53.4792 11.1206 54.8034 12.0612C55.6398 12.6552 55.9966 13.2934 55.9966 14.1952C55.9966 15.0969 55.6398 15.7351 54.8035 16.329ZM31.83 46.2362C31.83 46.6893 31.4627 47.0565 31.0097 47.0565H8.62792C8.17487 47.0565 7.8076 46.6893 7.8076 46.2362C7.8076 45.7832 8.17487 45.4159 8.62792 45.4159H31.0099C31.463 45.4159 31.83 45.7832 31.83 46.2362ZM31.83 41.143C31.83 41.5961 31.4627 41.9633 31.0097 41.9633H8.62792C8.17487 41.9633 7.8076 41.5961 7.8076 41.143C7.8076 40.69 8.17487 40.3227 8.62792 40.3227H31.0099C31.463 40.3227 31.83 40.69 31.83 41.143ZM7.8076 20.7702C7.8076 20.3171 8.17487 19.9499 8.62792 19.9499H16.206C16.659 19.9499 17.0263 20.3171 17.0263 20.7702C17.0263 21.2232 16.659 21.5905 16.206 21.5905H8.62792C8.17487 21.5905 7.8076 21.2232 7.8076 20.7702ZM7.8076 36.0498C7.8076 35.5968 8.17487 35.2295 8.62792 35.2295H28.8173C29.2704 35.2295 29.6376 35.5968 29.6376 36.0498C29.6376 36.5029 29.2704 36.8701 28.8173 36.8701H8.62792C8.17487 36.8701 7.8076 36.5029 7.8076 36.0498ZM31.8302 25.8634C31.8302 26.3164 31.463 26.6837 31.0099 26.6837H8.62792C8.17487 26.6837 7.8076 26.3164 7.8076 25.8634C7.8076 25.4104 8.17487 25.0431 8.62792 25.0431H31.0099C31.463 25.0431 31.8302 25.4104 31.8302 25.8634ZM7.8076 30.9566C7.8076 30.5036 8.17487 30.1363 8.62792 30.1363H28.8523C29.3053 30.1363 29.6726 30.5036 29.6726 30.9566C29.6726 31.4096 29.3053 31.7769 28.8523 31.7769H8.62792C8.17487 31.7769 7.8076 31.4096 7.8076 30.9566ZM16.1623 9.44297C15.9357 9.05051 16.0701 8.54895 16.4625 8.32242C16.8549 8.09613 17.3565 8.23055 17.583 8.62266L18.5484 10.2949L22.1852 6.65824C22.5055 6.33785 23.025 6.33785 23.3453 6.65824C23.6655 6.97852 23.6655 7.49789 23.3453 7.81816L18.9526 12.2108C18.7978 12.3656 18.5887 12.4512 18.3726 12.4512C18.337 12.4512 18.3013 12.4488 18.2655 12.4441C18.0126 12.4109 17.7896 12.2618 17.6623 12.041L16.1623 9.44297ZM51.6387 14.1952C51.6387 15.6282 51.2432 17.0278 50.4951 18.2426C50.2576 18.6282 49.7523 18.7485 49.3665 18.5108C48.9807 18.2733 48.8606 17.768 49.0982 17.3822C49.6869 16.4263 49.998 15.3241 49.998 14.1952C49.998 10.8387 47.2674 8.10809 43.911 8.10809C40.5545 8.10809 37.8239 10.8388 37.8239 14.1952C37.8239 17.5515 40.5546 20.2821 43.911 20.2821C45.0402 20.2821 46.1422 19.971 47.098 19.3822C47.4838 19.1446 47.9891 19.2647 48.2266 19.6505C48.4642 20.0362 48.3441 20.5416 47.9584 20.7791C46.7437 21.5272 45.3442 21.9227 43.911 21.9227C39.6499 21.9227 36.1833 18.4561 36.1833 14.1952C36.1833 9.93422 39.6499 6.46746 43.911 6.46746C48.172 6.46746 51.6387 9.9341 51.6387 14.1952Z" fill="#808082"/>
<path d="M3.1828 37.8804C3.63585 37.8804 4.00311 37.5131 4.00311 37.0601V15.0154H14.4581C15.4679 15.9335 16.681 16.6568 17.7989 17.3215C17.9994 17.4408 18.197 17.5582 18.3896 17.6747L19.3944 18.2822C19.5249 18.3611 19.6718 18.4005 19.8189 18.4005C19.9659 18.4005 20.1128 18.3611 20.2432 18.2822L21.2481 17.6747C21.4408 17.5582 21.6384 17.4407 21.8389 17.3214C22.9568 16.6568 24.1698 15.9335 25.1796 15.0154H28.2362C28.6892 15.0154 29.0565 14.6481 29.0565 14.195C29.0565 13.742 28.6892 13.3747 28.2362 13.3747H26.5649C26.5771 13.3548 26.5905 13.3359 26.6024 13.3159C27.1526 12.3896 27.4315 11.3674 27.4315 10.2777V4.0125C27.4315 3.63762 27.1773 3.31043 26.814 3.21773L25.352 2.84449C23.6765 2.41699 22.3072 1.87547 21.2818 1.23539L20.2533 0.593203C19.9874 0.427266 19.6502 0.427266 19.3843 0.593203L18.3558 1.23539C17.3305 1.87559 15.9612 2.41699 14.2856 2.84449L12.8237 3.21773C12.4604 3.31043 12.2062 3.63762 12.2062 4.0125V10.2777C12.2062 11.3674 12.4851 12.3895 13.0353 13.3159C13.0473 13.3359 13.0608 13.3548 13.0728 13.3747H3.1828C2.72975 13.3747 2.36249 13.742 2.36249 14.195V37.0601C2.36249 37.5131 2.72975 37.8804 3.1828 37.8804ZM13.8469 4.64977L14.6913 4.43414C16.5307 3.9648 18.0559 3.35684 19.2247 2.62699L19.8189 2.25598L20.413 2.62699C21.5818 3.35684 23.107 3.9648 24.9463 4.43414L25.7908 4.64977V10.2777C25.7908 11.0685 25.5893 11.8088 25.1918 12.4781C24.3278 13.9329 22.5601 14.9839 21.0006 15.9111C20.7964 16.0324 20.5953 16.1521 20.3994 16.2705L19.8189 16.6214L19.2384 16.2705C19.0424 16.152 18.8414 16.0325 18.6374 15.9112C17.0777 14.9839 15.3101 13.9329 14.4459 12.4781C14.0484 11.8088 13.8469 11.0685 13.8469 10.2777V4.64977ZM42.2183 51.2201C42.4783 51.9103 42.6102 52.6355 42.6102 53.3759C42.6102 56.77 39.8489 59.5311 36.4549 59.5311H32.5336C32.0805 59.5311 31.7133 59.1639 31.7133 58.7108C31.7133 58.2578 32.0805 57.8905 32.5336 57.8905H36.4549C38.9443 57.8905 40.9696 55.8653 40.9696 53.3759C40.9696 53.0209 40.9282 52.6707 40.8463 52.3296H14.5836C14.6432 52.6736 14.6732 53.0229 14.6732 53.3759C14.6732 55.1578 13.9118 56.7655 12.6976 57.8905H29.3256C29.7786 57.8905 30.1459 58.2578 30.1459 58.7108C30.1459 59.1639 29.7786 59.5311 29.3256 59.5311H8.51776C5.12378 59.5311 2.3626 56.7698 2.3626 53.3759V40.2681C2.3626 39.815 2.72987 39.4478 3.18292 39.4478C3.63596 39.4478 4.00323 39.815 4.00323 40.2681V53.3759C4.00323 55.8653 6.02846 57.8905 8.51788 57.8905C11.0073 57.8905 13.0325 55.8653 13.0325 53.3759C13.0325 52.8339 12.9362 52.3031 12.7461 51.7985C12.6512 51.5466 12.686 51.264 12.8392 51.0427C12.9923 50.8213 13.2444 50.689 13.5137 50.689H35.6347V36.7318C35.6347 36.2788 36.002 35.9115 36.455 35.9115C36.9081 35.9115 37.2753 36.2788 37.2753 36.7318V50.689H41.4508C41.7923 50.689 42.098 50.9006 42.2183 51.2201ZM55.7536 17.6666C57.0211 16.7664 57.6374 15.6309 57.6374 14.1952C57.6374 12.7594 57.0212 11.6241 55.7536 10.7236C54.9432 10.1481 54.5736 9.25582 54.7398 8.27555C54.9991 6.7425 54.6319 5.50383 53.6169 4.48898C52.6015 3.47379 51.3629 3.10652 49.8303 3.36633C48.8501 3.53238 47.958 3.16289 47.3824 2.35242C46.4822 1.08504 45.3466 0.46875 43.911 0.46875C42.4753 0.46875 41.3396 1.08492 40.4394 2.35242C39.8637 3.16301 38.9713 3.53227 37.9914 3.36633C36.4584 3.10676 35.2198 3.47414 34.2048 4.48922C33.1895 5.50453 32.8222 6.74309 33.082 8.27578C33.2481 9.2557 32.8786 10.148 32.068 10.7236C30.8005 11.6241 30.1843 12.7595 30.1843 14.1952C30.1843 15.6308 30.8005 16.7664 32.0681 17.6666C32.8785 18.2421 33.2481 19.1344 33.082 20.1146C32.8226 21.6477 33.1898 22.8862 34.2049 23.9012C34.5421 24.2384 34.9044 24.5025 35.2935 24.6975L31.7168 32.275C31.591 32.5414 31.6178 32.8549 31.7871 33.0962C31.9564 33.3375 32.2421 33.4686 32.5353 33.4418L36.1004 33.1068L38.3883 35.8617C38.5457 36.0512 38.7778 36.158 39.0193 36.158C39.0668 36.158 39.1145 36.1539 39.1622 36.1454C39.4523 36.0941 39.6927 35.8911 39.7918 35.6136L42.6092 27.7257C43.0133 27.8561 43.4461 27.9217 43.9108 27.9217C44.3915 27.9217 44.8379 27.8509 45.2537 27.7114L48.0687 35.5923C48.1678 35.8698 48.4081 36.0729 48.6983 36.1241C48.746 36.1325 48.7937 36.1366 48.8412 36.1366C49.0826 36.1366 49.3148 36.0299 49.4722 35.8404L51.7599 33.0855L55.3251 33.4206C55.6186 33.4491 55.9042 33.3163 56.0735 33.0751C56.2427 32.8337 56.2696 32.5204 56.1438 32.2537L52.5681 24.6782C52.9421 24.4852 53.2912 24.227 53.617 23.9012C54.6325 22.8858 54.9996 21.6472 54.7397 20.1146C54.5736 19.1346 54.9432 18.2422 55.7536 17.6666ZM38.7309 33.7063L37.0858 31.7255C36.9126 31.5169 36.6474 31.4077 36.378 31.4328L33.8146 31.6738L36.9169 25.1011C37.2581 25.113 37.6158 25.0876 37.9914 25.0239C38.9709 24.8577 39.8635 25.2272 40.4392 26.0377C40.6673 26.359 40.9108 26.6381 41.1704 26.8762L38.7309 33.7063ZM54.0458 31.6525L51.4824 31.4115C51.213 31.3863 50.9477 31.4957 50.7745 31.7041L49.1294 33.685L46.6857 26.8436C46.9322 26.6126 47.1642 26.3447 47.3822 26.0378C47.9579 25.2274 48.8502 24.858 49.8302 25.0239C50.2233 25.0904 50.5967 25.1152 50.9524 25.099L54.0458 31.6525ZM54.8035 16.329C53.4793 17.2696 52.8507 18.7871 53.122 20.3886C53.2935 21.3998 53.0946 22.1033 52.4567 22.7411C51.8191 23.3786 51.1158 23.5777 50.1041 23.4064C48.5026 23.1349 46.9851 23.7638 46.0446 25.088C45.4507 25.9242 44.8125 26.2811 43.9107 26.2811C43.009 26.2811 42.3707 25.9242 41.7767 25.0879C40.9806 23.9668 39.7708 23.3443 38.4467 23.3443C38.2067 23.3443 37.963 23.3648 37.7173 23.4064C36.7062 23.5778 36.0026 23.3789 35.3648 22.7411C34.7273 22.1037 34.5282 21.4001 34.6994 20.3885C34.9707 18.7871 34.3421 17.2696 33.0179 16.329C32.1815 15.7351 31.8248 15.0969 31.8248 14.1952C31.8248 13.2934 32.1817 12.6552 33.0179 12.0612C34.3423 11.1206 34.9708 9.60293 34.6994 8.00156C34.528 6.99047 34.727 6.28688 35.3647 5.64914C36.0021 5.01164 36.7057 4.81219 37.7173 4.98375C39.3185 5.25516 40.8362 4.62656 41.7767 3.30223C42.3707 2.46598 43.0089 2.10914 43.9107 2.10914C44.8126 2.10914 45.4507 2.46598 46.0446 3.30223C46.9853 4.62668 48.5028 5.25539 50.1042 4.98375C51.1157 4.81207 51.8189 5.01129 52.4566 5.64914C53.0941 6.28652 53.2931 6.99012 53.122 8.00168C52.8507 9.60305 53.4792 11.1206 54.8034 12.0612C55.6398 12.6552 55.9966 13.2934 55.9966 14.1952C55.9966 15.0969 55.6398 15.7351 54.8035 16.329ZM31.83 46.2362C31.83 46.6893 31.4627 47.0565 31.0097 47.0565H8.62792C8.17487 47.0565 7.8076 46.6893 7.8076 46.2362C7.8076 45.7832 8.17487 45.4159 8.62792 45.4159H31.0099C31.463 45.4159 31.83 45.7832 31.83 46.2362ZM31.83 41.143C31.83 41.5961 31.4627 41.9633 31.0097 41.9633H8.62792C8.17487 41.9633 7.8076 41.5961 7.8076 41.143C7.8076 40.69 8.17487 40.3227 8.62792 40.3227H31.0099C31.463 40.3227 31.83 40.69 31.83 41.143ZM7.8076 20.7702C7.8076 20.3171 8.17487 19.9499 8.62792 19.9499H16.206C16.659 19.9499 17.0263 20.3171 17.0263 20.7702C17.0263 21.2232 16.659 21.5905 16.206 21.5905H8.62792C8.17487 21.5905 7.8076 21.2232 7.8076 20.7702ZM7.8076 36.0498C7.8076 35.5968 8.17487 35.2295 8.62792 35.2295H28.8173C29.2704 35.2295 29.6376 35.5968 29.6376 36.0498C29.6376 36.5029 29.2704 36.8701 28.8173 36.8701H8.62792C8.17487 36.8701 7.8076 36.5029 7.8076 36.0498ZM31.8302 25.8634C31.8302 26.3164 31.463 26.6837 31.0099 26.6837H8.62792C8.17487 26.6837 7.8076 26.3164 7.8076 25.8634C7.8076 25.4104 8.17487 25.0431 8.62792 25.0431H31.0099C31.463 25.0431 31.8302 25.4104 31.8302 25.8634ZM7.8076 30.9566C7.8076 30.5036 8.17487 30.1363 8.62792 30.1363H28.8523C29.3053 30.1363 29.6726 30.5036 29.6726 30.9566C29.6726 31.4096 29.3053 31.7769 28.8523 31.7769H8.62792C8.17487 31.7769 7.8076 31.4096 7.8076 30.9566ZM16.1623 9.44297C15.9357 9.05051 16.0701 8.54895 16.4625 8.32242C16.8549 8.09613 17.3565 8.23055 17.583 8.62266L18.5484 10.2949L22.1852 6.65824C22.5055 6.33785 23.025 6.33785 23.3453 6.65824C23.6655 6.97852 23.6655 7.49789 23.3453 7.81816L18.9526 12.2108C18.7978 12.3656 18.5887 12.4512 18.3726 12.4512C18.337 12.4512 18.3013 12.4488 18.2655 12.4441C18.0126 12.4109 17.7896 12.2618 17.6623 12.041L16.1623 9.44297ZM51.6387 14.1952C51.6387 15.6282 51.2432 17.0278 50.4951 18.2426C50.2576 18.6282 49.7523 18.7485 49.3665 18.5108C48.9807 18.2733 48.8606 17.768 49.0982 17.3822C49.6869 16.4263 49.998 15.3241 49.998 14.1952C49.998 10.8387 47.2674 8.10809 43.911 8.10809C40.5545 8.10809 37.8239 10.8388 37.8239 14.1952C37.8239 17.5515 40.5546 20.2821 43.911 20.2821C45.0402 20.2821 46.1422 19.971 47.098 19.3822C47.4838 19.1446 47.9891 19.2647 48.2266 19.6505C48.4642 20.0362 48.3441 20.5416 47.9584 20.7791C46.7437 21.5272 45.3442 21.9227 43.911 21.9227C39.6499 21.9227 36.1833 18.4561 36.1833 14.1952C36.1833 9.93422 39.6499 6.46746 43.911 6.46746C48.172 6.46746 51.6387 9.9341 51.6387 14.1952Z" fill="url(#paint0_linear_4001_4032)"/>
<path d="M3.1828 37.8804C3.63585 37.8804 4.00311 37.5131 4.00311 37.0601V15.0154H14.4581C15.4679 15.9335 16.681 16.6568 17.7989 17.3215C17.9994 17.4408 18.197 17.5582 18.3896 17.6747L19.3944 18.2822C19.5249 18.3611 19.6718 18.4005 19.8189 18.4005C19.9659 18.4005 20.1128 18.3611 20.2432 18.2822L21.2481 17.6747C21.4408 17.5582 21.6384 17.4407 21.8389 17.3214C22.9568 16.6568 24.1698 15.9335 25.1796 15.0154H28.2362C28.6892 15.0154 29.0565 14.6481 29.0565 14.195C29.0565 13.742 28.6892 13.3747 28.2362 13.3747H26.5649C26.5771 13.3548 26.5905 13.3359 26.6024 13.3159C27.1526 12.3896 27.4315 11.3674 27.4315 10.2777V4.0125C27.4315 3.63762 27.1773 3.31043 26.814 3.21773L25.352 2.84449C23.6765 2.41699 22.3072 1.87547 21.2818 1.23539L20.2533 0.593203C19.9874 0.427266 19.6502 0.427266 19.3843 0.593203L18.3558 1.23539C17.3305 1.87559 15.9612 2.41699 14.2856 2.84449L12.8237 3.21773C12.4604 3.31043 12.2062 3.63762 12.2062 4.0125V10.2777C12.2062 11.3674 12.4851 12.3895 13.0353 13.3159C13.0473 13.3359 13.0608 13.3548 13.0728 13.3747H3.1828C2.72975 13.3747 2.36249 13.742 2.36249 14.195V37.0601C2.36249 37.5131 2.72975 37.8804 3.1828 37.8804ZM13.8469 4.64977L14.6913 4.43414C16.5307 3.9648 18.0559 3.35684 19.2247 2.62699L19.8189 2.25598L20.413 2.62699C21.5818 3.35684 23.107 3.9648 24.9463 4.43414L25.7908 4.64977V10.2777C25.7908 11.0685 25.5893 11.8088 25.1918 12.4781C24.3278 13.9329 22.5601 14.9839 21.0006 15.9111C20.7964 16.0324 20.5953 16.1521 20.3994 16.2705L19.8189 16.6214L19.2384 16.2705C19.0424 16.152 18.8414 16.0325 18.6374 15.9112C17.0777 14.9839 15.3101 13.9329 14.4459 12.4781C14.0484 11.8088 13.8469 11.0685 13.8469 10.2777V4.64977ZM42.2183 51.2201C42.4783 51.9103 42.6102 52.6355 42.6102 53.3759C42.6102 56.77 39.8489 59.5311 36.4549 59.5311H32.5336C32.0805 59.5311 31.7133 59.1639 31.7133 58.7108C31.7133 58.2578 32.0805 57.8905 32.5336 57.8905H36.4549C38.9443 57.8905 40.9696 55.8653 40.9696 53.3759C40.9696 53.0209 40.9282 52.6707 40.8463 52.3296H14.5836C14.6432 52.6736 14.6732 53.0229 14.6732 53.3759C14.6732 55.1578 13.9118 56.7655 12.6976 57.8905H29.3256C29.7786 57.8905 30.1459 58.2578 30.1459 58.7108C30.1459 59.1639 29.7786 59.5311 29.3256 59.5311H8.51776C5.12378 59.5311 2.3626 56.7698 2.3626 53.3759V40.2681C2.3626 39.815 2.72987 39.4478 3.18292 39.4478C3.63596 39.4478 4.00323 39.815 4.00323 40.2681V53.3759C4.00323 55.8653 6.02846 57.8905 8.51788 57.8905C11.0073 57.8905 13.0325 55.8653 13.0325 53.3759C13.0325 52.8339 12.9362 52.3031 12.7461 51.7985C12.6512 51.5466 12.686 51.264 12.8392 51.0427C12.9923 50.8213 13.2444 50.689 13.5137 50.689H35.6347V36.7318C35.6347 36.2788 36.002 35.9115 36.455 35.9115C36.9081 35.9115 37.2753 36.2788 37.2753 36.7318V50.689H41.4508C41.7923 50.689 42.098 50.9006 42.2183 51.2201ZM55.7536 17.6666C57.0211 16.7664 57.6374 15.6309 57.6374 14.1952C57.6374 12.7594 57.0212 11.6241 55.7536 10.7236C54.9432 10.1481 54.5736 9.25582 54.7398 8.27555C54.9991 6.7425 54.6319 5.50383 53.6169 4.48898C52.6015 3.47379 51.3629 3.10652 49.8303 3.36633C48.8501 3.53238 47.958 3.16289 47.3824 2.35242C46.4822 1.08504 45.3466 0.46875 43.911 0.46875C42.4753 0.46875 41.3396 1.08492 40.4394 2.35242C39.8637 3.16301 38.9713 3.53227 37.9914 3.36633C36.4584 3.10676 35.2198 3.47414 34.2048 4.48922C33.1895 5.50453 32.8222 6.74309 33.082 8.27578C33.2481 9.2557 32.8786 10.148 32.068 10.7236C30.8005 11.6241 30.1843 12.7595 30.1843 14.1952C30.1843 15.6308 30.8005 16.7664 32.0681 17.6666C32.8785 18.2421 33.2481 19.1344 33.082 20.1146C32.8226 21.6477 33.1898 22.8862 34.2049 23.9012C34.5421 24.2384 34.9044 24.5025 35.2935 24.6975L31.7168 32.275C31.591 32.5414 31.6178 32.8549 31.7871 33.0962C31.9564 33.3375 32.2421 33.4686 32.5353 33.4418L36.1004 33.1068L38.3883 35.8617C38.5457 36.0512 38.7778 36.158 39.0193 36.158C39.0668 36.158 39.1145 36.1539 39.1622 36.1454C39.4523 36.0941 39.6927 35.8911 39.7918 35.6136L42.6092 27.7257C43.0133 27.8561 43.4461 27.9217 43.9108 27.9217C44.3915 27.9217 44.8379 27.8509 45.2537 27.7114L48.0687 35.5923C48.1678 35.8698 48.4081 36.0729 48.6983 36.1241C48.746 36.1325 48.7937 36.1366 48.8412 36.1366C49.0826 36.1366 49.3148 36.0299 49.4722 35.8404L51.7599 33.0855L55.3251 33.4206C55.6186 33.4491 55.9042 33.3163 56.0735 33.0751C56.2427 32.8337 56.2696 32.5204 56.1438 32.2537L52.5681 24.6782C52.9421 24.4852 53.2912 24.227 53.617 23.9012C54.6325 22.8858 54.9996 21.6472 54.7397 20.1146C54.5736 19.1346 54.9432 18.2422 55.7536 17.6666ZM38.7309 33.7063L37.0858 31.7255C36.9126 31.5169 36.6474 31.4077 36.378 31.4328L33.8146 31.6738L36.9169 25.1011C37.2581 25.113 37.6158 25.0876 37.9914 25.0239C38.9709 24.8577 39.8635 25.2272 40.4392 26.0377C40.6673 26.359 40.9108 26.6381 41.1704 26.8762L38.7309 33.7063ZM54.0458 31.6525L51.4824 31.4115C51.213 31.3863 50.9477 31.4957 50.7745 31.7041L49.1294 33.685L46.6857 26.8436C46.9322 26.6126 47.1642 26.3447 47.3822 26.0378C47.9579 25.2274 48.8502 24.858 49.8302 25.0239C50.2233 25.0904 50.5967 25.1152 50.9524 25.099L54.0458 31.6525ZM54.8035 16.329C53.4793 17.2696 52.8507 18.7871 53.122 20.3886C53.2935 21.3998 53.0946 22.1033 52.4567 22.7411C51.8191 23.3786 51.1158 23.5777 50.1041 23.4064C48.5026 23.1349 46.9851 23.7638 46.0446 25.088C45.4507 25.9242 44.8125 26.2811 43.9107 26.2811C43.009 26.2811 42.3707 25.9242 41.7767 25.0879C40.9806 23.9668 39.7708 23.3443 38.4467 23.3443C38.2067 23.3443 37.963 23.3648 37.7173 23.4064C36.7062 23.5778 36.0026 23.3789 35.3648 22.7411C34.7273 22.1037 34.5282 21.4001 34.6994 20.3885C34.9707 18.7871 34.3421 17.2696 33.0179 16.329C32.1815 15.7351 31.8248 15.0969 31.8248 14.1952C31.8248 13.2934 32.1817 12.6552 33.0179 12.0612C34.3423 11.1206 34.9708 9.60293 34.6994 8.00156C34.528 6.99047 34.727 6.28688 35.3647 5.64914C36.0021 5.01164 36.7057 4.81219 37.7173 4.98375C39.3185 5.25516 40.8362 4.62656 41.7767 3.30223C42.3707 2.46598 43.0089 2.10914 43.9107 2.10914C44.8126 2.10914 45.4507 2.46598 46.0446 3.30223C46.9853 4.62668 48.5028 5.25539 50.1042 4.98375C51.1157 4.81207 51.8189 5.01129 52.4566 5.64914C53.0941 6.28652 53.2931 6.99012 53.122 8.00168C52.8507 9.60305 53.4792 11.1206 54.8034 12.0612C55.6398 12.6552 55.9966 13.2934 55.9966 14.1952C55.9966 15.0969 55.6398 15.7351 54.8035 16.329ZM31.83 46.2362C31.83 46.6893 31.4627 47.0565 31.0097 47.0565H8.62792C8.17487 47.0565 7.8076 46.6893 7.8076 46.2362C7.8076 45.7832 8.17487 45.4159 8.62792 45.4159H31.0099C31.463 45.4159 31.83 45.7832 31.83 46.2362ZM31.83 41.143C31.83 41.5961 31.4627 41.9633 31.0097 41.9633H8.62792C8.17487 41.9633 7.8076 41.5961 7.8076 41.143C7.8076 40.69 8.17487 40.3227 8.62792 40.3227H31.0099C31.463 40.3227 31.83 40.69 31.83 41.143ZM7.8076 20.7702C7.8076 20.3171 8.17487 19.9499 8.62792 19.9499H16.206C16.659 19.9499 17.0263 20.3171 17.0263 20.7702C17.0263 21.2232 16.659 21.5905 16.206 21.5905H8.62792C8.17487 21.5905 7.8076 21.2232 7.8076 20.7702ZM7.8076 36.0498C7.8076 35.5968 8.17487 35.2295 8.62792 35.2295H28.8173C29.2704 35.2295 29.6376 35.5968 29.6376 36.0498C29.6376 36.5029 29.2704 36.8701 28.8173 36.8701H8.62792C8.17487 36.8701 7.8076 36.5029 7.8076 36.0498ZM31.8302 25.8634C31.8302 26.3164 31.463 26.6837 31.0099 26.6837H8.62792C8.17487 26.6837 7.8076 26.3164 7.8076 25.8634C7.8076 25.4104 8.17487 25.0431 8.62792 25.0431H31.0099C31.463 25.0431 31.8302 25.4104 31.8302 25.8634ZM7.8076 30.9566C7.8076 30.5036 8.17487 30.1363 8.62792 30.1363H28.8523C29.3053 30.1363 29.6726 30.5036 29.6726 30.9566C29.6726 31.4096 29.3053 31.7769 28.8523 31.7769H8.62792C8.17487 31.7769 7.8076 31.4096 7.8076 30.9566ZM16.1623 9.44297C15.9357 9.05051 16.0701 8.54895 16.4625 8.32242C16.8549 8.09613 17.3565 8.23055 17.583 8.62266L18.5484 10.2949L22.1852 6.65824C22.5055 6.33785 23.025 6.33785 23.3453 6.65824C23.6655 6.97852 23.6655 7.49789 23.3453 7.81816L18.9526 12.2108C18.7978 12.3656 18.5887 12.4512 18.3726 12.4512C18.337 12.4512 18.3013 12.4488 18.2655 12.4441C18.0126 12.4109 17.7896 12.2618 17.6623 12.041L16.1623 9.44297ZM51.6387 14.1952C51.6387 15.6282 51.2432 17.0278 50.4951 18.2426C50.2576 18.6282 49.7523 18.7485 49.3665 18.5108C48.9807 18.2733 48.8606 17.768 49.0982 17.3822C49.6869 16.4263 49.998 15.3241 49.998 14.1952C49.998 10.8387 47.2674 8.10809 43.911 8.10809C40.5545 8.10809 37.8239 10.8388 37.8239 14.1952C37.8239 17.5515 40.5546 20.2821 43.911 20.2821C45.0402 20.2821 46.1422 19.971 47.098 19.3822C47.4838 19.1446 47.9891 19.2647 48.2266 19.6505C48.4642 20.0362 48.3441 20.5416 47.9584 20.7791C46.7437 21.5272 45.3442 21.9227 43.911 21.9227C39.6499 21.9227 36.1833 18.4561 36.1833 14.1952C36.1833 9.93422 39.6499 6.46746 43.911 6.46746C48.172 6.46746 51.6387 9.9341 51.6387 14.1952Z" fill="url(#paint1_linear_4001_4032)"/>
<defs>
<linearGradient id="paint0_linear_4001_4032" x1="29.9999" y1="0.46875" x2="29.9999" y2="59.5311" gradientUnits="userSpaceOnUse">
<stop stop-color="#E32323"/>
<stop offset="1" stop-color="#C71616"/>
</linearGradient>
<linearGradient id="paint1_linear_4001_4032" x1="29.9999" y1="0.46875" x2="29.9999" y2="59.5311" gradientUnits="userSpaceOnUse">
<stop stop-color="#6D9BBA"/>
<stop offset="1" stop-color="#273048"/>
</linearGradient>
</defs>
</svg>
