<svg width="61" height="60" viewBox="0 0 61 60" fill="none" xmlns="http://www.w3.org/2000/svg">
<path d="M57 37.5H53.25C51.8891 37.5 50.5487 37.6675 49.2661 37.998C48.7644 38.1281 48.4627 38.6389 48.5923 39.1406C48.7218 39.6414 49.2322 39.9435 49.7339 39.8145C50.8641 39.5224 52.047 39.375 53.25 39.375H57C57.5168 39.375 57.9375 39.7952 57.9375 40.3125V44.0625C57.9375 50.4199 53.6547 56.0074 47.5229 57.6508C47.0226 57.7844 46.726 58.299 46.8601 58.7988C46.9722 59.2181 47.3508 59.4937 47.7651 59.4937C47.8452 59.4937 47.9271 59.4836 48.0081 59.4617C54.9584 57.5995 59.8125 51.2668 59.8125 44.0625V40.3125C59.8125 38.7616 58.5509 37.5 57 37.5Z" fill="#808082"/>
<path d="M57 37.5H53.25C51.8891 37.5 50.5487 37.6675 49.2661 37.998C48.7644 38.1281 48.4627 38.6389 48.5923 39.1406C48.7218 39.6414 49.2322 39.9435 49.7339 39.8145C50.8641 39.5224 52.047 39.375 53.25 39.375H57C57.5168 39.375 57.9375 39.7952 57.9375 40.3125V44.0625C57.9375 50.4199 53.6547 56.0074 47.5229 57.6508C47.0226 57.7844 46.726 58.299 46.8601 58.7988C46.9722 59.2181 47.3508 59.4937 47.7651 59.4937C47.8452 59.4937 47.9271 59.4836 48.0081 59.4617C54.9584 57.5995 59.8125 51.2668 59.8125 44.0625V40.3125C59.8125 38.7616 58.5509 37.5 57 37.5Z" fill="url(#paint0_linear_4001_2564)"/>
<path d="M57 37.5H53.25C51.8891 37.5 50.5487 37.6675 49.2661 37.998C48.7644 38.1281 48.4627 38.6389 48.5923 39.1406C48.7218 39.6414 49.2322 39.9435 49.7339 39.8145C50.8641 39.5224 52.047 39.375 53.25 39.375H57C57.5168 39.375 57.9375 39.7952 57.9375 40.3125V44.0625C57.9375 50.4199 53.6547 56.0074 47.5229 57.6508C47.0226 57.7844 46.726 58.299 46.8601 58.7988C46.9722 59.2181 47.3508 59.4937 47.7651 59.4937C47.8452 59.4937 47.9271 59.4836 48.0081 59.4617C54.9584 57.5995 59.8125 51.2668 59.8125 44.0625V40.3125C59.8125 38.7616 58.5509 37.5 57 37.5Z" fill="url(#paint1_linear_4001_2564)"/>
<path d="M12.3113 42.3715C7.07858 40.5286 3.5625 35.5563 3.5625 30V27.1875C3.5625 26.6702 3.98318 26.25 4.5 26.25H7.3125C8.81625 26.25 10.2875 26.5027 11.6846 27.0016C12.173 27.1774 12.7091 26.922 12.883 26.434C13.057 25.947 12.8029 25.4105 12.3154 25.2365C10.7151 24.6643 9.03186 24.375 7.3125 24.375H4.5C2.9491 24.375 1.6875 25.6366 1.6875 27.1875V30C1.6875 36.351 5.70667 42.0337 11.6887 44.1403C11.7917 44.176 11.8965 44.1934 12 44.1934C12.3868 44.1934 12.7484 43.9526 12.8844 43.5672C13.0561 43.0792 12.7997 42.5436 12.3113 42.3715Z" fill="#808082"/>
<path d="M12.3113 42.3715C7.07858 40.5286 3.5625 35.5563 3.5625 30V27.1875C3.5625 26.6702 3.98318 26.25 4.5 26.25H7.3125C8.81625 26.25 10.2875 26.5027 11.6846 27.0016C12.173 27.1774 12.7091 26.922 12.883 26.434C13.057 25.947 12.8029 25.4105 12.3154 25.2365C10.7151 24.6643 9.03186 24.375 7.3125 24.375H4.5C2.9491 24.375 1.6875 25.6366 1.6875 27.1875V30C1.6875 36.351 5.70667 42.0337 11.6887 44.1403C11.7917 44.176 11.8965 44.1934 12 44.1934C12.3868 44.1934 12.7484 43.9526 12.8844 43.5672C13.0561 43.0792 12.7997 42.5436 12.3113 42.3715Z" fill="url(#paint2_linear_4001_2564)"/>
<path d="M12.3113 42.3715C7.07858 40.5286 3.5625 35.5563 3.5625 30V27.1875C3.5625 26.6702 3.98318 26.25 4.5 26.25H7.3125C8.81625 26.25 10.2875 26.5027 11.6846 27.0016C12.173 27.1774 12.7091 26.922 12.883 26.434C13.057 25.947 12.8029 25.4105 12.3154 25.2365C10.7151 24.6643 9.03186 24.375 7.3125 24.375H4.5C2.9491 24.375 1.6875 25.6366 1.6875 27.1875V30C1.6875 36.351 5.70667 42.0337 11.6887 44.1403C11.7917 44.176 11.8965 44.1934 12 44.1934C12.3868 44.1934 12.7484 43.9526 12.8844 43.5672C13.0561 43.0792 12.7997 42.5436 12.3113 42.3715Z" fill="url(#paint3_linear_4001_2564)"/>
<path d="M47.625 51.0132L52.0378 46.6003C52.4041 46.2341 52.4041 45.6409 52.0378 45.2747C51.6716 44.9084 51.0784 44.9084 50.7122 45.2747L47.625 48.3618V28.819C47.625 28.3008 47.2052 27.8815 46.6875 27.8815C46.1698 27.8815 45.75 28.3008 45.75 28.819V53.4375C45.75 56.022 43.647 58.125 41.0625 58.125H20.4375C17.853 58.125 15.75 56.022 15.75 53.4375V14.0625C15.75 11.478 17.853 9.375 20.4375 9.375H41.0625C42.2257 9.375 43.3371 9.80164 44.1922 10.5762C44.5754 10.9232 45.1691 10.8948 45.5165 10.5112C45.864 10.1266 45.8347 9.5343 45.4511 9.1864C44.2508 8.09875 42.6921 7.5 41.0625 7.5H38.25V1.875C38.25 0.84137 37.4091 0 36.375 0H25.125C24.0909 0 23.25 0.84137 23.25 1.875V7.5H20.4375C16.8189 7.5 13.875 10.4443 13.875 14.0625V35.2368L8.91284 30.2747C8.54663 29.9084 7.95337 29.9084 7.58716 30.2747C7.22095 30.6409 7.22095 31.2341 7.58716 31.6003L10.6743 34.6875H9.1875C8.66977 34.6875 8.25 35.1068 8.25 35.625C8.25 36.1432 8.66977 36.5625 9.1875 36.5625H12.5493L13.875 37.8882V53.4375C13.875 57.0557 16.8189 60 20.4375 60H41.0625C44.6811 60 47.625 57.0557 47.625 53.4375V51.0132ZM25.125 1.875H36.375V7.5H25.125V1.875Z" fill="#808082"/>
<path d="M47.625 51.0132L52.0378 46.6003C52.4041 46.2341 52.4041 45.6409 52.0378 45.2747C51.6716 44.9084 51.0784 44.9084 50.7122 45.2747L47.625 48.3618V28.819C47.625 28.3008 47.2052 27.8815 46.6875 27.8815C46.1698 27.8815 45.75 28.3008 45.75 28.819V53.4375C45.75 56.022 43.647 58.125 41.0625 58.125H20.4375C17.853 58.125 15.75 56.022 15.75 53.4375V14.0625C15.75 11.478 17.853 9.375 20.4375 9.375H41.0625C42.2257 9.375 43.3371 9.80164 44.1922 10.5762C44.5754 10.9232 45.1691 10.8948 45.5165 10.5112C45.864 10.1266 45.8347 9.5343 45.4511 9.1864C44.2508 8.09875 42.6921 7.5 41.0625 7.5H38.25V1.875C38.25 0.84137 37.4091 0 36.375 0H25.125C24.0909 0 23.25 0.84137 23.25 1.875V7.5H20.4375C16.8189 7.5 13.875 10.4443 13.875 14.0625V35.2368L8.91284 30.2747C8.54663 29.9084 7.95337 29.9084 7.58716 30.2747C7.22095 30.6409 7.22095 31.2341 7.58716 31.6003L10.6743 34.6875H9.1875C8.66977 34.6875 8.25 35.1068 8.25 35.625C8.25 36.1432 8.66977 36.5625 9.1875 36.5625H12.5493L13.875 37.8882V53.4375C13.875 57.0557 16.8189 60 20.4375 60H41.0625C44.6811 60 47.625 57.0557 47.625 53.4375V51.0132ZM25.125 1.875H36.375V7.5H25.125V1.875Z" fill="url(#paint4_linear_4001_2564)"/>
<path d="M47.625 51.0132L52.0378 46.6003C52.4041 46.2341 52.4041 45.6409 52.0378 45.2747C51.6716 44.9084 51.0784 44.9084 50.7122 45.2747L47.625 48.3618V28.819C47.625 28.3008 47.2052 27.8815 46.6875 27.8815C46.1698 27.8815 45.75 28.3008 45.75 28.819V53.4375C45.75 56.022 43.647 58.125 41.0625 58.125H20.4375C17.853 58.125 15.75 56.022 15.75 53.4375V14.0625C15.75 11.478 17.853 9.375 20.4375 9.375H41.0625C42.2257 9.375 43.3371 9.80164 44.1922 10.5762C44.5754 10.9232 45.1691 10.8948 45.5165 10.5112C45.864 10.1266 45.8347 9.5343 45.4511 9.1864C44.2508 8.09875 42.6921 7.5 41.0625 7.5H38.25V1.875C38.25 0.84137 37.4091 0 36.375 0H25.125C24.0909 0 23.25 0.84137 23.25 1.875V7.5H20.4375C16.8189 7.5 13.875 10.4443 13.875 14.0625V35.2368L8.91284 30.2747C8.54663 29.9084 7.95337 29.9084 7.58716 30.2747C7.22095 30.6409 7.22095 31.2341 7.58716 31.6003L10.6743 34.6875H9.1875C8.66977 34.6875 8.25 35.1068 8.25 35.625C8.25 36.1432 8.66977 36.5625 9.1875 36.5625H12.5493L13.875 37.8882V53.4375C13.875 57.0557 16.8189 60 20.4375 60H41.0625C44.6811 60 47.625 57.0557 47.625 53.4375V51.0132ZM25.125 1.875H36.375V7.5H25.125V1.875Z" fill="url(#paint5_linear_4001_2564)"/>
<path d="M21.375 17.8125H36.1315C36.6492 17.8125 37.069 17.3932 37.069 16.875C37.069 16.3568 36.6492 15.9375 36.1315 15.9375H21.375C19.8241 15.9375 18.5625 17.1991 18.5625 18.75V52.5C18.5625 54.0509 19.8241 55.3125 21.375 55.3125H40.125C41.6759 55.3125 42.9375 54.0509 42.9375 52.5V29.9625C42.9375 29.4443 42.5177 29.025 42 29.025C41.4823 29.025 41.0625 29.4443 41.0625 29.9625V30.9375H20.4375V25.3125H34.5C35.0177 25.3125 35.4375 24.8932 35.4375 24.375C35.4375 23.8568 35.0177 23.4375 34.5 23.4375H20.4375V18.75C20.4375 18.2327 20.8582 17.8125 21.375 17.8125ZM41.0625 45.9375H20.4375V40.3125H41.0625V45.9375ZM41.0625 52.5C41.0625 53.0173 40.6418 53.4375 40.125 53.4375H21.375C20.8582 53.4375 20.4375 53.0173 20.4375 52.5V47.8125H41.0625V52.5ZM41.0625 32.8125V38.4375H20.4375V32.8125H41.0625Z" fill="#808082"/>
<path d="M21.375 17.8125H36.1315C36.6492 17.8125 37.069 17.3932 37.069 16.875C37.069 16.3568 36.6492 15.9375 36.1315 15.9375H21.375C19.8241 15.9375 18.5625 17.1991 18.5625 18.75V52.5C18.5625 54.0509 19.8241 55.3125 21.375 55.3125H40.125C41.6759 55.3125 42.9375 54.0509 42.9375 52.5V29.9625C42.9375 29.4443 42.5177 29.025 42 29.025C41.4823 29.025 41.0625 29.4443 41.0625 29.9625V30.9375H20.4375V25.3125H34.5C35.0177 25.3125 35.4375 24.8932 35.4375 24.375C35.4375 23.8568 35.0177 23.4375 34.5 23.4375H20.4375V18.75C20.4375 18.2327 20.8582 17.8125 21.375 17.8125ZM41.0625 45.9375H20.4375V40.3125H41.0625V45.9375ZM41.0625 52.5C41.0625 53.0173 40.6418 53.4375 40.125 53.4375H21.375C20.8582 53.4375 20.4375 53.0173 20.4375 52.5V47.8125H41.0625V52.5ZM41.0625 32.8125V38.4375H20.4375V32.8125H41.0625Z" fill="url(#paint6_linear_4001_2564)"/>
<path d="M21.375 17.8125H36.1315C36.6492 17.8125 37.069 17.3932 37.069 16.875C37.069 16.3568 36.6492 15.9375 36.1315 15.9375H21.375C19.8241 15.9375 18.5625 17.1991 18.5625 18.75V52.5C18.5625 54.0509 19.8241 55.3125 21.375 55.3125H40.125C41.6759 55.3125 42.9375 54.0509 42.9375 52.5V29.9625C42.9375 29.4443 42.5177 29.025 42 29.025C41.4823 29.025 41.0625 29.4443 41.0625 29.9625V30.9375H20.4375V25.3125H34.5C35.0177 25.3125 35.4375 24.8932 35.4375 24.375C35.4375 23.8568 35.0177 23.4375 34.5 23.4375H20.4375V18.75C20.4375 18.2327 20.8582 17.8125 21.375 17.8125ZM41.0625 45.9375H20.4375V40.3125H41.0625V45.9375ZM41.0625 52.5C41.0625 53.0173 40.6418 53.4375 40.125 53.4375H21.375C20.8582 53.4375 20.4375 53.0173 20.4375 52.5V47.8125H41.0625V52.5ZM41.0625 32.8125V38.4375H20.4375V32.8125H41.0625Z" fill="url(#paint7_linear_4001_2564)"/>
<path d="M36.375 23.4375V25.3125C36.375 26.8634 37.6366 28.125 39.1875 28.125H41.0625C47.7829 28.125 53.25 22.6575 53.25 15.9375V14.0625C53.25 12.5116 51.9884 11.25 50.4375 11.25H48.5625C41.8421 11.25 36.375 16.7175 36.375 23.4375ZM48.5625 13.125H50.4375C50.9543 13.125 51.375 13.5452 51.375 14.0625V15.9375C51.375 21.6238 46.7488 26.25 41.0625 26.25H39.5757L42.3882 23.4375H44.8125C45.3302 23.4375 45.75 23.0182 45.75 22.5C45.75 21.9818 45.3302 21.5625 44.8125 21.5625H44.2632L46.4128 19.4128C46.7791 19.0466 46.7791 18.4534 46.4128 18.0872C46.0466 17.7209 45.4534 17.7209 45.0872 18.0872L38.25 24.9243V23.4375C38.25 17.7512 42.8762 13.125 48.5625 13.125Z" fill="#808082"/>
<path d="M36.375 23.4375V25.3125C36.375 26.8634 37.6366 28.125 39.1875 28.125H41.0625C47.7829 28.125 53.25 22.6575 53.25 15.9375V14.0625C53.25 12.5116 51.9884 11.25 50.4375 11.25H48.5625C41.8421 11.25 36.375 16.7175 36.375 23.4375ZM48.5625 13.125H50.4375C50.9543 13.125 51.375 13.5452 51.375 14.0625V15.9375C51.375 21.6238 46.7488 26.25 41.0625 26.25H39.5757L42.3882 23.4375H44.8125C45.3302 23.4375 45.75 23.0182 45.75 22.5C45.75 21.9818 45.3302 21.5625 44.8125 21.5625H44.2632L46.4128 19.4128C46.7791 19.0466 46.7791 18.4534 46.4128 18.0872C46.0466 17.7209 45.4534 17.7209 45.0872 18.0872L38.25 24.9243V23.4375C38.25 17.7512 42.8762 13.125 48.5625 13.125Z" fill="url(#paint8_linear_4001_2564)"/>
<path d="M36.375 23.4375V25.3125C36.375 26.8634 37.6366 28.125 39.1875 28.125H41.0625C47.7829 28.125 53.25 22.6575 53.25 15.9375V14.0625C53.25 12.5116 51.9884 11.25 50.4375 11.25H48.5625C41.8421 11.25 36.375 16.7175 36.375 23.4375ZM48.5625 13.125H50.4375C50.9543 13.125 51.375 13.5452 51.375 14.0625V15.9375C51.375 21.6238 46.7488 26.25 41.0625 26.25H39.5757L42.3882 23.4375H44.8125C45.3302 23.4375 45.75 23.0182 45.75 22.5C45.75 21.9818 45.3302 21.5625 44.8125 21.5625H44.2632L46.4128 19.4128C46.7791 19.0466 46.7791 18.4534 46.4128 18.0872C46.0466 17.7209 45.4534 17.7209 45.0872 18.0872L38.25 24.9243V23.4375C38.25 17.7512 42.8762 13.125 48.5625 13.125Z" fill="url(#paint9_linear_4001_2564)"/>
<defs>
<linearGradient id="paint0_linear_4001_2564" x1="30.75" y1="0" x2="30.75" y2="60" gradientUnits="userSpaceOnUse">
<stop stop-color="#E32323"/>
<stop offset="1" stop-color="#C71616"/>
</linearGradient>
<linearGradient id="paint1_linear_4001_2564" x1="30.75" y1="0" x2="30.75" y2="60" gradientUnits="userSpaceOnUse">
<stop stop-color="#6D9BBA"/>
<stop offset="1" stop-color="#273048"/>
</linearGradient>
<linearGradient id="paint2_linear_4001_2564" x1="30.75" y1="0" x2="30.75" y2="60" gradientUnits="userSpaceOnUse">
<stop stop-color="#E32323"/>
<stop offset="1" stop-color="#C71616"/>
</linearGradient>
<linearGradient id="paint3_linear_4001_2564" x1="30.75" y1="0" x2="30.75" y2="60" gradientUnits="userSpaceOnUse">
<stop stop-color="#6D9BBA"/>
<stop offset="1" stop-color="#273048"/>
</linearGradient>
<linearGradient id="paint4_linear_4001_2564" x1="30.75" y1="0" x2="30.75" y2="60" gradientUnits="userSpaceOnUse">
<stop stop-color="#E32323"/>
<stop offset="1" stop-color="#C71616"/>
</linearGradient>
<linearGradient id="paint5_linear_4001_2564" x1="30.75" y1="0" x2="30.75" y2="60" gradientUnits="userSpaceOnUse">
<stop stop-color="#6D9BBA"/>
<stop offset="1" stop-color="#273048"/>
</linearGradient>
<linearGradient id="paint6_linear_4001_2564" x1="30.75" y1="0" x2="30.75" y2="60" gradientUnits="userSpaceOnUse">
<stop stop-color="#E32323"/>
<stop offset="1" stop-color="#C71616"/>
</linearGradient>
<linearGradient id="paint7_linear_4001_2564" x1="30.75" y1="0" x2="30.75" y2="60" gradientUnits="userSpaceOnUse">
<stop stop-color="#6D9BBA"/>
<stop offset="1" stop-color="#273048"/>
</linearGradient>
<linearGradient id="paint8_linear_4001_2564" x1="30.75" y1="0" x2="30.75" y2="60" gradientUnits="userSpaceOnUse">
<stop stop-color="#E32323"/>
<stop offset="1" stop-color="#C71616"/>
</linearGradient>
<linearGradient id="paint9_linear_4001_2564" x1="30.75" y1="0" x2="30.75" y2="60" gradientUnits="userSpaceOnUse">
<stop stop-color="#6D9BBA"/>
<stop offset="1" stop-color="#273048"/>
</linearGradient>
</defs>
</svg>
