<svg width="61" height="60" viewBox="0 0 61 60" fill="none" xmlns="http://www.w3.org/2000/svg">
<path d="M30.4999 60C28.9066 60 27.6104 58.7038 27.6104 57.1106L27.6103 52.8813L25.1783 55.2056C24.0266 56.3064 22.1939 56.265 21.093 55.1132C19.9921 53.9611 20.0336 52.1284 21.1856 51.0278L22.857 49.4303C23.2087 49.0943 23.7662 49.1068 24.1021 49.4585C24.4381 49.8101 24.4256 50.3674 24.074 50.7035L22.4026 52.301C21.9528 52.7307 21.9365 53.4464 22.3665 53.8963C22.7963 54.3461 23.5119 54.3625 23.9615 53.9324L27.8825 50.185C28.3818 49.6773 29.3723 50.0388 29.3716 50.8215L29.3718 57.1105C29.3718 57.7325 29.8778 58.2386 30.5 58.2386C31.1221 58.2386 31.6283 57.7324 31.6283 57.1103L31.628 50.8211C31.606 50.1095 32.5517 49.643 33.1171 50.1845L37.0385 53.9323C37.4229 54.3152 38.1983 54.37 38.6336 53.8961C39.0635 53.4463 39.0472 52.7307 38.5975 52.3009L31.9 45.9001C31.7262 45.7339 31.6279 45.5039 31.6279 45.2636L31.6278 40.1364C31.6278 39.8217 31.7956 39.5311 32.0681 39.3737L37.9142 35.9985C38.1847 35.8424 38.5174 35.8414 38.7887 35.995L43.2233 38.508C43.4325 38.6266 43.5841 38.8256 43.6429 39.0588L45.9093 48.0407C46.3709 49.5248 48.4012 48.878 48.0972 47.4885L46.7702 42.2298C46.5747 41.5453 47.3775 40.8618 48.0582 41.2481L53.5297 44.3488C53.9837 44.6329 54.7719 44.4773 55.0675 43.9234C55.3742 43.3822 55.1834 42.6923 54.6423 42.3858L49.1705 39.2849C48.5405 38.9532 48.6011 37.9003 49.3509 37.6754L54.5449 36.1119C55.1405 35.9326 55.4793 35.302 55.2999 34.7064C55.1451 34.1577 54.5134 33.772 53.8945 33.9512L45.0233 36.6219C44.7929 36.6912 44.5445 36.6632 44.3353 36.5448L39.8464 34.001C39.5705 33.8446 39.3999 33.552 39.3999 33.2348V26.7656C39.3999 26.4485 39.5705 26.1559 39.8464 25.9995L44.3354 23.4555C44.5447 23.3372 44.7934 23.3094 45.0234 23.3784L48.2423 24.3475C48.708 24.4877 48.9719 24.9788 48.8316 25.4446C48.6914 25.9103 48.2001 26.1739 47.7345 26.0339L44.8762 25.1734L41.1613 27.2787V32.7217L44.8761 34.8268L53.3866 32.2646C54.8191 31.7953 56.5707 32.6862 56.9864 34.1985C57.4457 35.724 56.5783 37.3389 55.0527 37.7984L51.8311 38.7682L55.5106 40.8534C56.8967 41.6388 57.3854 43.4057 56.5999 44.7919C55.8658 46.1299 54.0285 46.6823 52.6613 45.8812L48.9819 43.796L49.8049 47.0577C50.1945 48.6027 49.2548 50.1766 47.71 50.5663C46.2132 50.9711 44.5633 49.9936 44.2016 48.4717L42.0273 39.8549L38.3584 37.7757L33.3887 40.6448L33.3889 44.8871L39.8141 51.0279C40.9659 52.1285 41.0074 53.9612 39.9066 55.1132C38.8853 56.2245 36.9353 56.3175 35.8214 55.2059L33.389 52.8812L33.3891 57.1106C33.3894 58.7037 32.0932 60 30.4999 60ZM13.9981 50.6544C13.7606 50.6544 13.5222 50.6246 13.2898 50.5661C11.8105 50.2273 10.7814 48.576 11.195 47.0575L12.0181 43.7953L8.33867 45.8809C7.04937 46.6557 5.135 46.1687 4.40011 44.7919C3.62562 43.4982 4.10621 41.5932 5.48926 40.8533L9.16859 38.7679L5.94734 37.7981C4.42179 37.3388 3.55426 35.7239 4.01351 34.1985C4.47277 32.6732 6.08761 31.8056 7.61304 32.2643L16.123 34.8262L19.8377 32.7209V27.2789L16.123 25.1735L7.61328 27.7355C6.16285 28.2103 4.43586 27.2933 4.01351 25.8015C3.55437 24.2759 4.42191 22.6611 5.94734 22.2018L9.16871 21.232L5.48926 19.1466C2.12972 16.9811 5.11238 12.3841 8.33879 14.1192L12.0181 16.2047L11.195 12.9425C10.7913 11.49 11.76 9.78059 13.2897 9.43394C14.8354 9.04523 16.4088 9.98484 16.7983 11.5288L17.197 13.1088C17.3161 13.5804 17.0301 14.0591 16.5586 14.1782C16.0864 14.297 15.6082 14.0112 15.4892 13.5397L15.0904 11.9596C14.9384 11.3568 14.3237 10.9895 13.72 11.1418C13.1653 11.2713 12.7521 11.8857 12.9027 12.5116L14.2298 17.7711C14.4254 18.4556 13.6223 19.1394 12.9417 18.7527L7.47019 15.6514C6.13449 14.9609 5.10945 16.8498 6.35761 17.6145L11.829 20.7157C12.459 21.0473 12.3983 22.1002 11.6486 22.325L6.45511 23.8886C5.85945 24.0679 5.52066 24.6984 5.69996 25.2942C5.89121 25.8466 6.45945 26.237 7.10597 26.0491L15.9757 23.3788C16.2058 23.3094 16.4545 23.3374 16.6638 23.4559L21.1524 25.9999C21.4283 26.1562 21.5988 26.4489 21.5988 26.766V33.2343C21.5988 33.5514 21.4283 33.8441 21.1524 34.0003L16.6638 36.5443C16.4546 36.663 16.2059 36.6908 15.9757 36.6216L7.10551 33.9511C6.51008 33.7722 5.87926 34.1106 5.69996 34.7062C5.52066 35.3019 5.85945 35.9325 6.45511 36.1118L11.6486 37.6752C12.3363 37.8591 12.5103 38.8992 11.829 39.2845L6.35773 42.3857C5.08472 43.1692 6.1673 45.0321 7.47008 44.3487L12.9418 41.2474C13.2486 41.0739 13.6295 41.0995 13.9098 41.3133C14.1902 41.5269 14.3162 41.8873 14.2298 42.2291L12.9027 47.4885C12.601 48.9905 14.686 49.4275 15.0904 48.0406L17.3571 39.0577C17.4159 38.8246 17.5675 38.6256 17.7767 38.507L22.2096 35.9946C22.4812 35.8407 22.8138 35.842 23.0841 35.998L28.9309 39.3737C29.2033 39.531 29.3711 39.8217 29.3711 40.1364L29.3712 45.2641C29.3712 45.5046 29.2729 45.7346 29.099 45.9007L26.6207 48.2695C26.2692 48.6056 25.7117 48.593 25.3757 48.2413C25.0398 47.8897 25.0523 47.3323 25.404 46.9963L27.6102 44.8879L27.61 40.645L22.6399 37.7754L18.9728 39.8538L16.7982 48.4716C16.4739 49.7568 15.3226 50.6544 13.9981 50.6544ZM30.4993 37.5377C30.3472 37.5377 30.1952 37.4984 30.059 37.4197L24.2956 34.0922C24.0232 33.9349 23.8553 33.6442 23.8553 33.3295V26.6743C23.8553 26.3597 24.0233 26.0691 24.2956 25.9117L30.059 22.5841C30.3315 22.4269 30.6672 22.4269 30.9397 22.5841L36.7033 25.9117C36.9758 26.0689 37.1436 26.3597 37.1436 26.6743V33.3295C37.1436 33.6442 36.9758 33.9348 36.7033 34.0922L30.9397 37.4197C30.8034 37.4984 30.6514 37.5377 30.4993 37.5377ZM25.6166 32.8211L30.4993 35.6402L35.3823 32.8211V27.1828L30.4993 24.3636L25.6166 27.1828V32.8211ZM54.2204 27.8585C53.9388 27.8585 53.6584 27.8171 53.387 27.7356L51.1074 27.0493C50.6417 26.9091 50.3778 26.4179 50.5181 25.9522C50.6582 25.4864 51.1495 25.2229 51.6152 25.3629L53.8944 26.049C54.3833 26.2308 55.1573 25.8809 55.2999 25.2939C55.4793 24.6982 55.1405 24.0676 54.5449 23.8883L49.3509 22.3248C49.0133 22.2232 48.7688 21.93 48.7297 21.5796C48.6904 21.2293 48.8639 20.8893 49.1707 20.7154L54.6424 17.6145C55.1836 17.3079 55.3743 16.618 55.0677 16.0767C54.7611 15.5357 54.0711 15.3449 53.5297 15.6514L48.0584 18.7522C47.4504 19.1222 46.5781 18.5293 46.7704 17.7705L48.0975 12.5116C48.2496 11.9085 47.8827 11.2939 47.2795 11.1417C46.6766 10.9896 46.0617 11.3565 45.9095 11.9596L43.643 20.9414C43.5842 21.1745 43.4326 21.3736 43.2234 21.4922L38.7855 24.0073C38.5141 24.161 38.1814 24.1597 37.9111 24.0037L32.0681 20.6304C31.7956 20.4731 31.6278 20.1824 31.6278 19.8677L31.6279 14.7366C31.6279 14.4961 31.7262 14.2661 31.9 14.0999L38.5974 7.69898C39.645 6.61957 38.1296 5.09285 37.0386 6.06773L33.117 9.81551C32.6179 10.3232 31.6272 9.96164 31.6279 9.17883L31.6282 2.88961C31.6282 2.26746 31.122 1.76133 30.4999 1.76133C29.8777 1.76133 29.3717 2.26734 29.3717 2.88937L29.3715 9.17848C29.3935 9.89004 28.4479 10.3566 27.8824 9.81516L23.9614 6.06773C23.5795 5.68594 22.7995 5.62957 22.3662 6.10383C21.9849 6.48516 21.9281 7.26574 22.4023 7.69875L29.099 14.0991C29.2728 14.2652 29.3711 14.4953 29.3711 14.7356L29.371 19.8675C29.371 20.1821 29.2032 20.4728 28.9307 20.6302L23.0873 24.0039C22.817 24.1601 22.4844 24.1612 22.2127 24.0073L17.7767 21.4929C17.5675 21.3743 17.4159 21.1754 17.3571 20.9422L16.351 16.9554C16.2319 16.4838 16.5178 16.005 16.9895 15.8861C17.461 15.7669 17.9397 16.0529 18.0588 16.5245L18.9727 20.1464L22.643 22.2266L27.6098 19.359L27.6099 15.112L21.1855 8.97199C20.068 7.95246 19.9835 5.99883 21.0929 4.88684C22.1131 3.76992 24.0663 3.68273 25.1783 4.79449L27.6102 7.11867L27.6103 2.88926C27.6105 1.29621 28.9066 0 30.4999 0C32.0932 0 33.3894 1.29633 33.3894 2.88949L33.3893 7.11891L35.8215 4.79437C36.8898 3.72492 38.8463 3.72773 39.9068 4.88672C40.9768 5.95629 40.9733 7.91144 39.8142 8.97211L33.389 15.1129L33.3888 19.359L38.3552 22.2262L42.0274 20.1452L44.2017 11.5286C44.5916 9.98414 46.1654 9.04488 47.71 9.43383C49.2549 9.82359 50.1946 11.3974 49.8051 12.9423L48.982 16.2041L52.6614 14.1189C54.0477 13.3335 55.8145 13.8223 56.6 15.2082C57.3855 16.5945 56.8968 18.3612 55.5107 19.1467L51.8312 21.2319L55.0527 22.2018C56.5783 22.6612 57.4457 24.2762 56.9864 25.8016C56.6217 27.0127 55.4843 27.8585 54.2204 27.8585Z" fill="#808082"/>
<path d="M30.4999 60C28.9066 60 27.6104 58.7038 27.6104 57.1106L27.6103 52.8813L25.1783 55.2056C24.0266 56.3064 22.1939 56.265 21.093 55.1132C19.9921 53.9611 20.0336 52.1284 21.1856 51.0278L22.857 49.4303C23.2087 49.0943 23.7662 49.1068 24.1021 49.4585C24.4381 49.8101 24.4256 50.3674 24.074 50.7035L22.4026 52.301C21.9528 52.7307 21.9365 53.4464 22.3665 53.8963C22.7963 54.3461 23.5119 54.3625 23.9615 53.9324L27.8825 50.185C28.3818 49.6773 29.3723 50.0388 29.3716 50.8215L29.3718 57.1105C29.3718 57.7325 29.8778 58.2386 30.5 58.2386C31.1221 58.2386 31.6283 57.7324 31.6283 57.1103L31.628 50.8211C31.606 50.1095 32.5517 49.643 33.1171 50.1845L37.0385 53.9323C37.4229 54.3152 38.1983 54.37 38.6336 53.8961C39.0635 53.4463 39.0472 52.7307 38.5975 52.3009L31.9 45.9001C31.7262 45.7339 31.6279 45.5039 31.6279 45.2636L31.6278 40.1364C31.6278 39.8217 31.7956 39.5311 32.0681 39.3737L37.9142 35.9985C38.1847 35.8424 38.5174 35.8414 38.7887 35.995L43.2233 38.508C43.4325 38.6266 43.5841 38.8256 43.6429 39.0588L45.9093 48.0407C46.3709 49.5248 48.4012 48.878 48.0972 47.4885L46.7702 42.2298C46.5747 41.5453 47.3775 40.8618 48.0582 41.2481L53.5297 44.3488C53.9837 44.6329 54.7719 44.4773 55.0675 43.9234C55.3742 43.3822 55.1834 42.6923 54.6423 42.3858L49.1705 39.2849C48.5405 38.9532 48.6011 37.9003 49.3509 37.6754L54.5449 36.1119C55.1405 35.9326 55.4793 35.302 55.2999 34.7064C55.1451 34.1577 54.5134 33.772 53.8945 33.9512L45.0233 36.6219C44.7929 36.6912 44.5445 36.6632 44.3353 36.5448L39.8464 34.001C39.5705 33.8446 39.3999 33.552 39.3999 33.2348V26.7656C39.3999 26.4485 39.5705 26.1559 39.8464 25.9995L44.3354 23.4555C44.5447 23.3372 44.7934 23.3094 45.0234 23.3784L48.2423 24.3475C48.708 24.4877 48.9719 24.9788 48.8316 25.4446C48.6914 25.9103 48.2001 26.1739 47.7345 26.0339L44.8762 25.1734L41.1613 27.2787V32.7217L44.8761 34.8268L53.3866 32.2646C54.8191 31.7953 56.5707 32.6862 56.9864 34.1985C57.4457 35.724 56.5783 37.3389 55.0527 37.7984L51.8311 38.7682L55.5106 40.8534C56.8967 41.6388 57.3854 43.4057 56.5999 44.7919C55.8658 46.1299 54.0285 46.6823 52.6613 45.8812L48.9819 43.796L49.8049 47.0577C50.1945 48.6027 49.2548 50.1766 47.71 50.5663C46.2132 50.9711 44.5633 49.9936 44.2016 48.4717L42.0273 39.8549L38.3584 37.7757L33.3887 40.6448L33.3889 44.8871L39.8141 51.0279C40.9659 52.1285 41.0074 53.9612 39.9066 55.1132C38.8853 56.2245 36.9353 56.3175 35.8214 55.2059L33.389 52.8812L33.3891 57.1106C33.3894 58.7037 32.0932 60 30.4999 60ZM13.9981 50.6544C13.7606 50.6544 13.5222 50.6246 13.2898 50.5661C11.8105 50.2273 10.7814 48.576 11.195 47.0575L12.0181 43.7953L8.33867 45.8809C7.04937 46.6557 5.135 46.1687 4.40011 44.7919C3.62562 43.4982 4.10621 41.5932 5.48926 40.8533L9.16859 38.7679L5.94734 37.7981C4.42179 37.3388 3.55426 35.7239 4.01351 34.1985C4.47277 32.6732 6.08761 31.8056 7.61304 32.2643L16.123 34.8262L19.8377 32.7209V27.2789L16.123 25.1735L7.61328 27.7355C6.16285 28.2103 4.43586 27.2933 4.01351 25.8015C3.55437 24.2759 4.42191 22.6611 5.94734 22.2018L9.16871 21.232L5.48926 19.1466C2.12972 16.9811 5.11238 12.3841 8.33879 14.1192L12.0181 16.2047L11.195 12.9425C10.7913 11.49 11.76 9.78059 13.2897 9.43394C14.8354 9.04523 16.4088 9.98484 16.7983 11.5288L17.197 13.1088C17.3161 13.5804 17.0301 14.0591 16.5586 14.1782C16.0864 14.297 15.6082 14.0112 15.4892 13.5397L15.0904 11.9596C14.9384 11.3568 14.3237 10.9895 13.72 11.1418C13.1653 11.2713 12.7521 11.8857 12.9027 12.5116L14.2298 17.7711C14.4254 18.4556 13.6223 19.1394 12.9417 18.7527L7.47019 15.6514C6.13449 14.9609 5.10945 16.8498 6.35761 17.6145L11.829 20.7157C12.459 21.0473 12.3983 22.1002 11.6486 22.325L6.45511 23.8886C5.85945 24.0679 5.52066 24.6984 5.69996 25.2942C5.89121 25.8466 6.45945 26.237 7.10597 26.0491L15.9757 23.3788C16.2058 23.3094 16.4545 23.3374 16.6638 23.4559L21.1524 25.9999C21.4283 26.1562 21.5988 26.4489 21.5988 26.766V33.2343C21.5988 33.5514 21.4283 33.8441 21.1524 34.0003L16.6638 36.5443C16.4546 36.663 16.2059 36.6908 15.9757 36.6216L7.10551 33.9511C6.51008 33.7722 5.87926 34.1106 5.69996 34.7062C5.52066 35.3019 5.85945 35.9325 6.45511 36.1118L11.6486 37.6752C12.3363 37.8591 12.5103 38.8992 11.829 39.2845L6.35773 42.3857C5.08472 43.1692 6.1673 45.0321 7.47008 44.3487L12.9418 41.2474C13.2486 41.0739 13.6295 41.0995 13.9098 41.3133C14.1902 41.5269 14.3162 41.8873 14.2298 42.2291L12.9027 47.4885C12.601 48.9905 14.686 49.4275 15.0904 48.0406L17.3571 39.0577C17.4159 38.8246 17.5675 38.6256 17.7767 38.507L22.2096 35.9946C22.4812 35.8407 22.8138 35.842 23.0841 35.998L28.9309 39.3737C29.2033 39.531 29.3711 39.8217 29.3711 40.1364L29.3712 45.2641C29.3712 45.5046 29.2729 45.7346 29.099 45.9007L26.6207 48.2695C26.2692 48.6056 25.7117 48.593 25.3757 48.2413C25.0398 47.8897 25.0523 47.3323 25.404 46.9963L27.6102 44.8879L27.61 40.645L22.6399 37.7754L18.9728 39.8538L16.7982 48.4716C16.4739 49.7568 15.3226 50.6544 13.9981 50.6544ZM30.4993 37.5377C30.3472 37.5377 30.1952 37.4984 30.059 37.4197L24.2956 34.0922C24.0232 33.9349 23.8553 33.6442 23.8553 33.3295V26.6743C23.8553 26.3597 24.0233 26.0691 24.2956 25.9117L30.059 22.5841C30.3315 22.4269 30.6672 22.4269 30.9397 22.5841L36.7033 25.9117C36.9758 26.0689 37.1436 26.3597 37.1436 26.6743V33.3295C37.1436 33.6442 36.9758 33.9348 36.7033 34.0922L30.9397 37.4197C30.8034 37.4984 30.6514 37.5377 30.4993 37.5377ZM25.6166 32.8211L30.4993 35.6402L35.3823 32.8211V27.1828L30.4993 24.3636L25.6166 27.1828V32.8211ZM54.2204 27.8585C53.9388 27.8585 53.6584 27.8171 53.387 27.7356L51.1074 27.0493C50.6417 26.9091 50.3778 26.4179 50.5181 25.9522C50.6582 25.4864 51.1495 25.2229 51.6152 25.3629L53.8944 26.049C54.3833 26.2308 55.1573 25.8809 55.2999 25.2939C55.4793 24.6982 55.1405 24.0676 54.5449 23.8883L49.3509 22.3248C49.0133 22.2232 48.7688 21.93 48.7297 21.5796C48.6904 21.2293 48.8639 20.8893 49.1707 20.7154L54.6424 17.6145C55.1836 17.3079 55.3743 16.618 55.0677 16.0767C54.7611 15.5357 54.0711 15.3449 53.5297 15.6514L48.0584 18.7522C47.4504 19.1222 46.5781 18.5293 46.7704 17.7705L48.0975 12.5116C48.2496 11.9085 47.8827 11.2939 47.2795 11.1417C46.6766 10.9896 46.0617 11.3565 45.9095 11.9596L43.643 20.9414C43.5842 21.1745 43.4326 21.3736 43.2234 21.4922L38.7855 24.0073C38.5141 24.161 38.1814 24.1597 37.9111 24.0037L32.0681 20.6304C31.7956 20.4731 31.6278 20.1824 31.6278 19.8677L31.6279 14.7366C31.6279 14.4961 31.7262 14.2661 31.9 14.0999L38.5974 7.69898C39.645 6.61957 38.1296 5.09285 37.0386 6.06773L33.117 9.81551C32.6179 10.3232 31.6272 9.96164 31.6279 9.17883L31.6282 2.88961C31.6282 2.26746 31.122 1.76133 30.4999 1.76133C29.8777 1.76133 29.3717 2.26734 29.3717 2.88937L29.3715 9.17848C29.3935 9.89004 28.4479 10.3566 27.8824 9.81516L23.9614 6.06773C23.5795 5.68594 22.7995 5.62957 22.3662 6.10383C21.9849 6.48516 21.9281 7.26574 22.4023 7.69875L29.099 14.0991C29.2728 14.2652 29.3711 14.4953 29.3711 14.7356L29.371 19.8675C29.371 20.1821 29.2032 20.4728 28.9307 20.6302L23.0873 24.0039C22.817 24.1601 22.4844 24.1612 22.2127 24.0073L17.7767 21.4929C17.5675 21.3743 17.4159 21.1754 17.3571 20.9422L16.351 16.9554C16.2319 16.4838 16.5178 16.005 16.9895 15.8861C17.461 15.7669 17.9397 16.0529 18.0588 16.5245L18.9727 20.1464L22.643 22.2266L27.6098 19.359L27.6099 15.112L21.1855 8.97199C20.068 7.95246 19.9835 5.99883 21.0929 4.88684C22.1131 3.76992 24.0663 3.68273 25.1783 4.79449L27.6102 7.11867L27.6103 2.88926C27.6105 1.29621 28.9066 0 30.4999 0C32.0932 0 33.3894 1.29633 33.3894 2.88949L33.3893 7.11891L35.8215 4.79437C36.8898 3.72492 38.8463 3.72773 39.9068 4.88672C40.9768 5.95629 40.9733 7.91144 39.8142 8.97211L33.389 15.1129L33.3888 19.359L38.3552 22.2262L42.0274 20.1452L44.2017 11.5286C44.5916 9.98414 46.1654 9.04488 47.71 9.43383C49.2549 9.82359 50.1946 11.3974 49.8051 12.9423L48.982 16.2041L52.6614 14.1189C54.0477 13.3335 55.8145 13.8223 56.6 15.2082C57.3855 16.5945 56.8968 18.3612 55.5107 19.1467L51.8312 21.2319L55.0527 22.2018C56.5783 22.6612 57.4457 24.2762 56.9864 25.8016C56.6217 27.0127 55.4843 27.8585 54.2204 27.8585Z" fill="url(#paint0_linear_4001_3741)"/>
<path d="M30.4999 60C28.9066 60 27.6104 58.7038 27.6104 57.1106L27.6103 52.8813L25.1783 55.2056C24.0266 56.3064 22.1939 56.265 21.093 55.1132C19.9921 53.9611 20.0336 52.1284 21.1856 51.0278L22.857 49.4303C23.2087 49.0943 23.7662 49.1068 24.1021 49.4585C24.4381 49.8101 24.4256 50.3674 24.074 50.7035L22.4026 52.301C21.9528 52.7307 21.9365 53.4464 22.3665 53.8963C22.7963 54.3461 23.5119 54.3625 23.9615 53.9324L27.8825 50.185C28.3818 49.6773 29.3723 50.0388 29.3716 50.8215L29.3718 57.1105C29.3718 57.7325 29.8778 58.2386 30.5 58.2386C31.1221 58.2386 31.6283 57.7324 31.6283 57.1103L31.628 50.8211C31.606 50.1095 32.5517 49.643 33.1171 50.1845L37.0385 53.9323C37.4229 54.3152 38.1983 54.37 38.6336 53.8961C39.0635 53.4463 39.0472 52.7307 38.5975 52.3009L31.9 45.9001C31.7262 45.7339 31.6279 45.5039 31.6279 45.2636L31.6278 40.1364C31.6278 39.8217 31.7956 39.5311 32.0681 39.3737L37.9142 35.9985C38.1847 35.8424 38.5174 35.8414 38.7887 35.995L43.2233 38.508C43.4325 38.6266 43.5841 38.8256 43.6429 39.0588L45.9093 48.0407C46.3709 49.5248 48.4012 48.878 48.0972 47.4885L46.7702 42.2298C46.5747 41.5453 47.3775 40.8618 48.0582 41.2481L53.5297 44.3488C53.9837 44.6329 54.7719 44.4773 55.0675 43.9234C55.3742 43.3822 55.1834 42.6923 54.6423 42.3858L49.1705 39.2849C48.5405 38.9532 48.6011 37.9003 49.3509 37.6754L54.5449 36.1119C55.1405 35.9326 55.4793 35.302 55.2999 34.7064C55.1451 34.1577 54.5134 33.772 53.8945 33.9512L45.0233 36.6219C44.7929 36.6912 44.5445 36.6632 44.3353 36.5448L39.8464 34.001C39.5705 33.8446 39.3999 33.552 39.3999 33.2348V26.7656C39.3999 26.4485 39.5705 26.1559 39.8464 25.9995L44.3354 23.4555C44.5447 23.3372 44.7934 23.3094 45.0234 23.3784L48.2423 24.3475C48.708 24.4877 48.9719 24.9788 48.8316 25.4446C48.6914 25.9103 48.2001 26.1739 47.7345 26.0339L44.8762 25.1734L41.1613 27.2787V32.7217L44.8761 34.8268L53.3866 32.2646C54.8191 31.7953 56.5707 32.6862 56.9864 34.1985C57.4457 35.724 56.5783 37.3389 55.0527 37.7984L51.8311 38.7682L55.5106 40.8534C56.8967 41.6388 57.3854 43.4057 56.5999 44.7919C55.8658 46.1299 54.0285 46.6823 52.6613 45.8812L48.9819 43.796L49.8049 47.0577C50.1945 48.6027 49.2548 50.1766 47.71 50.5663C46.2132 50.9711 44.5633 49.9936 44.2016 48.4717L42.0273 39.8549L38.3584 37.7757L33.3887 40.6448L33.3889 44.8871L39.8141 51.0279C40.9659 52.1285 41.0074 53.9612 39.9066 55.1132C38.8853 56.2245 36.9353 56.3175 35.8214 55.2059L33.389 52.8812L33.3891 57.1106C33.3894 58.7037 32.0932 60 30.4999 60ZM13.9981 50.6544C13.7606 50.6544 13.5222 50.6246 13.2898 50.5661C11.8105 50.2273 10.7814 48.576 11.195 47.0575L12.0181 43.7953L8.33867 45.8809C7.04937 46.6557 5.135 46.1687 4.40011 44.7919C3.62562 43.4982 4.10621 41.5932 5.48926 40.8533L9.16859 38.7679L5.94734 37.7981C4.42179 37.3388 3.55426 35.7239 4.01351 34.1985C4.47277 32.6732 6.08761 31.8056 7.61304 32.2643L16.123 34.8262L19.8377 32.7209V27.2789L16.123 25.1735L7.61328 27.7355C6.16285 28.2103 4.43586 27.2933 4.01351 25.8015C3.55437 24.2759 4.42191 22.6611 5.94734 22.2018L9.16871 21.232L5.48926 19.1466C2.12972 16.9811 5.11238 12.3841 8.33879 14.1192L12.0181 16.2047L11.195 12.9425C10.7913 11.49 11.76 9.78059 13.2897 9.43394C14.8354 9.04523 16.4088 9.98484 16.7983 11.5288L17.197 13.1088C17.3161 13.5804 17.0301 14.0591 16.5586 14.1782C16.0864 14.297 15.6082 14.0112 15.4892 13.5397L15.0904 11.9596C14.9384 11.3568 14.3237 10.9895 13.72 11.1418C13.1653 11.2713 12.7521 11.8857 12.9027 12.5116L14.2298 17.7711C14.4254 18.4556 13.6223 19.1394 12.9417 18.7527L7.47019 15.6514C6.13449 14.9609 5.10945 16.8498 6.35761 17.6145L11.829 20.7157C12.459 21.0473 12.3983 22.1002 11.6486 22.325L6.45511 23.8886C5.85945 24.0679 5.52066 24.6984 5.69996 25.2942C5.89121 25.8466 6.45945 26.237 7.10597 26.0491L15.9757 23.3788C16.2058 23.3094 16.4545 23.3374 16.6638 23.4559L21.1524 25.9999C21.4283 26.1562 21.5988 26.4489 21.5988 26.766V33.2343C21.5988 33.5514 21.4283 33.8441 21.1524 34.0003L16.6638 36.5443C16.4546 36.663 16.2059 36.6908 15.9757 36.6216L7.10551 33.9511C6.51008 33.7722 5.87926 34.1106 5.69996 34.7062C5.52066 35.3019 5.85945 35.9325 6.45511 36.1118L11.6486 37.6752C12.3363 37.8591 12.5103 38.8992 11.829 39.2845L6.35773 42.3857C5.08472 43.1692 6.1673 45.0321 7.47008 44.3487L12.9418 41.2474C13.2486 41.0739 13.6295 41.0995 13.9098 41.3133C14.1902 41.5269 14.3162 41.8873 14.2298 42.2291L12.9027 47.4885C12.601 48.9905 14.686 49.4275 15.0904 48.0406L17.3571 39.0577C17.4159 38.8246 17.5675 38.6256 17.7767 38.507L22.2096 35.9946C22.4812 35.8407 22.8138 35.842 23.0841 35.998L28.9309 39.3737C29.2033 39.531 29.3711 39.8217 29.3711 40.1364L29.3712 45.2641C29.3712 45.5046 29.2729 45.7346 29.099 45.9007L26.6207 48.2695C26.2692 48.6056 25.7117 48.593 25.3757 48.2413C25.0398 47.8897 25.0523 47.3323 25.404 46.9963L27.6102 44.8879L27.61 40.645L22.6399 37.7754L18.9728 39.8538L16.7982 48.4716C16.4739 49.7568 15.3226 50.6544 13.9981 50.6544ZM30.4993 37.5377C30.3472 37.5377 30.1952 37.4984 30.059 37.4197L24.2956 34.0922C24.0232 33.9349 23.8553 33.6442 23.8553 33.3295V26.6743C23.8553 26.3597 24.0233 26.0691 24.2956 25.9117L30.059 22.5841C30.3315 22.4269 30.6672 22.4269 30.9397 22.5841L36.7033 25.9117C36.9758 26.0689 37.1436 26.3597 37.1436 26.6743V33.3295C37.1436 33.6442 36.9758 33.9348 36.7033 34.0922L30.9397 37.4197C30.8034 37.4984 30.6514 37.5377 30.4993 37.5377ZM25.6166 32.8211L30.4993 35.6402L35.3823 32.8211V27.1828L30.4993 24.3636L25.6166 27.1828V32.8211ZM54.2204 27.8585C53.9388 27.8585 53.6584 27.8171 53.387 27.7356L51.1074 27.0493C50.6417 26.9091 50.3778 26.4179 50.5181 25.9522C50.6582 25.4864 51.1495 25.2229 51.6152 25.3629L53.8944 26.049C54.3833 26.2308 55.1573 25.8809 55.2999 25.2939C55.4793 24.6982 55.1405 24.0676 54.5449 23.8883L49.3509 22.3248C49.0133 22.2232 48.7688 21.93 48.7297 21.5796C48.6904 21.2293 48.8639 20.8893 49.1707 20.7154L54.6424 17.6145C55.1836 17.3079 55.3743 16.618 55.0677 16.0767C54.7611 15.5357 54.0711 15.3449 53.5297 15.6514L48.0584 18.7522C47.4504 19.1222 46.5781 18.5293 46.7704 17.7705L48.0975 12.5116C48.2496 11.9085 47.8827 11.2939 47.2795 11.1417C46.6766 10.9896 46.0617 11.3565 45.9095 11.9596L43.643 20.9414C43.5842 21.1745 43.4326 21.3736 43.2234 21.4922L38.7855 24.0073C38.5141 24.161 38.1814 24.1597 37.9111 24.0037L32.0681 20.6304C31.7956 20.4731 31.6278 20.1824 31.6278 19.8677L31.6279 14.7366C31.6279 14.4961 31.7262 14.2661 31.9 14.0999L38.5974 7.69898C39.645 6.61957 38.1296 5.09285 37.0386 6.06773L33.117 9.81551C32.6179 10.3232 31.6272 9.96164 31.6279 9.17883L31.6282 2.88961C31.6282 2.26746 31.122 1.76133 30.4999 1.76133C29.8777 1.76133 29.3717 2.26734 29.3717 2.88937L29.3715 9.17848C29.3935 9.89004 28.4479 10.3566 27.8824 9.81516L23.9614 6.06773C23.5795 5.68594 22.7995 5.62957 22.3662 6.10383C21.9849 6.48516 21.9281 7.26574 22.4023 7.69875L29.099 14.0991C29.2728 14.2652 29.3711 14.4953 29.3711 14.7356L29.371 19.8675C29.371 20.1821 29.2032 20.4728 28.9307 20.6302L23.0873 24.0039C22.817 24.1601 22.4844 24.1612 22.2127 24.0073L17.7767 21.4929C17.5675 21.3743 17.4159 21.1754 17.3571 20.9422L16.351 16.9554C16.2319 16.4838 16.5178 16.005 16.9895 15.8861C17.461 15.7669 17.9397 16.0529 18.0588 16.5245L18.9727 20.1464L22.643 22.2266L27.6098 19.359L27.6099 15.112L21.1855 8.97199C20.068 7.95246 19.9835 5.99883 21.0929 4.88684C22.1131 3.76992 24.0663 3.68273 25.1783 4.79449L27.6102 7.11867L27.6103 2.88926C27.6105 1.29621 28.9066 0 30.4999 0C32.0932 0 33.3894 1.29633 33.3894 2.88949L33.3893 7.11891L35.8215 4.79437C36.8898 3.72492 38.8463 3.72773 39.9068 4.88672C40.9768 5.95629 40.9733 7.91144 39.8142 8.97211L33.389 15.1129L33.3888 19.359L38.3552 22.2262L42.0274 20.1452L44.2017 11.5286C44.5916 9.98414 46.1654 9.04488 47.71 9.43383C49.2549 9.82359 50.1946 11.3974 49.8051 12.9423L48.982 16.2041L52.6614 14.1189C54.0477 13.3335 55.8145 13.8223 56.6 15.2082C57.3855 16.5945 56.8968 18.3612 55.5107 19.1467L51.8312 21.2319L55.0527 22.2018C56.5783 22.6612 57.4457 24.2762 56.9864 25.8016C56.6217 27.0127 55.4843 27.8585 54.2204 27.8585Z" fill="url(#paint1_linear_4001_3741)"/>
<defs>
<linearGradient id="paint0_linear_4001_3741" x1="30.5" y1="0" x2="30.5" y2="60" gradientUnits="userSpaceOnUse">
<stop stop-color="#E32323"/>
<stop offset="1" stop-color="#C71616"/>
</linearGradient>
<linearGradient id="paint1_linear_4001_3741" x1="30.5" y1="0" x2="30.5" y2="60" gradientUnits="userSpaceOnUse">
<stop stop-color="#6D9BBA"/>
<stop offset="1" stop-color="#273048"/>
</linearGradient>
</defs>
</svg>
